<svg width="88" height="456" viewBox="0 0 88 456" fill="none" xmlns="http://www.w3.org/2000/svg">
<rect width="88" height="456" fill="#F5F5F5"/>
<g filter="url(#filter0_d_0_1)">
<rect x="86.1729" y="455.615" width="86" height="456" rx="4" transform="rotate(-179.774 86.1729 455.615)" fill="#2B1F21"/>
</g>
<g filter="url(#filter1_d_0_1)">
<path d="M29.1588 53.1174C31.2595 47.8823 33.9168 44.3394 37.1308 42.4888C41.8974 42.5075 47.0918 43.9364 52.714 46.7752C58.3362 49.614 62.0504 52.792 63.8565 56.3092C63.8507 57.7825 63.7575 59.4288 63.577 61.2481C63.8181 66.0591 64.3218 70.1778 65.0884 73.6042L65.4714 75.3607C59.7583 73.6048 53.6755 72.1942 47.223 71.1287C48.928 67.3221 51.2593 64.0379 54.2169 61.2762C49.3334 57.9203 43.968 55.8841 38.1208 55.1678L42.6676 72.4758C41.801 72.4724 40.611 72.0344 39.0978 71.1617C37.6277 70.3326 36.3317 69.3091 35.2098 68.0914C34.1313 66.8738 32.9906 64.9409 31.7877 62.2928C30.6279 59.6883 29.7516 56.6298 29.1588 53.1174ZM31.5936 95.0528C31.6071 91.6195 32.7656 89.474 35.069 88.6165C34.0064 87.5789 33.1953 86.159 32.6357 84.3568C32.076 82.5879 31.799 80.9868 31.8046 79.5535C31.8141 77.1535 31.9209 75.4373 32.1249 74.4047L32.2271 73.8551C32.6606 73.8235 33.1106 73.8086 33.5773 73.8105C34.0773 73.8124 34.7106 73.8149 35.4773 73.8179C36.2438 73.8543 38.4593 74.163 42.1237 74.7441C45.7881 75.3253 49.5347 76.19 53.3635 77.3385C54.058 78.7412 54.7175 80.5772 55.3419 82.8463C55.9662 85.1155 56.2916 87.1334 56.318 88.9002C55.6861 88.531 54.8046 88.0609 53.6735 87.4898C52.5424 86.9186 50.3457 86.0766 47.0834 84.9638C43.821 83.8842 40.7071 83.1886 37.7416 82.8769L39.5215 87.984C42.3213 88.0284 44.8537 88.2717 47.1187 88.7139C49.4169 89.1563 50.9986 89.5792 51.8637 89.9827L53.1611 90.6378C52.1512 93.1671 51.6389 96.2818 51.6243 99.9818C47.6301 98.4994 44.0675 97.452 40.9366 96.8396C37.839 96.2274 35.8902 95.9197 35.0902 95.9166C34.3235 95.9136 33.8569 95.9117 33.6902 95.9111L31.6896 96.0532C31.624 95.7863 31.592 95.4528 31.5936 95.0528ZM32.5273 99.1737C42.5842 101.68 48.0626 102.935 48.9626 102.939C50.8293 102.946 52.3629 102.885 53.5634 102.757L54.1638 102.659C54.3626 102.96 54.6274 103.428 54.9582 104.062C55.2889 104.73 55.7662 106.282 56.3899 108.718C57.0135 111.187 57.4361 113.922 57.6576 116.923C53.0001 114.571 46.9427 112.214 39.4853 109.851C39.4794 111.351 39.6075 112.685 39.8695 113.853C40.1649 115.021 40.4451 115.822 40.7101 116.256L41.1575 116.908L30.9155 114.867C31.6985 110.704 32.1993 106.289 32.4177 101.623L32.5273 99.1737ZM56.4956 119.964C55.5156 123.327 55.0169 127.242 54.9993 131.708C54.9873 134.742 55.1594 137.592 55.5156 140.26C53.6866 139.153 50.6059 138.474 46.2735 138.224L46.098 132.023C40.8352 131.036 35.4211 130.364 29.8558 130.009C30.404 126.245 31.0814 123.514 31.8881 121.817L32.3416 120.919L45.9273 124.572L45.7575 116.922C46.7875 117.759 48.1849 118.431 49.9496 118.938C51.7476 119.445 53.2965 119.735 54.5962 119.807L56.4956 119.964ZM28.9585 154.7C30.8975 149.867 33.3504 146.597 36.3172 144.889C40.7172 144.906 45.512 146.225 50.7017 148.845C55.8914 151.466 59.3199 154.399 60.9871 157.646C60.9817 159.006 60.8957 160.526 60.7291 162.205C60.9516 166.646 61.4166 170.448 62.1242 173.61L62.4778 175.232C57.2041 173.611 51.5892 172.309 45.6331 171.325C47.2069 167.812 49.3589 164.78 52.089 162.231C47.5811 159.133 42.6285 157.253 37.2311 156.592L41.4281 172.569C40.6281 172.566 39.5297 172.161 38.1329 171.356C36.7759 170.591 35.5796 169.646 34.544 168.522C33.5485 167.398 32.4955 165.614 31.3851 163.169C30.3146 160.765 29.5057 157.942 28.9585 154.7ZM32.2363 173.021C42.2931 175.527 47.7716 176.782 48.6716 176.786C50.5382 176.793 52.0718 176.732 53.2723 176.604L53.8727 176.506C54.0715 176.807 54.3364 177.275 54.6672 177.909C54.9979 178.577 55.4751 180.129 56.0988 182.565C56.7225 185.034 57.145 187.769 57.3665 190.77C52.7091 188.418 46.6517 186.061 39.1943 183.698C39.1883 185.198 39.3164 186.532 39.5785 187.7C39.8739 188.868 40.1541 189.669 40.419 190.103L40.8665 190.755L30.6244 188.715C31.4075 184.551 31.9082 180.136 32.1266 175.47L32.2363 173.021ZM57.0727 214.577C55.273 214.503 53.2231 214.462 50.9231 214.453C48.6232 214.444 45.9394 214.55 42.8718 214.771C39.8375 215.026 37.7196 215.334 36.5181 215.696L34.766 216.239C33.0081 213.999 31.1037 210.875 29.0529 206.867C30.2527 206.905 31.436 206.926 32.6026 206.931C33.7693 206.935 34.9027 206.923 36.0028 206.894C35.7747 205.56 35.6632 204.259 35.6682 202.993C35.673 201.759 35.6937 200.743 35.7302 199.943C34.3987 199.471 32.368 198.813 29.6379 197.969C30.2427 196.771 31.1645 195.458 32.4035 194.03C33.6758 192.601 34.9302 191.49 36.1667 190.695C37.1959 191.732 38.6588 192.688 40.5554 193.562C44.5147 195.444 49.2079 197.163 54.6352 198.717C55.1401 205.92 55.9526 211.206 57.0727 214.577ZM49.3068 205.897C47.4119 204.622 44.1013 203.076 39.3751 201.257C39.339 201.957 39.3151 203.79 39.3034 206.757C42.7708 206.571 45.7051 206.332 48.1063 206.042L49.3068 205.897ZM39.7186 240.946C37.2853 240.937 35.1748 239.378 33.387 236.271C31.6326 233.164 30.4186 228.243 29.7452 221.507C29.9128 221.274 30.3142 220.909 30.9495 220.411C31.5848 219.914 32.2032 219.483 32.8046 219.119C34.4084 218.158 36.2779 217.449 38.413 216.991L37.6945 221.688C37.5218 223.221 37.4332 224.57 37.4286 225.737C37.414 229.437 38.2233 231.29 39.8567 231.297C40.2745 226.765 40.9039 223.551 41.7447 221.654C42.6188 219.757 44.1392 218.813 46.3059 218.822C49.4725 218.834 51.9984 220.728 53.8836 224.502C55.7687 228.276 56.6986 233.38 56.6732 239.813L46.0172 241.321C47.0309 237.858 47.6328 233.127 47.8232 227.128C46.8204 227.824 46.0325 228.988 45.4594 230.619C44.8863 232.25 44.4968 233.798 44.2911 235.264C44.0852 236.763 43.6133 238.078 42.8755 239.209C42.1376 240.372 41.0853 240.951 39.7186 240.946ZM39.622 265.458C37.1887 265.448 35.0782 263.89 33.2904 260.783C31.536 257.676 30.322 252.754 29.6486 246.018C29.8162 245.786 30.2176 245.42 30.8529 244.923C31.4882 244.425 32.1066 243.995 32.708 243.63C34.3118 242.67 36.1813 241.961 38.3164 241.502L37.5979 246.2C37.4252 247.732 37.3366 249.082 37.332 250.248C37.3174 253.948 38.1267 255.802 39.7601 255.808C40.1779 251.276 40.8073 248.062 41.6481 246.165C42.5222 244.269 44.0426 243.325 46.2093 243.333C49.3759 243.346 51.9018 245.239 53.7869 249.013C55.6721 252.787 56.602 257.891 56.5766 264.324L45.9206 265.832C46.9343 262.37 47.5362 257.639 47.7266 251.639C46.7238 252.336 45.9359 253.499 45.3628 255.13C44.7897 256.761 44.4002 258.31 44.1945 259.776C43.9885 261.275 43.5167 262.59 42.7789 263.72C42.041 264.884 40.9887 265.463 39.622 265.458ZM56.7521 270.537C56.1098 272.834 55.5809 275.932 55.1655 279.831C49.6048 278.309 44.6094 277.122 40.1794 276.272C35.7827 275.421 32.7513 274.942 31.085 274.836L28.6356 274.676C29.4123 272.146 30.9051 269.735 33.1142 267.444C36.9133 267.659 40.7786 268.024 44.7099 268.539C48.6746 269.055 51.6728 269.517 53.7045 269.925L56.7521 270.537ZM28.8373 286.927C30.4532 282.9 32.4973 280.175 34.9696 278.751C38.6362 278.766 42.6319 279.865 46.9567 282.048C51.2815 284.232 54.1385 286.677 55.5279 289.382C55.5234 290.516 55.4517 291.782 55.3129 293.181C55.4983 296.882 55.8858 300.05 56.4754 302.686L56.7701 304.037C52.3754 302.687 47.6963 301.601 42.7328 300.782C44.0444 297.854 45.8377 295.327 48.1127 293.203C44.3562 290.622 40.229 289.055 35.7312 288.504L39.2287 301.818C38.5621 301.815 37.6467 301.479 36.4827 300.807C35.3519 300.169 34.355 299.382 33.492 298.445C32.6623 297.509 31.7848 296.022 30.8595 293.985C29.9674 291.982 29.2934 289.629 28.8373 286.927ZM39.3815 326.492C36.9482 326.483 34.8376 324.924 33.0499 321.817C31.2954 318.71 30.0815 313.789 29.408 307.053C29.5756 306.82 29.977 306.455 30.6123 305.958C31.2476 305.46 31.866 305.029 32.4675 304.665C34.0712 303.705 35.9407 302.995 38.0759 302.537L37.3574 307.234C37.1847 308.767 37.096 310.117 37.0914 311.283C37.0768 314.983 37.8862 316.836 39.5195 316.843C39.9374 312.311 40.5667 309.097 41.4075 307.2C42.2817 305.304 43.8021 304.36 45.9687 304.368C49.1354 304.381 51.6613 306.274 53.5464 310.048C55.4315 313.822 56.3614 318.926 56.3361 325.359L45.6801 326.867C46.6937 323.404 47.2957 318.673 47.486 312.674C46.4833 313.37 45.6953 314.534 45.1222 316.165C44.5491 317.796 44.1597 319.344 43.9539 320.81C43.748 322.309 43.2761 323.624 42.5384 324.755C41.8004 325.919 40.7481 326.498 39.3815 326.492Z" fill="#F2F2F2"/>
</g>
<path d="M23.7294 385.541L21.7782 385.858L28.2367 402.734L30.1367 402.742L36.5036 385.767L34.5787 385.759L29.1969 400.138L23.7294 385.541ZM50.9459 402.824L51.0129 385.824L49.0379 385.816L49.0078 393.466L41.0078 393.434L41.0385 385.659L39.088 385.777L39.021 402.777L40.971 402.784L41.0016 395.009L49.0016 395.041L48.9709 402.816L50.9459 402.824ZM54.6263 402.013C54.859 402.164 55.1584 402.315 55.5245 402.467C55.8906 402.601 56.2985 402.72 56.7481 402.821C57.1977 402.923 57.639 403.008 58.0721 403.077C58.5218 403.145 58.9217 403.18 59.2717 403.181C60.555 403.186 61.6391 402.999 62.5239 402.619C63.4254 402.239 64.1108 401.717 64.5801 401.052C65.0661 400.388 65.3108 399.622 65.3142 398.755C65.3166 398.138 65.2188 397.596 65.0206 397.129C64.8225 396.645 64.5326 396.21 64.1507 395.826C63.7689 395.441 63.3037 395.081 62.755 394.745C62.2063 394.41 61.5659 394.082 60.8338 393.762C59.8524 393.275 59.0208 392.847 58.3389 392.478C57.6571 392.092 57.142 391.681 56.7937 391.247C56.4621 390.812 56.2975 390.295 56.2998 389.695C56.303 388.895 56.6388 388.271 57.3072 387.824C57.9923 387.376 58.8682 387.155 59.9349 387.159C60.5015 387.161 60.993 387.213 61.4093 387.315C61.8423 387.4 62.2252 387.51 62.558 387.644C62.9074 387.779 63.2236 387.913 63.5064 388.048L64.1874 386.526C63.6551 386.257 63.0061 386.013 62.2403 385.793C61.4745 385.573 60.6749 385.462 59.8416 385.458C58.7249 385.454 57.7575 385.642 56.9393 386.022C56.1378 386.402 55.5108 386.908 55.0583 387.54C54.6225 388.171 54.403 388.895 54.3998 389.712C54.3975 390.295 54.487 390.829 54.6684 391.313C54.8665 391.797 55.1481 392.248 55.5131 392.666C55.8949 393.068 56.3601 393.445 56.9087 393.797C57.474 394.133 58.1227 394.468 58.8547 394.805C59.8365 395.209 60.6599 395.603 61.3251 395.989C61.9903 396.359 62.4887 396.761 62.8203 397.195C63.1686 397.63 63.3415 398.156 63.3391 398.772C63.3371 399.289 63.1769 399.763 62.8585 400.195C62.5569 400.611 62.1056 400.934 61.5047 401.165C60.9038 401.396 60.1533 401.51 59.2533 401.506C58.7366 401.504 58.2118 401.452 57.6789 401.35C57.146 401.231 56.6549 401.088 56.2056 400.919C55.7729 400.751 55.3985 400.599 55.0824 400.465L54.6263 402.013Z" fill="white"/>
<path d="M23.7294 385.541L24.6659 385.19L24.3783 384.423L23.5689 384.554L23.7294 385.541ZM21.7782 385.858L21.6177 384.871L20.4051 385.069L20.8442 386.216L21.7782 385.858ZM28.2367 402.734L27.3028 403.091L27.5476 403.731L28.2328 403.734L28.2367 402.734ZM30.1367 402.742L30.1327 403.742L30.8286 403.744L31.073 403.093L30.1367 402.742ZM36.5036 385.767L37.4399 386.118L37.9446 384.772L36.5076 384.767L36.5036 385.767ZM34.5787 385.759L34.5826 384.759L33.8862 384.756L33.6421 385.408L34.5787 385.759ZM29.1969 400.138L28.2605 400.489L29.1973 402.99L30.1335 400.488L29.1969 400.138ZM23.5689 384.554L21.6177 384.871L21.9387 386.846L23.8899 386.528L23.5689 384.554ZM20.8442 386.216L27.3028 403.091L29.1706 402.377L22.7121 385.501L20.8442 386.216ZM28.2328 403.734L30.1327 403.742L30.1406 401.742L28.2406 401.734L28.2328 403.734ZM31.073 403.093L37.4399 386.118L35.5673 385.415L29.2004 402.39L31.073 403.093ZM36.5076 384.767L34.5826 384.759L34.5747 386.759L36.4997 386.767L36.5076 384.767ZM33.6421 385.408L28.2604 399.787L30.1335 400.488L35.5152 386.109L33.6421 385.408ZM30.1334 399.787L24.6659 385.19L22.793 385.892L28.2605 400.489L30.1334 399.787ZM50.9459 402.824L50.942 403.824L51.942 403.827L51.9459 402.828L50.9459 402.824ZM51.0129 385.824L52.0129 385.828L52.0168 384.828L51.0168 384.824L51.0129 385.824ZM49.0379 385.816L49.0419 384.816L48.0419 384.812L48.0379 385.812L49.0379 385.816ZM49.0078 393.466L49.0038 394.466L50.0038 394.47L50.0078 393.47L49.0078 393.466ZM41.0078 393.434L40.0078 393.43L40.0039 394.43L41.0039 394.434L41.0078 393.434ZM41.0385 385.659L42.0385 385.663L42.0427 384.597L40.9784 384.661L41.0385 385.659ZM39.088 385.777L39.028 384.778L38.0917 384.835L38.088 385.773L39.088 385.777ZM39.021 402.777L38.021 402.773L38.0171 403.773L39.0171 403.777L39.021 402.777ZM40.971 402.784L40.967 403.784L41.967 403.788L41.971 402.788L40.971 402.784ZM41.0016 395.009L41.0056 394.009L40.0056 394.005L40.0016 395.005L41.0016 395.009ZM49.0016 395.041L50.0016 395.045L50.0055 394.045L49.0055 394.041L49.0016 395.041ZM48.9709 402.816L47.9709 402.812L47.967 403.812L48.967 403.816L48.9709 402.816ZM51.9459 402.828L52.0129 385.828L50.0129 385.82L49.9459 402.82L51.9459 402.828ZM51.0168 384.824L49.0419 384.816L49.034 386.816L51.009 386.824L51.0168 384.824ZM48.0379 385.812L48.0078 393.462L50.0078 393.47L50.0379 385.82L48.0379 385.812ZM49.0117 392.466L41.0118 392.434L41.0039 394.434L49.0038 394.466L49.0117 392.466ZM42.0078 393.438L42.0385 385.663L40.0385 385.655L40.0078 393.43L42.0078 393.438ZM40.9784 384.661L39.028 384.778L39.148 386.775L41.0985 386.658L40.9784 384.661ZM38.088 385.773L38.021 402.773L40.021 402.781L40.088 385.781L38.088 385.773ZM39.0171 403.777L40.967 403.784L40.9749 401.784L39.0249 401.777L39.0171 403.777ZM41.971 402.788L42.0016 395.013L40.0016 395.005L39.971 402.78L41.971 402.788ZM40.9977 396.009L48.9976 396.041L49.0055 394.041L41.0056 394.009L40.9977 396.009ZM48.0016 395.037L47.9709 402.812L49.9709 402.82L50.0016 395.045L48.0016 395.037ZM48.967 403.816L50.942 403.824L50.9498 401.824L48.9749 401.816L48.967 403.816ZM54.6263 402.013L53.667 401.73L53.4562 402.446L54.0822 402.852L54.6263 402.013ZM55.5245 402.467L55.1422 403.391L55.1605 403.398L55.179 403.405L55.5245 402.467ZM56.7481 402.821L56.9689 401.846L56.9689 401.846L56.7481 402.821ZM58.0721 403.077L57.9162 404.064L57.9217 404.065L58.0721 403.077ZM62.5239 402.619L62.1357 401.698L62.1295 401.7L62.5239 402.619ZM64.5801 401.052L63.7728 400.462L63.768 400.469L63.7632 400.476L64.5801 401.052ZM65.0206 397.129L64.095 397.508L64.0999 397.519L65.0206 397.129ZM62.755 394.745L63.2766 393.892L62.755 394.745ZM60.8338 393.762L60.3892 394.658L60.4112 394.669L60.4338 394.679L60.8338 393.762ZM58.3389 392.478L57.8462 393.348L57.8544 393.352L57.8626 393.357L58.3389 392.478ZM56.7937 391.247L55.9987 391.853L56.0059 391.863L56.0133 391.872L56.7937 391.247ZM57.3072 387.824L56.7605 386.986L56.751 386.992L57.3072 387.824ZM61.4093 387.315L61.1721 388.286L61.1942 388.292L61.2165 388.296L61.4093 387.315ZM62.558 387.644L62.1829 388.571L62.1906 388.574L62.1983 388.577L62.558 387.644ZM63.5064 388.048L63.077 388.951L64.0013 389.39L64.4192 388.456L63.5064 388.048ZM64.1874 386.526L65.1002 386.934L65.4898 386.063L64.6381 385.633L64.1874 386.526ZM56.9393 386.022L56.518 385.115L56.5108 385.119L56.9393 386.022ZM55.0583 387.54L54.2454 386.957L54.2403 386.964L54.2352 386.972L55.0583 387.54ZM54.6684 391.313L53.7321 391.664L53.7373 391.678L53.7429 391.692L54.6684 391.313ZM55.5131 392.666L54.7598 393.324L54.7738 393.34L54.7884 393.356L55.5131 392.666ZM56.9087 393.797L56.3685 394.639L56.3832 394.648L56.3983 394.657L56.9087 393.797ZM58.8547 394.805L58.4373 395.713L58.4556 395.722L58.4743 395.729L58.8547 394.805ZM61.3251 395.989L60.8232 396.854L60.8314 396.859L60.8397 396.864L61.3251 395.989ZM62.8203 397.195L62.0253 397.802L62.0325 397.811L62.0399 397.821L62.8203 397.195ZM62.8585 400.195L62.0534 399.602L62.0493 399.608L62.8585 400.195ZM61.5047 401.165L61.8634 402.099L61.8634 402.099L61.5047 401.165ZM57.6789 401.35L57.4614 402.326L57.476 402.329L57.4907 402.332L57.6789 401.35ZM56.2056 400.919L55.8429 401.851L55.8546 401.856L56.2056 400.919ZM55.0824 400.465L55.4741 399.545L54.4406 399.105L54.1231 400.182L55.0824 400.465ZM54.0822 402.852C54.3827 403.047 54.7415 403.225 55.1422 403.391L55.9068 401.543C55.5753 401.405 55.3353 401.281 55.1703 401.174L54.0822 402.852ZM55.179 403.405C55.5924 403.557 56.0428 403.687 56.5273 403.797L56.9689 401.846C56.5542 401.752 56.1888 401.646 55.8699 401.528L55.179 403.405ZM56.5273 403.797C56.9973 403.903 57.4603 403.992 57.9162 404.064L58.2281 402.089C57.8178 402.024 57.3981 401.943 56.9689 401.846L56.5273 403.797ZM57.9217 404.065C58.4064 404.139 58.8567 404.18 59.2678 404.181L59.2756 402.181C58.9867 402.18 58.6373 402.151 58.2226 402.088L57.9217 404.065ZM59.2678 404.181C60.6449 404.187 61.8733 403.987 62.9184 403.538L62.1295 401.7C61.4049 402.011 60.4652 402.186 59.2756 402.181L59.2678 404.181ZM62.9122 403.541C63.9509 403.103 64.7999 402.475 65.3971 401.629L63.7632 400.476C63.4218 400.959 62.9 401.376 62.1357 401.698L62.9122 403.541ZM65.3874 401.642C66.0046 400.798 66.31 399.825 66.3142 398.759L64.3142 398.751C64.3116 399.419 64.1276 399.977 63.7728 400.462L65.3874 401.642ZM66.3142 398.759C66.317 398.035 66.2024 397.355 65.9413 396.739L64.0999 397.519C64.2352 397.838 64.3162 398.242 64.3142 398.751L66.3142 398.759ZM65.9461 396.75C65.6964 396.14 65.3316 395.596 64.8606 395.121L63.4408 396.53C63.7335 396.825 63.9486 397.15 64.0951 397.508L65.9461 396.75ZM64.8606 395.121C64.4129 394.67 63.8815 394.262 63.2766 393.892L62.2333 395.598C62.7258 395.899 63.1249 396.211 63.4408 396.53L64.8606 395.121ZM63.2766 393.892C62.6809 393.528 61.9983 393.18 61.2339 392.846L60.4338 394.679C61.1335 394.984 61.7317 395.291 62.2333 395.598L63.2766 393.892ZM61.2785 392.867C60.3038 392.383 59.4833 391.96 58.8152 391.598L57.8626 393.357C58.5582 393.734 59.4011 394.168 60.3892 394.658L61.2785 392.867ZM58.8316 391.607C58.2187 391.26 57.8177 390.925 57.5741 390.621L56.0133 391.872C56.4663 392.437 57.0954 392.923 57.8462 393.348L58.8316 391.607ZM57.5887 390.64C57.4041 390.398 57.2982 390.101 57.2998 389.698L55.2998 389.691C55.2967 390.488 55.5201 391.226 55.9987 391.853L57.5887 390.64ZM57.2998 389.698C57.3017 389.233 57.4694 388.918 57.8634 388.655L56.751 386.992C55.8082 387.623 55.3043 388.556 55.2998 389.691L57.2998 389.698ZM57.8539 388.661C58.3323 388.348 59.0012 388.155 59.9309 388.159L59.9388 386.159C58.7352 386.154 57.6523 386.404 56.7605 386.986L57.8539 388.661ZM59.9309 388.159C60.4426 388.161 60.8521 388.208 61.1721 388.286L61.6465 386.343C61.1339 386.218 60.5605 386.161 59.9388 386.159L59.9309 388.159ZM61.2165 388.296C61.6007 388.371 61.9206 388.465 62.1829 388.571L62.933 386.717C62.5297 386.554 62.0838 386.428 61.602 386.333L61.2165 388.296ZM62.1983 388.577C62.5286 388.705 62.821 388.829 63.077 388.951L63.9357 387.145C63.6262 386.998 63.2863 386.853 62.9176 386.711L62.1983 388.577ZM64.4192 388.456L65.1002 386.934L63.2746 386.117L62.5936 387.64L64.4192 388.456ZM64.6381 385.633C64.0347 385.328 63.3234 385.063 62.516 384.832L61.9645 386.754C62.6887 386.962 63.2755 387.185 63.7367 387.418L64.6381 385.633ZM62.516 384.832C61.6578 384.586 60.7665 384.462 59.8455 384.458L59.8376 386.458C60.5832 386.461 61.2911 386.561 61.9645 386.754L62.516 384.832ZM59.8455 384.458C58.616 384.454 57.4971 384.66 56.518 385.115L57.3606 386.929C58.0178 386.624 58.8338 386.455 59.8376 386.458L59.8455 384.458ZM56.5108 385.119C55.578 385.561 54.81 386.169 54.2454 386.957L55.8712 388.122C56.2116 387.647 56.6976 387.243 57.3679 386.926L56.5108 385.119ZM54.2352 386.972C53.6775 387.78 53.4037 388.704 53.3998 389.708L55.3997 389.716C55.4022 389.087 55.5675 388.562 55.8814 388.108L54.2352 386.972ZM53.3998 389.708C53.397 390.397 53.503 391.053 53.7321 391.664L55.6048 390.962C55.471 390.605 55.3979 390.194 55.3997 389.716L53.3998 389.708ZM53.7429 391.692C53.9852 392.284 54.3269 392.828 54.7598 393.324L56.2664 392.009C55.9693 391.668 55.7479 391.311 55.594 390.934L53.7429 391.692ZM54.7884 393.356C55.234 393.824 55.764 394.25 56.3685 394.639L57.4489 392.955C56.9561 392.639 56.5557 392.312 56.2378 391.977L54.7884 393.356ZM56.3983 394.657C56.9995 395.014 57.6803 395.366 58.4373 395.713L59.2721 393.896C58.5651 393.571 57.9485 393.251 57.4191 392.937L56.3983 394.657ZM58.4743 395.729C59.4287 396.122 60.2086 396.498 60.8232 396.854L61.8269 395.124C61.1112 394.709 60.2442 394.295 59.2352 393.88L58.4743 395.729ZM60.8397 396.864C61.4284 397.191 61.8033 397.511 62.0253 397.802L63.6153 396.589C63.1741 396.01 62.5521 395.527 61.8104 395.115L60.8397 396.864ZM62.0399 397.821C62.2297 398.058 62.3408 398.354 62.3391 398.768L64.3391 398.776C64.3423 397.957 64.1075 397.203 63.6007 396.57L62.0399 397.821ZM62.3391 398.768C62.338 399.064 62.2512 399.334 62.0534 399.602L63.6636 400.789C64.1025 400.193 64.3362 399.514 64.3391 398.776L62.3391 398.768ZM62.0493 399.608C61.8869 399.832 61.6121 400.053 61.1459 400.232L61.8634 402.099C62.5991 401.816 63.2268 401.39 63.6677 400.783L62.0493 399.608ZM61.1459 400.232C60.6969 400.404 60.079 400.51 59.2572 400.506L59.2494 402.506C60.2276 402.51 61.1107 402.388 61.8634 402.099L61.1459 400.232ZM59.2572 400.506C58.8054 400.505 58.3423 400.459 57.8671 400.368L57.4907 402.332C58.0814 402.445 58.6679 402.504 59.2494 402.506L59.2572 400.506ZM57.8965 400.374C57.4029 400.264 56.957 400.133 56.5566 399.983L55.8546 401.856C56.3529 402.042 56.8892 402.199 57.4614 402.326L57.8965 400.374ZM56.5683 399.987C56.1422 399.822 55.7779 399.674 55.4741 399.545L54.6907 401.385C55.0191 401.525 55.4037 401.68 55.8429 401.851L56.5683 399.987ZM54.1231 400.182L53.667 401.73L55.5855 402.296L56.0416 400.747L54.1231 400.182Z" fill="white"/>
<path d="M27.5562 412.181C27.4033 412.088 27.2202 412.013 27.0071 411.959C26.8007 411.898 26.5908 411.854 26.3776 411.827C26.171 411.799 25.9978 411.785 25.8578 411.785C25.3644 411.783 24.9174 411.871 24.5167 412.049C24.1227 412.228 23.785 412.48 23.5037 412.805C23.2291 413.131 23.0176 413.51 22.8692 413.943C22.7209 414.376 22.6457 414.845 22.6437 415.352C22.6418 415.825 22.7034 416.272 22.8284 416.693C22.9601 417.113 23.1553 417.487 23.414 417.815C23.6794 418.136 24.0084 418.391 24.401 418.579C24.7936 418.767 25.2499 418.862 25.7699 418.864C25.9632 418.865 26.1699 418.849 26.3901 418.817C26.6102 418.784 26.8204 418.739 27.0206 418.679C27.2275 418.62 27.4011 418.554 27.5414 418.481L27.2437 417.89C27.0567 417.97 26.8465 418.039 26.6129 418.098C26.3793 418.157 26.0892 418.186 25.7425 418.184C25.3825 418.183 25.0595 418.108 24.7734 417.961C24.494 417.813 24.2548 417.608 24.0558 417.348C23.8635 417.08 23.7181 416.776 23.6194 416.436C23.5208 416.096 23.4722 415.732 23.4737 415.345C23.4759 414.779 23.5813 414.279 23.7896 413.847C24.0047 413.414 24.2893 413.075 24.6436 412.83C25.0046 412.585 25.4084 412.463 25.8551 412.465C26.0818 412.466 26.275 412.48 26.4349 412.507C26.5948 412.528 26.7414 412.562 26.8745 412.609C27.0144 412.649 27.1575 412.7 27.3039 412.76L27.5562 412.181ZM34.3564 418.898C33.7431 418.896 33.197 418.744 32.7182 418.442C32.2394 418.14 31.8644 417.725 31.5931 417.197C31.3286 416.663 31.1976 416.056 31.2003 415.376C31.203 414.696 31.342 414.09 31.6175 413.557C31.8996 413.019 32.2813 412.593 32.7625 412.282C33.2504 411.971 33.8044 411.809 34.4244 411.799C35.0377 411.801 35.5838 411.956 36.0626 412.265C36.5414 412.567 36.9164 412.982 37.1877 413.509C37.459 414.037 37.5932 414.641 37.5906 415.321C37.5879 416.001 37.4455 416.61 37.1634 417.149C36.8879 417.688 36.5062 418.113 36.0183 418.425C35.5371 418.73 34.9832 418.887 34.3564 418.898ZM34.3392 418.208C34.8058 418.21 35.2196 418.088 35.5806 417.843C35.9416 417.598 36.2262 417.259 36.4346 416.826C36.643 416.387 36.7483 415.888 36.7505 415.328C36.7527 414.781 36.6546 414.294 36.4563 413.867C36.258 413.439 35.9826 413.105 35.6302 412.863C35.2845 412.622 34.8883 412.5 34.4417 412.499C33.975 412.497 33.5612 412.618 33.2002 412.864C32.8392 413.109 32.5546 413.448 32.3462 413.88C32.1378 414.313 32.0325 414.809 32.0303 415.369C32.0282 415.916 32.1263 416.403 32.3246 416.83C32.5229 417.258 32.7949 417.595 33.1406 417.843C33.4863 418.085 33.8858 418.206 34.3392 418.208ZM45.8854 418.184L42.7155 418.171L42.7398 411.991L41.9598 411.988L41.933 418.788L45.963 418.804L45.8854 418.184ZM52.661 418.97C52.0477 418.968 51.5016 418.816 51.0228 418.514C50.544 418.212 50.1689 417.797 49.8977 417.27C49.6331 416.735 49.5022 416.128 49.5048 415.448C49.5075 414.768 49.6466 414.162 49.922 413.63C50.2041 413.091 50.5858 412.666 51.067 412.354C51.5549 412.043 52.1089 411.882 52.729 411.871C53.3423 411.873 53.8883 412.029 54.3671 412.337C54.846 412.639 55.221 413.054 55.4922 413.582C55.7635 414.109 55.8978 414.713 55.8951 415.393C55.8924 416.073 55.75 416.683 55.4679 417.221C55.1924 417.76 54.8108 418.186 54.3229 418.497C53.8417 418.802 53.2877 418.96 52.661 418.97ZM52.6437 418.28C53.1104 418.282 53.5242 418.161 53.8851 417.915C54.2461 417.67 54.5308 417.331 54.7392 416.899C54.9476 416.459 55.0529 415.96 55.0551 415.4C55.0572 414.853 54.9591 414.366 54.7608 413.939C54.5625 413.511 54.2872 413.177 53.9348 412.935C53.5891 412.694 53.1929 412.572 52.7462 412.571C52.2795 412.569 51.8657 412.691 51.5048 412.936C51.1438 413.181 50.8591 413.52 50.6507 413.952C50.4424 414.385 50.3371 414.881 50.3349 415.441C50.3327 415.988 50.4308 416.475 50.6291 416.902C50.8274 417.33 51.0994 417.668 51.4451 417.916C51.7908 418.157 52.1904 418.279 52.6437 418.28ZM62.1117 412.738C62.445 412.739 62.7382 412.78 62.9912 412.861C63.2443 412.935 63.4437 413.07 63.5897 413.263C63.7356 413.457 63.8078 413.731 63.8064 414.084C63.8051 414.424 63.7207 414.694 63.5532 414.893C63.3858 415.086 63.1686 415.225 62.9016 415.311C62.6346 415.396 62.3411 415.439 62.0211 415.437L61.0311 415.433L61.0417 412.733L62.1117 412.738ZM60.2644 412.06L60.2376 418.86L61.0176 418.863L61.0286 416.073L61.9885 416.077C62.1019 416.078 62.2252 416.075 62.3586 416.069C62.4986 416.063 62.6153 416.053 62.7087 416.04L64.2575 418.876L65.1275 418.88L63.4095 415.833C63.7568 415.687 64.041 415.472 64.2621 415.186C64.4899 414.894 64.608 414.517 64.6165 414.058C64.6184 413.578 64.5099 413.194 64.2911 412.906C64.0722 412.612 63.7731 412.401 63.3936 412.273C63.0141 412.138 62.5877 412.07 62.1144 412.068L60.2644 412.06Z" fill="white"/>
<path d="M27.5562 412.181L28.0146 412.381L28.1882 411.983L27.8179 411.755L27.5562 412.181ZM27.0071 411.959L26.8658 412.439L26.8748 412.442L26.8839 412.444L27.0071 411.959ZM26.3776 411.827L26.3117 412.322L26.3136 412.323L26.3776 411.827ZM24.5167 412.049L24.3133 411.593L24.3104 411.594L24.5167 412.049ZM23.5037 412.805L23.1254 412.479L23.1215 412.483L23.5037 412.805ZM22.8692 413.943L23.3422 414.105L23.3422 414.105L22.8692 413.943ZM22.8284 416.693L22.3491 416.835L22.3512 416.842L22.8284 416.693ZM23.414 417.815L23.0214 418.125L23.0286 418.134L23.414 417.815ZM24.401 418.579L24.1848 419.03L24.401 418.579ZM26.3901 418.817L26.463 419.312L26.463 419.312L26.3901 418.817ZM27.0206 418.679L26.8831 418.199L26.8788 418.2L27.0206 418.679ZM27.5414 418.481L27.7716 418.925L28.2101 418.698L27.988 418.257L27.5414 418.481ZM27.2437 417.89L27.6903 417.665L27.4797 417.247L27.0486 417.43L27.2437 417.89ZM26.6129 418.098L26.7355 418.583L26.7355 418.583L26.6129 418.098ZM24.7734 417.961L24.5397 418.403L24.5439 418.405L24.7734 417.961ZM24.0558 417.348L23.6499 417.64L23.654 417.645L23.6583 417.651L24.0558 417.348ZM23.6194 416.436L24.0997 416.297L24.0997 416.297L23.6194 416.436ZM23.7896 413.847L23.3419 413.624L23.3392 413.63L23.7896 413.847ZM24.6436 412.83L24.3626 412.416L24.359 412.419L24.6436 412.83ZM26.4349 412.507L26.3508 413L26.3608 413.002L26.371 413.003L26.4349 412.507ZM26.8745 412.609L26.7075 413.08L26.7213 413.085L26.7353 413.089L26.8745 412.609ZM27.3039 412.76L27.1128 413.222L27.5663 413.41L27.7623 412.96L27.3039 412.76ZM27.8179 411.755C27.6136 411.63 27.3817 411.539 27.1303 411.475L26.8839 412.444C27.0587 412.488 27.1929 412.545 27.2946 412.608L27.8179 411.755ZM27.1484 411.48C26.9167 411.411 26.681 411.362 26.4416 411.331L26.3136 412.323C26.5007 412.347 26.6846 412.386 26.8658 412.439L27.1484 411.48ZM26.4435 411.331C26.2249 411.302 26.0287 411.285 25.8597 411.285L25.8558 412.285C25.9668 412.285 26.1171 412.297 26.3117 412.322L26.4435 411.331ZM25.8597 411.285C25.3045 411.283 24.7863 411.382 24.3133 411.593L24.7201 412.506C25.0486 412.36 25.4244 412.283 25.8558 412.285L25.8597 411.285ZM24.3104 411.594C23.8508 411.802 23.4543 412.098 23.1254 412.479L23.8821 413.132C24.1157 412.862 24.3946 412.654 24.723 412.505L24.3104 411.594ZM23.1215 412.483C22.8041 412.859 22.5632 413.294 22.3963 413.781L23.3422 414.105C23.472 413.727 23.6541 413.403 23.8859 413.128L23.1215 412.483ZM22.3963 413.781C22.2284 414.27 22.1459 414.795 22.1437 415.35L23.1437 415.354C23.1455 414.896 23.2133 414.481 23.3422 414.105L22.3963 413.781ZM22.1437 415.35C22.1416 415.869 22.2091 416.364 22.3491 416.835L23.3077 416.55C23.1976 416.18 23.142 415.782 23.1437 415.354L22.1437 415.35ZM22.3512 416.842C22.5001 417.318 22.723 417.747 23.0215 418.125L23.8064 417.505C23.5876 417.228 23.42 416.909 23.3056 416.543L22.3512 416.842ZM23.0286 418.134C23.3423 418.513 23.7299 418.812 24.1848 419.03L24.6171 418.128C24.2868 417.97 24.0165 417.759 23.7993 417.497L23.0286 418.134ZM24.1848 419.03C24.656 419.256 25.188 419.362 25.7679 419.364L25.7718 418.364C25.3118 418.363 24.9311 418.279 24.6171 418.128L24.1848 419.03ZM25.7679 419.364C25.9897 419.365 26.2217 419.347 26.463 419.312L26.3171 418.322C26.1182 418.352 25.9367 418.365 25.7718 418.364L25.7679 419.364ZM26.463 419.312C26.7049 419.276 26.9382 419.225 27.1624 419.159L26.8788 418.2C26.7026 418.252 26.5155 418.293 26.3171 418.322L26.463 419.312ZM27.1581 419.16C27.3864 419.095 27.5933 419.018 27.7716 418.925L27.3111 418.038C27.2089 418.091 27.0686 418.146 26.8831 418.199L27.1581 419.16ZM27.988 418.257L27.6903 417.665L26.7971 418.115L27.0948 418.706L27.988 418.257ZM27.0486 417.43C26.889 417.498 26.7035 417.559 26.4903 417.613L26.7355 418.583C26.9894 418.518 27.2245 418.441 27.4389 418.351L27.0486 417.43ZM26.4903 417.613C26.3109 417.658 26.0658 417.686 25.7445 417.684L25.7406 418.684C26.1126 418.686 26.4477 418.655 26.7355 418.583L26.4903 417.613ZM25.7445 417.684C25.4542 417.683 25.2107 417.624 25.0029 417.516L24.5439 418.405C24.9083 418.593 25.3108 418.683 25.7406 418.684L25.7445 417.684ZM25.0072 417.519C24.7942 417.406 24.6101 417.25 24.4533 417.044L23.6583 417.651C23.8995 417.967 24.1938 418.22 24.5397 418.403L25.0072 417.519ZM24.4618 417.056C24.3052 416.838 24.1836 416.587 24.0997 416.297L23.1392 416.575C23.2525 416.966 23.4219 417.322 23.6499 417.64L24.4618 417.056ZM24.0997 416.297C24.0154 416.006 23.9724 415.691 23.9737 415.347L22.9737 415.343C22.972 415.774 23.0261 416.185 23.1392 416.575L24.0997 416.297ZM23.9737 415.347C23.9757 414.842 24.0693 414.418 24.2401 414.064L23.3392 413.63C23.0932 414.14 22.9762 414.716 22.9737 415.343L23.9737 415.347ZM24.2373 414.069C24.4194 413.703 24.6514 413.433 24.9282 413.241L24.359 412.419C23.9273 412.718 23.5899 413.125 23.3419 413.624L24.2373 414.069ZM24.9246 413.244C25.2001 413.056 25.5048 412.963 25.8531 412.965L25.8571 411.965C25.312 411.963 24.8091 412.113 24.3626 412.416L24.9246 413.244ZM25.8531 412.965C26.0622 412.966 26.2263 412.979 26.3508 413L26.5191 412.014C26.3237 411.981 26.1013 411.966 25.8571 411.965L25.8531 412.965ZM26.371 413.003C26.5006 413.02 26.612 413.046 26.7075 413.08L27.0416 412.137C26.8707 412.077 26.6891 412.036 26.4989 412.011L26.371 413.003ZM26.7353 413.089C26.856 413.124 26.9818 413.168 27.1128 413.222L27.4951 412.298C27.3332 412.231 27.1727 412.175 27.0138 412.129L26.7353 413.089ZM27.7623 412.96L28.0146 412.381L27.0978 411.982L26.8456 412.561L27.7623 412.96ZM34.3564 418.898L34.3545 419.398L34.3651 419.398L34.3564 418.898ZM32.7182 418.442L32.9849 418.019L32.9849 418.019L32.7182 418.442ZM31.5931 417.197L31.145 417.419L31.1484 417.426L31.5931 417.197ZM31.6175 413.557L31.1745 413.326L31.1734 413.328L31.6175 413.557ZM32.7625 412.282L32.4935 411.86L32.4908 411.862L32.7625 412.282ZM34.4244 411.799L34.4264 411.298L34.4156 411.299L34.4244 411.799ZM36.0626 412.265L35.7917 412.685L35.7959 412.688L36.0626 412.265ZM37.1634 417.149L36.7204 416.917L36.7181 416.922L37.1634 417.149ZM36.0183 418.425L36.2858 418.847L36.2873 418.846L36.0183 418.425ZM35.5806 417.843L35.2996 417.43L35.2996 417.43L35.5806 417.843ZM36.4346 416.826L36.8851 417.043L36.8863 417.041L36.4346 416.826ZM36.4563 413.867L36.0027 414.077L36.0027 414.077L36.4563 413.867ZM35.6302 412.863L35.344 413.273L35.3477 413.276L35.6302 412.863ZM33.2002 412.864L33.4812 413.277L33.4812 413.277L33.2002 412.864ZM32.3462 413.88L32.7966 414.097L32.7966 414.097L32.3462 413.88ZM32.3246 416.83L31.871 417.041L31.871 417.041L32.3246 416.83ZM33.1406 417.843L32.8491 418.25L32.8544 418.253L33.1406 417.843ZM34.3584 418.398C33.8307 418.396 33.3778 418.267 32.9849 418.019L32.4516 418.865C33.0162 419.221 33.6556 419.396 34.3545 419.398L34.3584 418.398ZM32.9849 418.019C32.5855 417.767 32.2702 417.421 32.0378 416.969L31.1484 417.426C31.4585 418.029 31.8934 418.513 32.4516 418.865L32.9849 418.019ZM32.0412 416.976C31.8156 416.52 31.6979 415.991 31.7003 415.378L30.7003 415.374C30.6974 416.121 30.8415 416.806 31.145 417.419L32.0412 416.976ZM31.7003 415.378C31.7027 414.766 31.8272 414.24 32.0615 413.787L31.1734 413.328C30.8569 413.939 30.7032 414.625 30.7003 415.374L31.7003 415.378ZM32.0604 413.789C32.3051 413.322 32.6297 412.963 33.0342 412.702L32.4908 411.862C31.9328 412.223 31.4941 412.715 31.1745 413.326L32.0604 413.789ZM33.0315 412.703C33.436 412.445 33.8986 412.308 34.4332 412.298L34.4156 411.299C33.7101 411.311 33.0648 411.496 32.4935 411.861L33.0315 412.703ZM34.4224 412.299C34.948 412.301 35.3993 412.432 35.7917 412.685L36.3334 411.845C35.7683 411.48 35.1275 411.301 34.4264 411.299L34.4224 412.299ZM35.7959 412.688C36.1954 412.94 36.5106 413.286 36.743 413.738L37.6324 413.281C37.3223 412.678 36.8875 412.194 36.3293 411.842L35.7959 412.688ZM36.743 413.738C36.9726 414.185 37.093 414.707 37.0906 415.319L38.0906 415.323C38.0935 414.575 37.9453 413.89 37.6324 413.281L36.743 413.738ZM37.0906 415.319C37.0882 415.929 36.9612 416.458 36.7204 416.917L37.6063 417.381C37.9298 416.763 38.0876 416.074 38.0906 415.323L37.0906 415.319ZM36.7181 416.922C36.4812 417.385 36.1588 417.742 35.7493 418.003L36.2873 418.846C36.8536 418.485 37.2946 417.991 37.6086 417.377L36.7181 416.922ZM35.7508 418.002C35.3548 418.253 34.8922 418.389 34.3478 418.398L34.3651 419.398C35.0741 419.386 35.7194 419.206 36.2858 418.847L35.7508 418.002ZM34.3372 418.708C34.8974 418.71 35.4113 418.563 35.8616 418.257L35.2996 417.43C35.028 417.614 34.7143 417.71 34.3411 417.708L34.3372 418.708ZM35.8616 418.257C36.3025 417.957 36.6424 417.547 36.8851 417.043L35.9842 416.609C35.8101 416.971 35.5806 417.239 35.2996 417.43L35.8616 418.257ZM36.8863 417.041C37.1307 416.526 37.2481 415.952 37.2505 415.33L36.2505 415.326C36.2486 415.823 36.1553 416.249 35.9829 416.612L36.8863 417.041ZM37.2505 415.33C37.2529 414.721 37.1436 414.16 36.9098 413.656L36.0027 414.077C36.1656 414.428 36.2524 414.841 36.2505 415.326L37.2505 415.33ZM36.9098 413.656C36.6777 413.156 36.3468 412.748 35.9128 412.451L35.3477 413.276C35.6184 413.461 35.8382 413.722 36.0027 414.077L36.9098 413.656ZM35.9165 412.453C35.4823 412.15 34.9856 412.001 34.4436 411.999L34.4397 412.999C34.791 413 35.0868 413.094 35.344 413.273L35.9165 412.453ZM34.4436 411.999C33.8835 411.996 33.3695 412.144 32.9192 412.45L33.4812 413.277C33.7528 413.093 34.0665 412.997 34.4397 412.999L34.4436 411.999ZM32.9192 412.45C32.4783 412.75 32.1384 413.16 31.8957 413.663L32.7966 414.097C32.9707 413.736 33.2002 413.468 33.4812 413.277L32.9192 412.45ZM31.8957 413.663C31.6501 414.173 31.5328 414.745 31.5303 415.367L32.5303 415.371C32.5323 414.873 32.6256 414.452 32.7966 414.097L31.8957 413.663ZM31.5303 415.367C31.5279 415.975 31.6373 416.537 31.871 417.041L32.7781 416.62C32.6153 416.269 32.5284 415.856 32.5303 415.371L31.5303 415.367ZM31.871 417.041C32.1016 417.538 32.4261 417.946 32.8491 418.25L33.4321 417.437C33.1637 417.245 32.9442 416.978 32.7781 416.62L31.871 417.041ZM32.8544 418.253C33.2898 418.557 33.7902 418.706 34.3372 418.708L34.3411 417.708C33.9815 417.707 33.6828 417.612 33.4268 417.434L32.8544 418.253ZM45.8854 418.184L46.3816 418.122L46.327 417.685L45.8874 417.684L45.8854 418.184ZM42.7155 418.171L42.2155 418.169L42.2135 418.669L42.7135 418.671L42.7155 418.171ZM42.7398 411.991L43.2398 411.993L43.2418 411.493L42.7418 411.491L42.7398 411.991ZM41.9598 411.988L41.9618 411.488L41.4618 411.486L41.4598 411.986L41.9598 411.988ZM41.933 418.788L41.433 418.786L41.4311 419.286L41.9311 419.288L41.933 418.788ZM45.963 418.804L45.961 419.304L46.5297 419.306L46.4591 418.742L45.963 418.804ZM45.8874 417.684L42.7174 417.671L42.7135 418.671L45.8835 418.684L45.8874 417.684ZM43.2155 418.173L43.2398 411.993L42.2398 411.989L42.2155 418.169L43.2155 418.173ZM42.7418 411.491L41.9618 411.488L41.9579 412.488L42.7378 412.491L42.7418 411.491ZM41.4598 411.986L41.433 418.786L42.433 418.79L42.4598 411.99L41.4598 411.986ZM41.9311 419.288L45.961 419.304L45.965 418.304L41.935 418.288L41.9311 419.288ZM46.4591 418.742L46.3816 418.122L45.3893 418.246L45.4669 418.866L46.4591 418.742ZM52.661 418.97L52.659 419.471L52.6696 419.47L52.661 418.97ZM51.0228 418.514L51.2894 418.091L51.2894 418.091L51.0228 418.514ZM49.8977 417.27L49.4495 417.491L49.453 417.498L49.8977 417.27ZM49.922 413.63L49.479 413.398L49.4779 413.4L49.922 413.63ZM51.067 412.354L50.798 411.933L50.7954 411.934L51.067 412.354ZM52.729 411.871L52.7309 411.371L52.7202 411.371L52.729 411.871ZM54.3671 412.337L54.0963 412.757L54.1005 412.76L54.3671 412.337ZM55.4679 417.221L55.0249 416.99L55.0227 416.994L55.4679 417.221ZM54.3229 418.497L54.5904 418.919L54.5919 418.918L54.3229 418.497ZM53.8851 417.915L53.6042 417.502L53.6042 417.502L53.8851 417.915ZM54.7392 416.899L55.1896 417.116L55.1909 417.113L54.7392 416.899ZM54.7608 413.939L54.3073 414.149L54.3073 414.149L54.7608 413.939ZM53.9348 412.935L53.6485 413.345L53.6522 413.348L53.9348 412.935ZM51.5048 412.936L51.7857 413.349L51.7857 413.349L51.5048 412.936ZM50.6507 413.952L51.1012 414.169L51.1012 414.169L50.6507 413.952ZM50.6291 416.902L50.1756 417.113L50.1756 417.113L50.6291 416.902ZM51.4451 417.916L51.1536 418.322L51.1589 418.326L51.4451 417.916ZM52.663 418.47C52.1352 418.468 51.6824 418.339 51.2894 418.091L50.7561 418.937C51.3208 419.293 51.9601 419.468 52.659 419.47L52.663 418.47ZM51.2894 418.091C50.89 417.839 50.5748 417.493 50.3424 417.041L49.453 417.498C49.7631 418.101 50.1979 418.585 50.7561 418.937L51.2894 418.091ZM50.3458 417.048C50.1202 416.592 50.0024 416.063 50.0048 415.45L49.0048 415.446C49.0019 416.193 49.146 416.878 49.4496 417.491L50.3458 417.048ZM50.0048 415.45C50.0072 414.838 50.1317 414.312 50.3661 413.859L49.4779 413.4C49.1614 414.011 49.0078 414.697 49.0048 415.446L50.0048 415.45ZM50.365 413.862C50.6097 413.394 50.9343 413.036 51.3387 412.774L50.7954 411.934C50.2374 412.295 49.7986 412.787 49.479 413.398L50.365 413.862ZM51.3361 412.776C51.7405 412.517 52.2032 412.38 52.7377 412.371L52.7202 411.371C52.0147 411.383 51.3694 411.568 50.798 411.933L51.3361 412.776ZM52.727 412.371C53.2526 412.373 53.7039 412.505 54.0963 412.757L54.638 411.917C54.0728 411.553 53.432 411.373 52.7309 411.371L52.727 412.371ZM54.1005 412.76C54.4999 413.012 54.8151 413.358 55.0475 413.81L55.9369 413.353C55.6269 412.75 55.192 412.266 54.6338 411.914L54.1005 412.76ZM55.0475 413.81C55.2771 414.257 55.3975 414.78 55.3951 415.391L56.3951 415.395C56.3981 414.647 56.2499 413.962 55.9369 413.353L55.0475 413.81ZM55.3951 415.391C55.3927 416.001 55.2657 416.53 55.0249 416.99L55.9109 417.453C56.2343 416.836 56.3921 416.146 56.3951 415.395L55.3951 415.391ZM55.0227 416.994C54.7858 417.457 54.4633 417.814 54.0538 418.076L54.5919 418.918C55.1582 418.557 55.5991 418.063 55.9131 417.449L55.0227 416.994ZM54.0553 418.075C53.6593 418.325 53.1968 418.461 52.6523 418.471L52.6696 419.47C53.3786 419.458 54.024 419.278 54.5904 418.919L54.0553 418.075ZM52.6417 418.78C53.2019 418.783 53.7158 418.635 54.1661 418.329L53.6042 417.502C53.3325 417.686 53.0188 417.782 52.6457 417.78L52.6417 418.78ZM54.1661 418.329C54.6071 418.029 54.947 417.619 55.1896 417.116L54.2887 416.682C54.1146 417.043 53.8852 417.311 53.6042 417.502L54.1661 418.329ZM55.1909 417.113C55.4352 416.598 55.5526 416.024 55.5551 415.402L54.5551 415.398C54.5531 415.896 54.4599 416.321 54.2874 416.684L55.1909 417.113ZM55.5551 415.402C55.5575 414.794 55.4481 414.232 55.2144 413.728L54.3073 414.149C54.4701 414.5 54.557 414.913 54.5551 415.398L55.5551 415.402ZM55.2144 413.728C54.9823 413.228 54.6513 412.82 54.2173 412.523L53.6522 413.348C53.923 413.533 54.1427 413.794 54.3073 414.149L55.2144 413.728ZM54.221 412.525C53.7868 412.222 53.2902 412.073 52.7482 412.071L52.7442 413.071C53.0956 413.072 53.3913 413.166 53.6486 413.345L54.221 412.525ZM52.7482 412.071C52.188 412.069 51.6741 412.216 51.2238 412.522L51.7857 413.349C52.0574 413.165 52.3711 413.069 52.7442 413.071L52.7482 412.071ZM51.2238 412.522C50.7829 412.822 50.4429 413.232 50.2003 413.735L51.1012 414.169C51.2753 413.808 51.5047 413.54 51.7857 413.349L51.2238 412.522ZM50.2003 413.735C49.9546 414.245 49.8373 414.817 49.8349 415.439L50.8349 415.443C50.8368 414.945 50.9301 414.525 51.1012 414.169L50.2003 413.735ZM49.8349 415.439C49.8325 416.048 49.9418 416.609 50.1756 417.113L51.0827 416.692C50.9198 416.341 50.833 415.928 50.8349 415.443L49.8349 415.439ZM50.1756 417.113C50.4061 417.61 50.7306 418.018 51.1536 418.322L51.7366 417.509C51.4682 417.317 51.2487 417.05 51.0827 416.692L50.1756 417.113ZM51.1589 418.326C51.5944 418.63 52.0947 418.778 52.6417 418.78L52.6457 417.78C52.286 417.779 51.9873 417.684 51.7314 417.506L51.1589 418.326ZM62.9912 412.861L62.8387 413.337L62.8503 413.341L62.9912 412.861ZM63.5897 413.263L63.9892 412.963L63.9892 412.963L63.5897 413.263ZM63.5532 414.893L63.9307 415.221L63.9361 415.215L63.5532 414.893ZM62.9016 415.311L63.0542 415.787L63.0542 415.787L62.9016 415.311ZM61.0311 415.433L60.5311 415.431L60.5291 415.931L61.0291 415.933L61.0311 415.433ZM61.0417 412.733L61.0437 412.233L60.5437 412.231L60.5417 412.731L61.0417 412.733ZM60.2644 412.06L60.2663 411.56L59.7663 411.558L59.7644 412.058L60.2644 412.06ZM60.2376 418.86L59.7376 418.858L59.7356 419.358L60.2356 419.36L60.2376 418.86ZM61.0176 418.863L61.0156 419.363L61.5156 419.365L61.5176 418.865L61.0176 418.863ZM61.0286 416.073L61.0305 415.573L60.5305 415.571L60.5286 416.071L61.0286 416.073ZM62.3586 416.069L62.3368 415.569L62.3356 415.569L62.3586 416.069ZM62.7087 416.04L63.1475 415.8L62.982 415.497L62.6399 415.545L62.7087 416.04ZM64.2575 418.876L63.8187 419.116L63.9603 419.375L64.2556 419.376L64.2575 418.876ZM65.1275 418.88L65.1256 419.38L65.9854 419.383L65.5631 418.634L65.1275 418.88ZM63.4095 415.833L63.2165 415.372L62.6978 415.589L62.974 416.078L63.4095 415.833ZM64.2621 415.186L63.8676 414.879L63.8666 414.88L64.2621 415.186ZM64.6165 414.058L65.1165 414.067L65.1165 414.059L64.6165 414.058ZM64.2911 412.906L63.8899 413.205L63.8932 413.209L64.2911 412.906ZM63.3936 412.273L63.2261 412.744L63.2336 412.746L63.3936 412.273ZM62.1097 413.238C62.4044 413.239 62.645 413.275 62.8388 413.337L63.1437 412.385C62.8315 412.285 62.4857 412.239 62.1137 412.238L62.1097 413.238ZM62.8503 413.341C63.0096 413.388 63.1146 413.464 63.1901 413.564L63.9892 412.963C63.7729 412.675 63.4789 412.483 63.1322 412.381L62.8503 413.341ZM63.1901 413.564C63.2465 413.639 63.3076 413.79 63.3064 414.082L64.3064 414.086C64.308 413.672 64.2246 413.276 63.9892 412.963L63.1901 413.564ZM63.3064 414.082C63.3054 414.342 63.2422 414.486 63.1704 414.572L63.9361 415.215C64.1992 414.902 64.3048 414.507 64.3064 414.086L63.3064 414.082ZM63.1758 414.565C63.0742 414.682 62.9377 414.774 62.7489 414.835L63.0542 415.787C63.3995 415.676 63.6974 415.49 63.9306 415.221L63.1758 414.565ZM62.7489 414.835C62.5384 414.902 62.2978 414.938 62.023 414.937L62.0191 415.937C62.3843 415.939 62.7308 415.891 63.0542 415.787L62.7489 414.835ZM62.023 414.937L61.033 414.933L61.0291 415.933L62.0191 415.937L62.023 414.937ZM61.5311 415.435L61.5417 412.735L60.5417 412.731L60.5311 415.431L61.5311 415.435ZM61.0397 413.233L62.1097 413.238L62.1137 412.238L61.0437 412.233L61.0397 413.233ZM59.7644 412.058L59.7376 418.858L60.7376 418.862L60.7644 412.062L59.7644 412.058ZM60.2356 419.36L61.0156 419.363L61.0195 418.363L60.2395 418.36L60.2356 419.36ZM61.5176 418.865L61.5286 416.075L60.5286 416.071L60.5176 418.861L61.5176 418.865ZM61.0266 416.573L61.9866 416.577L61.9905 415.577L61.0305 415.573L61.0266 416.573ZM61.9866 416.577C62.1095 416.578 62.2413 416.575 62.3816 416.568L62.3356 415.569C62.2091 415.575 62.0942 415.578 61.9905 415.577L61.9866 416.577ZM62.3804 416.568C62.5294 416.562 62.663 416.551 62.7775 416.535L62.6399 415.545C62.5676 415.555 62.4678 415.563 62.3368 415.569L62.3804 416.568ZM62.2699 416.28L63.8187 419.116L64.6964 418.636L63.1475 415.8L62.2699 416.28ZM64.2556 419.376L65.1256 419.38L65.1295 418.38L64.2595 418.376L64.2556 419.376ZM65.5631 418.634L63.8451 415.587L62.974 416.078L64.692 419.125L65.5631 418.634ZM63.6025 416.294C64.0261 416.117 64.3812 415.849 64.6575 415.492L63.8666 414.88C63.7007 415.095 63.4874 415.258 63.2165 415.372L63.6025 416.294ZM64.6565 415.493C64.9654 415.097 65.1065 414.608 65.1164 414.067L64.1166 414.048C64.1096 414.427 64.0144 414.691 63.8676 414.879L64.6565 415.493ZM65.1165 414.059C65.1187 413.505 64.9934 413.003 64.6889 412.603L63.8932 413.209C64.0265 413.384 64.1181 413.65 64.1165 414.056L65.1165 414.059ZM64.6922 412.608C64.4071 412.224 64.0201 411.957 63.5535 411.799L63.2336 412.746C63.526 412.845 63.7374 413 63.8899 413.205L64.6922 412.608ZM63.561 411.802C63.12 411.645 62.6364 411.57 62.1163 411.568L62.1124 412.568C62.539 412.569 62.9082 412.631 63.2262 412.744L63.561 411.802ZM62.1163 411.568L60.2663 411.56L60.2624 412.56L62.1124 412.568L62.1163 411.568Z" fill="white"/>
<path d="M28.3452 379.734L28.3774 371.574L27.7174 371.572L27.7026 375.34L23.5386 375.323L23.5537 371.495L22.8934 371.553L22.8613 379.713L23.5213 379.715L23.5365 375.851L27.7005 375.868L27.6852 379.732L28.3452 379.734ZM36.401 379.766L36.4332 371.606L35.7732 371.604L35.741 379.763L36.401 379.766ZM45.9189 376.264L42.9789 376.252L43.0728 376.78L46.0128 376.792L45.9189 376.264ZM56.0079 375.463L53.2599 375.452L53.2728 372.176L56.8008 372.19L56.7187 371.686L52.6148 371.67L52.5826 379.83L53.2426 379.832L53.2579 375.944L56.0779 375.956L56.0079 375.463ZM63.8841 379.874L63.9163 371.714L63.2563 371.712L63.2241 379.872L63.8841 379.874Z" fill="white"/>
<path d="M28.3452 379.734L28.3433 380.234L28.8433 380.236L28.8452 379.736L28.3452 379.734ZM28.3774 371.574L28.8774 371.576L28.8794 371.076L28.3794 371.074L28.3774 371.574ZM27.7174 371.572L27.7194 371.072L27.2194 371.07L27.2174 371.57L27.7174 371.572ZM27.7026 375.34L27.7006 375.84L28.2006 375.842L28.2026 375.342L27.7026 375.34ZM23.5386 375.323L23.0386 375.321L23.0366 375.821L23.5366 375.823L23.5386 375.323ZM23.5537 371.495L24.0537 371.497L24.0558 370.95L23.5104 370.997L23.5537 371.495ZM22.8934 371.553L22.8501 371.055L22.3952 371.094L22.3934 371.551L22.8934 371.553ZM22.8613 379.713L22.3613 379.711L22.3593 380.211L22.8593 380.213L22.8613 379.713ZM23.5213 379.715L23.5193 380.215L24.0193 380.217L24.0213 379.717L23.5213 379.715ZM23.5365 375.851L23.5385 375.351L23.0385 375.349L23.0365 375.849L23.5365 375.851ZM27.7005 375.868L28.2005 375.87L28.2024 375.37L27.7024 375.368L27.7005 375.868ZM27.6852 379.732L27.1853 379.73L27.1833 380.23L27.6833 380.232L27.6852 379.732ZM28.8452 379.736L28.8774 371.576L27.8774 371.572L27.8452 379.732L28.8452 379.736ZM28.3794 371.074L27.7194 371.072L27.7154 372.072L28.3754 372.074L28.3794 371.074ZM27.2174 371.57L27.2026 375.338L28.2026 375.342L28.2174 371.574L27.2174 371.57ZM27.7045 374.84L23.5406 374.823L23.5366 375.823L27.7006 375.84L27.7045 374.84ZM24.0386 375.325L24.0537 371.497L23.0537 371.493L23.0386 375.321L24.0386 375.325ZM23.5104 370.997L22.8501 371.055L22.9368 372.051L23.597 371.993L23.5104 370.997ZM22.3934 371.551L22.3613 379.711L23.3613 379.715L23.3934 371.555L22.3934 371.551ZM22.8593 380.213L23.5193 380.215L23.5233 379.215L22.8633 379.213L22.8593 380.213ZM24.0213 379.717L24.0365 375.853L23.0365 375.849L23.0213 379.713L24.0213 379.717ZM23.5345 376.351L27.6985 376.368L27.7024 375.368L23.5385 375.351L23.5345 376.351ZM27.2005 375.866L27.1853 379.73L28.1852 379.734L28.2005 375.87L27.2005 375.866ZM27.6833 380.232L28.3433 380.234L28.3472 379.234L27.6872 379.232L27.6833 380.232ZM36.401 379.766L36.3991 380.266L36.899 380.268L36.901 379.768L36.401 379.766ZM36.4332 371.606L36.9332 371.608L36.9351 371.108L36.4352 371.106L36.4332 371.606ZM35.7732 371.604L35.7752 371.104L35.2752 371.102L35.2732 371.602L35.7732 371.604ZM35.741 379.763L35.241 379.761L35.2391 380.261L35.7391 380.263L35.741 379.763ZM36.901 379.768L36.9332 371.608L35.9332 371.604L35.901 379.764L36.901 379.768ZM36.4352 371.106L35.7752 371.104L35.7712 372.104L36.4312 372.106L36.4352 371.106ZM35.2732 371.602L35.241 379.761L36.241 379.765L36.2732 371.605L35.2732 371.602ZM35.7391 380.263L36.3991 380.266L36.403 379.266L35.743 379.263L35.7391 380.263ZM45.9189 376.264L46.4112 376.176L46.3382 375.765L45.9209 375.764L45.9189 376.264ZM42.9789 376.252L42.9809 375.752L42.3818 375.75L42.4866 376.339L42.9789 376.252ZM43.0728 376.78L42.5806 376.868L42.6536 377.279L43.0709 377.28L43.0728 376.78ZM46.0128 376.792L46.0108 377.292L46.61 377.294L46.5051 376.704L46.0128 376.792ZM45.9209 375.764L42.9809 375.752L42.977 376.752L45.9169 376.764L45.9209 375.764ZM42.4866 376.339L42.5806 376.868L43.5651 376.693L43.4712 376.164L42.4866 376.339ZM43.0709 377.28L46.0108 377.292L46.0148 376.292L43.0748 376.28L43.0709 377.28ZM46.5051 376.704L46.4112 376.176L45.4266 376.351L45.5205 376.879L46.5051 376.704ZM56.0079 375.463L56.5029 375.393L56.442 374.965L56.0098 374.963L56.0079 375.463ZM53.2599 375.452L52.7599 375.45L52.7579 375.95L53.2579 375.952L53.2599 375.452ZM53.2728 372.176L53.2748 371.676L52.7748 371.675L52.7728 372.175L53.2728 372.176ZM56.8008 372.19L56.7988 372.69L57.389 372.693L57.2943 372.11L56.8008 372.19ZM56.7187 371.686L57.2123 371.606L57.1443 371.188L56.7207 371.186L56.7187 371.686ZM52.6148 371.67L52.6167 371.17L52.1167 371.168L52.1148 371.668L52.6148 371.67ZM52.5826 379.83L52.0826 379.828L52.0806 380.328L52.5806 380.33L52.5826 379.83ZM53.2426 379.832L53.2406 380.332L53.7406 380.334L53.7426 379.834L53.2426 379.832ZM53.2579 375.944L53.2599 375.444L52.7599 375.442L52.7579 375.942L53.2579 375.944ZM56.0779 375.956L56.0759 376.456L56.6544 376.458L56.5729 375.885L56.0779 375.956ZM56.0098 374.963L53.2618 374.952L53.2579 375.952L56.0059 375.963L56.0098 374.963ZM53.7599 375.454L53.7728 372.178L52.7728 372.175L52.7599 375.45L53.7599 375.454ZM53.2708 372.676L56.7988 372.69L56.8027 371.69L53.2748 371.676L53.2708 372.676ZM57.2943 372.11L57.2123 371.606L56.2252 371.766L56.3072 372.271L57.2943 372.11ZM56.7207 371.186L52.6167 371.17L52.6128 372.17L56.7168 372.186L56.7207 371.186ZM52.1148 371.668L52.0826 379.828L53.0826 379.832L53.1148 371.672L52.1148 371.668ZM52.5806 380.33L53.2406 380.332L53.2446 379.332L52.5846 379.33L52.5806 380.33ZM53.7426 379.834L53.7579 375.946L52.7579 375.942L52.7426 379.83L53.7426 379.834ZM53.256 376.444L56.0759 376.456L56.0799 375.456L53.2599 375.444L53.256 376.444ZM56.5729 375.885L56.5029 375.393L55.5128 375.534L55.5829 376.026L56.5729 375.885ZM63.8841 379.874L63.8821 380.374L64.3821 380.376L64.3841 379.876L63.8841 379.874ZM63.9163 371.714L64.4162 371.716L64.4182 371.216L63.9182 371.214L63.9163 371.714ZM63.2563 371.712L63.2582 371.212L62.7582 371.21L62.7563 371.71L63.2563 371.712ZM63.2241 379.872L62.7241 379.87L62.7221 380.37L63.2221 380.372L63.2241 379.872ZM64.3841 379.876L64.4162 371.716L63.4163 371.712L63.3841 379.872L64.3841 379.876ZM63.9182 371.214L63.2582 371.212L63.2543 372.212L63.9143 372.214L63.9182 371.214ZM62.7563 371.71L62.7241 379.87L63.7241 379.874L63.7563 371.714L62.7563 371.71ZM63.2221 380.372L63.8821 380.374L63.8861 379.374L63.2261 379.372L63.2221 380.372Z" fill="white"/>
<line x1="22.7585" y1="407.212" x2="66.7581" y2="407.386" stroke="white"/>
<defs>
<filter id="filter0_d_0_1" x="-3.81064" y="-0.704773" width="95.765" height="464.304" filterUnits="userSpaceOnUse" color-interpolation-filters="sRGB">
<feFlood flood-opacity="0" result="BackgroundImageFix"/>
<feColorMatrix in="SourceAlpha" type="matrix" values="0 0 0 0 0 0 0 0 0 0 0 0 0 0 0 0 0 0 127 0" result="hardAlpha"/>
<feOffset dy="4"/>
<feGaussianBlur stdDeviation="2"/>
<feComposite in2="hardAlpha" operator="out"/>
<feColorMatrix type="matrix" values="0 0 0 0 0 0 0 0 0 0 0 0 0 0 0 0 0 0 0.25 0"/>
<feBlend mode="normal" in2="BackgroundImageFix" result="effect1_dropShadow_0_1"/>
<feBlend mode="normal" in="SourceGraphic" in2="effect1_dropShadow_0_1" result="shape"/>
</filter>
<filter id="filter1_d_0_1" x="28.0802" y="42.4575" width="42.5204" height="284.484" filterUnits="userSpaceOnUse" color-interpolation-filters="sRGB">
<feFlood flood-opacity="0" result="BackgroundImageFix"/>
<feColorMatrix in="SourceAlpha" type="matrix" values="0 0 0 0 0 0 0 0 0 0 0 0 0 0 0 0 0 0 127 0" result="hardAlpha"/>
<feOffset dx="5"/>
<feComposite in2="hardAlpha" operator="out"/>
<feColorMatrix type="matrix" values="0 0 0 0 0.841667 0 0 0 0 0.182361 0 0 0 0 0.182361 0 0 0 0.6 0"/>
<feBlend mode="normal" in2="BackgroundImageFix" result="effect1_dropShadow_0_1"/>
<feBlend mode="normal" in="SourceGraphic" in2="effect1_dropShadow_0_1" result="shape"/>
</filter>
</defs>
</svg>
