<svg width="84" height="457" viewBox="0 0 84 457" fill="none" xmlns="http://www.w3.org/2000/svg">
<rect width="84" height="457" fill="#F5F5F5"/>
<g filter="url(#filter0_d_0_1)">
<rect x="84.6332" y="457.667" width="86" height="456" rx="4" transform="rotate(-179.774 84.6332 457.667)" fill="#415F70"/>
</g>
<rect x="75.1601" y="13.8462" width="341.978" height="63.0823" rx="4" transform="rotate(90.1757 75.1601 13.8462)" fill="#E4E4E4"/>
<path d="M43.9193 25.2736C43.7812 24.783 43.713 24.3277 43.7147 23.9077C43.7191 22.7877 44.2133 21.7164 45.1974 20.6936C45.7102 20.8356 46.0826 21.0704 46.3146 21.398C46.57 21.7256 46.767 22.0531 46.9057 22.3803C47.0445 22.7075 47.1369 22.9295 47.1831 23.0464C47.7148 24.3085 48.1763 25.6287 48.5675 27.0069C48.7519 27.591 49.1238 27.9541 49.6832 28.0963C51.1049 28.5219 52.5036 28.8541 53.8793 29.0928C55.2784 29.3317 57.1556 29.6191 59.511 29.955L60.5954 30.0993C60.6653 30.1229 60.7703 30.135 60.9103 30.1356C61.4003 30.1375 61.7396 29.8938 61.9282 29.4046C61.9988 29.2415 62.1162 29.0553 62.2804 28.8459C62.4679 28.6367 62.6085 28.4739 62.7023 28.3576L62.2856 27.516C61.985 26.8381 61.6147 26.0666 61.1747 25.2016C61.0126 24.8976 60.9322 24.5823 60.9335 24.2556C60.9348 23.9056 61.018 23.5326 61.1829 23.1366C61.371 22.764 61.4769 22.5427 61.5005 22.4728C61.5946 22.2632 61.7353 22.0887 61.9226 21.9495C62.1097 21.8336 62.3082 21.776 62.5182 21.7768C62.7982 21.7779 63.0662 21.8723 63.3221 22.06C63.6944 22.3181 64.0779 22.7163 64.4724 23.2545C66.0275 25.3607 66.8004 27.5804 66.7912 29.9137C66.787 30.9871 66.6311 32.0481 66.3237 33.0969C66.0165 34.0757 65.7564 34.9264 65.5436 35.6489C65.354 36.3948 65.1882 37.0125 65.0463 37.5019L64.4076 39.7044C64.4074 39.7511 64.3954 39.8444 64.3715 39.9843C64.3475 40.1475 64.3004 40.264 64.2301 40.3337C64.1129 40.4733 63.949 40.6126 63.7385 40.7518C63.5512 40.9144 63.399 41.0421 63.282 41.135C63.1891 41.018 63.0497 40.8541 62.8639 40.6433C62.678 40.4559 62.5853 40.2806 62.586 40.1172C62.5634 39.9305 62.5528 39.6388 62.5544 39.2421C62.5556 38.9388 62.5807 38.4839 62.6298 37.8774L62.6678 37.1075L62.9576 34.6237L61.6983 34.4437C59.5062 34.1317 57.7689 33.8565 56.4865 33.6181C55.3673 33.4271 53.8635 33.1178 51.9751 32.6904L49.9118 32.2622C50.1156 33.8497 50.2513 34.9236 50.3191 35.4839C50.4542 36.7444 50.5204 37.6897 50.5179 38.3197C50.5149 39.0897 50.4074 39.7309 50.1954 40.2434C49.9833 40.7559 49.5503 41.1159 48.8961 41.3233C48.5937 41.0888 48.3731 40.8196 48.2343 40.5157C48.0954 40.2351 47.9915 39.943 47.9227 39.6394C47.8538 39.3592 47.8079 39.184 47.7848 39.1139L47.5774 38.4481C47.1629 37.0464 46.9217 36.0888 46.8537 35.5752C46.6947 34.4779 46.4656 33.4037 46.1664 32.3525C45.8671 31.3246 45.4639 30.0397 44.9566 28.4977C44.5872 27.4929 44.2415 26.4182 43.9193 25.2736ZM60.2858 55.3841C61.1261 55.2941 61.884 55.4138 62.5594 55.7431C63.258 56.0959 63.9327 56.5885 64.5836 57.2211L64.7501 59.3568C64.7955 59.6836 64.8181 59.882 64.8178 59.952C64.8164 60.302 64.383 60.7437 63.5176 61.2769C63.3774 61.323 63.2022 61.369 62.992 61.4149C62.8052 61.4608 62.6532 61.5302 62.5362 61.6231L56.8852 65.6608C56.1129 66.2645 55.3055 66.8563 54.4632 67.4363L56.3859 68.0389C58.8329 68.7952 60.8136 69.4797 62.3278 70.0923C63.8653 70.7284 65.3204 71.5508 66.6931 72.5595L66.4415 74.2386C66.0898 74.6805 65.6225 74.8303 65.0397 74.688C64.2006 74.4747 63.5714 74.2506 63.1524 74.0156C61.7312 73.45 60.2864 72.9776 58.8179 72.5985C57.3727 72.2195 55.5427 71.7922 53.3279 71.3168C53.0249 71.2457 52.5702 71.1505 51.964 71.0315C51.0314 70.8411 50.3329 70.4767 49.8683 69.9382C49.4271 69.3998 49.185 68.6638 49.142 67.7303C49.099 66.7968 49.4872 65.9933 50.3065 65.3199C51.1493 64.6232 52.2844 63.7527 53.7119 62.7083L54.6596 62.012C55.5021 61.3853 56.7425 60.4336 58.3809 59.1567L56.8771 58.8357C55.1985 58.4791 53.881 58.2639 52.9247 58.1902L48.6905 57.9635C48.2239 57.9383 47.629 57.9126 46.9058 57.8864C46.2059 57.8603 45.3778 57.8104 44.4214 57.7366C43.7215 57.7105 43.1158 57.4632 42.6043 56.9945C42.0927 56.5491 41.7449 55.9877 41.5609 55.3103C41.469 54.96 41.564 54.5287 41.846 54.0165C42.1046 53.5275 42.4091 53.237 42.7595 53.1451C43.3668 52.9841 43.9037 52.9046 44.3704 52.9064C44.7904 52.9081 45.1635 52.9679 45.4897 53.0858C46.0489 53.298 46.935 53.4415 48.148 53.5163C48.8945 53.5659 49.4543 53.6264 49.8273 53.6979C51.9728 54.0097 54.9343 54.488 58.7117 55.1329C58.8983 55.157 59.1431 55.2046 59.4462 55.2758C59.7725 55.3705 60.0523 55.4066 60.2858 55.3841ZM43.546 93.358C43.3831 93.2407 43.1155 93.0646 42.7431 92.8298C42.3473 92.5949 42.045 92.3371 41.8361 92.0562C41.6039 91.7753 41.4652 91.4364 41.4201 91.0396C42.3149 88.9898 43.7893 87.8756 45.8433 87.697C47.1039 87.5386 49.0885 87.2315 51.797 86.7755C53.8517 86.4336 56.1634 85.9993 58.7322 85.4728C58.919 85.4269 59.1412 85.2877 59.3988 85.0554C59.6563 84.8464 59.8435 84.7072 59.9605 84.6376C60.0774 84.5681 60.2996 84.4406 60.627 84.2552C60.9777 84.07 61.3048 83.9546 61.6084 83.9091C62.0284 83.8874 62.3664 83.9821 62.6222 84.1931C62.8781 84.4041 63.0052 84.708 63.0037 85.1046C63.0031 85.2446 62.991 85.3612 62.9673 85.4545C62.7537 86.3636 62.4591 87.1092 62.0835 87.691C61.7077 88.2962 61.1343 88.7489 60.3631 89.0492C59.1479 89.5111 57.9216 89.8446 56.6841 90.0498C55.47 90.255 53.8592 90.4586 51.8517 90.6607L50.9063 90.762C50.7662 90.7848 50.3576 90.8415 49.6806 90.9322L48.84 91.0688C49.3744 91.6543 49.9208 92.1581 50.4791 92.5803C51.0607 93.0259 51.7471 93.5187 52.5383 94.0584L53.4458 94.692L57.8785 97.8245C61.2993 100.171 63.9519 102.048 65.8364 103.456C66.2086 103.737 66.5806 104.077 66.9523 104.475C67.324 104.897 67.6841 105.307 68.0325 105.705C68.4505 106.22 68.7757 106.594 69.0081 106.828C69.3335 107.156 69.4956 107.449 69.4946 107.705C69.494 107.869 69.4117 108.032 69.2477 108.194C69.0604 108.357 68.8382 108.496 68.5811 108.612C68.3239 108.727 68.0787 108.785 67.8454 108.784C67.4254 108.782 66.8896 108.547 66.2381 108.078L64.4931 106.811C63.6091 106.131 62.8064 105.544 62.085 105.051C61.0145 104.347 60.2116 103.807 59.6764 103.432C58.1637 102.422 56.8953 101.589 55.8712 100.932C54.847 100.298 53.8111 99.6985 52.7633 99.1344C49.9924 97.6534 46.92 95.728 43.546 93.358ZM56.1193 126.783L56.2894 128.043C56.4258 128.954 56.505 129.573 56.5271 129.899L56.5938 130.74C56.616 131.02 56.6379 131.37 56.6596 131.79C56.6813 132.21 56.6911 132.688 56.689 133.225C56.6869 133.738 56.6738 134.112 56.6495 134.345C56.5763 135.161 56.3056 135.755 55.8375 136.127C55.3693 136.522 54.6684 136.752 53.7348 136.818C53.7351 136.725 53.7474 136.585 53.7714 136.399C53.7955 136.212 53.8194 136.06 53.8432 135.944C53.9625 135.291 54.0231 134.696 54.0253 134.16C54.0277 133.53 53.9485 132.923 53.7874 132.339C53.3267 130.843 52.8442 128.928 52.3401 126.593C52.2251 126.149 52.0399 125.798 51.7842 125.541C51.5518 125.306 51.2141 125.153 50.771 125.082C49.8849 124.938 48.9989 124.76 48.1131 124.546C47.2971 124.38 46.6209 124.249 46.0846 124.153C45.8981 124.129 45.6531 124.117 45.3498 124.115C45.0698 124.114 44.8714 124.113 44.7548 124.113C44.6833 124.486 44.6468 124.871 44.6452 125.268C44.6422 126.038 44.7901 126.983 45.089 128.104C45.571 130.16 46.0878 132.227 46.6396 134.305L47.6044 138.159C47.903 139.374 48.1676 140.332 48.3981 141.032C48.8121 142.551 49.0995 143.649 49.2601 144.326C49.3057 144.606 49.3282 144.816 49.3277 144.956C49.3254 145.539 49.0905 145.924 48.6231 146.108C48.4595 146.178 48.296 146.212 48.1327 146.211C47.8527 146.21 47.5847 146.116 47.3288 145.928C47.0729 145.741 46.8639 145.483 46.7019 145.156C46.5169 144.712 46.321 144.104 46.114 143.333C45.4695 141.091 44.859 139.105 44.2825 137.376C43.2224 134.012 42.4739 131.512 42.037 129.877C41.8529 129.223 41.6935 128.243 41.5586 126.935L41.3887 125.64C41.2985 124.846 41.5697 124.135 42.2021 123.508L42.8346 122.88C43.561 122.113 44.1933 121.521 44.7316 121.103C45.1295 120.801 45.6783 120.675 46.3781 120.724C47.1945 120.798 48.4423 120.954 50.1213 121.194L51.2408 121.339L52.2903 121.448C52.5031 120.748 52.7619 120.201 53.0668 119.806C53.395 119.434 53.9091 119.237 54.6092 119.217C54.6995 119.964 54.744 120.524 54.7425 120.897C54.7642 121.317 54.8679 121.656 55.0535 121.914C55.2392 122.171 55.5417 122.37 55.9612 122.512C56.8002 122.772 58.0351 123.209 59.666 123.822C60.272 124.011 60.9477 124.247 61.6933 124.53C62.0661 124.648 62.5325 124.731 63.0923 124.78C63.5123 124.782 63.8386 124.877 64.0712 125.064C64.327 125.275 64.5241 125.603 64.6623 126.046C65.3073 128.172 65.798 130.939 66.1346 134.347C66.2469 135.468 66.2775 136.576 66.2265 137.673C66.2204 139.213 65.6326 140.354 64.463 141.096C64.1822 141.305 63.8084 141.408 63.3418 141.406C63.1318 141.406 62.9802 141.382 62.887 141.335C62.5609 141.193 62.2818 140.982 62.0495 140.701C61.8405 140.444 61.7368 140.117 61.7384 139.72L61.7088 138.355C61.6647 137.701 61.6432 137.223 61.6444 136.92C61.647 136.266 61.7654 135.823 61.9997 135.591C62.3276 135.266 62.4926 134.858 62.4945 134.368C62.495 134.228 62.4726 133.995 62.4273 133.668L61.6359 130.2L61.2914 128.798L56.1193 126.783ZM59.8835 157.458C60.7238 157.368 61.4817 157.487 62.1571 157.817C62.8557 158.169 63.5304 158.662 64.1813 159.295L64.3479 161.43C64.3932 161.757 64.4158 161.955 64.4155 162.025C64.4141 162.375 63.9807 162.817 63.1153 163.35C62.9751 163.396 62.7999 163.442 62.5897 163.488C62.4029 163.534 62.2509 163.604 62.1339 163.696L56.4829 167.734C55.7106 168.338 54.9032 168.93 54.0609 169.51L55.9836 170.112C58.4306 170.869 60.4113 171.553 61.9255 172.166C63.463 172.802 64.9181 173.624 66.2908 174.633L66.0392 176.312C65.6875 176.754 65.2202 176.904 64.6374 176.761C63.7983 176.548 63.1691 176.324 62.7501 176.089C61.329 175.523 59.8841 175.051 58.4156 174.672C56.9704 174.293 55.1404 173.866 52.9256 173.39C52.6226 173.319 52.1679 173.224 51.5617 173.105C50.6292 172.915 49.9306 172.55 49.466 172.012C49.0248 171.473 48.7827 170.737 48.7397 169.804C48.6967 168.87 49.0849 168.067 49.9042 167.393C50.747 166.697 51.8821 165.826 53.3096 164.782L54.2573 164.085C55.0998 163.459 56.3402 162.507 57.9786 161.23L56.4748 160.909C54.7962 160.553 53.4787 160.337 52.5224 160.264L48.2882 160.037C47.8217 160.012 47.2267 159.986 46.5035 159.96C45.8036 159.934 44.9755 159.884 44.0191 159.81C43.3192 159.784 42.7135 159.537 42.202 159.068C41.6904 158.623 41.3426 158.061 41.1586 157.384C41.0667 157.033 41.1617 156.602 41.4437 156.09C41.7023 155.601 42.0068 155.31 42.3572 155.218C42.9645 155.058 43.5015 154.978 43.9681 154.98C44.3881 154.981 44.7612 155.041 45.0874 155.159C45.6466 155.371 46.5327 155.515 47.7457 155.59C48.4922 155.639 49.052 155.7 49.425 155.771C51.5705 156.083 54.532 156.561 58.3095 157.206C58.496 157.23 58.7408 157.278 59.0439 157.349C59.3702 157.444 59.6501 157.48 59.8835 157.458ZM63.3556 191.171C63.687 189.982 64.3549 189.25 65.3593 188.974C65.7302 189.582 65.9495 190.19 66.0171 190.797C66.108 191.427 66.1631 192.255 66.1823 193.282L66.2064 196.047C66.2221 197.984 66.2038 199.676 66.1514 201.122C66.1224 202.569 66.0943 203.782 66.0671 204.762L66.0206 207.667C66.0169 208.623 65.979 209.347 65.9071 209.836C65.8594 210.093 65.7765 210.407 65.6584 210.78L65.4455 211.514L65.0955 211.513C65.0028 211.349 64.8755 211.092 64.7135 210.742C64.5515 210.414 64.4476 210.134 64.4018 209.9C64.0358 208.056 63.8552 206.515 63.86 205.278C63.7946 204.111 63.7082 202.361 63.6007 200.027L63.536 198.697C63.2326 198.719 62.7658 198.729 62.1358 198.726C60.3392 198.719 58.5667 198.514 56.8182 198.11C55.0931 197.73 53.0067 197.22 50.5592 196.581C49.5569 196.32 47.914 195.789 45.6305 194.986L44.7217 194.668C44.0925 194.455 43.1491 194.066 41.8913 193.501C41.6582 193.431 41.4723 193.243 41.3335 192.939C41.1713 192.659 41.0908 192.367 41.0919 192.063C41.0922 191.993 41.1161 191.865 41.1635 191.679C41.3284 191.259 41.6443 191.05 42.1109 191.052C42.2043 191.053 42.3558 191.077 42.5657 191.124C43.8479 191.409 45.7943 191.895 48.405 192.582L50.2931 193.045C52.3911 193.566 54.2212 193.982 55.7833 194.291C57.3453 194.624 58.9075 194.91 60.4699 195.15C60.6332 195.174 60.8197 195.209 61.0295 195.257C61.2627 195.304 61.4725 195.34 61.6591 195.364C62.1489 195.413 62.5225 195.344 62.7799 195.159C63.0606 194.997 63.2016 194.729 63.2031 194.355C63.2034 194.285 63.1807 194.122 63.135 193.865C63.0662 193.562 63.0325 193.246 63.0337 192.92C63.0354 192.5 63.1427 191.917 63.3556 191.171ZM59.9788 222.08C61.4919 222.996 62.8163 224.413 63.9521 226.331C64.8561 227.851 65.3041 229.614 65.2962 231.621C65.2906 233.044 65.0402 234.42 64.545 235.748C64.0731 237.076 63.4037 238.17 62.537 239.03C62.2325 239.332 61.9395 239.658 61.6582 240.007C61.1894 240.542 60.8965 240.855 60.7794 240.948C59.5382 242.11 58.1709 242.688 56.6776 242.682C55.5109 242.677 54.3224 242.299 53.112 241.548C51.5059 240.562 50.0982 239.541 48.889 238.486C47.6799 237.432 46.6462 236.249 45.788 234.939C44.3267 232.717 43.6001 230.59 43.6081 228.56C43.6105 227.954 43.6829 227.347 43.8253 226.741C44.2766 224.713 45.2281 223.072 46.6797 221.818C48.1547 220.563 49.8255 219.94 51.6921 219.947C53.1155 219.953 54.5372 220.355 55.9574 221.154C56.0739 221.201 56.1902 221.295 56.3063 221.435C56.4223 221.599 56.5152 221.728 56.5848 221.822L56.1966 222.625L55.8086 223.394C55.4091 224.115 55.0806 224.581 54.8231 224.79C54.5655 225.022 54.2034 225.137 53.7367 225.135C53.41 225.134 52.9668 225.097 52.4071 225.025C52.1972 225.001 51.8939 224.988 51.4973 224.987C50.6339 224.983 49.5952 225.084 48.3811 225.289C48.0309 225.335 47.762 225.473 47.5744 225.706C47.3867 225.962 47.2922 226.277 47.2907 226.65C47.2899 226.837 47.301 226.988 47.3239 227.105C47.5296 228.203 47.7709 229.137 48.0478 229.908C48.3247 230.702 48.7419 231.416 49.2994 232.048C50.2982 233.219 51.2625 234.237 52.1924 235.104C53.1223 235.971 54.1227 236.734 55.1934 237.391C55.9383 237.837 56.6608 238.062 57.3608 238.065C57.9441 238.067 58.5163 237.941 59.0773 237.686C59.6383 237.432 60.2698 237.061 60.9717 236.574C62.0949 235.762 62.6591 234.702 62.6642 233.396C62.6661 232.929 62.5979 232.45 62.4599 231.96C62.4139 231.796 62.1718 231.049 61.7337 229.717C61.6876 229.577 61.6415 229.425 61.5955 229.261C61.5494 229.121 61.5033 228.969 61.4573 228.806L60.318 224.811C60.1567 224.297 59.9382 223.503 59.6624 222.429L59.9788 222.08ZM45.5341 272.721C45.3005 272.791 45.0787 272.825 44.8687 272.824C44.4954 272.822 44.1925 272.704 43.9601 272.47C43.7509 272.259 43.6471 271.967 43.6485 271.594C43.6491 271.454 43.6612 271.337 43.6849 271.244C43.9224 270.195 44.1823 269.368 44.4647 268.762C44.6765 268.296 45.2049 267.435 46.0499 266.178C46.6837 265.224 47.1768 264.433 47.5293 263.804C47.9758 262.989 48.2826 262.116 48.4496 261.183C48.5212 260.763 48.6418 259.772 48.8113 258.209C48.8607 257.509 48.9094 256.996 48.9574 256.67L43.7799 256.019L43.2198 256.052C42.3798 256.049 41.8202 255.942 41.541 255.731C41.2618 255.543 41.1233 255.146 41.1257 254.539C41.1282 253.909 41.3287 253.361 41.7272 252.896C42.1257 252.431 42.6166 252.2 43.1999 252.202C44.9733 252.209 46.5479 252.309 47.9238 252.501C52.1445 253.171 56.5252 254.693 61.0659 257.068C63.604 258.408 65.5559 260.457 66.9217 263.216C67.3616 264.104 67.5797 265.003 67.5761 265.913C67.5724 266.847 67.324 267.709 66.8309 268.5C66.361 269.315 65.67 269.989 64.7579 270.522C63.9393 271.009 63.145 271.251 62.375 271.248C61.3017 271.244 60.2184 270.819 59.125 269.975C57.8223 268.967 55.9729 267.536 53.5769 265.683L50.6459 263.397C50.6458 263.42 50.6107 263.443 50.5406 263.466C50.4938 263.513 50.4469 263.559 50.4001 263.606L49.977 264.374C48.9194 266.306 48.0855 267.726 47.4752 268.634C46.9351 269.519 46.663 270.463 46.6591 271.466C46.6579 271.769 46.6686 272.003 46.6913 272.166C46.5743 272.236 46.399 272.328 46.1652 272.444C45.9314 272.56 45.721 272.652 45.5341 272.721ZM52.5151 259.799C53.5846 260.76 54.7009 261.721 55.8637 262.682C57.0265 263.667 58.1198 264.534 59.1435 265.285C59.5623 265.59 60.0046 265.848 60.4705 266.06C60.9596 266.272 61.4489 266.461 61.9382 266.626C62.4275 266.815 62.777 266.944 62.9867 267.015C63.0566 267.039 63.1732 267.051 63.3366 267.052C63.5232 267.052 63.7567 267.03 64.0368 266.984C64.317 266.939 64.5155 266.905 64.6323 266.882C64.1256 265.176 63.0818 263.621 61.5006 262.214C59.9195 260.808 58.1622 259.693 56.2288 258.868C54.2952 258.068 52.6285 257.653 51.2286 257.624C51.1801 258.09 51.2604 258.452 51.4694 258.71C51.6783 258.991 52.0268 259.354 52.5151 259.799ZM49.6191 293.019C49.6661 292.949 49.7599 292.832 49.9005 292.67C50.0412 292.507 50.1351 292.356 50.1823 292.216C51.1493 289.606 53.0003 287.654 55.7354 286.358C56.9978 285.756 58.9608 284.994 61.6245 284.071L62.5007 283.759C62.8278 283.667 63.1196 283.622 63.3763 283.623C63.7496 283.624 63.9827 283.695 64.0754 283.835C64.2147 284.023 64.2835 284.338 64.2817 284.781C64.2809 284.991 64.2565 285.26 64.2085 285.586C64.1844 285.796 64.1017 286.052 63.9605 286.355C63.8426 286.658 63.7484 286.891 63.6777 287.054C63.5598 287.38 63.3839 287.613 63.15 287.752C62.9394 287.914 62.6472 288.03 62.2736 288.098C59.1213 288.669 56.2122 289.72 53.5461 291.249C53.0315 291.574 52.528 292.038 52.0356 292.643C51.6604 293.132 51.4722 293.516 51.4711 293.796C51.4694 294.216 51.7828 294.637 52.4111 295.06L54.6452 296.573C56.0649 297.489 57.5543 298.498 59.1133 299.601C60.3233 300.446 60.9261 301.428 60.9217 302.548C60.9188 303.272 60.6709 304.017 60.1778 304.785C59.9429 305.204 59.6037 305.413 59.1604 305.411C58.8337 305.41 58.5543 305.257 58.3222 304.953C57.2077 303.549 55.9526 302.307 54.5568 301.228C53.1844 300.149 51.4275 298.929 49.2862 297.567L48.4134 297.004L46.6678 295.877C43.0603 293.553 40.0813 291.616 37.7307 290.067C37.6376 289.996 37.4398 289.856 37.1373 289.644C36.8347 289.456 36.6022 289.246 36.4398 289.012C36.2541 288.778 36.1618 288.509 36.163 288.205C35.9553 287.621 35.8403 287.189 35.8181 286.909C35.7959 286.629 35.75 286.419 35.6806 286.279L35.8566 286.034L49.6191 293.019ZM43.3298 319.467C43.0781 319.053 42.9533 318.579 42.9554 318.045C42.9578 317.459 43.1067 316.893 43.4021 316.347C43.7109 315.815 44.1459 315.39 44.7072 315.072C45.2684 314.755 45.909 314.624 46.6287 314.68L47.1083 314.782C47.588 314.864 47.9411 314.932 48.1675 314.986C48.6604 315.108 49.0061 315.349 49.2047 315.71C49.4033 316.071 49.5614 316.551 49.679 317.152C49.7575 317.539 49.796 317.919 49.7945 318.292C49.7899 319.466 49.3927 320.451 48.6029 321.248C48.1745 321.673 47.6537 321.884 47.0404 321.882C46.4404 321.879 45.7946 321.657 45.103 321.214C44.3183 320.704 43.7273 320.122 43.3298 319.467ZM48.7764 317.808C48.2573 317.593 47.6115 317.364 46.8391 317.121L46.2399 316.918L46.1794 317.058C46.086 317.058 45.9394 317.057 45.7394 317.056C45.5526 317.069 45.3925 317.095 45.2591 317.135C44.8451 317.28 44.5912 317.445 44.4971 317.632C44.4568 317.711 44.4763 317.825 44.5557 317.972C44.6351 318.132 44.7279 318.272 44.8341 318.393C44.9934 318.58 45.3255 318.881 45.8305 319.297C46.176 319.605 46.5887 319.76 47.0687 319.762C47.482 319.763 47.8558 319.645 48.1901 319.406C48.5243 319.181 48.7523 318.862 48.8739 318.449C48.8874 318.409 48.8943 318.336 48.8948 318.229C48.8958 317.976 48.8563 317.835 48.7764 317.808ZM48.2423 326.466C47.7623 326.464 47.4489 326.483 47.3021 326.522C47.1552 326.575 47.0814 326.695 47.0807 326.882C47.08 327.055 47.1189 327.328 47.1974 327.702L47.1956 328.162C47.1926 328.922 47.0241 329.388 46.6901 329.56C46.6632 329.627 46.5896 329.693 46.4693 329.759C46.3624 329.825 46.2889 329.872 46.2488 329.898C46.209 329.845 46.1426 329.765 46.0497 329.658C45.9701 329.551 45.9239 329.45 45.9109 329.357C45.8454 329.05 45.7606 328.59 45.6563 327.976C45.6435 327.856 45.611 327.643 45.5589 327.336C45.4674 326.855 45.1884 326.614 44.7217 326.612C44.655 326.612 44.5283 326.625 44.3415 326.651C43.6209 326.808 42.9871 326.939 42.44 327.043C41.9062 327.148 41.4592 327.233 41.099 327.298L39.3376 327.651C38.697 327.782 38.2034 327.847 37.8568 327.845C37.6035 327.844 37.417 327.784 37.2975 327.663C37.1646 327.543 37.0989 327.309 37.1003 326.962C37.1014 326.669 37.1756 326.449 37.3229 326.303C37.4701 326.157 37.7039 326.051 38.0241 325.986C38.6379 325.868 39.5587 325.665 40.7865 325.377L44.109 324.75C44.8825 324.726 45.2706 324.348 45.2735 323.614C45.2745 323.374 45.3151 323.208 45.3955 323.115C45.4625 323.035 45.5361 322.962 45.6163 322.896C45.7099 322.83 45.7967 322.797 45.8767 322.797C45.9434 322.797 46.0166 322.837 46.0963 322.918C46.1892 323.011 46.2422 323.098 46.2552 323.178C46.32 323.659 46.4521 323.979 46.6515 324.14C46.8508 324.314 47.1637 324.409 47.5903 324.424L48.8702 324.469C49.4301 324.484 50.0034 324.506 50.5899 324.535C51.1765 324.564 51.6963 324.613 52.1494 324.682C52.5358 324.736 52.8152 324.904 52.9874 325.185C53.1729 325.466 53.2648 325.853 53.2628 326.346C53.262 326.559 53.2546 326.726 53.2408 326.846C53.2131 327.126 53.0785 327.445 52.8371 327.804C52.609 328.163 52.3615 328.356 52.0948 328.381C51.3343 328.512 50.922 328.23 50.8581 327.537C50.9532 327.084 50.9009 326.817 50.7013 326.736C50.5016 326.655 50.2551 326.601 49.9619 326.573C49.7886 326.572 49.5419 326.558 49.2221 326.53C48.9022 326.489 48.5756 326.468 48.2423 326.466ZM26.2326 29.4689C25.6459 29.4932 25.1992 29.5048 24.8925 29.5036C24.1725 29.5008 23.506 29.4448 22.8931 29.3357C22.2802 29.24 21.6942 29.0643 21.1352 28.8088C21.1354 28.7555 21.1626 28.6289 21.2167 28.4291C21.2708 28.2426 21.2913 28.1161 21.2782 28.0493C21.3588 27.8897 21.4726 27.7901 21.6194 27.7507C21.7662 27.7113 22.0063 27.6989 22.3395 27.7135C22.4461 27.7273 22.6194 27.7346 22.8594 27.7356L23.8195 27.7194C24.273 27.6945 24.633 27.6826 24.8997 27.6836C25.4463 27.6858 25.9462 27.7211 26.3993 27.7895C26.3474 27.416 26.3228 26.8959 26.3254 26.2292L26.3287 25.3892C26.33 25.0559 26.3243 24.8159 26.3116 24.6692C26.274 24.0423 26.0419 23.7281 25.6153 23.7264C25.5086 23.726 25.3819 23.7455 25.235 23.7849C24.7145 23.9162 23.9073 24.0463 22.8135 24.1754C21.9731 24.2654 21.2661 24.3626 20.6923 24.467C20.1052 24.5847 19.5511 24.7758 19.03 25.0405C18.9766 25.0669 18.9365 25.0801 18.9099 25.08C18.6566 25.079 18.4237 24.9581 18.2113 24.7172C17.9856 24.4763 17.8733 24.2226 17.8743 23.9559C17.8755 23.6492 18.0498 23.4166 18.3971 23.2579C18.731 23.1126 19.0848 22.9873 19.4585 22.8821C19.819 22.7769 20.2794 22.6587 20.84 22.5276C21.3871 22.3964 21.7408 22.3111 21.901 22.2718C22.4349 22.1272 23.1553 22.01 24.0624 21.9203C24.9428 21.8171 25.5899 21.713 26.0036 21.6079C26.0703 21.5948 26.1172 21.555 26.1441 21.4885C26.1844 21.422 26.2113 21.3421 26.225 21.2488C26.2521 21.1556 26.279 21.0823 26.3059 21.0291C26.3596 20.9493 26.4001 20.8161 26.4275 20.6296C26.4682 20.4564 26.5087 20.3299 26.549 20.2501C26.5893 20.1569 26.6497 20.0704 26.73 19.9908C26.8236 19.9111 26.9038 19.8714 26.9705 19.8717C27.0505 19.872 27.137 19.9124 27.23 19.9927C27.3363 20.0865 27.396 20.1734 27.409 20.2534C27.4868 20.8138 27.6119 21.1943 27.7845 21.3949C27.957 21.5956 28.1966 21.6966 28.5033 21.6978C28.5966 21.6981 28.7767 21.6855 29.0434 21.6599C29.8037 21.5829 30.4172 21.5453 30.8839 21.5471C31.1906 21.5484 31.4238 21.5693 31.5837 21.6099L32.1632 21.7322C32.5629 21.8138 32.8826 21.8884 33.1223 21.956C33.3753 22.037 33.6415 22.1514 33.921 22.2991C34.4664 22.6213 34.7375 23.169 34.7345 23.9423C34.734 24.0623 34.7201 24.2156 34.6927 24.4022C34.6518 24.6154 34.5577 24.8283 34.4102 25.0411C34.2626 25.2538 34.1085 25.4532 33.9478 25.6393C33.7871 25.8253 33.6732 25.9582 33.6062 26.0379C33.5124 26.1575 33.372 26.2637 33.185 26.3563C32.9979 26.4489 32.8177 26.4948 32.6444 26.4941C32.6044 26.494 32.5445 26.4804 32.4646 26.4534C32.1583 26.3455 32.0059 26.1116 32.0073 25.7516C32.008 25.5783 32.0421 25.3917 32.1095 25.192C32.2042 24.859 32.252 24.5792 32.2529 24.3526C32.2539 24.0859 32.1746 23.8989 32.0151 23.7916C31.8688 23.6977 31.6156 23.65 31.2556 23.6486L30.8155 23.6669C30.3354 23.6917 29.9887 23.7036 29.7754 23.7028C29.3754 23.7012 28.9755 23.6796 28.5756 23.6381C28.0159 23.5692 27.7549 23.8215 27.7927 24.395C27.8056 24.4884 27.8118 24.6217 27.8111 24.7951C27.8103 24.9951 27.7958 25.295 27.7675 25.6949C27.7755 27.0549 27.7386 27.9548 27.6569 28.3945C27.6299 28.4877 27.5829 28.5675 27.5159 28.6339C27.4482 28.9003 27.3741 29.1 27.2936 29.2331C27.2264 29.3661 27.0928 29.4389 26.8927 29.4515L26.2326 29.4689ZM22.0356 33.793C22.3545 34.0609 22.6071 34.2553 22.7933 34.376C22.9927 34.5234 23.0921 34.6772 23.0915 34.8372C23.0908 34.9972 22.9904 35.1168 22.79 35.196C22.256 35.3805 21.8356 35.4722 21.529 35.471C21.3956 35.4705 21.2956 35.4634 21.229 35.4498C20.9626 35.3954 20.7765 35.2414 20.6708 34.9876C20.5651 34.7472 20.5263 34.4604 20.5542 34.1272C20.5547 34.0072 20.5555 33.8005 20.5567 33.5072C20.5578 33.2272 20.5988 32.9807 20.6796 32.7676C20.7604 32.568 20.8944 32.3885 21.0817 32.2292C21.4964 31.8842 21.8971 31.7124 22.2838 31.714C25.4037 31.7263 27.7504 31.7222 29.3239 31.7017L32.8439 31.6956C33.3106 31.6974 33.7374 31.6524 34.1245 31.5606C34.1912 31.5476 34.2712 31.5412 34.3645 31.5416C34.8579 31.5435 35.1032 31.8778 35.1006 32.5445C35.0989 32.9845 34.9507 33.3506 34.6563 33.6427C34.3751 33.9483 34.0012 34.0868 33.5346 34.0583C32.8281 34.0155 31.7683 33.958 30.3553 33.8858L27.9558 33.7563C25.6895 33.6407 23.9898 33.5607 22.8567 33.5162C22.7234 33.5024 22.5767 33.5085 22.4166 33.5345C22.2565 33.5605 22.1564 33.5801 22.1164 33.5933L22.0356 33.793ZM27.2516 44.9643C28.0494 45.5141 28.3136 46.1351 28.0442 46.8274C27.7748 47.533 27.4398 47.9584 27.0392 48.1035L25.4369 48.6971C25.0229 48.8555 24.389 48.9863 23.5353 49.0897C22.6815 49.2063 21.8677 49.3097 21.0941 49.4C21.054 49.4132 20.9806 49.4196 20.874 49.4192C20.4606 49.4175 20.1949 49.1898 20.0767 48.736C19.9978 48.4424 20.0721 48.2027 20.2995 48.0169C20.6339 47.7382 21.1482 47.5136 21.8422 47.343C22.2159 47.2511 23.0164 47.1209 24.2437 46.9524C25.2037 46.9562 25.5584 46.6243 25.3077 45.9566C24.629 45.6073 24.0766 45.3784 23.6503 45.2701C23.2241 45.1751 22.8578 45.0736 22.5515 44.9657C21.7795 44.6294 21.3607 44.341 21.2949 44.1008C21.2425 43.8739 21.2701 43.6473 21.3776 43.4211C21.4851 43.2082 21.6989 43.1024 22.0189 43.1036C22.6855 43.1063 23.499 43.0695 24.4593 42.9932C25.4329 42.9304 25.8938 42.7056 25.842 42.3187C25.8035 41.9452 25.6645 41.6847 25.4251 41.537C25.199 41.3895 24.7664 41.2011 24.1273 40.9719C23.4881 40.7561 22.7888 40.5933 22.0292 40.4836C21.8293 40.4562 21.6096 40.3753 21.3701 40.241C21.144 40.1202 21.0044 40.0063 20.9515 39.8994C20.8852 39.7925 20.9194 39.5926 21.0539 39.2998C21.175 39.0203 21.3556 38.8543 21.5958 38.8019C21.8494 38.7496 22.1095 38.704 22.3764 38.665C23.1234 38.5613 23.7637 38.5105 24.297 38.5126C24.8303 38.528 25.3304 38.49 25.7974 38.3985C25.9042 38.3722 26.0645 38.3129 26.2782 38.2204C26.4919 38.1279 26.8538 37.6426 27.3639 36.7646C27.5915 36.5255 27.812 36.4131 28.0252 36.4272C28.2518 36.4415 28.4181 36.5355 28.5241 36.7092C28.6831 36.9765 28.7619 37.2635 28.7607 37.5702C28.7592 37.9568 28.6444 38.323 28.4164 38.6688C28.1884 39.0146 27.934 39.2736 27.6533 39.4458C27.3994 39.6048 27.199 39.7107 27.0521 39.7634C26.9052 39.8162 26.8316 39.8892 26.8312 39.9826C26.8309 40.0626 26.8906 40.1495 27.0102 40.2433C27.1431 40.3505 27.3092 40.4978 27.5084 40.6852C27.9203 41.0735 28.1921 41.4413 28.3241 41.7885C28.4694 42.149 28.5415 42.4427 28.5406 42.6693C28.5397 42.9093 28.4587 43.1623 28.2976 43.4284C28.1499 43.6945 27.8892 43.8734 27.5155 43.9653L26.034 44.3395L27.2516 44.9643ZM20.5994 53.1094C20.6038 51.9894 21.0866 51.2779 22.0479 50.9751C22.0474 51.0817 22.0402 51.2217 22.0262 51.395C22.0255 51.5816 22.0115 51.7349 21.9844 51.8548C21.957 52.0414 21.9431 52.1746 21.9428 52.2546C21.9404 52.8546 22.2051 53.3557 22.7369 53.7578C23.1224 54.0393 23.5152 54.1809 23.9152 54.1824C24.1819 54.1835 24.4421 54.1178 24.696 53.9855C25.2172 53.6942 25.7919 53.3365 26.4202 52.9123C26.8347 52.6339 27.229 52.3821 27.6032 52.157C28.0309 51.892 28.5048 51.7605 29.0248 51.7626C29.5048 51.7644 29.9243 51.8994 30.2832 52.1675C30.6554 52.449 30.8872 52.8566 30.9784 53.3903L31.0959 54.0307C31.2265 54.7246 31.2911 55.2448 31.2897 55.5915C31.2875 56.1648 31.1521 56.671 30.8837 57.1099C30.8167 57.203 30.6963 57.2959 30.5226 57.3885C30.3622 57.4945 30.2352 57.574 30.1417 57.627C30.1021 57.5335 30.0359 57.3999 29.9433 57.2262C29.8639 57.0659 29.8178 56.9257 29.8049 56.8057C29.779 56.6189 29.7668 56.3388 29.7682 55.9655C29.7697 55.6055 29.7641 55.3322 29.7515 55.1454C29.7132 54.7186 29.5678 54.378 29.3155 54.1237C29.0764 53.8828 28.7836 53.7616 28.4369 53.7603C28.1703 53.7592 27.8966 53.8381 27.616 53.997C27.0146 54.3547 26.3259 54.8519 25.5501 55.4889C24.9482 55.9665 24.3273 56.2041 23.6873 56.2016C23.3406 56.2002 22.9743 56.1187 22.5882 55.9572C21.2571 55.4053 20.5941 54.456 20.5994 53.1094ZM22.5649 72.0141C22.5257 71.814 22.5065 71.6206 22.5072 71.4339C22.509 70.9939 22.6239 70.581 22.8521 70.1952C23.0803 69.8095 23.4152 69.4108 23.8568 68.9992L23.3376 68.7971C22.805 68.6084 22.5454 68.514 22.5587 68.5141C22.0526 68.3654 21.6471 68.0705 21.3422 67.6293C21.0506 67.1881 20.9059 66.7009 20.908 66.1676C20.9094 65.7942 20.9842 65.4345 21.1322 65.0884C21.2936 64.7424 21.5215 64.4366 21.8158 64.1711C22.5384 63.534 23.3063 63.217 24.1196 63.2202C25.0129 63.2237 25.9381 63.6074 26.8951 64.3711C27.3071 64.7061 27.5856 65.0872 27.7306 65.5144C27.8755 65.955 27.9468 66.4686 27.9445 67.0553C27.9434 67.3353 28.0026 67.5355 28.1222 67.656C28.2417 67.7765 28.4548 67.824 28.7616 67.7985C30.0954 67.6704 31.3157 67.6086 32.4224 67.6129C32.729 67.6142 33.1621 67.6692 33.7217 67.7781C33.9882 67.8324 34.201 67.96 34.3602 68.1606C34.5328 68.3613 34.6185 68.6016 34.6174 68.8816C34.617 68.9749 34.6101 69.0416 34.5966 69.0815C34.4741 69.721 34.0861 70.0395 33.4328 70.0369L32.1727 70.072C29.6658 70.1154 27.7922 70.188 26.5518 70.2898C26.1917 70.3151 25.8447 70.3937 25.5108 70.5257C25.1769 70.6711 24.7227 70.8826 24.1483 71.1604C24.0147 71.2265 23.8806 71.4126 23.7461 71.7188C23.7193 71.7587 23.6857 71.8252 23.6453 71.9184C23.6049 72.0249 23.5579 72.1047 23.5044 72.1578C23.4239 72.2775 23.3101 72.3904 23.163 72.4965C23.0293 72.6026 22.9357 72.6756 22.8822 72.7154C22.8425 72.6219 22.783 72.5017 22.7036 72.3547C22.6375 72.2211 22.5912 72.1076 22.5649 72.0141ZM26.5066 66.5296C26.2946 66.1954 25.9556 65.9208 25.4898 65.7056C25.0373 65.4905 24.5644 65.382 24.0711 65.38C23.3644 65.3772 22.8035 65.6084 22.3883 66.0734C23.1067 66.5029 23.7654 66.8322 24.3645 67.0612C24.9769 67.2903 25.6031 67.4061 26.2431 67.4086C26.5231 67.4097 26.6636 67.2769 26.6647 67.0102C26.6653 66.8636 26.6126 66.7034 26.5066 66.5296ZM22.277 79.097C22.0253 78.6826 21.9005 78.2088 21.9026 77.6755C21.9049 77.0888 22.0538 76.5227 22.3493 75.9772C22.6581 75.4451 23.0931 75.0201 23.6543 74.7023C24.2156 74.3846 24.8561 74.2537 25.5759 74.3099L26.0555 74.4118C26.5352 74.4937 26.8883 74.5618 27.1147 74.616C27.6076 74.7379 27.9533 74.9793 28.1519 75.3401C28.3505 75.7009 28.5086 76.1815 28.6262 76.782C28.7047 77.1689 28.7432 77.5491 28.7417 77.9224C28.7371 79.0957 28.3399 80.0809 27.55 80.8777C27.1217 81.3027 26.6009 81.514 25.9875 81.5116C25.3875 81.5092 24.7417 81.2867 24.0501 80.844C23.2655 80.3342 22.6744 79.7519 22.277 79.097ZM27.7236 77.4384C27.2044 77.223 26.5587 76.9938 25.7863 76.7508L25.1871 76.5484L25.1265 76.6882C25.0332 76.6878 24.8865 76.6872 24.6865 76.6864C24.4998 76.699 24.3397 76.7251 24.2062 76.7645C23.7923 76.9096 23.5383 77.0752 23.4443 77.2615C23.4039 77.3414 23.4235 77.4548 23.5029 77.6018C23.5823 77.7621 23.6751 77.9025 23.7813 78.0229C23.9405 78.2102 24.2727 78.5115 24.7777 78.9268C25.1232 79.2348 25.5359 79.3898 26.0159 79.3917C26.4292 79.3933 26.803 79.2748 27.1373 79.0361C27.4715 78.8108 27.6994 78.4917 27.8211 78.0788C27.8346 78.0388 27.8415 77.9655 27.8419 77.8589C27.8429 77.6055 27.8035 77.4654 27.7236 77.4384ZM28.4488 86.2812C28.3688 86.2809 28.2621 86.2671 28.1289 86.2399C28.009 86.2128 27.929 86.2058 27.889 86.219C28.0854 87.1398 28.1823 87.9201 28.1798 88.5601C28.1758 89.5601 27.6929 90.3116 26.7309 90.8144C25.9159 91.2246 25.0151 91.4277 24.0285 91.4238C23.7751 91.4228 23.4086 91.3947 22.9288 91.3395C22.6089 91.2982 22.3494 91.1705 22.1503 90.9564C21.9645 90.7423 21.8721 90.4886 21.8733 90.1953C21.8745 89.8886 21.9287 89.6688 22.0359 89.5359C22.1563 89.4164 22.29 89.3436 22.4367 89.3175C22.5835 89.3048 22.8168 89.299 23.1368 89.3003L23.5569 89.2819C24.357 89.2584 25.0505 89.2078 25.6375 89.1301C25.8777 89.0911 26.0447 88.9984 26.1386 88.8521C26.2458 88.7192 26.2998 88.5394 26.3007 88.3127C26.3016 88.0994 26.2692 87.8459 26.2037 87.5523C26.0855 87.0985 25.9934 86.7915 25.9274 86.6312C25.8613 86.4843 25.7221 86.2638 25.51 85.9696C25.4437 85.876 25.3106 85.8088 25.1107 85.768C24.9109 85.7272 24.7977 85.7068 24.771 85.7067C23.9183 85.53 22.8991 85.3393 21.7132 85.1346C21.6599 85.1211 21.5334 85.0939 21.3335 85.0531C21.1337 85.0123 20.994 84.9318 20.9145 84.8115C20.8216 84.7044 20.7889 84.5443 20.8164 84.3311C20.9264 83.4915 21.2814 83.0662 21.8814 83.0553C22.6548 83.045 23.5679 83.1086 24.6207 83.2461C25.3803 83.3424 25.9933 83.4315 26.4596 83.5133C26.6729 83.5408 26.9327 83.5752 27.2392 83.6164C27.5457 83.6709 27.8988 83.719 28.2987 83.7606C28.6052 83.8018 28.8317 83.8427 28.9782 83.8832C29.1247 83.9238 29.2443 84.0176 29.3371 84.1647C29.4432 84.3117 29.4956 84.5386 29.4944 84.8453C29.4929 85.232 29.405 85.5516 29.2306 85.8043C29.0563 86.0569 28.809 86.2159 28.4888 86.2813L28.4488 86.2812ZM29.745 97.3729C29.7426 97.9863 29.5607 98.4855 29.1991 98.8708C28.8509 99.2694 28.3832 99.5409 27.7959 99.6853C27.4756 99.764 27.1155 99.7893 26.7156 99.761C26.489 99.7468 26.1691 99.7322 25.7558 99.7172C25.4092 99.7025 24.896 99.6538 24.2163 99.5712C23.55 99.4885 23.0502 99.4399 22.7169 99.4253C22.477 99.411 22.1237 99.4029 21.657 99.4011L20.0369 99.4147C19.9313 99.1609 19.8788 98.9341 19.8796 98.7341C19.8804 98.5341 19.9479 98.3277 20.082 98.1149C20.1893 97.9686 20.2564 97.8689 20.2832 97.8156C20.3101 97.7758 20.4236 97.7162 20.6239 97.637L21.0046 97.4785L21.465 97.3803C21.3079 96.633 21.2163 96.1926 21.1902 96.0592C21.1776 95.8725 21.1715 95.7258 21.1719 95.6191C21.1738 95.1258 21.2957 94.6463 21.5376 94.1806C21.7794 93.7282 22.1141 93.3628 22.5419 93.0845C22.9696 92.8195 23.4302 92.6813 23.9235 92.67C24.3903 92.6585 24.7629 92.8266 25.0416 93.1744C25.6253 93.91 25.9159 94.6245 25.9131 95.3178C25.9118 95.6645 25.8303 96.0308 25.6688 96.4169C25.588 96.6165 25.4063 97.0425 25.1237 97.6947L25.6834 97.7769C26.1631 97.8588 26.5496 97.9003 26.8429 97.9015C27.2829 97.9032 27.6967 97.8049 28.0841 97.6064C28.1516 97.4067 28.1721 97.2601 28.1458 97.1666C28.0939 96.8198 28.0219 96.4728 27.9299 96.1258C27.8513 95.7788 27.8132 95.3053 27.8155 94.7053C27.8162 94.5453 27.8768 94.3855 27.9974 94.226C28.1314 94.0665 28.2784 93.9938 28.4383 94.0078C28.6515 94.0486 28.891 94.1695 29.1569 94.3706C29.3031 94.4912 29.3891 94.6582 29.4149 94.8716C29.4539 95.1251 29.4798 95.3319 29.4925 95.4919C29.6625 96.3193 29.7467 96.9463 29.745 97.3729ZM22.8118 95.6456C22.9039 95.966 23.0095 96.233 23.1286 96.4469C23.2611 96.6607 23.4537 96.8481 23.7064 97.0091C24.0817 96.5306 24.3431 96.165 24.4908 95.9122C24.6384 95.6595 24.7127 95.4131 24.7137 95.1731C24.714 95.0798 24.6945 94.9663 24.655 94.8329C24.6155 94.6994 24.5559 94.5991 24.4762 94.5321C24.33 94.4116 24.1236 94.3508 23.8569 94.3497C23.6169 94.3488 23.4101 94.3946 23.2364 94.4873C23.0893 94.5933 22.9754 94.7262 22.8948 94.8859C22.8142 95.0456 22.7735 95.2121 22.7728 95.3854C22.7726 95.4388 22.7856 95.5255 22.8118 95.6456ZM30.8493 106.439C30.8757 106.506 30.8952 106.653 30.9076 106.88C30.9333 107.12 30.9458 107.333 30.9451 107.52C30.9436 107.893 30.7089 108.232 30.2411 108.537L30.0421 108.276C29.8166 107.969 29.645 107.528 29.5273 106.954C29.276 106.447 29.0641 106.066 28.8918 105.812C28.7194 105.571 28.5268 105.39 28.3139 105.269C28.101 105.162 27.8279 105.107 27.4946 105.106C27.3346 105.106 26.9211 105.144 26.2541 105.221L25.4137 105.318C24.3866 105.421 23.6329 105.511 23.1526 105.589C22.9792 105.615 22.7723 105.668 22.532 105.747C22.305 105.839 22.1713 105.932 22.1309 106.025C22.0905 106.118 22.1565 106.305 22.3287 106.586C22.9666 107.122 23.4119 107.47 23.6646 107.631C23.7311 107.671 23.8442 107.738 24.0038 107.832C24.1634 107.926 24.283 108.02 24.3627 108.114C24.4556 108.208 24.5019 108.321 24.5013 108.454C24.5012 108.481 24.4876 108.548 24.4605 108.654C24.393 108.867 24.2924 109.034 24.1586 109.153C24.0247 109.286 23.8311 109.352 23.5778 109.351C23.4578 109.35 23.3712 109.343 23.3179 109.33C22.7849 109.248 22.3056 109.059 21.8801 108.764C21.4546 108.469 21.0361 108.081 20.6247 107.599C20.4521 107.412 20.3666 107.105 20.3683 106.678C20.3701 106.211 20.4786 105.752 20.6937 105.299C20.8955 104.847 21.1634 104.541 21.4974 104.383C22.3923 103.973 23.5338 103.591 24.9219 103.236C25.3089 103.144 25.9226 103.073 26.7628 103.023L27.503 102.966C27.8098 102.941 28.0431 102.942 28.203 102.969C28.3762 102.996 28.4839 102.737 28.5261 102.19C28.5402 101.99 28.6739 101.891 28.9272 101.892C29.3534 102.027 29.6059 102.234 29.6848 102.515C29.7637 102.782 29.9297 102.949 30.1828 103.017C30.4492 103.084 30.7223 103.139 31.0022 103.18C31.8684 103.303 32.8349 103.334 33.9018 103.271C34.4086 103.247 34.7013 103.401 34.78 103.735L34.7593 103.915C34.7457 103.981 34.7184 104.135 34.6775 104.374C34.6499 104.614 34.589 104.827 34.495 105.014C34.2398 105.479 33.7922 105.711 33.1522 105.708C32.8856 105.707 32.5391 105.653 32.1129 105.544C32.0462 105.531 31.9863 105.511 31.9331 105.484C31.8799 105.457 31.82 105.437 31.7533 105.423C31.5535 105.382 31.3869 105.361 31.2536 105.361C30.8541 105.239 30.6537 105.332 30.6525 105.639C30.6521 105.745 30.7177 106.012 30.8493 106.439ZM23.9156 114.985C23.8361 114.851 23.7969 114.658 23.7979 114.404C23.7982 114.311 23.8054 114.198 23.8192 114.064C23.8331 113.931 23.8335 113.818 23.8206 113.724C23.3801 113.829 23.0191 114.081 22.7376 114.48C22.4693 114.879 22.3342 115.325 22.3323 115.819C22.3306 116.245 22.4224 116.626 22.6078 116.96C22.8592 117.454 23.1575 117.882 23.5027 118.243C23.7551 118.498 23.8808 118.738 23.8799 118.965C23.8793 119.111 23.8055 119.238 23.6584 119.344C23.4847 119.45 23.2711 119.502 23.0178 119.501C22.7511 119.5 22.5447 119.446 22.3984 119.339C21.8665 118.99 21.5016 118.535 21.3038 117.975C21.1059 117.427 21.0085 116.787 21.0114 116.053C21.0144 115.293 21.1839 114.561 21.52 113.855C21.8561 113.15 22.3119 112.545 22.8872 112.041C23.4758 111.55 24.1237 111.226 24.831 111.068C25.2448 110.963 25.6517 110.912 26.0517 110.913C26.6783 110.916 27.1843 111.091 27.5696 111.439C27.9548 111.801 28.3192 112.375 28.6628 113.163C28.9666 113.885 29.1173 114.552 29.1149 115.165C29.1132 115.605 29.0448 116.032 28.9099 116.444C28.5048 117.723 27.9557 118.361 27.2623 118.358C26.8223 118.356 26.29 118.094 25.6654 117.572C25.3731 117.317 25.1143 117.016 24.889 116.669C24.6637 116.321 24.4583 115.98 24.273 115.646C24.1009 115.326 23.9818 115.105 23.9156 114.985ZM27.6123 115.839C27.679 115.826 27.7325 115.773 27.7729 115.68C27.8265 115.6 27.86 115.554 27.8734 115.54C27.9015 115.18 27.7963 114.813 27.5578 114.439C27.3326 114.065 27.0405 113.75 26.6815 113.496C26.3224 113.254 25.9762 113.133 25.6429 113.132L25.4828 113.151C25.4294 113.164 25.3625 113.23 25.282 113.35C25.2015 113.483 25.1745 113.563 25.2011 113.59C25.904 114.539 26.4679 115.255 26.8927 115.737C26.9723 115.817 27.1188 115.857 27.3322 115.858C27.4655 115.859 27.5589 115.852 27.6123 115.839ZM23.0831 128.297C22.8563 128.323 22.5626 128.422 22.2019 128.594C22.1352 128.62 22.0617 128.646 21.9816 128.673C21.9015 128.712 21.808 128.752 21.7012 128.792C21.4496 128.337 21.3244 127.977 21.3254 127.71C21.3262 127.51 21.3869 127.324 21.5076 127.151C21.6416 126.978 21.8491 126.786 22.1299 126.573C22.3172 126.414 22.4111 126.281 22.4115 126.174C22.4119 126.068 22.3257 125.954 22.1528 125.833C21.7539 125.565 21.4552 125.231 21.2568 124.83C21.0583 124.442 20.9599 124.029 20.9617 123.589C20.9636 123.095 21.0788 122.616 21.3073 122.15C21.5491 121.698 21.8705 121.346 22.2715 121.094C22.6859 120.829 23.2997 120.698 24.1131 120.701C24.6997 120.703 25.2927 120.786 25.8921 120.948C26.4915 121.11 26.9839 121.339 27.3694 121.634C27.8081 121.956 28.1533 122.337 28.4049 122.778C28.6698 123.219 28.8013 123.706 28.7992 124.24C28.7985 124.413 28.7913 124.546 28.7776 124.639C28.7641 124.679 28.7572 124.739 28.7569 124.819C28.7557 125.126 28.9017 125.28 29.1951 125.281L29.3551 125.262C30.8892 125.081 32.0165 124.919 32.7371 124.775C32.8038 124.762 32.9105 124.742 33.0573 124.716C33.2041 124.69 33.3241 124.677 33.4175 124.678C33.6041 124.679 33.764 124.719 33.897 124.8C34.0433 124.88 34.1628 125.021 34.2553 125.221C34.295 125.301 34.3146 125.395 34.3142 125.501C34.3131 125.781 34.2186 126.074 34.0308 126.38C33.8562 126.686 33.6555 126.865 33.4286 126.918C32.6012 127.115 31.5271 127.297 30.2065 127.465L27.1651 127.813C25.3509 128.019 23.9903 128.181 23.0831 128.297ZM25.6041 122.967C24.9517 122.738 24.3522 122.622 23.8055 122.62C23.0455 122.617 22.4845 122.881 22.1224 123.413C22.2415 123.627 22.3742 123.794 22.5204 123.915C22.6799 124.049 22.9059 124.203 23.1986 124.377L23.5777 124.599C24.0165 124.907 24.509 125.109 25.0553 125.205C25.6016 125.314 26.2946 125.383 27.1345 125.413C27.2545 125.427 27.3879 125.401 27.5348 125.335C27.695 125.282 27.7819 125.222 27.7955 125.156C27.8226 125.049 27.79 124.869 27.6977 124.615C27.6187 124.362 27.5326 124.201 27.4396 124.134C27.0808 123.826 26.7684 123.578 26.5025 123.391C26.2365 123.216 25.9371 123.075 25.6041 122.967ZM30.7156 140.365C30.742 140.432 30.7614 140.578 30.7739 140.805C30.7996 141.045 30.8121 141.259 30.8114 141.445C30.8099 141.819 30.5752 142.158 30.1073 142.463L29.9084 142.202C29.6829 141.894 29.5113 141.453 29.3936 140.88C29.1422 140.372 28.9304 139.991 28.7581 139.737C28.5857 139.497 28.3931 139.316 28.1802 139.195C27.9673 139.087 27.6942 139.033 27.3608 139.032C27.2008 139.031 26.7874 139.069 26.1204 139.147L25.28 139.243C24.2529 139.346 23.4992 139.436 23.0189 139.515C22.8455 139.541 22.6386 139.593 22.3983 139.672C22.1713 139.765 22.0376 139.857 21.9972 139.951C21.9568 140.044 22.0227 140.231 22.195 140.511C22.8329 141.047 23.2782 141.396 23.5309 141.557C23.5974 141.597 23.7104 141.664 23.8701 141.758C24.0297 141.852 24.1493 141.946 24.229 142.039C24.3219 142.133 24.3682 142.247 24.3676 142.38C24.3675 142.407 24.3539 142.473 24.3268 142.58C24.2593 142.793 24.1587 142.959 24.0249 143.079C23.891 143.211 23.6974 143.277 23.4441 143.276C23.3241 143.276 23.2374 143.269 23.1842 143.255C22.6512 143.173 22.1719 142.985 21.7464 142.69C21.3209 142.395 20.9024 142.006 20.491 141.525C20.3184 141.337 20.2329 141.03 20.2346 140.604C20.2364 140.137 20.3449 139.677 20.56 139.225C20.7618 138.772 21.0297 138.467 21.3637 138.308C22.2586 137.898 23.4001 137.516 24.7882 137.162C25.1752 137.07 25.7888 136.999 26.629 136.949L27.3693 136.892C27.676 136.866 27.9094 136.867 28.0693 136.894C28.2425 136.922 28.3502 136.662 28.3923 136.116C28.4065 135.916 28.5402 135.816 28.7935 135.817C29.2197 135.952 29.4722 136.16 29.5511 136.44C29.63 136.707 29.796 136.875 30.0491 136.942C30.3155 137.01 30.5886 137.064 30.8685 137.105C31.7347 137.229 32.7012 137.259 33.7681 137.197C34.2749 137.172 34.5676 137.327 34.6463 137.66L34.6256 137.84C34.612 137.907 34.5847 138.06 34.5438 138.3C34.5162 138.54 34.4553 138.753 34.3613 138.939C34.1061 139.405 33.6585 139.636 33.0185 139.634C32.7519 139.633 32.4054 139.578 31.9792 139.47C31.9125 139.456 31.8526 139.436 31.7994 139.409C31.7462 139.382 31.6862 139.362 31.6196 139.348C31.4198 139.308 31.2532 139.287 31.1199 139.286C30.7203 139.165 30.52 139.257 30.5188 139.564C30.5184 139.671 30.584 139.938 30.7156 140.365ZM27.4277 152.505C27.1873 152.624 26.9135 152.729 26.6065 152.821C26.3127 152.927 26.1191 153 26.0256 153.039L25.5049 153.217C24.7456 153.054 24.1195 152.892 23.6268 152.73C23.1475 152.568 22.6951 152.333 22.2696 152.024C21.8575 151.716 21.5191 151.295 21.2546 150.76C21.0032 150.266 20.8786 149.739 20.8808 149.179C20.8832 148.566 21.0256 147.973 21.3078 147.401C21.59 146.842 21.9786 146.37 22.4734 145.985C22.9816 145.6 23.5491 145.376 24.1761 145.312C24.4962 145.286 24.7429 145.274 24.9162 145.275C25.3829 145.277 25.8093 145.345 26.1954 145.48C26.5815 145.628 26.9338 145.883 27.2524 146.244C27.3453 146.351 27.5249 146.472 27.791 146.606C28.0305 146.727 28.2101 146.841 28.3297 146.948C28.9274 147.511 29.2248 148.178 29.2218 148.952C29.2202 149.338 29.1318 149.791 28.9564 150.311C28.9295 150.377 28.8486 150.597 28.7138 150.97C28.579 151.356 28.4044 151.675 28.19 151.928C27.9757 152.18 27.7216 152.373 27.4277 152.505ZM28.1015 149.027C27.7034 148.532 27.2248 148.177 26.6656 147.962C26.1198 147.76 25.3805 147.577 24.4478 147.413C24.341 147.439 24.1141 147.498 23.7671 147.59C23.4201 147.682 23.0996 147.794 22.8058 147.926C22.4452 148.072 22.2642 148.331 22.2627 148.704C22.2624 148.771 22.2753 148.898 22.3012 149.084C22.3796 149.498 22.6115 149.859 22.9969 150.167C23.3957 150.489 23.8614 150.737 24.394 150.913C24.9266 151.088 25.4196 151.177 25.873 151.179C26.7663 151.182 27.5211 150.818 28.1373 150.087C28.2847 149.901 28.3587 149.735 28.3592 149.588C28.3599 149.428 28.2739 149.241 28.1015 149.027ZM34.8253 168.355C34.6907 168.688 34.5034 168.854 34.2634 168.853C34.0234 168.852 33.7174 168.684 33.3453 168.35C33.3593 168.203 33.3668 167.99 33.3679 167.71C33.3703 167.096 33.2859 166.509 33.1148 165.949C32.957 165.388 32.706 164.807 32.3617 164.206C32.1894 163.925 31.9704 163.684 31.7045 163.483C31.5451 163.336 31.3587 163.262 31.1454 163.261C30.7854 163.259 30.4379 163.458 30.103 163.857C29.7015 164.242 28.9724 164.872 27.9156 165.748L27.4337 166.206C26.7245 166.857 26.1225 167.368 25.6277 167.739C25.1328 168.124 24.5649 168.448 23.9238 168.712C23.6434 168.818 23.3899 168.87 23.1632 168.869C22.5899 168.867 22.0641 168.645 21.5858 168.203C21.0278 167.694 20.6235 167.106 20.3728 166.438C20.1087 165.771 19.945 165.017 19.8817 164.176C19.8688 164.07 19.8559 163.943 19.8432 163.796C19.8304 163.65 19.8244 163.483 19.8252 163.296C19.8256 163.176 19.8397 162.996 19.8673 162.756C19.8551 162.463 19.9096 162.157 20.0309 161.837C20.1388 161.517 20.3 161.225 20.5144 160.959C20.943 160.454 21.4174 160.202 21.9374 160.205C22.3774 160.206 22.8233 160.395 23.2751 160.77C23.2477 160.956 23.1873 161.063 23.0939 161.089C23.0137 161.129 22.9204 161.135 22.8138 161.108C22.7072 161.094 22.6206 161.087 22.5539 161.087C22.5139 161.087 22.4538 161.1 22.3737 161.126C22.1317 161.645 22.0092 162.265 22.0064 162.985C22.0032 163.785 22.1336 164.539 22.3975 165.246C22.6747 165.967 23.0129 166.409 23.4123 166.57C23.6786 166.665 24.1461 166.44 24.815 165.896C25.4971 165.352 26.1595 164.741 26.8022 164.064C27.378 163.426 27.947 162.848 28.509 162.33C28.8302 162.038 29.1978 161.806 29.6118 161.635C30.0391 161.476 30.4794 161.398 30.9327 161.4C31.546 161.402 32.1254 161.558 32.6709 161.867C33.2163 162.189 33.6611 162.664 34.0053 163.292C34.6805 164.495 35.0157 165.723 35.0108 166.976C35.0101 167.149 34.9958 167.396 34.9679 167.716C34.94 168.009 34.8925 168.222 34.8253 168.355ZM17.3753 170.871C20.9886 170.885 23.6953 170.889 25.4953 170.883C25.842 170.884 26.1084 170.938 26.2947 171.046C26.4942 171.167 26.6533 171.387 26.7721 171.708C26.9699 172.255 27.2538 172.95 27.6239 173.791L28.0798 174.833C28.1457 175.007 28.1648 175.247 28.1369 175.553C28.0805 176.34 27.8783 176.905 27.5302 177.251C27.1955 177.596 26.7148 177.768 26.0882 177.765C25.7415 177.764 25.2885 177.695 24.729 177.56C24.1828 177.424 23.4708 177.108 22.5927 176.611C21.7944 176.168 21.3969 175.547 21.4 174.747C21.4011 174.467 21.4489 174.187 21.5434 173.907C21.5974 173.721 21.6246 173.601 21.6248 173.547C21.6259 173.267 21.393 173.147 20.9262 173.185C19.9394 173.221 18.9726 173.237 18.026 173.233C17.7993 173.246 17.4726 173.251 17.0459 173.249C16.7926 173.248 16.5993 173.241 16.466 173.227L15.9061 173.205C15.5594 173.204 15.2798 173.096 15.0673 172.882C14.8549 172.667 14.7493 172.387 14.7507 172.04C14.7519 171.734 14.8662 171.467 15.0938 171.242C15.3214 171.016 15.5885 170.904 15.8951 170.905L17.3751 170.911L17.3753 170.871ZM25.0665 173.121C25.0134 173.054 24.9203 173 24.7871 172.96C24.6672 172.933 24.5406 172.912 24.4073 172.898C24.2874 172.885 24.1741 172.864 24.0676 172.837C24.0542 172.85 24.0475 172.864 24.0474 172.877C24.0473 172.904 24.0406 172.924 24.0272 172.937C23.9472 172.937 23.8072 172.943 23.6071 172.955C23.4071 172.968 23.227 172.987 23.0669 173.013C22.8801 173.052 22.7331 173.118 22.6261 173.211C22.5324 173.304 22.4853 173.411 22.4848 173.531C22.4842 173.691 22.5569 173.851 22.7029 174.012C23.4461 174.895 24.5308 175.406 25.9569 175.545C26.0236 175.545 26.1238 175.485 26.2576 175.366C26.3914 175.246 26.4517 175.18 26.4384 175.166C26.2265 174.819 26.0012 174.458 25.7627 174.084C25.5375 173.71 25.3054 173.389 25.0665 173.121ZM23.6459 183.402C23.5665 183.269 23.5272 183.075 23.5282 182.822C23.5286 182.728 23.5357 182.615 23.5496 182.482C23.5634 182.349 23.5639 182.235 23.5509 182.142C23.1105 182.247 22.7495 182.499 22.4679 182.898C22.1997 183.297 22.0646 183.743 22.0626 184.236C22.061 184.663 22.1528 185.043 22.3382 185.377C22.5895 185.871 22.8879 186.299 23.2331 186.661C23.4854 186.915 23.6112 187.155 23.6103 187.382C23.6097 187.529 23.5359 187.655 23.3888 187.761C23.215 187.867 23.0015 187.92 22.7481 187.919C22.4815 187.918 22.275 187.864 22.1288 187.756C21.5968 187.408 21.2319 186.953 21.0341 186.392C20.8363 185.844 20.7388 185.204 20.7417 184.471C20.7447 183.711 20.9143 182.978 21.2504 182.273C21.5865 181.567 22.0422 180.963 22.6175 180.458C23.2061 179.967 23.8541 179.643 24.5614 179.486C24.9751 179.381 25.382 179.329 25.782 179.331C26.4087 179.333 26.9147 179.508 27.2999 179.857C27.6852 180.218 28.0496 180.793 28.3932 181.581C28.697 182.302 28.8477 182.969 28.8453 183.583C28.8435 184.023 28.7752 184.449 28.6402 184.862C28.2352 186.14 27.686 186.778 26.9927 186.775C26.5527 186.774 26.0204 186.512 25.3958 185.989C25.1034 185.735 24.8446 185.434 24.6193 185.086C24.394 184.739 24.1887 184.398 24.0033 184.064C23.8313 183.743 23.7121 183.522 23.6459 183.402ZM27.3426 184.257C27.4093 184.244 27.4629 184.191 27.5032 184.097C27.5569 184.018 27.5904 183.971 27.6038 183.958C27.6319 183.598 27.5267 183.231 27.2881 182.857C27.0629 182.482 26.7708 182.168 26.4118 181.913C26.0528 181.672 25.7066 181.55 25.3733 181.549L25.2132 181.568C25.1598 181.582 25.0929 181.648 25.0124 181.768C24.9319 181.901 24.9049 181.981 24.9315 182.007C25.6344 182.957 26.1982 183.672 26.623 184.154C26.7027 184.234 26.8492 184.275 27.0625 184.276C27.1959 184.276 27.2892 184.27 27.3426 184.257ZM22.5164 195.973C22.0646 195.572 21.7062 195.163 21.4412 194.749C21.1895 194.335 21.0647 193.874 21.0667 193.368C21.0671 193.261 21.081 193.114 21.1084 192.928L21.09 192.528C21.0832 190.848 21.8881 189.624 23.5044 188.857C23.8785 188.685 24.3255 188.6 24.8455 188.602C25.2988 188.604 25.7319 188.673 26.1447 188.808C26.5575 188.943 26.8967 189.131 27.1624 189.372L27.6209 189.753C27.8602 189.941 28.0263 190.088 28.1192 190.195C28.5707 190.664 28.7949 191.285 28.7919 192.058C28.7903 192.458 28.7221 192.851 28.5872 193.237C28.4524 193.623 28.271 193.963 28.0432 194.255C28.003 194.308 27.9161 194.361 27.7826 194.414C27.6624 194.467 27.5623 194.493 27.4823 194.493C27.3756 194.492 27.2559 194.412 27.1232 194.251C27.0038 194.091 26.9511 193.944 26.9649 193.811C27.0752 192.905 26.8581 192.177 26.3135 191.628C25.7824 191.079 25.0501 190.803 24.1168 190.8C23.5035 190.797 23.0696 190.922 22.8153 191.174C22.5609 191.44 22.4326 191.873 22.4302 192.473C22.4287 192.846 22.5007 193.2 22.646 193.534C22.8047 193.868 23.0232 194.255 23.3014 194.696L23.5399 195.077C23.6061 195.211 23.6454 195.384 23.6579 195.598C23.6837 195.825 23.703 195.998 23.7158 196.118C23.5959 196.104 23.4759 196.097 23.3559 196.097C23.2492 196.11 23.1625 196.116 23.0958 196.116C22.8025 196.114 22.6094 196.067 22.5164 195.973ZM30.181 199.892C30.1041 199.105 30.4267 198.46 31.1486 197.956C31.4537 198.371 31.6054 198.778 31.6038 199.178C31.602 199.644 31.3871 200.03 30.9593 200.335C30.8656 200.415 30.7521 200.454 30.6188 200.454C30.4988 200.453 30.399 200.4 30.3194 200.293C30.2399 200.186 30.1937 200.052 30.181 199.892ZM25.7578 200.695C25.4379 200.68 24.958 200.645 24.3182 200.589L22.8787 200.463C22.7054 200.463 22.5186 200.482 22.3185 200.521C22.1183 200.56 21.9849 200.587 21.9182 200.6C21.7047 200.625 21.5182 200.578 21.3587 200.457C21.2125 200.337 21.1398 200.183 21.1405 199.997C21.1408 199.917 21.1477 199.857 21.1612 199.817C21.2964 199.364 21.5045 198.991 21.7856 198.699C22.0801 198.407 22.4673 198.268 22.9473 198.284C23.1606 198.298 23.4805 198.306 23.9072 198.307C24.3872 198.309 24.7472 198.304 24.9873 198.292C25.1739 198.292 25.4006 198.287 25.6673 198.274C25.934 198.275 26.2473 198.283 26.6073 198.298C26.7805 198.312 26.967 198.353 27.1668 198.42C27.3665 198.488 27.4729 198.561 27.4859 198.642C27.5251 198.855 27.5441 199.095 27.5431 199.362C27.5417 199.708 27.4807 199.962 27.3601 200.121C27.2663 200.241 27.1392 200.34 26.9789 200.42C26.8186 200.499 26.6049 200.585 26.3379 200.677C26.1242 200.756 25.964 200.822 25.8571 200.875L25.7578 200.695ZM21.4452 208.959C21.499 208.839 21.5261 208.72 21.5266 208.6C21.5271 208.48 21.4942 208.373 21.4279 208.279C21.3749 208.199 21.2886 208.105 21.169 207.998C21.0096 207.837 20.8769 207.67 20.771 207.497C20.6783 207.336 20.5928 207.043 20.5144 206.616C20.4885 206.429 20.4758 206.275 20.4762 206.155C20.4785 205.595 20.6008 205.009 20.8432 204.397C21.0989 203.798 21.4006 203.372 21.7482 203.12C22.1226 202.855 22.5231 202.73 22.9497 202.745C23.5896 202.761 24.2286 203.03 24.8665 203.553C25.4779 204.062 25.9094 204.523 26.1611 204.938C26.4127 205.365 26.5705 205.946 26.6342 206.68C26.6336 206.84 26.6594 207.066 26.7115 207.36C26.7637 207.667 26.8364 207.82 26.9297 207.821C27.1164 207.822 27.2834 207.736 27.4308 207.563C27.5914 207.403 27.6727 207.07 27.6747 206.564C27.6754 206.377 27.6632 206.097 27.638 205.724C27.6128 205.35 27.6005 205.09 27.6011 204.943C27.6029 204.49 27.6775 204.164 27.8249 203.964C27.8518 203.911 27.9786 203.885 28.2053 203.886C28.6052 203.887 28.858 204.028 28.9636 204.309C29.1747 204.883 29.2857 205.477 29.2966 206.09C29.2935 206.863 29.1174 207.576 28.7681 208.228C28.4322 208.893 28.0103 209.378 27.5024 209.683C26.9945 209.988 26.2937 210.185 25.4001 210.275C24.3996 210.378 23.1261 210.426 21.5794 210.42C21.1528 210.418 20.9064 210.357 20.8402 210.237C20.7739 210.13 20.741 210.03 20.7413 209.936C20.7418 209.816 20.7756 209.703 20.8427 209.597C20.9231 209.504 21.0301 209.398 21.1639 209.278C21.3111 209.159 21.4048 209.052 21.4452 208.959ZM21.6977 205.8C21.8819 206.428 22.1794 207.042 22.5904 207.644C22.6832 207.777 22.8027 207.898 22.949 208.005C23.0952 208.112 23.1883 208.179 23.2282 208.206C23.2681 208.233 23.3813 208.254 23.5679 208.268C23.7678 208.295 23.9278 208.302 24.0479 208.289C24.0879 208.276 24.1947 208.25 24.3682 208.211C24.5416 208.185 24.6951 208.139 24.8287 208.073C24.9357 208.006 25.0361 207.9 25.13 207.754C25.2239 207.607 25.2644 207.474 25.2516 207.354C25.2392 207.101 25.147 206.827 24.9748 206.533C24.8026 206.239 24.5704 205.965 24.278 205.71C23.9724 205.456 23.6598 205.255 23.3404 205.107C23.0343 204.972 22.7479 204.904 22.4812 204.903C22.1211 204.929 21.8807 205.028 21.76 205.2C21.693 205.293 21.6592 205.407 21.6587 205.54C21.6583 205.647 21.6713 205.733 21.6977 205.8ZM21.09 212.825C21.1031 212.865 21.1095 212.939 21.1091 213.045C26.0291 213.065 29.7224 213.073 32.1891 213.069C32.3624 213.07 32.5626 213.024 32.7896 212.931C33.03 212.839 33.2103 212.773 33.3304 212.734C33.5841 212.641 33.7976 212.595 33.971 212.596C34.3176 212.597 34.5903 212.772 34.7889 213.119C34.9214 213.333 34.987 213.607 34.9857 213.94C34.9848 214.153 34.9507 214.353 34.8833 214.54C34.8159 214.726 34.7087 214.859 34.5617 214.938C33.9738 215.269 33.4398 215.427 32.9599 215.412C32.2933 215.383 31.5401 215.34 30.7004 215.283C29.8739 215.227 29.3007 215.191 28.9808 215.176C28.1011 215.093 27.2147 215.029 26.3215 214.986L23.6219 214.875C23.022 214.86 22.1221 214.823 20.9223 214.765C20.5758 214.737 20.3294 214.649 20.1834 214.502C20.0372 214.368 19.9647 214.148 19.966 213.841C19.9665 213.708 19.9736 213.601 19.9872 213.521C20.0151 213.201 20.1226 213.002 20.3096 212.922C20.4966 212.843 20.7567 212.811 21.09 212.825ZM26.5099 222.991C26.6033 222.978 26.7567 222.972 26.97 222.973C27.49 222.975 27.9965 223.03 28.4894 223.139C28.9823 223.247 29.5217 223.403 30.1075 223.605C30.6534 223.807 31.1986 224.189 31.743 224.752C32.2875 225.314 32.7317 225.942 33.0756 226.637C33.4329 227.332 33.6104 227.959 33.6082 228.519C33.606 229.092 33.3904 229.652 32.9616 230.196C32.5461 230.742 32.0714 231.086 31.5375 231.231C31.3774 231.257 31.2707 231.27 31.2174 231.27C31.0174 231.269 30.8643 231.208 30.7581 231.088C30.6652 230.981 30.6191 230.834 30.6198 230.647C30.6204 230.501 30.6275 230.387 30.6411 230.307C30.6413 230.267 30.6682 230.207 30.7218 230.128C30.9367 229.742 31.0448 229.369 31.0463 229.009C31.0489 228.329 30.6983 227.654 29.9942 226.985C28.812 225.847 27.4009 225.275 25.761 225.268C25.1743 225.266 24.6074 225.324 24.0603 225.441C23.4464 225.572 22.9922 225.804 22.6975 226.136C22.4162 226.482 22.2743 226.941 22.2721 227.514C22.2713 227.714 22.2904 227.934 22.3295 228.175C22.4328 229.015 22.6831 229.789 23.0803 230.498C23.4909 231.206 24.0345 231.988 24.7111 232.844C24.8703 233.045 25.2022 233.399 25.7069 233.908L26.1253 234.31C26.298 234.484 26.4174 234.631 26.4836 234.751C26.5631 234.885 26.6026 235.005 26.6022 235.111C26.6015 235.285 26.514 235.498 26.3397 235.75C26.1386 236.03 25.8847 236.169 25.578 236.167C25.3647 236.167 25.165 236.092 24.9789 235.945C24.8858 235.891 24.6663 235.744 24.3206 235.502C23.9882 235.261 23.6892 235.027 23.4234 234.799C23.1576 234.571 22.9318 234.344 22.7461 234.116C21.6709 232.885 20.9493 231.602 20.5812 230.268C20.4235 229.68 20.3458 229.093 20.3482 228.507C20.3524 227.427 20.6295 226.468 21.1795 225.63C21.7294 224.806 22.4453 224.162 23.3271 223.698C24.2223 223.235 25.1499 222.999 26.1099 222.989L26.5099 222.991ZM27.064 244.789C26.8236 244.908 26.5498 245.014 26.2428 245.106C25.949 245.211 25.7554 245.284 25.6619 245.324L25.1412 245.502C24.3819 245.339 23.7558 245.176 23.2631 245.014C22.7838 244.852 22.3313 244.617 21.9059 244.309C21.4938 244.001 21.1554 243.579 20.8909 243.045C20.6395 242.55 20.5149 242.023 20.5171 241.463C20.5195 240.85 20.6618 240.257 20.9441 239.685C21.2263 239.126 21.6148 238.654 22.1097 238.27C22.6179 237.885 23.1854 237.66 23.8124 237.596C24.1325 237.571 24.3792 237.558 24.5525 237.559C25.0192 237.561 25.4456 237.629 25.8317 237.764C26.2178 237.912 26.5701 238.167 26.8887 238.528C26.9816 238.635 27.1611 238.756 27.4273 238.891C27.6668 239.011 27.8464 239.126 27.9659 239.233C28.5637 239.795 28.8611 240.463 28.8581 241.236C28.8565 241.623 28.7681 242.076 28.5927 242.595C28.5658 242.662 28.4849 242.881 28.3501 243.254C28.2152 243.64 28.0406 243.96 27.8263 244.212C27.612 244.465 27.3579 244.657 27.064 244.789ZM27.7377 241.312C27.3397 240.817 26.8611 240.462 26.3019 240.246C25.7561 240.044 25.0168 239.861 24.0841 239.697C23.9773 239.724 23.7504 239.783 23.4034 239.875C23.0563 239.967 22.7359 240.079 22.442 240.211C22.0815 240.356 21.9004 240.615 21.899 240.989C21.8987 241.055 21.9115 241.182 21.9375 241.369C22.0158 241.783 22.2478 242.143 22.6332 242.452C23.032 242.773 23.4976 243.022 24.0303 243.197C24.5629 243.373 25.0559 243.461 25.5093 243.463C26.4026 243.467 27.1573 243.103 27.7736 242.372C27.921 242.186 27.995 242.019 27.9955 241.873C27.9962 241.713 27.9102 241.526 27.7377 241.312ZM20.9523 247.766C20.9654 247.807 20.9718 247.88 20.9714 247.987C25.8913 248.006 29.5847 248.014 32.0514 248.01C32.2247 248.011 32.4249 247.965 32.6519 247.873C32.8923 247.78 33.0726 247.714 33.1927 247.675C33.4464 247.582 33.6599 247.537 33.8333 247.537C34.1799 247.539 34.4526 247.713 34.6512 248.06C34.7837 248.274 34.8493 248.548 34.848 248.881C34.8471 249.095 34.813 249.294 34.7456 249.481C34.6782 249.667 34.571 249.8 34.424 249.88C33.8361 250.211 33.3021 250.368 32.8222 250.353C32.1556 250.324 31.4024 250.281 30.5626 250.224C29.7362 250.168 29.163 250.132 28.8431 250.118C27.9634 250.034 27.0769 249.971 26.1838 249.927L23.4842 249.816C22.8843 249.801 21.9844 249.764 20.7846 249.706C20.4381 249.678 20.1917 249.59 20.0456 249.443C19.8995 249.309 19.827 249.089 19.8282 248.782C19.8288 248.649 19.8359 248.542 19.8495 248.462C19.8774 248.142 19.9849 247.943 20.1719 247.863C20.3588 247.784 20.619 247.752 20.9523 247.766ZM21.1653 254.612C21.4842 254.88 21.7368 255.074 21.923 255.195C22.1224 255.342 22.2218 255.496 22.2212 255.656C22.2205 255.816 22.1201 255.935 21.9198 256.015C21.3857 256.199 20.9653 256.291 20.6587 256.29C20.5253 256.289 20.4254 256.282 20.3587 256.268C20.0923 256.214 19.9062 256.06 19.8006 255.806C19.6948 255.566 19.656 255.279 19.684 254.946C19.6844 254.826 19.6852 254.619 19.6864 254.326C19.6875 254.046 19.7285 253.799 19.8093 253.586C19.8901 253.387 20.0241 253.207 20.2114 253.048C20.6261 252.703 21.0268 252.531 21.4135 252.533C24.5335 252.545 26.8802 252.541 28.4536 252.52L31.9736 252.514C32.4403 252.516 32.8671 252.471 33.2542 252.379C33.3209 252.366 33.4009 252.36 33.4942 252.36C33.9876 252.362 34.2329 252.696 34.2303 253.363C34.2286 253.803 34.0805 254.169 33.786 254.461C33.5048 254.767 33.1309 254.905 32.6643 254.877C31.9578 254.834 30.898 254.777 29.485 254.704L27.0855 254.575C24.8192 254.459 23.1195 254.379 21.9864 254.335C21.8531 254.321 21.7064 254.327 21.5463 254.353C21.3862 254.379 21.2861 254.399 21.2461 254.412L21.1653 254.612ZM23.3387 261.351C23.2593 261.217 23.22 261.024 23.221 260.77C23.2214 260.677 23.2285 260.564 23.2424 260.43C23.2562 260.297 23.2567 260.184 23.2437 260.09C22.8033 260.195 22.4423 260.447 22.1607 260.846C21.8925 261.245 21.7574 261.691 21.7554 262.185C21.7538 262.611 21.8456 262.992 22.0309 263.326C22.2823 263.82 22.5806 264.248 22.9259 264.609C23.1782 264.864 23.3039 265.104 23.303 265.331C23.3025 265.477 23.2286 265.604 23.0816 265.71C22.9078 265.816 22.6943 265.868 22.4409 265.867C22.1743 265.866 21.9678 265.812 21.8216 265.705C21.2896 265.356 20.9247 264.901 20.7269 264.341C20.5291 263.793 20.4316 263.153 20.4345 262.419C20.4375 261.659 20.6071 260.927 20.9432 260.221C21.2793 259.516 21.735 258.911 22.3103 258.407C22.8989 257.916 23.5469 257.592 24.2542 257.434C24.6679 257.329 25.0748 257.278 25.4748 257.279C26.1015 257.282 26.6074 257.457 26.9927 257.805C27.378 258.167 27.7424 258.741 28.086 259.53C28.3898 260.251 28.5405 260.918 28.5381 261.531C28.5363 261.971 28.468 262.398 28.333 262.811C27.928 264.089 27.3788 264.727 26.6855 264.724C26.2455 264.722 25.7132 264.46 25.0886 263.938C24.7962 263.683 24.5374 263.382 24.3121 263.035C24.0868 262.687 23.8815 262.346 23.6961 262.012C23.5241 261.692 23.4049 261.471 23.3387 261.351ZM27.0354 262.205C27.1021 262.192 27.1557 262.139 27.196 262.046C27.2497 261.966 27.2832 261.92 27.2966 261.906C27.3247 261.547 27.2194 261.179 26.9809 260.805C26.7557 260.431 26.4636 260.116 26.1046 259.862C25.7456 259.62 25.3994 259.499 25.0661 259.498L24.906 259.517C24.8526 259.53 24.7857 259.597 24.7052 259.716C24.6247 259.849 24.5977 259.929 24.6242 259.956C25.3272 260.905 25.891 261.621 26.3158 262.103C26.3955 262.183 26.542 262.223 26.7553 262.224C26.8887 262.225 26.982 262.219 27.0354 262.205ZM23.3541 272.686C23.5793 273.061 23.6916 273.321 23.691 273.468C23.6905 273.588 23.6368 273.694 23.5297 273.787C23.4226 273.893 23.2354 274.033 22.9681 274.205C22.3033 273.722 21.7656 273.14 21.3549 272.459C20.9576 271.777 20.6407 270.996 20.4042 270.115C20.3649 269.941 20.3455 269.768 20.3462 269.595C20.348 269.141 20.4765 268.682 20.7317 268.216C21.0001 267.764 21.3416 267.385 21.7561 267.08C22.184 266.775 22.6313 266.61 23.0981 266.585C23.4449 266.56 23.6983 266.548 23.8583 266.548C25.2716 266.554 26.5434 266.932 27.6738 267.683C28.126 267.979 28.458 268.32 28.6698 268.707C28.8816 269.095 28.9867 269.495 28.9851 269.909C28.9833 270.362 28.8616 270.788 28.62 271.187C28.3917 271.6 28.0838 271.918 27.6962 272.144C27.5091 272.249 27.3556 272.302 27.2356 272.302C26.9956 272.301 26.8698 272.094 26.8581 271.68C26.8585 271.574 26.8723 271.447 26.8996 271.3C26.9267 271.167 26.9471 271.067 26.9607 271.001C26.9881 270.814 27.002 270.674 27.0024 270.581C27.0047 269.994 26.6863 269.593 26.0471 269.377C25.3281 269.121 24.7289 268.932 24.2493 268.81C23.7698 268.688 23.2901 268.626 22.8101 268.624C22.4634 268.623 22.2099 268.675 22.0494 268.781C21.889 268.887 21.8084 269.054 21.8075 269.28C21.8066 269.494 21.8788 269.801 22.0238 270.201C22.1426 270.522 22.3013 270.856 22.4999 271.203C22.6985 271.564 22.8971 271.911 23.0958 272.245L23.3541 272.686ZM27.6238 275.298C27.7308 275.206 27.8444 275.139 27.9646 275.1C28.0847 275.074 28.2515 275.048 28.4649 275.022C28.7444 275.143 28.8836 275.363 28.8823 275.683C28.855 275.843 28.8412 275.957 28.841 276.023C28.8399 276.29 28.9192 276.457 29.079 276.524C29.2387 276.591 29.4252 276.626 29.6386 276.626C29.8519 276.627 30.0186 276.628 30.1386 276.628L31.3383 276.693C31.6049 276.707 31.9316 276.722 32.3182 276.737C32.7181 276.765 33.1779 276.794 33.6978 276.822C33.9778 276.837 34.1842 276.904 34.317 277.025C34.4499 277.159 34.5158 277.339 34.5149 277.566C34.5143 277.726 34.5005 277.852 34.4734 277.945C34.3513 278.492 34.1765 278.858 33.9491 279.043C33.7217 279.229 33.3812 279.355 32.9276 279.419C32.8342 279.432 32.6409 279.418 32.3478 279.377L29.2292 279.005C29.1493 278.991 29.0493 278.971 28.9294 278.944C28.8229 278.917 28.7429 278.903 28.6896 278.903C28.5696 278.902 28.4893 278.969 28.4488 279.102C28.4083 279.235 28.394 279.482 28.4059 279.842C28.5368 280.455 28.6216 280.922 28.6604 281.243C28.6735 281.309 28.6797 281.416 28.6791 281.563C28.6785 281.723 28.6581 281.829 28.6179 281.882C28.591 281.936 28.5108 281.975 28.3774 282.001C28.2572 282.041 28.1172 282.06 27.9572 282.06C27.8105 282.059 27.6772 282.039 27.5574 281.998C27.4375 281.971 27.371 281.931 27.3579 281.877C27.2526 281.517 27.1676 281.09 27.1029 280.596C26.9986 280.009 26.9069 279.576 26.828 279.295C26.7886 279.149 26.6892 279.001 26.5298 278.854C26.3704 278.707 26.224 278.626 26.0907 278.612C25.4375 278.583 24.7709 278.561 24.091 278.545C23.571 278.529 23.051 278.547 22.5308 278.598C22.0906 278.637 21.7703 278.722 21.5697 278.855C21.3825 278.987 21.2884 279.187 21.2874 279.454C21.2865 279.667 21.3587 279.974 21.5037 280.374C21.5962 280.588 21.6422 280.775 21.6415 280.935C21.6405 281.188 21.4998 281.368 21.2194 281.473C21.1259 281.513 21.0325 281.533 20.9392 281.532C20.7658 281.531 20.6261 281.464 20.52 281.33C20.4138 281.21 20.3211 281.043 20.2419 280.829C20.0969 280.429 20.0185 280.022 20.0068 279.608C20.009 279.048 20.1444 278.522 20.413 278.03C20.6949 277.538 21.0831 277.146 21.5776 276.855C22.0721 276.577 22.6392 276.459 23.279 276.501C23.5323 276.516 23.9323 276.524 24.4789 276.526C25.3456 276.529 26.2257 276.5 27.1193 276.436C27.1994 276.423 27.2529 276.377 27.2799 276.297C27.3202 276.217 27.3607 276.084 27.4014 275.898C27.456 275.591 27.5301 275.391 27.6238 275.298ZM29.8433 285.575C29.7664 284.788 30.089 284.143 30.811 283.639C31.116 284.053 31.2677 284.461 31.2661 284.861C31.2643 285.327 31.0494 285.713 30.6216 286.018C30.5279 286.098 30.4144 286.137 30.2811 286.137C30.1611 286.136 30.0613 286.083 29.9817 285.976C29.9022 285.869 29.856 285.735 29.8433 285.575ZM25.4201 286.378C25.1002 286.363 24.6203 286.328 23.9805 286.272L22.541 286.146C22.3677 286.146 22.1809 286.165 21.9808 286.204C21.7806 286.243 21.6472 286.269 21.5805 286.283C21.367 286.308 21.1805 286.261 21.021 286.14C20.8748 286.02 20.8021 285.866 20.8028 285.679C20.8031 285.599 20.8101 285.539 20.8235 285.5C20.9587 285.047 21.1668 284.674 21.448 284.382C21.7424 284.09 22.1297 283.951 22.6096 283.967C22.8229 283.981 23.1428 283.989 23.5695 283.99C24.0495 283.992 24.4095 283.987 24.6496 283.975C24.8362 283.975 25.0629 283.97 25.3297 283.957C25.5963 283.958 25.9096 283.966 26.2696 283.981C26.4428 283.995 26.6294 284.036 26.8291 284.103C27.0288 284.171 27.1352 284.244 27.1482 284.324C27.1874 284.538 27.2064 284.778 27.2054 285.045C27.204 285.391 27.143 285.644 27.0224 285.804C26.9286 285.924 26.8015 286.023 26.6412 286.102C26.4809 286.182 26.2672 286.268 26.0002 286.36C25.7865 286.439 25.6263 286.505 25.5194 286.558L25.4201 286.378ZM21.4343 292.923C21.1826 292.509 21.0578 292.035 21.0599 291.502C21.0622 290.915 21.2111 290.349 21.5066 289.804C21.8154 289.272 22.2504 288.847 22.8116 288.529C23.3729 288.211 24.0134 288.08 24.7332 288.136L25.2128 288.238C25.6925 288.32 26.0455 288.388 26.272 288.442C26.7648 288.564 27.1106 288.806 27.3091 289.167C27.5077 289.527 27.6658 290.008 27.7835 290.608C27.8619 290.995 27.9004 291.376 27.899 291.749C27.8943 292.922 27.4971 293.907 26.7073 294.704C26.279 295.129 25.7581 295.34 25.1448 295.338C24.5448 295.336 23.899 295.113 23.2074 294.67C22.4228 294.161 21.8317 293.578 21.4343 292.923ZM26.8809 291.265C26.3617 291.049 25.7159 290.82 24.9436 290.577L24.3444 290.375L24.2838 290.515C24.1905 290.514 24.0438 290.514 23.8438 290.513C23.6571 290.525 23.497 290.552 23.3635 290.591C22.9496 290.736 22.6956 290.902 22.6015 291.088C22.5612 291.168 22.5808 291.281 22.6602 291.428C22.7396 291.589 22.8323 291.729 22.9385 291.849C23.0978 292.037 23.4299 292.338 23.935 292.753C24.2804 293.061 24.6932 293.216 25.1732 293.218C25.5865 293.22 25.9603 293.101 26.2946 292.863C26.6288 292.637 26.8567 292.318 26.9783 291.905C26.9918 291.865 26.9988 291.792 26.9992 291.685C27.0002 291.432 26.9608 291.292 26.8809 291.265ZM26.6438 300.664C26.6172 300.664 26.5771 300.677 26.5237 300.703C26.4702 300.743 26.4234 300.776 26.3833 300.803L27.3007 301.446C27.6465 301.688 27.8519 301.989 27.9172 302.349C27.9957 302.723 27.9345 303.036 27.7335 303.288C27.2377 303.913 26.6827 304.344 26.0684 304.582L25.1069 304.958L21.5442 305.624C21.1706 305.689 20.7568 305.814 20.3027 305.999C20.009 306.104 19.7887 306.177 19.6419 306.216L18.9612 306.394C18.8559 306.047 18.8037 305.76 18.8046 305.533C18.8078 304.706 19.1831 304.214 19.9304 304.057C20.6776 303.914 21.565 303.744 22.5924 303.548L23.6332 303.352C24.6078 303.036 25.0892 302.691 25.0773 302.318C25.0788 301.944 24.9332 301.67 24.6405 301.496C24.2282 301.241 23.7821 301.093 23.3023 301.051C22.8357 301.022 22.2158 301.006 21.4424 301.003C21.1494 300.936 20.9431 300.835 20.8236 300.701C20.7175 300.567 20.665 300.36 20.6661 300.08C20.6686 299.44 20.9833 299.102 21.6101 299.064C22.357 299.014 23.1971 298.99 24.1304 298.994C24.397 298.995 24.6305 298.969 24.8307 298.917C25.0309 298.864 25.1314 298.745 25.1321 298.558C25.1324 298.478 25.1262 298.371 25.1134 298.238C25.1005 298.118 25.1009 298.024 25.1145 297.958C25.1688 297.718 25.2162 297.512 25.2569 297.338C25.2976 297.165 25.3582 297.005 25.4388 296.859C25.5327 296.726 25.6862 296.673 25.8994 296.701C26.1259 296.742 26.339 296.816 26.5386 296.923C26.6715 297.017 26.7978 297.118 26.9174 297.225C27.0502 297.345 27.1963 297.499 27.3556 297.687C27.7803 298.182 27.9982 298.716 28.0093 299.289C28.0209 299.716 27.8864 300.022 27.6056 300.208C27.3248 300.407 27.0042 300.559 26.6438 300.664ZM19.5873 309.904C19.5918 308.784 20.0746 308.073 21.0358 307.77C21.0354 307.877 21.0281 308.017 21.0141 308.19C21.0134 308.377 20.9994 308.53 20.9723 308.65C20.9449 308.836 20.931 308.97 20.9307 309.05C20.9284 309.65 21.1931 310.151 21.7248 310.553C22.1104 310.834 22.5031 310.976 22.9031 310.977C23.1698 310.978 23.4301 310.913 23.6839 310.78C24.2051 310.489 24.7798 310.131 25.4082 309.707C25.8226 309.429 26.2169 309.177 26.5912 308.952C27.0189 308.687 27.4927 308.555 28.0127 308.557C28.4927 308.559 28.9122 308.694 29.2711 308.962C29.6434 309.244 29.8751 309.651 29.9663 310.185L30.0838 310.826C30.2144 311.519 30.279 312.04 30.2776 312.386C30.2754 312.96 30.1401 313.466 29.8717 313.905C29.8046 313.998 29.6843 314.091 29.5106 314.183C29.3501 314.289 29.2232 314.369 29.1296 314.422C29.09 314.328 29.0238 314.195 28.9312 314.021C28.8518 313.861 28.8057 313.721 28.7929 313.601C28.7669 313.414 28.7547 313.134 28.7562 312.76C28.7576 312.4 28.752 312.127 28.7394 311.94C28.7011 311.513 28.5558 311.173 28.3034 310.919C28.0644 310.678 27.7715 310.556 27.4248 310.555C27.1582 310.554 26.8845 310.633 26.6039 310.792C26.0025 311.15 25.3139 311.647 24.538 312.284C23.9361 312.761 23.3152 312.999 22.6752 312.996C22.3285 312.995 21.9622 312.914 21.5761 312.752C20.245 312.2 19.582 311.251 19.5873 309.904Z" fill="#222C4E"/>
<path d="M25.8042 433.775C25.6512 433.681 25.4682 433.607 25.255 433.553C25.0486 433.492 24.8388 433.448 24.6255 433.42C24.419 433.393 24.2457 433.379 24.1057 433.378C23.6124 433.376 23.1654 433.465 22.7647 433.643C22.3706 433.822 22.033 434.074 21.7517 434.399C21.477 434.725 21.2656 435.104 21.1172 435.537C20.9688 435.969 20.8936 436.439 20.8916 436.946C20.8898 437.419 20.9513 437.866 21.0763 438.287C21.208 438.707 21.4032 439.081 21.6619 439.409C21.9273 439.73 22.2563 439.985 22.6489 440.173C23.0415 440.361 23.4978 440.456 24.0178 440.458C24.2111 440.459 24.4179 440.443 24.638 440.411C24.8581 440.378 25.0683 440.332 25.2685 440.273C25.4754 440.214 25.649 440.148 25.7893 440.075L25.4917 439.484C25.3047 439.563 25.0944 439.632 24.8608 439.691C24.6273 439.751 24.3372 439.779 23.9905 439.778C23.6305 439.777 23.3074 439.702 23.0214 439.554C22.7419 439.406 22.5027 439.202 22.3038 438.941C22.1115 438.674 21.966 438.37 21.8674 438.03C21.7687 437.689 21.7201 437.326 21.7217 436.939C21.7239 436.372 21.8292 435.873 22.0376 435.44C22.2526 435.008 22.5373 434.669 22.8916 434.424C23.2526 434.178 23.6564 434.057 24.103 434.058C24.3297 434.059 24.523 434.073 24.6829 434.101C24.8428 434.121 24.9893 434.155 25.1225 434.202C25.2623 434.243 25.4054 434.294 25.5519 434.354L25.8042 433.775ZM32.6044 440.492C31.9911 440.49 31.445 440.337 30.9662 440.036C30.4874 439.734 30.1123 439.319 29.8411 438.791C29.5765 438.257 29.4456 437.65 29.4482 436.97C29.4509 436.29 29.59 435.683 29.8654 435.151C30.1475 434.612 30.5292 434.187 31.0104 433.876C31.4983 433.564 32.0523 433.403 32.6724 433.392C33.2857 433.395 33.8317 433.55 34.3105 433.859C34.7894 434.161 35.1644 434.575 35.4356 435.103C35.7069 435.631 35.8412 436.235 35.8385 436.915C35.8358 437.595 35.6934 438.204 35.4113 438.743C35.1358 439.282 34.7542 439.707 34.2663 440.019C33.7851 440.323 33.2311 440.481 32.6044 440.492ZM32.5871 439.802C33.0538 439.804 33.4676 439.682 33.8285 439.437C34.1895 439.192 34.4742 438.853 34.6826 438.42C34.891 437.981 34.9963 437.481 34.9985 436.921C35.0006 436.375 34.9025 435.888 34.7042 435.46C34.5059 435.033 34.2306 434.698 33.8782 434.457C33.5325 434.216 33.1363 434.094 32.6896 434.092C32.2229 434.09 31.8091 434.212 31.4482 434.457C31.0872 434.703 30.8025 435.041 30.5941 435.474C30.3858 435.907 30.2805 436.403 30.2783 436.963C30.2761 437.509 30.3742 437.996 30.5725 438.424C30.7708 438.851 31.0428 439.189 31.3885 439.437C31.7342 439.679 32.1338 439.8 32.5871 439.802ZM44.1334 439.777L40.9634 439.765L40.9878 433.585L40.2078 433.582L40.181 440.382L44.2109 440.398L44.1334 439.777ZM50.9089 440.564C50.2956 440.562 49.7495 440.41 49.2707 440.108C48.7919 439.806 48.4169 439.391 48.1456 438.863C47.881 438.329 47.7501 437.722 47.7528 437.042C47.7555 436.362 47.8945 435.756 48.17 435.223C48.4521 434.684 48.8338 434.259 49.315 433.948C49.8029 433.636 50.3569 433.475 50.9769 433.464C51.5902 433.467 52.1363 433.622 52.6151 433.931C53.0939 434.233 53.4689 434.647 53.7402 435.175C54.0114 435.703 54.1457 436.307 54.143 436.987C54.1404 437.667 53.998 438.276 53.7158 438.815C53.4404 439.354 53.0587 439.779 52.5708 440.091C52.0896 440.395 51.5356 440.553 50.9089 440.564ZM50.8916 439.874C51.3583 439.876 51.7721 439.754 52.1331 439.509C52.4941 439.264 52.7787 438.925 52.9871 438.492C53.1955 438.053 53.3008 437.554 53.303 436.994C53.3052 436.447 53.2071 435.96 53.0088 435.532C52.8105 435.105 52.5351 434.77 52.1827 434.529C51.837 434.288 51.4408 434.166 50.9941 434.164C50.5275 434.163 50.1137 434.284 49.7527 434.53C49.3917 434.775 49.1071 435.114 48.8987 435.546C48.6903 435.979 48.585 436.475 48.5828 437.035C48.5807 437.582 48.6787 438.069 48.8771 438.496C49.0754 438.924 49.3474 439.261 49.6931 439.509C50.0388 439.751 50.4383 439.872 50.8916 439.874ZM60.3597 434.331C60.693 434.333 60.9862 434.374 61.2392 434.455C61.4922 434.529 61.6917 434.663 61.8376 434.857C61.9835 435.051 62.0558 435.325 62.0544 435.678C62.053 436.018 61.9686 436.288 61.8012 436.487C61.6337 436.68 61.4165 436.819 61.1495 436.904C60.8825 436.99 60.589 437.032 60.269 437.031L59.279 437.027L59.2897 434.327L60.3597 434.331ZM58.5123 433.654L58.4855 440.454L59.2655 440.457L59.2765 437.667L60.2365 437.671C60.3498 437.671 60.4732 437.668 60.6065 437.662C60.7466 437.656 60.8633 437.647 60.9566 437.634L62.5055 440.47L63.3755 440.473L61.6575 437.426C62.0047 437.281 62.2889 437.066 62.51 436.78C62.7378 436.487 62.856 436.111 62.8645 435.651C62.8664 435.171 62.7579 434.787 62.539 434.5C62.3202 434.206 62.021 433.995 61.6415 433.866C61.262 433.732 60.8356 433.663 60.3623 433.661L58.5123 433.654Z" fill="black"/>
<path d="M26.263 385.772L26.2952 377.612L25.1432 377.608L25.129 381.208L21.505 381.194L21.5195 377.534L20.3672 377.589L20.3351 385.749L21.4871 385.753L21.5014 382.118L25.1254 382.132L25.111 385.768L26.263 385.772ZM34.6129 385.805L34.6451 377.645L33.4931 377.641L33.4609 385.801L34.6129 385.805ZM44.1599 382.111L41.112 382.099L41.2164 383.011L44.2764 383.023L44.1599 382.111ZM54.5697 381.348L51.9177 381.337L51.9285 378.601L55.3484 378.615L55.1839 377.726L50.78 377.709L50.7478 385.869L51.8998 385.873L51.9142 382.213L54.7102 382.224L54.5697 381.348ZM62.8343 385.916L62.8664 377.757L61.7144 377.752L61.6823 385.912L62.8343 385.916Z" fill="black"/>
<ellipse cx="42.8022" cy="408.937" rx="37.2502" ry="18.5026" transform="rotate(-0.467298 42.8022 408.937)" fill="#EFF176"/>
<path d="M15.8974 17.112L16.682 342.285M38.6495 18.1778L37.4703 343.259" stroke="black" stroke-dasharray="2 2"/>
<path d="M18.4318 398.163L16.0903 398.543L23.8405 418.794L26.1205 418.803L33.7608 398.433L31.4509 398.424L24.9928 415.679L18.4318 398.163ZM51.0915 418.901L51.1719 398.502L48.802 398.492L48.7658 407.672L39.1659 407.634L39.2026 398.304L36.8621 398.445L36.7817 418.845L39.1216 418.854L39.1584 409.524L48.7583 409.562L48.7216 418.892L51.0915 418.901ZM55.508 417.929C55.7873 418.11 56.1466 418.291 56.5859 418.473C57.0252 418.635 57.5147 418.777 58.0542 418.899C58.5937 419.021 59.1233 419.123 59.643 419.205C60.1827 419.287 60.6625 419.329 61.0825 419.331C62.6225 419.337 63.9234 419.112 64.9852 418.656C66.067 418.2 66.8895 417.574 67.4526 416.776C68.0358 415.978 68.3294 415.059 68.3335 414.019C68.3364 413.279 68.219 412.629 67.9812 412.068C67.7435 411.487 67.3955 410.966 66.9373 410.504C66.4792 410.042 65.9209 409.61 65.2624 409.207C64.604 408.805 63.8356 408.412 62.9571 408.028C61.7794 407.443 60.7814 406.929 59.9631 406.486C59.1449 406.023 58.5269 405.531 58.1089 405.009C57.711 404.487 57.5134 403.867 57.5163 403.147C57.5201 402.187 57.923 401.438 58.7251 400.901C59.5472 400.365 60.5983 400.099 61.8783 400.104C62.5583 400.106 63.148 400.169 63.6476 400.291C64.1672 400.393 64.6267 400.525 65.026 400.686C65.4454 400.848 65.8248 401.009 66.1641 401.171L66.9813 399.344C66.3426 399.021 65.5637 398.728 64.6448 398.465C63.7258 398.201 62.7663 398.067 61.7663 398.063C60.4263 398.058 59.2654 398.283 58.2836 398.74C57.3218 399.196 56.5694 399.803 56.0264 400.561C55.5035 401.319 55.24 402.188 55.2362 403.168C55.2334 403.868 55.3409 404.508 55.5586 405.089C55.7963 405.67 56.1342 406.211 56.5722 406.713C57.0303 407.195 57.5885 407.647 58.2469 408.07C58.9253 408.472 59.7037 408.875 60.5821 409.279C61.7602 409.763 62.7484 410.237 63.5465 410.7C64.3448 411.144 64.9429 411.626 65.3409 412.147C65.7588 412.669 65.9663 413.3 65.9634 414.04C65.961 414.66 65.7687 415.229 65.3867 415.748C65.0247 416.246 64.4832 416.634 63.7621 416.911C63.041 417.188 62.1404 417.325 61.0604 417.321C60.4404 417.318 59.8107 417.256 59.1712 417.133C58.5317 416.991 57.9424 416.818 57.4032 416.616C56.884 416.414 56.4347 416.232 56.0553 416.071L55.508 417.929Z" fill="black"/>
<defs>
<filter id="filter0_d_0_1" x="-5.35043" y="1.34726" width="95.765" height="464.304" filterUnits="userSpaceOnUse" color-interpolation-filters="sRGB">
<feFlood flood-opacity="0" result="BackgroundImageFix"/>
<feColorMatrix in="SourceAlpha" type="matrix" values="0 0 0 0 0 0 0 0 0 0 0 0 0 0 0 0 0 0 127 0" result="hardAlpha"/>
<feOffset dy="4"/>
<feGaussianBlur stdDeviation="2"/>
<feComposite in2="hardAlpha" operator="out"/>
<feColorMatrix type="matrix" values="0 0 0 0 0 0 0 0 0 0 0 0 0 0 0 0 0 0 0.25 0"/>
<feBlend mode="normal" in2="BackgroundImageFix" result="effect1_dropShadow_0_1"/>
<feBlend mode="normal" in="SourceGraphic" in2="effect1_dropShadow_0_1" result="shape"/>
</filter>
</defs>
</svg>
