<svg width="100%" height="128" viewBox="0 0 466 128" fill="none" xmlns="http://www.w3.org/2000/svg">
<g filter="url(#filter0_d_301_264)">
<g filter="url(#filter1_d_301_264)">
<rect x="4.91396" y="107.822" width="86" height="456" rx="4" transform="rotate(-89.75 4.91396 107.822)" fill="#B84040"/>
<rect x="5.16504" y="107.573" width="85.5" height="455.5" rx="3.75" transform="rotate(-89.75 5.16504 107.573)" stroke="black" stroke-width="0.5"/>
</g>
<path d="M60.8769 56.3217C59.0103 56.3136 57.6009 55.7824 56.6488 54.7283C55.6968 53.6508 55.2252 52.1204 55.2338 50.137L55.24 48.737L58.8799 48.7529L58.8726 50.4329C58.8657 52.0196 59.5272 52.8158 60.8572 52.8216C61.5105 52.8244 62.0013 52.6399 62.3296 52.268C62.6813 51.8729 62.8591 51.2437 62.8629 50.3803C62.8673 49.3537 62.6379 48.4543 62.1746 47.6823C61.7114 46.8869 60.8522 45.9382 59.597 44.836C58.0165 43.4291 56.9136 42.1643 56.2885 41.0416C55.6635 39.8955 55.3541 38.6108 55.3603 37.1875C55.3688 35.2508 55.8653 33.7596 56.8499 32.7139C57.8346 31.6449 59.2602 31.1144 61.1269 31.1226C62.9702 31.1306 64.3562 31.6733 65.2848 32.7507C66.2369 33.8049 66.7086 35.3236 66.6999 37.3069L66.6955 38.3219L63.0555 38.3061L63.061 37.0461C63.0647 36.2061 62.904 35.5987 62.579 35.2239C62.2541 34.8259 61.7766 34.6254 61.1466 34.6227C59.8633 34.6171 59.2182 35.3959 59.2114 36.9593C59.2075 37.8459 59.4372 38.6753 59.9005 39.4473C60.3872 40.2194 61.2581 41.1566 62.5133 42.2587C64.1172 43.6657 65.2199 44.9422 65.8216 46.0882C66.4233 47.2342 66.7208 48.5771 66.714 50.1171C66.7053 52.1238 66.1969 53.6616 65.1889 54.7305C64.2042 55.7996 62.7669 56.33 60.8769 56.3217ZM71.9974 35.02L67.9725 35.0025L67.9877 31.5025L79.8876 31.5544L79.8723 35.0544L75.8474 35.0368L75.7558 56.0366L71.9058 56.0198L71.9974 35.02ZM83.1202 31.5685L88.3351 31.5913L92.2182 56.1085L88.3682 56.0917L87.6894 51.2237L87.6891 51.2937L83.3142 51.2746L82.5933 56.0665L79.0233 56.0509L83.1202 31.5685ZM87.2487 47.9667L85.5865 35.8493L85.5165 35.849L83.7837 47.9516L87.2487 47.9667ZM94.1929 31.6168L104.378 31.6613L104.363 35.1613L98.0276 35.1336L97.9978 41.9585L102.968 41.9802L102.953 45.4802L97.9826 45.4585L97.936 56.1334L94.086 56.1166L94.1929 31.6168ZM106.224 31.6693L116.409 31.7138L116.394 35.2138L110.059 35.1861L110.029 42.011L114.999 42.0327L114.984 45.5327L110.014 45.511L109.967 56.1859L106.117 56.1691L106.224 31.6693ZM127.777 56.6136C126.377 56.6075 125.318 56.1246 124.598 55.1647C123.879 54.2049 123.524 52.815 123.532 50.995L123.543 48.4401C123.548 47.1568 123.775 46.0844 124.222 45.223C124.669 44.3616 125.395 43.7348 126.4 43.3425L126.4 43.2725C125.492 42.8952 124.818 42.2972 124.378 41.4787C123.962 40.6368 123.756 39.5626 123.762 38.2559L123.764 37.8009C123.773 35.8176 124.258 34.3147 125.219 33.2922C126.18 32.2698 127.617 31.7627 129.531 31.771L133.941 31.7903L133.925 35.2902L129.585 35.2713C128.955 35.2686 128.464 35.4531 128.113 35.8249C127.785 36.1968 127.619 36.8027 127.615 37.6427L127.608 39.1477C127.604 40.081 127.788 40.7469 128.16 41.1451C128.555 41.5435 129.137 41.7444 129.907 41.7478L131.412 41.7543L131.424 39.0244L135.204 39.0409L135.192 41.7708L136.277 41.7756L136.262 45.2755L135.177 45.2708L135.142 53.3207C135.139 54.0207 135.159 54.5925 135.204 55.036C135.249 55.4562 135.364 55.8767 135.549 56.2975L131.699 56.2807C131.514 55.7666 131.4 55.1244 131.357 54.3542L131.287 54.3539C130.864 55.1221 130.371 55.6916 129.81 56.0625C129.271 56.4335 128.594 56.6172 127.777 56.6136ZM129.227 53.1199C130.441 53.1252 131.156 52.3933 131.372 50.9243L131.397 45.2543L129.927 45.2479C129.04 45.244 128.397 45.4862 127.999 45.9745C127.6 46.4394 127.398 47.2319 127.393 48.3519L127.382 50.8368C127.379 51.6535 127.54 52.2375 127.865 52.589C128.19 52.9404 128.644 53.1174 129.227 53.1199ZM149.377 56.7079C147.534 56.6998 146.124 56.1687 145.149 55.1144C144.197 54.0602 143.725 52.5765 143.733 50.6632L143.791 37.5033C143.799 35.59 144.284 34.1104 145.245 33.0646C146.23 32.0189 147.644 31.5001 149.487 31.5081C151.33 31.5162 152.728 32.0473 153.68 33.1014C154.656 34.1557 155.139 35.6395 155.131 37.5528L155.119 40.1428L151.479 40.1269L151.492 37.2919C151.498 35.7753 150.86 35.0141 149.577 35.0085C148.293 35.0029 147.649 35.7585 147.642 37.2751L147.582 50.96C147.576 52.4533 148.214 53.2028 149.497 53.2084C150.781 53.214 151.426 52.4701 151.432 50.9768L151.448 47.2318L155.088 47.2477L155.073 50.7127C155.065 52.626 154.569 54.1055 153.584 55.1512C152.623 56.197 151.22 56.7159 149.377 56.7079ZM162.95 56.7671C161.084 56.759 159.663 56.2277 158.687 55.1735C157.712 54.0959 157.229 52.5654 157.237 50.5821L157.319 31.8923L161.169 31.9091L161.086 50.8789C161.082 51.7189 161.243 52.3263 161.568 52.701C161.917 53.0759 162.406 53.2647 163.036 53.2674C163.666 53.2702 164.145 53.0856 164.473 52.7137C164.825 52.3419 165.002 51.736 165.006 50.896L165.089 31.9262L168.799 31.9424L168.717 50.6322C168.709 52.6155 168.212 54.1417 167.227 55.2107C166.243 56.2565 164.817 56.7752 162.95 56.7671ZM176.437 56.8259C174.571 56.8178 173.161 56.2866 172.209 55.2325C171.257 54.155 170.786 52.6246 170.794 50.6413L170.8 49.2413L174.44 49.2572L174.433 50.9371C174.426 52.5238 175.088 53.32 176.418 53.3258C177.071 53.3287 177.562 53.1442 177.89 52.7722C178.242 52.3771 178.42 51.7479 178.423 50.8846C178.428 49.8579 178.198 48.9586 177.735 48.1865C177.272 47.3912 176.413 46.4424 175.157 45.3403C173.577 43.9333 172.474 42.6685 171.849 41.5458C171.224 40.3997 170.915 39.115 170.921 37.6917C170.929 35.755 171.426 34.2639 172.41 33.2182C173.395 32.1491 174.821 31.6187 176.687 31.6268C178.531 31.6348 179.917 32.1776 180.845 33.255C181.797 34.3091 182.269 35.8279 182.26 37.8112L182.256 38.8262L178.616 38.8103L178.621 37.5503C178.625 36.7103 178.464 36.1029 178.139 35.7282C177.814 35.3301 177.337 35.1297 176.707 35.1269C175.424 35.1213 174.779 35.9002 174.772 37.4635C174.768 38.3502 174.998 39.1795 175.461 39.9515C175.948 40.7237 176.819 41.6608 178.074 42.763C179.678 44.17 180.78 45.4465 181.382 46.5924C181.984 47.7384 182.281 49.0814 182.274 50.6214C182.266 52.628 181.757 54.1658 180.749 55.2347C179.765 56.3038 178.327 56.8342 176.437 56.8259ZM187.558 35.5243L183.533 35.5067L183.548 32.0067L195.448 32.0587L195.433 35.5586L191.408 35.5411L191.316 56.5409L187.466 56.5241L187.558 35.5243ZM202.632 56.9402C200.742 56.932 199.298 56.389 198.299 55.3113C197.3 54.2336 196.805 52.7148 196.814 50.7548L196.87 37.8749C196.879 35.9149 197.387 34.4005 198.395 33.3315C199.403 32.2626 200.852 31.7322 202.742 31.7405C204.632 31.7487 206.076 32.2917 207.075 33.3694C208.073 34.4471 208.568 35.9659 208.56 37.9259L208.504 50.8058C208.495 52.7658 207.987 54.2803 206.979 55.3492C205.971 56.4181 204.522 56.9485 202.632 56.9402ZM202.647 53.4403C203.977 53.4461 204.646 52.644 204.653 51.034L204.711 37.6641C204.718 36.0541 204.057 35.2463 202.727 35.2404C201.397 35.2346 200.728 36.0367 200.721 37.6467L200.663 51.0166C200.656 52.6266 201.317 53.4345 202.647 53.4403ZM211.189 32.1273L216.684 32.1513L219.057 49.6968L219.127 49.6971L221.654 32.173L227.149 32.197L227.042 56.6967L223.402 56.6809L223.483 38.131L223.413 38.1307L220.532 56.6683L217.312 56.6543L214.593 38.0923L214.523 38.0919L214.442 56.6418L211.082 56.6271L211.189 32.1273ZM230.022 32.2095L240.522 32.2553L240.506 35.7553L233.856 35.7263L233.828 42.2012L239.113 42.2243L239.098 45.7242L233.813 45.7012L233.78 53.2261L240.43 53.2551L240.415 56.7551L229.915 56.7093L230.022 32.2095ZM242.736 32.265L248.441 32.2899C250.425 32.2985 251.869 32.7715 252.775 33.7088C253.681 34.6228 254.13 36.0364 254.122 37.9497L254.115 39.4547C254.104 41.998 253.257 43.6043 251.574 44.2737L251.574 44.3437C252.506 44.6277 253.157 45.2023 253.526 46.0672C253.919 46.9323 254.112 48.0881 254.106 49.5348L254.087 53.8397C254.084 54.5397 254.105 55.1115 254.15 55.555C254.195 55.9752 254.31 56.3957 254.494 56.8165L250.574 56.7994C250.436 56.4022 250.344 56.0284 250.299 55.6782C250.254 55.328 250.234 54.6979 250.238 53.7879L250.257 49.308C250.262 48.188 250.079 47.4055 249.707 46.9606C249.359 46.5157 248.742 46.2913 247.855 46.2875L246.525 46.2817L246.479 56.7816L242.63 56.7648L242.736 32.265ZM247.941 42.7878C248.711 42.7912 249.283 42.5953 249.658 42.2003C250.057 41.8054 250.258 41.1412 250.262 40.2079L250.27 38.3179C250.274 37.4313 250.113 36.7889 249.788 36.3908C249.487 35.9928 248.998 35.7924 248.321 35.7894L246.571 35.7818L246.541 42.7817L247.941 42.7878ZM56.6738 60.4534L62.7238 60.4798L62.5558 98.9794L56.5059 98.953L56.6738 60.4534ZM67.2548 60.4996L74.8447 60.5327L80.6291 83.6032L80.7391 83.6036L80.8397 60.5589L86.2296 60.5824L86.0616 99.082L79.8467 99.0549L72.7094 70.9185L72.5994 70.918L72.4768 99.0227L67.0868 98.9992L67.2548 60.4996ZM95.4322 66.1226L89.1073 66.095L89.1313 60.595L107.831 60.6766L107.807 66.1766L101.482 66.149L101.338 99.1487L95.2882 99.1223L95.4322 66.1226ZM110.76 60.6894L127.26 60.7614L127.236 66.2614L116.786 66.2158L116.742 76.3907L125.047 76.4269L125.023 81.9268L116.718 81.8906L116.666 93.7155L127.116 93.7611L127.092 99.261L110.592 99.189L110.76 60.6894ZM130.741 60.7766L139.705 60.8157C142.822 60.8293 145.092 61.5726 146.516 63.0454C147.94 64.4817 148.645 66.7031 148.632 69.7097L148.621 72.0747C148.604 76.0714 147.273 78.5956 144.628 79.6474L144.628 79.7574C146.093 80.2038 147.115 81.1066 147.696 82.4658C148.313 83.8252 148.617 85.6415 148.607 87.9148L148.578 94.6797C148.573 95.7797 148.606 96.6782 148.676 97.3752C148.746 98.0355 148.927 98.6963 149.217 99.3576L143.057 99.3307C142.84 98.7064 142.696 98.1191 142.625 97.5688C142.554 97.0185 142.522 96.0283 142.528 94.5983L142.559 87.5584C142.566 85.7984 142.278 84.5688 141.695 83.8696C141.148 83.1706 140.178 82.818 138.784 82.8119L136.694 82.8028L136.622 99.3026L130.573 99.2762L130.741 60.7766ZM138.918 77.3124C140.128 77.3177 141.028 77.01 141.618 76.3892C142.244 75.7686 142.56 74.725 142.566 73.2583L142.579 70.2883C142.585 68.895 142.333 67.8856 141.822 67.26C141.348 66.6346 140.58 66.3196 139.516 66.3149L136.766 66.3029L136.718 77.3028L138.918 77.3124ZM151.113 60.8655L157.218 60.8921L161.048 90.7741L161.158 90.7746L165.248 60.9272L170.803 60.9514L164.805 99.4256L156.775 99.3906L151.113 60.8655ZM173.709 60.9641L179.759 60.9905L179.591 99.4901L173.541 99.4637L173.709 60.9641ZM184.29 61.0102L200.79 61.0822L200.766 66.5822L190.316 66.5366L190.271 76.7115L198.576 76.7477L198.552 82.2477L190.247 82.2114L190.196 94.0363L200.646 94.0819L200.622 99.5819L184.122 99.5099L184.29 61.0102ZM202.84 61.0912L208.67 61.1166L211.236 90.7181L211.346 90.7186L214.335 61.1413L220.935 61.1701L223.666 90.7723L223.776 90.7728L226.6 61.1949L231.825 61.2177L227.752 99.7003L220.217 99.6674L217.58 73.6956L217.47 73.6951L214.607 99.6429L206.577 99.6079L202.84 61.0912ZM242.58 100.315C239.646 100.302 237.432 99.4675 235.935 97.8109C234.439 96.1177 233.698 93.7128 233.712 90.5962L233.721 88.3962L239.441 88.4212L239.43 91.0611C239.419 93.5544 240.459 94.8057 242.549 94.8148C243.575 94.8193 244.347 94.5293 244.862 93.9449C245.415 93.3239 245.694 92.3351 245.7 90.9785C245.707 89.3652 245.347 87.9519 244.619 86.7387C243.891 85.4889 242.541 83.998 240.568 82.266C238.085 80.0552 236.352 78.0676 235.369 76.3033C234.387 74.5023 233.901 72.4835 233.911 70.2468C233.924 67.2035 234.704 64.8603 236.251 63.217C237.799 61.5371 240.039 60.7035 242.972 60.7163C245.869 60.7289 248.047 61.5818 249.506 63.2748C251.002 64.9314 251.744 67.318 251.73 70.4346L251.723 72.0296L246.003 72.0046L246.012 70.0246C246.018 68.7047 245.765 67.7502 245.254 67.1613C244.744 66.5357 243.993 66.2208 243.003 66.2165C240.987 66.2077 239.973 67.4316 239.962 69.8882C239.956 71.2816 240.317 72.5848 241.045 73.798C241.81 75.0114 243.179 76.484 245.151 78.216C247.671 80.427 249.404 82.4329 250.35 84.2337C251.295 86.0345 251.763 88.1449 251.752 90.5649C251.738 93.7182 250.94 96.1347 249.356 97.8145C247.808 99.4944 245.55 100.328 242.58 100.315Z" fill="black"/>
<path d="M277.895 42.7121L280.67 42.7242L282.411 56.3069L282.461 56.3072L284.32 42.7401L286.845 42.7512L284.119 60.2394L280.469 60.2235L277.895 42.7121ZM292.015 60.5239C290.665 60.518 289.633 60.1302 288.92 59.3604C288.207 58.5906 287.853 57.5057 287.859 56.1057L287.899 46.9058C287.905 45.5058 288.268 44.4241 288.988 43.6605C289.708 42.897 290.743 42.5182 292.093 42.5241C293.443 42.5299 294.475 42.9178 295.188 43.6876C295.902 44.4574 296.255 45.5422 296.249 46.9422L296.209 56.1421C296.203 57.5421 295.84 58.6239 295.12 59.3874C294.4 60.151 293.365 60.5298 292.015 60.5239ZM292.026 58.0239C292.976 58.0281 293.453 57.4551 293.458 56.3051L293.5 46.7552C293.505 45.6052 293.032 45.0282 292.082 45.024C291.133 45.0199 290.655 45.5928 290.65 46.7428L290.608 56.2927C290.603 57.4427 291.076 58.0198 292.026 58.0239ZM298.127 42.8004L300.877 42.8124L300.812 57.8122L305.337 57.832L305.326 60.332L298.051 60.3002L298.127 42.8004ZM310.643 60.6052C309.31 60.5993 308.295 60.2199 307.598 59.4669C306.901 58.6972 306.556 57.604 306.562 56.1873L306.621 42.8374L309.371 42.8494L309.312 56.3993C309.309 56.9993 309.424 57.4331 309.656 57.7008C309.905 57.9686 310.254 58.1034 310.704 58.1054C311.154 58.1074 311.496 57.9755 311.731 57.7099C311.982 57.4443 312.109 57.0115 312.112 56.4115L312.171 42.8617L314.821 42.8732L314.762 56.2231C314.756 57.6398 314.401 58.7299 313.698 59.4935C312.995 60.2404 311.977 60.611 310.643 60.6052ZM316.779 42.8818L320.704 42.8989L322.399 55.4314L322.449 55.4316L324.254 42.9144L328.179 42.9315L328.103 60.4313L325.503 60.42L325.561 47.1701L325.511 47.1699L323.453 60.4111L321.153 60.401L319.211 47.1424L319.161 47.1422L319.103 60.3921L316.703 60.3816L316.779 42.8818ZM330.231 42.9405L337.731 42.9732L337.72 45.4732L332.97 45.4524L332.95 50.0774L336.725 50.0939L336.714 52.5938L332.939 52.5774L332.916 57.9523L337.666 57.973L337.655 60.473L330.155 60.4403L330.231 42.9405ZM342.859 60.7457C341.526 60.7399 340.519 60.3605 339.839 59.6075C339.159 58.8379 338.823 57.7448 338.829 56.3281L338.833 55.3281L341.433 55.3395L341.428 56.5395C341.423 57.6728 341.895 58.2415 342.845 58.2457C343.312 58.2477 343.663 58.1159 343.897 57.8502C344.148 57.568 344.275 57.1185 344.278 56.5019C344.281 55.7686 344.117 55.1262 343.786 54.5747C343.456 54.0066 342.842 53.3289 341.945 52.5417C340.816 51.5367 340.029 50.6333 339.582 49.8313C339.136 49.0127 338.915 48.0951 338.919 47.0784C338.925 45.6951 339.28 44.63 339.983 43.883C340.686 43.1194 341.705 42.7405 343.038 42.7463C344.355 42.7521 345.345 43.1397 346.008 43.9093C346.688 44.6623 347.025 45.7471 347.019 47.1638L347.016 47.8888L344.416 47.8774L344.42 46.9774C344.422 46.3774 344.307 45.9436 344.075 45.6759C343.843 45.3916 343.502 45.2484 343.052 45.2464C342.135 45.2424 341.675 45.7988 341.67 46.9154C341.667 47.5487 341.831 48.1411 342.162 48.6926C342.51 49.2441 343.132 49.9135 344.028 50.7007C345.174 51.7058 345.962 52.6175 346.391 53.4361C346.821 54.2546 347.034 55.2139 347.029 56.3139C347.023 57.7472 346.659 58.8456 345.939 59.6092C345.236 60.3728 344.209 60.7516 342.859 60.7457ZM298.959 76.9543L296.084 76.9418L296.093 74.9918C296.876 74.9952 297.501 74.9313 297.969 74.8C298.453 74.6688 298.837 74.4538 299.122 74.155C299.406 73.8396 299.658 73.3907 299.877 72.8083L301.727 72.8164L301.651 90.3162L298.901 90.3042L298.959 76.9543ZM304.704 80.3294L310.204 80.3534L310.193 82.8534L304.694 82.8294L304.704 80.3294ZM315.698 90.6275C314.348 90.6216 313.325 90.2421 312.628 89.4891C311.948 88.7361 311.611 87.6596 311.617 86.2597L311.623 84.8347L314.223 84.846L314.216 86.396C314.211 87.546 314.684 88.1231 315.634 88.1272C316.1 88.1292 316.451 87.9891 316.686 87.7068C316.937 87.4079 317.064 86.8918 317.067 86.1584L317.074 84.7335C317.077 83.9335 316.938 83.3662 316.656 83.0316C316.374 82.6804 315.917 82.5034 315.283 82.5006L314.358 82.4966L314.369 79.9966L315.369 80.001C315.919 80.0034 316.328 79.8635 316.596 79.5813C316.881 79.2992 317.024 78.8248 317.027 78.1582L317.033 76.8832C317.035 76.2832 316.912 75.841 316.664 75.5566C316.415 75.2722 316.082 75.129 315.666 75.1272C314.782 75.1234 314.338 75.6631 314.333 76.7464L314.328 77.8964L311.728 77.8851L311.732 76.9601C311.739 75.5601 312.085 74.4866 312.772 73.7396C313.475 72.9926 314.476 72.622 315.776 72.6277C317.093 72.6334 318.091 73.0128 318.771 73.7658C319.452 74.5021 319.789 75.5702 319.783 76.9702L319.78 77.5952C319.776 78.5452 319.614 79.3112 319.295 79.8931C318.976 80.4584 318.482 80.8646 317.814 81.1117L317.814 81.1617C318.53 81.4314 319.044 81.867 319.359 82.4684C319.673 83.0698 319.828 83.8371 319.823 84.7705L319.817 86.3204C319.811 87.7204 319.456 88.7939 318.753 89.5408C318.066 90.2712 317.048 90.6334 315.698 90.6275ZM326.423 87.2493L321.173 87.2264L321.183 84.7264L326.235 72.9233L329.235 72.9364L329.183 84.7613L330.483 84.767L330.472 87.2669L329.172 87.2613L329.159 90.4362L326.409 90.4242L326.423 87.2493ZM326.433 84.7493L326.463 77.9244L326.413 77.9241L323.683 84.7373L326.433 84.7493Z" fill="black"/>
<mask id="path-5-outside-1_301_264" maskUnits="userSpaceOnUse" x="430.615" y="49.7058" width="17.17" height="39.0738" fill="black">
<rect fill="white" x="430.615" y="49.7058" width="17.17" height="39.0738"/>
<path d="M431.892 84.8026L432.145 86.3637L445.648 81.2025L445.655 79.6826L432.077 74.5833L432.07 76.1232L443.571 80.4335L431.892 84.8026ZM445.727 63.0352L432.127 62.9759L432.12 64.5559L438.24 64.5826L438.212 70.9825L431.993 70.9554L432.086 72.5158L445.686 72.5751L445.692 71.0151L439.472 70.988L439.5 64.5881L445.72 64.6152L445.727 63.0352ZM445.08 60.0906C445.201 59.9045 445.322 59.665 445.443 59.3722C445.551 59.0794 445.646 58.7531 445.727 58.3935C445.809 58.0338 445.877 57.6808 445.932 57.3343C445.987 56.9746 446.015 56.6547 446.016 56.3747C446.021 55.348 445.871 54.4807 445.568 53.7727C445.264 53.0514 444.846 52.5029 444.315 52.1272C443.783 51.7382 443.171 51.5422 442.477 51.5392C441.984 51.5371 441.55 51.6152 441.176 51.7735C440.789 51.9318 440.441 52.1637 440.133 52.469C439.825 52.7743 439.537 53.1464 439.268 53.5852C439 54.0241 438.738 54.5363 438.482 55.1218C438.092 55.9068 437.749 56.572 437.453 57.1173C437.144 57.6627 436.815 58.0746 436.468 58.353C436.12 58.6182 435.706 58.7497 435.226 58.7476C434.586 58.7448 434.087 58.476 433.729 57.9411C433.372 57.3929 433.195 56.6921 433.198 55.8388C433.2 55.3854 433.242 54.9923 433.324 54.6593C433.392 54.3129 433.48 54.0066 433.588 53.7404C433.696 53.4609 433.803 53.208 433.911 52.9818L432.693 52.4365C432.478 52.8623 432.283 53.3814 432.107 53.994C431.931 54.6066 431.841 55.2462 431.838 55.9128C431.834 56.8062 431.984 57.5801 432.288 58.2348C432.592 58.8761 432.996 59.3779 433.501 59.7401C434.007 60.089 434.586 60.2649 435.239 60.2677C435.706 60.2697 436.133 60.1983 436.52 60.0533C436.907 59.895 437.268 59.6699 437.603 59.378C437.924 59.0727 438.226 58.7007 438.508 58.262C438.777 57.8098 439.046 57.291 439.315 56.7055C439.638 55.9202 439.954 55.2616 440.263 54.7296C440.559 54.1975 440.881 53.7989 441.229 53.5338C441.577 53.2553 441.997 53.1171 442.49 53.1193C442.904 53.1211 443.283 53.2494 443.629 53.5043C443.961 53.7457 444.219 54.1068 444.404 54.5876C444.589 55.0685 444.679 55.6689 444.676 56.3888C444.674 56.8022 444.633 57.222 444.551 57.6483C444.456 58.0746 444.34 58.4674 444.206 58.8268C444.071 59.1729 443.949 59.4724 443.842 59.7252L445.08 60.0906Z"/>
</mask>
<path d="M431.892 84.8026L432.145 86.3637L445.648 81.2025L445.655 79.6826L432.077 74.5833L432.07 76.1232L443.571 80.4335L431.892 84.8026ZM445.727 63.0352L432.127 62.9759L432.12 64.5559L438.24 64.5826L438.212 70.9825L431.993 70.9554L432.086 72.5158L445.686 72.5751L445.692 71.0151L439.472 70.988L439.5 64.5881L445.72 64.6152L445.727 63.0352ZM445.08 60.0906C445.201 59.9045 445.322 59.665 445.443 59.3722C445.551 59.0794 445.646 58.7531 445.727 58.3935C445.809 58.0338 445.877 57.6808 445.932 57.3343C445.987 56.9746 446.015 56.6547 446.016 56.3747C446.021 55.348 445.871 54.4807 445.568 53.7727C445.264 53.0514 444.846 52.5029 444.315 52.1272C443.783 51.7382 443.171 51.5422 442.477 51.5392C441.984 51.5371 441.55 51.6152 441.176 51.7735C440.789 51.9318 440.441 52.1637 440.133 52.469C439.825 52.7743 439.537 53.1464 439.268 53.5852C439 54.0241 438.738 54.5363 438.482 55.1218C438.092 55.9068 437.749 56.572 437.453 57.1173C437.144 57.6627 436.815 58.0746 436.468 58.353C436.12 58.6182 435.706 58.7497 435.226 58.7476C434.586 58.7448 434.087 58.476 433.729 57.9411C433.372 57.3929 433.195 56.6921 433.198 55.8388C433.2 55.3854 433.242 54.9923 433.324 54.6593C433.392 54.3129 433.48 54.0066 433.588 53.7404C433.696 53.4609 433.803 53.208 433.911 52.9818L432.693 52.4365C432.478 52.8623 432.283 53.3814 432.107 53.994C431.931 54.6066 431.841 55.2462 431.838 55.9128C431.834 56.8062 431.984 57.5801 432.288 58.2348C432.592 58.8761 432.996 59.3779 433.501 59.7401C434.007 60.089 434.586 60.2649 435.239 60.2677C435.706 60.2697 436.133 60.1983 436.52 60.0533C436.907 59.895 437.268 59.6699 437.603 59.378C437.924 59.0727 438.226 58.7007 438.508 58.262C438.777 57.8098 439.046 57.291 439.315 56.7055C439.638 55.9202 439.954 55.2616 440.263 54.7296C440.559 54.1975 440.881 53.7989 441.229 53.5338C441.577 53.2553 441.997 53.1171 442.49 53.1193C442.904 53.1211 443.283 53.2494 443.629 53.5043C443.961 53.7457 444.219 54.1068 444.404 54.5876C444.589 55.0685 444.679 55.6689 444.676 56.3888C444.674 56.8022 444.633 57.222 444.551 57.6483C444.456 58.0746 444.34 58.4674 444.206 58.8268C444.071 59.1729 443.949 59.4724 443.842 59.7252L445.08 60.0906Z" fill="black"/>
<path d="M431.892 84.8026L431.542 83.8659L430.774 84.1532L430.905 84.9627L431.892 84.8026ZM432.145 86.3637L431.158 86.5238L431.355 87.7364L432.502 87.2978L432.145 86.3637ZM445.648 81.2025L446.005 82.1366L446.645 81.892L446.648 81.2069L445.648 81.2025ZM445.655 79.6826L446.655 79.6869L446.658 78.9911L446.006 78.7464L445.655 79.6826ZM432.077 74.5833L432.428 73.6471L431.083 73.1419L431.077 74.5789L432.077 74.5833ZM432.07 76.1233L431.07 76.1189L431.067 76.8153L431.719 77.0597L432.07 76.1233ZM443.571 80.4335L443.922 81.3701L446.423 80.4343L443.922 79.4971L443.571 80.4335ZM430.905 84.9627L431.158 86.5238L433.132 86.2036L432.879 84.6425L430.905 84.9627ZM432.502 87.2978L446.005 82.1366L445.291 80.2685L431.788 85.4296L432.502 87.2978ZM446.648 81.2069L446.655 79.6869L444.655 79.6782L444.648 81.1982L446.648 81.2069ZM446.006 78.7464L432.428 73.6471L431.725 75.5194L445.303 80.6187L446.006 78.7464ZM431.077 74.5789L431.07 76.1189L433.07 76.1276L433.077 74.5876L431.077 74.5789ZM431.719 77.0597L443.22 81.3699L443.922 79.4971L432.421 75.1868L431.719 77.0597ZM443.221 79.4969L431.542 83.8659L432.242 85.7392L443.922 81.3701L443.221 79.4969ZM445.727 63.0352L446.727 63.0396L446.732 62.0396L445.732 62.0352L445.727 63.0352ZM432.127 62.9759L432.132 61.9759L431.132 61.9715L431.127 62.9715L432.127 62.9759ZM432.12 64.5559L431.12 64.5515L431.116 65.5515L432.116 65.5559L432.12 64.5559ZM438.24 64.5826L439.24 64.5869L439.245 63.5869L438.245 63.5826L438.24 64.5826ZM438.212 70.9825L438.208 71.9825L439.208 71.9869L439.212 70.9869L438.212 70.9825ZM431.993 70.9554L431.997 69.9554L430.931 69.9507L430.994 71.015L431.993 70.9554ZM432.086 72.5158L431.087 72.5754L431.143 73.5117L432.081 73.5158L432.086 72.5158ZM445.686 72.5751L445.681 73.5751L446.681 73.5795L446.686 72.5795L445.686 72.5751ZM445.692 71.0151L446.692 71.0195L446.697 70.0195L445.697 70.0152L445.692 71.0151ZM439.472 70.988L438.472 70.9836L438.468 71.9836L439.468 71.988L439.472 70.988ZM439.5 64.5881L439.505 63.5881L438.505 63.5837L438.5 64.5837L439.5 64.5881ZM445.72 64.6152L445.716 65.6152L446.716 65.6196L446.72 64.6196L445.72 64.6152ZM445.732 62.0352L432.132 61.9759L432.123 63.9759L445.723 64.0352L445.732 62.0352ZM431.127 62.9715L431.12 64.5515L433.12 64.5602L433.127 62.9802L431.127 62.9715ZM432.116 65.5559L438.236 65.5826L438.245 63.5826L432.125 63.5559L432.116 65.5559ZM437.24 64.5782L437.212 70.9781L439.212 70.9869L439.24 64.5869L437.24 64.5782ZM438.217 69.9825L431.997 69.9554L431.988 71.9554L438.208 71.9825L438.217 69.9825ZM430.994 71.015L431.087 72.5754L433.084 72.4562L432.991 70.8957L430.994 71.015ZM432.081 73.5158L445.681 73.5751L445.69 71.5751L432.09 71.5158L432.081 73.5158ZM446.686 72.5795L446.692 71.0195L444.692 71.0108L444.686 72.5708L446.686 72.5795ZM445.697 70.0152L439.477 69.988L439.468 71.988L445.688 72.0151L445.697 70.0152ZM440.472 70.9924L440.5 64.5924L438.5 64.5837L438.472 70.9836L440.472 70.9924ZM439.496 65.5881L445.716 65.6152L445.725 63.6152L439.505 63.5881L439.496 65.5881ZM446.72 64.6196L446.727 63.0396L444.727 63.0309L444.72 64.6108L446.72 64.6196ZM445.08 60.0906L444.797 61.0498L445.513 61.2609L445.919 60.6351L445.08 60.0906ZM445.443 59.3722L446.367 59.7549L446.375 59.7366L446.381 59.7181L445.443 59.3722ZM445.727 58.3935L444.752 58.1723L445.727 58.3935ZM445.932 57.3343L446.92 57.4907L446.921 57.4852L445.932 57.3343ZM445.568 53.7727L444.646 54.1606L444.649 54.1668L445.568 53.7727ZM444.315 52.1272L443.724 52.9343L443.731 52.9392L443.738 52.9439L444.315 52.1272ZM441.176 51.7735L441.555 52.6993L441.566 52.6944L441.176 51.7735ZM438.482 55.1218L439.377 55.5668L439.388 55.5448L439.398 55.5222L438.482 55.1218ZM437.453 57.1173L438.323 57.6104L438.328 57.6022L438.332 57.594L437.453 57.1173ZM436.468 58.3531L437.074 59.1483L437.083 59.1411L437.092 59.1337L436.468 58.3531ZM433.729 57.9411L432.892 58.4875L432.898 58.4969L433.729 57.9411ZM433.324 54.6593L434.295 54.8969L434.3 54.8748L434.305 54.8524L433.324 54.6593ZM433.588 53.7404L434.515 54.1159L434.518 54.1082L434.521 54.1005L433.588 53.7404ZM433.911 52.9818L434.814 53.4116L435.254 52.4875L434.32 52.0692L433.911 52.9818ZM432.693 52.4365L433.102 51.5239L432.231 51.1339L431.801 51.9854L432.693 52.4365ZM432.288 58.2348L431.381 58.6558L431.384 58.663L432.288 58.2348ZM433.501 59.7401L432.919 60.5528L432.926 60.5579L432.933 60.563L433.501 59.7401ZM436.52 60.0533L436.871 60.9898L436.885 60.9846L436.898 60.979L436.52 60.0533ZM437.603 59.378L438.26 60.1316L438.276 60.1176L438.292 60.103L437.603 59.378ZM438.508 58.262L439.349 58.8025L439.359 58.7878L439.368 58.7727L438.508 58.262ZM439.315 56.7055L440.223 57.1232L440.232 57.1049L440.239 57.0863L439.315 56.7055ZM440.263 54.7296L441.128 55.2318L441.133 55.2236L441.138 55.2153L440.263 54.7296ZM441.229 53.5338L441.835 54.3291L441.844 54.3219L441.854 54.3145L441.229 53.5338ZM443.629 53.5042L443.035 54.3091L443.041 54.3132L443.629 53.5042ZM444.404 54.5876L445.338 54.2293L444.404 54.5876ZM444.551 57.6483L445.527 57.8663L445.53 57.8516L445.533 57.8369L444.551 57.6483ZM444.206 58.8268L445.137 59.1899L445.142 59.1782L444.206 58.8268ZM443.842 59.7252L442.922 59.3332L442.481 60.3665L443.559 60.6844L443.842 59.7252ZM445.919 60.6351C446.084 60.3812 446.231 60.0823 446.367 59.7549L444.519 58.9896C444.412 59.2477 444.318 59.4279 444.241 59.5462L445.919 60.6351ZM446.381 59.7181C446.507 59.378 446.613 59.0092 446.703 58.6146L444.752 58.1723C444.679 58.497 444.595 58.7807 444.505 59.0264L446.381 59.7181ZM446.703 58.6146C446.789 58.2346 446.861 57.86 446.92 57.4907L444.944 57.178C444.893 57.5016 444.829 57.833 444.752 58.1723L446.703 58.6146ZM446.921 57.4852C446.981 57.0905 447.015 56.7201 447.016 56.3791L445.016 56.3703C445.015 56.5893 444.993 56.8587 444.944 57.1835L446.921 57.4852ZM447.016 56.3791C447.021 55.2586 446.859 54.2469 446.487 53.3786L444.649 54.1668C444.883 54.7145 445.02 55.4374 445.016 56.3703L447.016 56.3791ZM446.489 53.3849C446.128 52.5263 445.605 51.8141 444.892 51.3105L443.738 52.9439C444.088 53.1917 444.4 53.5765 444.646 54.1606L446.489 53.3849ZM444.905 51.3202C444.194 50.7999 443.374 50.5431 442.482 50.5392L442.473 52.5392C442.967 52.5414 443.372 52.6766 443.724 52.9343L444.905 51.3202ZM442.482 50.5392C441.881 50.5366 441.309 50.6315 440.786 50.8527L441.566 52.6944C441.792 52.5989 442.087 52.5375 442.473 52.5392L442.482 50.5392ZM440.798 50.8479C440.285 51.0577 439.827 51.3644 439.429 51.7588L440.837 53.1792C441.055 52.9629 441.293 52.806 441.555 52.6992L440.798 50.8479ZM439.429 51.7588C439.055 52.13 438.718 52.5682 438.415 53.0632L440.121 54.1073C440.356 53.7246 440.596 53.4187 440.837 53.1792L439.429 51.7588ZM438.415 53.0632C438.118 53.5491 437.835 54.1035 437.565 54.7214L439.398 55.5222C439.64 54.969 439.882 54.4991 440.121 54.1073L438.415 53.0632ZM437.586 54.6768C437.199 55.4551 436.862 56.109 436.574 56.6407L438.332 57.594C438.635 57.0349 438.984 56.3585 439.377 55.5668L437.586 54.6768ZM436.583 56.6243C436.313 57.1006 436.06 57.3986 435.843 57.5724L437.092 59.1337C437.571 58.7506 437.975 58.2247 438.323 57.6104L436.583 56.6243ZM435.861 57.5578C435.706 57.676 435.512 57.7489 435.23 57.7476L435.221 59.7476C435.899 59.7506 436.533 59.5604 437.074 59.1483L435.861 57.5578ZM435.23 57.7476C434.925 57.7463 434.735 57.6457 434.561 57.3852L432.898 58.4969C433.439 59.3063 434.247 59.7434 435.221 59.7476L435.23 57.7476ZM434.567 57.3948C434.344 57.0533 434.195 56.5595 434.198 55.8431L432.199 55.8344C432.194 56.8247 432.399 57.7325 432.892 58.4874L434.567 57.3948ZM434.198 55.8431C434.2 55.4448 434.237 55.1336 434.295 54.8969L432.352 54.4217C432.247 54.851 432.201 55.3261 432.199 55.8344L434.198 55.8431ZM434.305 54.8524C434.363 54.5548 434.435 54.3116 434.515 54.1159L432.661 53.365C432.524 53.7017 432.42 54.071 432.342 54.4662L434.305 54.8524ZM434.521 54.1005C434.621 53.8402 434.719 53.611 434.814 53.4116L433.008 52.5521C432.888 52.805 432.77 53.0816 432.655 53.3804L434.521 54.1005ZM434.32 52.0692L433.102 51.5239L432.285 53.3492L433.502 53.8945L434.32 52.0692ZM431.801 51.9854C431.55 52.4822 431.333 53.0636 431.145 53.7178L433.068 54.2701C433.232 53.6992 433.407 53.2423 433.586 52.8876L431.801 51.9854ZM431.145 53.7178C430.943 54.4228 430.841 55.1541 430.838 55.9085L432.838 55.9172C432.841 55.3382 432.918 54.7903 433.068 54.2701L431.145 53.7178ZM430.838 55.9085C430.834 56.9146 431.002 57.8401 431.381 58.6558L433.195 57.8139C432.966 57.3202 432.835 56.6977 432.838 55.9172L430.838 55.9085ZM431.384 58.663C431.75 59.4356 432.257 60.0784 432.919 60.5528L434.084 58.9275C433.736 58.6774 433.433 58.3167 433.192 57.8066L431.384 58.663ZM432.933 60.563C433.615 61.0339 434.394 61.264 435.235 61.2677L435.244 59.2677C434.778 59.2657 434.398 59.1441 434.07 58.9173L432.933 60.563ZM435.235 61.2677C435.807 61.2702 436.356 61.1824 436.871 60.9898L436.17 59.1168C435.909 59.2142 435.604 59.2693 435.244 59.2677L435.235 61.2677ZM436.898 60.979C437.394 60.7766 437.848 60.4914 438.26 60.1316L436.946 58.6244C436.689 58.8484 436.421 59.0134 436.142 59.1276L436.898 60.979ZM438.292 60.103C438.68 59.7339 439.031 59.2971 439.349 58.8025L437.667 57.7214C437.421 58.1043 437.168 58.4116 436.914 58.653L438.292 60.103ZM439.368 58.7727C439.658 58.2846 439.943 57.7338 440.223 57.1232L438.406 56.2877C438.149 56.8481 437.896 57.3349 437.648 57.7512L439.368 58.7727ZM440.239 57.0863C440.552 56.3283 440.849 55.7132 441.128 55.2318L439.399 54.2273C439.06 54.8099 438.725 55.5121 438.39 56.3246L440.239 57.0863ZM441.138 55.2153C441.391 54.7597 441.631 54.4847 441.835 54.3291L440.622 52.7385C440.131 53.1132 439.727 53.6353 439.389 54.2438L441.138 55.2153ZM441.854 54.3145C442.004 54.1943 442.195 54.118 442.486 54.1193L442.495 52.1193C441.799 52.1163 441.149 52.3162 440.604 52.7531L441.854 54.3145ZM442.486 54.1193C442.679 54.1201 442.853 54.1749 443.035 54.3091L444.222 52.6994C443.713 52.3239 443.129 52.1221 442.495 52.1193L442.486 54.1193ZM443.041 54.3132C443.181 54.4153 443.338 54.5999 443.47 54.946L445.338 54.2293C445.101 53.6137 444.741 53.0761 444.217 52.6953L443.041 54.3132ZM443.47 54.946C443.597 55.2749 443.679 55.7428 443.676 56.3845L445.676 56.3932C445.68 55.595 445.581 54.862 445.338 54.2293L443.47 54.946ZM443.676 56.3845C443.675 56.733 443.639 57.0911 443.569 57.4597L445.533 57.8369C445.626 57.3529 445.674 56.8714 445.676 56.3932L443.676 56.3845ZM443.575 57.4304C443.488 57.8173 443.386 58.165 443.269 58.4754L445.142 59.1782C445.295 58.7699 445.423 58.3318 445.527 57.8663L443.575 57.4304ZM443.274 58.4638C443.142 58.8032 443.024 59.0926 442.922 59.3332L444.762 60.1173C444.875 59.8522 445 59.5426 445.137 59.1899L443.274 58.4638ZM443.559 60.6844L444.797 61.0498L445.363 59.1315L444.125 58.7661L443.559 60.6844Z" fill="black" mask="url(#path-5-outside-1_301_264)"/>
</g>
<defs>
<filter id="filter0_d_301_264" x="0.931366" y="21.8402" width="464.336" height="95.954" filterUnits="userSpaceOnUse" color-interpolation-filters="sRGB">
<feFlood flood-opacity="0" result="BackgroundImageFix"/>
<feColorMatrix in="SourceAlpha" type="matrix" values="0 0 0 0 0 0 0 0 0 0 0 0 0 0 0 0 0 0 127 0" result="hardAlpha"/>
<feOffset dy="4"/>
<feGaussianBlur stdDeviation="2"/>
<feComposite in2="hardAlpha" operator="out"/>
<feColorMatrix type="matrix" values="0 0 0 0 0 0 0 0 0 0 0 0 0 0 0 0 0 0 0.25 0"/>
<feBlend mode="normal" in2="BackgroundImageFix" result="effect1_dropShadow_301_264"/>
<feBlend mode="normal" in="SourceGraphic" in2="effect1_dropShadow_301_264" result="shape"/>
</filter>
<filter id="filter1_d_301_264" x="0.931366" y="21.8402" width="464.336" height="95.954" filterUnits="userSpaceOnUse" color-interpolation-filters="sRGB">
<feFlood flood-opacity="0" result="BackgroundImageFix"/>
<feColorMatrix in="SourceAlpha" type="matrix" values="0 0 0 0 0 0 0 0 0 0 0 0 0 0 0 0 0 0 127 0" result="hardAlpha"/>
<feOffset dy="4"/>
<feGaussianBlur stdDeviation="2"/>
<feComposite in2="hardAlpha" operator="out"/>
<feColorMatrix type="matrix" values="0 0 0 0 0 0 0 0 0 0 0 0 0 0 0 0 0 0 0.25 0"/>
<feBlend mode="normal" in2="BackgroundImageFix" result="effect1_dropShadow_301_264"/>
<feBlend mode="normal" in="SourceGraphic" in2="effect1_dropShadow_301_264" result="shape"/>
</filter>
</defs>
</svg>
