<svg width="100%" height="86" viewBox="0 0 457 85" fill="none" xmlns="http://www.w3.org/2000/svg">
<rect width="457" height="85" fill="#F5F5F5"/>
<g filter="url(#filter0_d_0_1)">
<rect x="0.541504" y="86.7761" width="86" height="456" rx="4" transform="rotate(-90.1286 0.541504 86.7761)" fill="#2AB927"/>
</g>
<path d="M102.539 63.4484L102.344 27.4489L131.093 27.2927C132.426 27.2855 133.628 27.6123 134.699 28.2731C135.802 28.9005 136.69 29.7623 137.363 30.8587C138.035 31.9217 138.375 33.1199 138.382 34.4532L138.5 56.0529C138.507 57.3862 138.18 58.6047 137.519 59.7083C136.858 60.7786 135.98 61.65 134.884 62.3226C133.82 62.9618 132.622 63.2849 131.289 63.2922L102.539 63.4484ZM109.95 56.158L130.899 56.0442C130.999 56.0437 131.066 56.0266 131.099 55.9931C131.165 55.9261 131.198 55.8426 131.198 55.7426L131.084 34.8429C131.084 34.7429 131.05 34.6764 130.983 34.6434C130.949 34.5769 130.883 34.544 130.783 34.5445L109.833 34.6583C109.766 34.6587 109.7 34.6924 109.633 34.7594C109.567 34.7931 109.534 34.86 109.534 34.96L109.648 55.8597C109.649 55.9596 109.682 56.0428 109.749 56.1091C109.816 56.1421 109.883 56.1584 109.95 56.158ZM144.238 63.2218L144.081 34.4223C144.074 33.0889 144.384 31.8872 145.012 30.8172C145.672 29.7135 146.534 28.8422 147.598 28.2031C148.694 27.5304 149.909 27.1905 151.242 27.1833L172.792 27.0662C174.125 27.0589 175.327 27.3857 176.397 28.0466C177.501 28.6739 178.389 29.5358 179.061 30.6322C179.734 31.6952 180.074 32.8934 180.081 34.2267L180.237 63.0263L172.937 63.0659L172.873 51.2161L151.373 51.3329L151.438 63.1827L144.238 63.2218ZM151.334 44.133L172.834 44.0162L172.783 34.6163C172.782 34.5163 172.749 34.4498 172.682 34.4169C172.648 34.3504 172.581 34.3174 172.481 34.318L151.581 34.4315C151.481 34.4321 151.398 34.4658 151.332 34.5329C151.299 34.5664 151.283 34.6331 151.283 34.7331L151.334 44.133ZM198.534 62.9268L198.378 34.1773L183.978 34.2555L183.938 27.0056L219.938 26.81L219.977 34.0599L205.628 34.1379L205.784 62.8875L198.534 62.9268ZM223.973 62.7886L223.816 33.9891C223.809 32.6557 224.119 31.454 224.747 30.384C225.408 29.2803 226.27 28.409 227.333 27.7699C228.429 27.0972 229.644 26.7573 230.977 26.7501L252.527 26.633C253.86 26.6257 255.062 26.9525 256.132 27.6134C257.236 28.2407 258.124 29.1026 258.796 30.199C259.469 31.262 259.809 32.4602 259.816 33.7935L259.972 62.5931L252.672 62.6327L252.608 50.7829L231.108 50.8997L231.173 62.7495L223.973 62.7886ZM231.069 43.6998L252.569 43.583L252.518 34.1831C252.517 34.0831 252.484 34.0167 252.417 33.9837C252.383 33.9172 252.316 33.8842 252.216 33.8848L231.317 33.9983C231.217 33.9989 231.133 34.0326 231.067 34.0997C231.034 34.1332 231.018 34.1999 231.018 34.2999L231.069 43.6998Z" fill="black"/>
<path d="M394.985 61.674L395.253 63.2326L408.705 57.9394L408.696 56.4194L395.069 51.4534L395.078 52.9934L406.621 57.1907L394.985 61.674ZM408.606 39.7722L395.006 39.8461L395.015 41.4261L401.135 41.3928L401.17 47.7927L394.95 47.8265L395.058 49.3859L408.658 49.312L408.649 47.7521L402.429 47.7859L402.395 41.386L408.615 41.3522L408.606 39.7722ZM407.93 36.8341C408.049 36.6468 408.168 36.4061 408.286 36.1122C408.391 35.8182 408.483 35.4911 408.561 35.1306C408.639 34.7702 408.704 34.4165 408.755 34.0696C408.806 33.7093 408.831 33.3892 408.83 33.1092C408.824 32.0825 408.666 31.2167 408.356 30.5117C408.045 29.7934 407.622 29.249 407.087 28.8786C406.551 28.4948 405.937 28.3048 405.244 28.3086C404.75 28.3112 404.317 28.3936 403.945 28.5556C403.559 28.7177 403.214 28.9529 402.909 29.2613C402.604 29.5696 402.319 29.9445 402.055 30.3859C401.791 30.8274 401.533 31.3421 401.283 31.9301C400.901 32.7189 400.565 33.3874 400.274 33.9357C399.971 34.484 399.646 34.8991 399.301 35.181C398.956 35.4495 398.543 35.5851 398.063 35.5877C397.423 35.5912 396.922 35.3272 396.559 34.7958C396.196 34.2511 396.012 33.5521 396.007 32.6988C396.005 32.2455 396.043 31.8519 396.121 31.5182C396.186 31.1712 396.271 30.864 396.376 30.5968C396.481 30.3162 396.586 30.0623 396.692 29.8351L395.469 29.3017C395.258 29.7295 395.067 30.2506 394.897 30.8648C394.727 31.4791 394.644 32.1195 394.648 32.7862C394.653 33.6795 394.81 34.452 395.12 35.1037C395.431 35.742 395.84 36.2398 396.349 36.597C396.857 36.9409 397.438 37.1111 398.091 37.1076C398.558 37.105 398.984 37.0294 399.37 36.8806C399.756 36.7185 400.115 36.4899 400.446 36.1947C400.765 35.8863 401.063 35.5114 401.34 35.0699C401.605 34.6151 401.868 34.0937 402.132 33.5056C402.448 32.7172 402.757 32.0555 403.061 31.5205C403.352 30.9856 403.669 30.5838 404.015 30.3153C404.36 30.0334 404.779 29.8911 405.272 29.8884C405.686 29.8862 406.066 30.0108 406.414 30.2622C406.749 30.5004 407.011 30.859 407.2 31.338C407.389 31.817 407.486 32.4164 407.49 33.1364C407.492 33.5498 407.455 33.97 407.377 34.3971C407.286 34.8242 407.175 35.2182 407.043 35.5789C406.912 35.9263 406.793 36.2269 406.688 36.4808L407.93 36.8341Z" fill="white"/>
<path d="M394.985 61.674L394.805 61.2074L394.422 61.3549L394.492 61.7589L394.985 61.674ZM395.253 63.2326L394.761 63.3175L394.865 63.9228L395.436 63.6979L395.253 63.2326ZM408.705 57.9394L408.888 58.4047L409.207 58.2793L409.205 57.9367L408.705 57.9394ZM408.696 56.4194L409.196 56.4167L409.195 56.0688L408.868 55.9497L408.696 56.4194ZM395.069 51.4534L395.241 50.9836L394.565 50.7376L394.569 51.4561L395.069 51.4534ZM395.078 52.9934L394.578 52.9961L394.58 53.3443L394.907 53.4633L395.078 52.9934ZM406.621 57.1907L406.8 57.6573L408.046 57.1772L406.792 56.7208L406.621 57.1907ZM394.492 61.7589L394.761 63.3175L395.746 63.1477L395.478 61.5891L394.492 61.7589ZM395.436 63.6979L408.888 58.4047L408.522 57.4741L395.07 62.7673L395.436 63.6979ZM409.205 57.9367L409.196 56.4167L408.196 56.4222L408.205 57.9421L409.205 57.9367ZM408.868 55.9497L395.241 50.9836L394.898 51.9232L408.525 56.8892L408.868 55.9497ZM394.569 51.4561L394.578 52.9961L395.578 52.9907L395.569 51.4507L394.569 51.4561ZM394.907 53.4633L406.45 57.6606L406.792 56.7208L395.249 52.5235L394.907 53.4633ZM406.441 56.7242L394.805 61.2074L395.165 62.1406L406.8 57.6573L406.441 56.7242ZM408.606 39.7722L409.106 39.7695L409.103 39.2695L408.603 39.2722L408.606 39.7722ZM395.006 39.8461L395.004 39.3461L394.504 39.3488L394.506 39.8488L395.006 39.8461ZM395.015 41.4261L394.515 41.4288L394.518 41.9288L395.018 41.926L395.015 41.4261ZM401.135 41.3928L401.635 41.3901L401.632 40.8901L401.132 40.8928L401.135 41.3928ZM401.17 47.7927L401.172 48.2927L401.672 48.29L401.669 47.79L401.17 47.7927ZM394.95 47.8265L394.947 47.3265L394.414 47.3294L394.451 47.8612L394.95 47.8265ZM395.058 49.3859L394.559 49.4206L394.592 49.8885L395.061 49.8859L395.058 49.3859ZM408.658 49.312L408.661 49.812L409.161 49.8093L409.158 49.3093L408.658 49.312ZM408.649 47.7521L409.149 47.7494L409.147 47.2494L408.647 47.2521L408.649 47.7521ZM402.429 47.7859L401.929 47.7886L401.932 48.2886L402.432 48.2859L402.429 47.7859ZM402.395 41.386L402.392 40.886L401.892 40.8887L401.895 41.3887L402.395 41.386ZM408.615 41.3522L408.617 41.8522L409.117 41.8494L409.115 41.3494L408.615 41.3522ZM408.603 39.2722L395.004 39.3461L395.009 40.3461L408.609 40.2722L408.603 39.2722ZM394.506 39.8488L394.515 41.4288L395.515 41.4233L395.506 39.8434L394.506 39.8488ZM395.018 41.926L401.137 41.8928L401.132 40.8928L395.012 40.9261L395.018 41.926ZM400.635 41.3955L400.67 47.7954L401.669 47.79L401.635 41.3901L400.635 41.3955ZM401.167 47.2927L394.947 47.3265L394.952 48.3265L401.172 48.2927L401.167 47.2927ZM394.451 47.8612L394.559 49.4206L395.557 49.3512L395.448 47.7918L394.451 47.8612ZM395.061 49.8859L408.661 49.812L408.655 48.8121L395.055 48.8859L395.061 49.8859ZM409.158 49.3093L409.149 47.7494L408.149 47.7548L408.158 49.3148L409.158 49.3093ZM408.647 47.2521L402.427 47.2859L402.432 48.2859L408.652 48.2521L408.647 47.2521ZM402.929 47.7831L402.895 41.3832L401.895 41.3887L401.929 47.7886L402.929 47.7831ZM402.397 41.886L408.617 41.8522L408.612 40.8522L402.392 40.886L402.397 41.886ZM409.115 41.3494L409.106 39.7695L408.106 39.7749L408.115 41.3549L409.115 41.3494ZM407.93 36.8341L407.793 37.315L408.152 37.4171L408.352 37.1022L407.93 36.8341ZM408.286 36.1122L408.75 36.299L408.754 36.2898L408.757 36.2805L408.286 36.1122ZM408.561 35.1306L408.072 35.0248L408.072 35.0248L408.561 35.1306ZM408.755 34.0696L409.25 34.1429L409.25 34.1402L408.755 34.0696ZM408.356 30.5117L407.897 30.7101L407.898 30.7132L408.356 30.5117ZM407.087 28.8786L406.796 29.285L406.802 29.2897L407.087 28.8786ZM403.945 28.5556L404.139 29.0166L404.144 29.0141L403.945 28.5556ZM401.283 31.9301L401.733 32.1483L401.739 32.1372L401.743 32.1259L401.283 31.9301ZM400.274 33.9357L400.712 34.1779L400.716 34.1697L400.274 33.9357ZM399.301 35.181L399.608 35.5757L399.617 35.5682L399.301 35.181ZM396.559 34.7958L396.143 35.0731L396.146 35.0778L396.559 34.7958ZM396.121 31.5182L396.608 31.6322L396.61 31.6211L396.613 31.6099L396.121 31.5182ZM396.376 30.5968L396.841 30.78L396.844 30.7722L396.376 30.5968ZM396.692 29.8351L397.145 30.0455L397.361 29.5813L396.892 29.3767L396.692 29.8351ZM395.469 29.3017L395.669 28.8434L395.232 28.6527L395.021 29.0805L395.469 29.3017ZM395.12 35.1037L394.669 35.3186L394.671 35.3222L395.12 35.1037ZM396.349 36.597L396.061 37.0062L396.069 37.0112L396.349 36.597ZM399.37 36.8806L399.55 37.3471L399.557 37.3445L399.564 37.3416L399.37 36.8806ZM400.446 36.1947L400.779 36.5683L400.787 36.5612L400.794 36.5539L400.446 36.1947ZM401.34 35.0699L401.764 35.336L401.768 35.3286L401.773 35.321L401.34 35.0699ZM402.132 33.5056L402.588 33.71L402.592 33.7008L402.596 33.6914L402.132 33.5056ZM403.061 31.5205L403.496 31.7674L403.501 31.759L403.061 31.5205ZM404.015 30.3153L404.322 30.71L404.331 30.7025L404.015 30.3153ZM406.414 30.2622L406.122 30.6675L406.124 30.6696L406.414 30.2622ZM407.2 31.338L407.665 31.1542L407.665 31.1542L407.2 31.338ZM407.377 34.3971L407.866 34.5013L407.867 34.4939L407.869 34.4865L407.377 34.3971ZM407.043 35.5789L407.511 35.7559L407.513 35.75L407.043 35.5789ZM406.688 36.4808L406.226 36.2893L406.011 36.8081L406.551 36.9618L406.688 36.4808ZM408.352 37.1022C408.493 36.8808 408.625 36.6103 408.75 36.299L407.822 35.9254C407.711 36.202 407.605 36.4128 407.508 36.566L408.352 37.1022ZM408.757 36.2805C408.871 35.9629 408.968 35.6144 409.049 35.2365L408.072 35.0248C407.998 35.3678 407.912 35.6736 407.815 35.9438L408.757 36.2805ZM409.049 35.2365C409.13 34.8658 409.197 34.5013 409.25 34.1429L408.26 33.9962C408.211 34.3318 408.148 34.6746 408.072 35.0248L409.049 35.2365ZM409.25 34.1402C409.304 33.7624 409.332 33.417 409.33 33.1064L408.33 33.1119C408.331 33.3613 408.309 33.6562 408.26 33.999L409.25 34.1402ZM409.33 33.1064C409.324 32.0329 409.159 31.095 408.813 30.3102L407.898 30.7132C408.173 31.3384 408.325 32.1321 408.33 33.1119L409.33 33.1064ZM408.815 30.3133C408.475 29.5266 407.998 28.9009 407.371 28.4674L406.802 29.2897C407.247 29.5971 407.616 30.0602 407.897 30.7101L408.815 30.3133ZM407.378 28.4722C406.752 28.0237 406.034 27.8043 405.241 27.8086L405.246 28.8086C405.84 28.8053 406.35 28.9659 406.796 29.285L407.378 28.4722ZM405.241 27.8086C404.694 27.8115 404.192 27.903 403.746 28.0971L404.144 29.0141C404.443 28.8842 404.807 28.811 405.246 28.8086L405.241 27.8086ZM403.751 28.0947C403.303 28.2832 402.903 28.5563 402.553 28.9096L403.264 29.6129C403.525 29.3496 403.816 29.1523 404.139 29.0166L403.751 28.0947ZM402.553 28.9096C402.216 29.2512 401.907 29.6594 401.626 30.1291L402.484 30.6427C402.731 30.2296 402.992 29.888 403.264 29.6129L402.553 28.9096ZM401.626 30.1291C401.348 30.5942 401.08 31.1301 400.823 31.7344L401.743 32.1259C401.987 31.5541 402.234 31.0605 402.484 30.6427L401.626 30.1291ZM400.833 31.712C400.453 32.4974 400.119 33.1603 399.832 33.7016L400.716 34.1697C401.01 33.6145 401.349 32.9404 401.733 32.1483L400.833 31.712ZM399.837 33.6934C399.552 34.2071 399.265 34.5648 398.985 34.7937L399.617 35.5682C400.027 35.2334 400.389 34.7609 400.712 34.1779L399.837 33.6934ZM398.994 34.7863C398.744 34.9805 398.442 35.0856 398.06 35.0877L398.066 36.0877C398.645 36.0845 399.167 35.9185 399.608 35.5756L398.994 34.7863ZM398.06 35.0877C397.588 35.0903 397.242 34.9089 396.972 34.5139L396.146 35.0778C396.602 35.7455 397.259 36.0921 398.066 36.0877L398.06 35.0877ZM396.975 34.5186C396.68 34.0766 396.512 33.481 396.507 32.6961L395.507 32.7015C395.512 33.6233 395.711 34.4257 396.143 35.0731L396.975 34.5186ZM396.507 32.6961C396.505 32.2703 396.541 31.9177 396.608 31.6322L395.634 31.4041C395.545 31.7862 395.505 32.2207 395.507 32.7015L396.507 32.6961ZM396.613 31.6099C396.673 31.2873 396.75 31.0118 396.841 30.78L395.911 30.4136C395.792 30.7162 395.699 31.055 395.63 31.4264L396.613 31.6099ZM396.844 30.7722C396.946 30.5013 397.046 30.2593 397.145 30.0455L396.238 29.6246C396.127 29.8653 396.017 30.1311 395.908 30.4213L396.844 30.7722ZM396.892 29.3767L395.669 28.8434L395.269 29.76L396.492 30.2934L396.892 29.3767ZM395.021 29.0805C394.792 29.5441 394.591 30.0963 394.416 30.7315L395.379 30.9982C395.544 30.4048 395.724 29.915 395.917 29.5229L395.021 29.0805ZM394.416 30.7315C394.233 31.392 394.144 32.0784 394.148 32.7889L395.148 32.7835C395.144 32.1607 395.222 31.5661 395.379 30.9982L394.416 30.7315ZM394.148 32.7889C394.153 33.7386 394.321 34.5868 394.669 35.3186L395.572 34.8888C395.3 34.3172 395.152 33.6204 395.148 32.7835L394.148 32.7889ZM394.671 35.3222C395.013 36.0258 395.474 36.5936 396.061 37.0062L396.636 36.1879C396.206 35.8859 395.849 35.4582 395.57 34.8852L394.671 35.3222ZM396.069 37.0112C396.666 37.4153 397.347 37.6116 398.094 37.6075L398.089 36.6076C397.529 36.6106 397.048 36.4666 396.629 36.1828L396.069 37.0112ZM398.094 37.6075C398.614 37.6047 399.101 37.5203 399.55 37.3471L399.19 36.4141C398.868 36.5384 398.502 36.6053 398.089 36.6076L398.094 37.6075ZM399.564 37.3416C400.003 37.1569 400.409 36.8978 400.779 36.5683L400.114 35.8212C399.821 36.082 399.509 36.2801 399.177 36.4196L399.564 37.3416ZM400.794 36.5539C401.146 36.2132 401.468 35.8056 401.764 35.336L400.917 34.8037C400.657 35.2171 400.384 35.5595 400.099 35.8356L400.794 36.5539ZM401.773 35.321C402.047 34.8482 402.319 34.3107 402.588 33.71L401.676 33.3011C401.418 33.8767 401.162 34.382 400.908 34.8187L401.773 35.321ZM402.596 33.6914C402.906 32.9167 403.207 32.2769 403.496 31.7674L402.626 31.2736C402.308 31.834 401.989 32.5176 401.668 33.3197L402.596 33.6914ZM403.501 31.759C403.77 31.2626 404.048 30.923 404.322 30.7099L403.708 29.9206C403.291 30.2447 402.933 30.7085 402.622 31.2819L403.501 31.759ZM404.331 30.7025C404.578 30.5008 404.883 30.3906 405.275 30.3884L405.27 29.3884C404.675 29.3917 404.142 29.566 403.698 29.928L404.331 30.7025ZM405.275 30.3884C405.578 30.3868 405.856 30.4756 406.122 30.6675L406.707 29.8569C406.277 29.546 405.793 29.3856 405.27 29.3884L405.275 30.3884ZM406.124 30.6696C406.362 30.839 406.572 31.1099 406.735 31.5217L407.665 31.1542C407.449 30.6081 407.135 30.1618 406.704 29.8549L406.124 30.6696ZM406.735 31.5217C406.895 31.9251 406.986 32.4583 406.99 33.1392L407.99 33.1337C407.986 32.3746 407.884 31.7089 407.665 31.1542L406.735 31.5217ZM406.99 33.1392C406.992 33.5201 406.957 33.9094 406.885 34.3076L407.869 34.4865C407.952 34.0306 407.992 33.5795 407.99 33.1337L406.99 33.1392ZM406.888 34.2929C406.801 34.7004 406.696 35.0716 406.573 35.4078L407.513 35.75C407.653 35.3647 407.771 34.9481 407.866 34.5013L406.888 34.2929ZM406.576 35.4019C406.445 35.746 406.329 36.0416 406.226 36.2893L407.15 36.6724C407.258 36.4123 407.378 36.1066 407.511 35.7559L406.576 35.4019ZM406.551 36.9618L407.793 37.315L408.067 36.3532L406.825 35.9999L406.551 36.9618Z" fill="white"/>
<path d="M394.985 61.674L394.805 61.2074L394.422 61.3549L394.492 61.7589L394.985 61.674ZM395.253 63.2326L394.761 63.3175L394.865 63.9228L395.436 63.6979L395.253 63.2326ZM408.705 57.9394L408.888 58.4047L409.207 58.2793L409.205 57.9367L408.705 57.9394ZM408.696 56.4194L409.196 56.4167L409.195 56.0688L408.868 55.9497L408.696 56.4194ZM395.069 51.4534L395.241 50.9836L394.565 50.7376L394.569 51.4561L395.069 51.4534ZM395.078 52.9934L394.578 52.9961L394.58 53.3443L394.907 53.4633L395.078 52.9934ZM406.621 57.1907L406.8 57.6573L408.046 57.1772L406.792 56.7208L406.621 57.1907ZM394.492 61.7589L394.761 63.3175L395.746 63.1477L395.478 61.5891L394.492 61.7589ZM395.436 63.6979L408.888 58.4047L408.522 57.4741L395.07 62.7673L395.436 63.6979ZM409.205 57.9367L409.196 56.4167L408.196 56.4222L408.205 57.9421L409.205 57.9367ZM408.868 55.9497L395.241 50.9836L394.898 51.9232L408.525 56.8892L408.868 55.9497ZM394.569 51.4561L394.578 52.9961L395.578 52.9907L395.569 51.4507L394.569 51.4561ZM394.907 53.4633L406.45 57.6606L406.792 56.7208L395.249 52.5235L394.907 53.4633ZM406.441 56.7242L394.805 61.2074L395.165 62.1406L406.8 57.6573L406.441 56.7242ZM408.606 39.7722L409.106 39.7695L409.103 39.2695L408.603 39.2722L408.606 39.7722ZM395.006 39.8461L395.004 39.3461L394.504 39.3488L394.506 39.8488L395.006 39.8461ZM395.015 41.4261L394.515 41.4288L394.518 41.9288L395.018 41.926L395.015 41.4261ZM401.135 41.3928L401.635 41.3901L401.632 40.8901L401.132 40.8928L401.135 41.3928ZM401.17 47.7927L401.172 48.2927L401.672 48.29L401.669 47.79L401.17 47.7927ZM394.95 47.8265L394.947 47.3265L394.414 47.3294L394.451 47.8612L394.95 47.8265ZM395.058 49.3859L394.559 49.4206L394.592 49.8885L395.061 49.8859L395.058 49.3859ZM408.658 49.312L408.661 49.812L409.161 49.8093L409.158 49.3093L408.658 49.312ZM408.649 47.7521L409.149 47.7494L409.147 47.2494L408.647 47.2521L408.649 47.7521ZM402.429 47.7859L401.929 47.7886L401.932 48.2886L402.432 48.2859L402.429 47.7859ZM402.395 41.386L402.392 40.886L401.892 40.8887L401.895 41.3887L402.395 41.386ZM408.615 41.3522L408.617 41.8522L409.117 41.8494L409.115 41.3494L408.615 41.3522ZM408.603 39.2722L395.004 39.3461L395.009 40.3461L408.609 40.2722L408.603 39.2722ZM394.506 39.8488L394.515 41.4288L395.515 41.4233L395.506 39.8434L394.506 39.8488ZM395.018 41.926L401.137 41.8928L401.132 40.8928L395.012 40.9261L395.018 41.926ZM400.635 41.3955L400.67 47.7954L401.669 47.79L401.635 41.3901L400.635 41.3955ZM401.167 47.2927L394.947 47.3265L394.952 48.3265L401.172 48.2927L401.167 47.2927ZM394.451 47.8612L394.559 49.4206L395.557 49.3512L395.448 47.7918L394.451 47.8612ZM395.061 49.8859L408.661 49.812L408.655 48.8121L395.055 48.8859L395.061 49.8859ZM409.158 49.3093L409.149 47.7494L408.149 47.7548L408.158 49.3148L409.158 49.3093ZM408.647 47.2521L402.427 47.2859L402.432 48.2859L408.652 48.2521L408.647 47.2521ZM402.929 47.7831L402.895 41.3832L401.895 41.3887L401.929 47.7886L402.929 47.7831ZM402.397 41.886L408.617 41.8522L408.612 40.8522L402.392 40.886L402.397 41.886ZM409.115 41.3494L409.106 39.7695L408.106 39.7749L408.115 41.3549L409.115 41.3494ZM407.93 36.8341L407.793 37.315L408.152 37.4171L408.352 37.1022L407.93 36.8341ZM408.286 36.1122L408.75 36.299L408.754 36.2898L408.757 36.2805L408.286 36.1122ZM408.561 35.1306L408.072 35.0248L408.072 35.0248L408.561 35.1306ZM408.755 34.0696L409.25 34.1429L409.25 34.1402L408.755 34.0696ZM408.356 30.5117L407.897 30.7101L407.898 30.7132L408.356 30.5117ZM407.087 28.8786L406.796 29.285L406.802 29.2897L407.087 28.8786ZM403.945 28.5556L404.139 29.0166L404.144 29.0141L403.945 28.5556ZM401.283 31.9301L401.733 32.1483L401.739 32.1372L401.743 32.1259L401.283 31.9301ZM400.274 33.9357L400.712 34.1779L400.716 34.1697L400.274 33.9357ZM399.301 35.181L399.608 35.5757L399.617 35.5682L399.301 35.181ZM396.559 34.7958L396.143 35.0731L396.146 35.0778L396.559 34.7958ZM396.121 31.5182L396.608 31.6322L396.61 31.6211L396.613 31.6099L396.121 31.5182ZM396.376 30.5968L396.841 30.78L396.844 30.7722L396.376 30.5968ZM396.692 29.8351L397.145 30.0455L397.361 29.5813L396.892 29.3767L396.692 29.8351ZM395.469 29.3017L395.669 28.8434L395.232 28.6527L395.021 29.0805L395.469 29.3017ZM395.12 35.1037L394.669 35.3186L394.671 35.3222L395.12 35.1037ZM396.349 36.597L396.061 37.0062L396.069 37.0112L396.349 36.597ZM399.37 36.8806L399.55 37.3471L399.557 37.3445L399.564 37.3416L399.37 36.8806ZM400.446 36.1947L400.779 36.5683L400.787 36.5612L400.794 36.5539L400.446 36.1947ZM401.34 35.0699L401.764 35.336L401.768 35.3286L401.773 35.321L401.34 35.0699ZM402.132 33.5056L402.588 33.71L402.592 33.7008L402.596 33.6914L402.132 33.5056ZM403.061 31.5205L403.496 31.7674L403.501 31.759L403.061 31.5205ZM404.015 30.3153L404.322 30.71L404.331 30.7025L404.015 30.3153ZM406.414 30.2622L406.122 30.6675L406.124 30.6696L406.414 30.2622ZM407.2 31.338L407.665 31.1542L407.665 31.1542L407.2 31.338ZM407.377 34.3971L407.866 34.5013L407.867 34.4939L407.869 34.4865L407.377 34.3971ZM407.043 35.5789L407.511 35.7559L407.513 35.75L407.043 35.5789ZM406.688 36.4808L406.226 36.2893L406.011 36.8081L406.551 36.9618L406.688 36.4808ZM408.352 37.1022C408.493 36.8808 408.625 36.6103 408.75 36.299L407.822 35.9254C407.711 36.202 407.605 36.4128 407.508 36.566L408.352 37.1022ZM408.757 36.2805C408.871 35.9629 408.968 35.6144 409.049 35.2365L408.072 35.0248C407.998 35.3678 407.912 35.6736 407.815 35.9438L408.757 36.2805ZM409.049 35.2365C409.13 34.8658 409.197 34.5013 409.25 34.1429L408.26 33.9962C408.211 34.3318 408.148 34.6746 408.072 35.0248L409.049 35.2365ZM409.25 34.1402C409.304 33.7624 409.332 33.417 409.33 33.1064L408.33 33.1119C408.331 33.3613 408.309 33.6562 408.26 33.999L409.25 34.1402ZM409.33 33.1064C409.324 32.0329 409.159 31.095 408.813 30.3102L407.898 30.7132C408.173 31.3384 408.325 32.1321 408.33 33.1119L409.33 33.1064ZM408.815 30.3133C408.475 29.5266 407.998 28.9009 407.371 28.4674L406.802 29.2897C407.247 29.5971 407.616 30.0602 407.897 30.7101L408.815 30.3133ZM407.378 28.4722C406.752 28.0237 406.034 27.8043 405.241 27.8086L405.246 28.8086C405.84 28.8053 406.35 28.9659 406.796 29.285L407.378 28.4722ZM405.241 27.8086C404.694 27.8115 404.192 27.903 403.746 28.0971L404.144 29.0141C404.443 28.8842 404.807 28.811 405.246 28.8086L405.241 27.8086ZM403.751 28.0947C403.303 28.2832 402.903 28.5563 402.553 28.9096L403.264 29.6129C403.525 29.3496 403.816 29.1523 404.139 29.0166L403.751 28.0947ZM402.553 28.9096C402.216 29.2512 401.907 29.6594 401.626 30.1291L402.484 30.6427C402.731 30.2296 402.992 29.888 403.264 29.6129L402.553 28.9096ZM401.626 30.1291C401.348 30.5942 401.08 31.1301 400.823 31.7344L401.743 32.1259C401.987 31.5541 402.234 31.0605 402.484 30.6427L401.626 30.1291ZM400.833 31.712C400.453 32.4974 400.119 33.1603 399.832 33.7016L400.716 34.1697C401.01 33.6145 401.349 32.9404 401.733 32.1483L400.833 31.712ZM399.837 33.6934C399.552 34.2071 399.265 34.5648 398.985 34.7937L399.617 35.5682C400.027 35.2334 400.389 34.7609 400.712 34.1779L399.837 33.6934ZM398.994 34.7863C398.744 34.9805 398.442 35.0856 398.06 35.0877L398.066 36.0877C398.645 36.0845 399.167 35.9185 399.608 35.5756L398.994 34.7863ZM398.06 35.0877C397.588 35.0903 397.242 34.9089 396.972 34.5139L396.146 35.0778C396.602 35.7455 397.259 36.0921 398.066 36.0877L398.06 35.0877ZM396.975 34.5186C396.68 34.0766 396.512 33.481 396.507 32.6961L395.507 32.7015C395.512 33.6233 395.711 34.4257 396.143 35.0731L396.975 34.5186ZM396.507 32.6961C396.505 32.2703 396.541 31.9177 396.608 31.6322L395.634 31.4041C395.545 31.7862 395.505 32.2207 395.507 32.7015L396.507 32.6961ZM396.613 31.6099C396.673 31.2873 396.75 31.0118 396.841 30.78L395.911 30.4136C395.792 30.7162 395.699 31.055 395.63 31.4264L396.613 31.6099ZM396.844 30.7722C396.946 30.5013 397.046 30.2593 397.145 30.0455L396.238 29.6246C396.127 29.8653 396.017 30.1311 395.908 30.4213L396.844 30.7722ZM396.892 29.3767L395.669 28.8434L395.269 29.76L396.492 30.2934L396.892 29.3767ZM395.021 29.0805C394.792 29.5441 394.591 30.0963 394.416 30.7315L395.379 30.9982C395.544 30.4048 395.724 29.915 395.917 29.5229L395.021 29.0805ZM394.416 30.7315C394.233 31.392 394.144 32.0784 394.148 32.7889L395.148 32.7835C395.144 32.1607 395.222 31.5661 395.379 30.9982L394.416 30.7315ZM394.148 32.7889C394.153 33.7386 394.321 34.5868 394.669 35.3186L395.572 34.8888C395.3 34.3172 395.152 33.6204 395.148 32.7835L394.148 32.7889ZM394.671 35.3222C395.013 36.0258 395.474 36.5936 396.061 37.0062L396.636 36.1879C396.206 35.8859 395.849 35.4582 395.57 34.8852L394.671 35.3222ZM396.069 37.0112C396.666 37.4153 397.347 37.6116 398.094 37.6075L398.089 36.6076C397.529 36.6106 397.048 36.4666 396.629 36.1828L396.069 37.0112ZM398.094 37.6075C398.614 37.6047 399.101 37.5203 399.55 37.3471L399.19 36.4141C398.868 36.5384 398.502 36.6053 398.089 36.6076L398.094 37.6075ZM399.564 37.3416C400.003 37.1569 400.409 36.8978 400.779 36.5683L400.114 35.8212C399.821 36.082 399.509 36.2801 399.177 36.4196L399.564 37.3416ZM400.794 36.5539C401.146 36.2132 401.468 35.8056 401.764 35.336L400.917 34.8037C400.657 35.2171 400.384 35.5595 400.099 35.8356L400.794 36.5539ZM401.773 35.321C402.047 34.8482 402.319 34.3107 402.588 33.71L401.676 33.3011C401.418 33.8767 401.162 34.382 400.908 34.8187L401.773 35.321ZM402.596 33.6914C402.906 32.9167 403.207 32.2769 403.496 31.7674L402.626 31.2736C402.308 31.834 401.989 32.5176 401.668 33.3197L402.596 33.6914ZM403.501 31.759C403.77 31.2626 404.048 30.923 404.322 30.7099L403.708 29.9206C403.291 30.2447 402.933 30.7085 402.622 31.2819L403.501 31.759ZM404.331 30.7025C404.578 30.5008 404.883 30.3906 405.275 30.3884L405.27 29.3884C404.675 29.3917 404.142 29.566 403.698 29.928L404.331 30.7025ZM405.275 30.3884C405.578 30.3868 405.856 30.4756 406.122 30.6675L406.707 29.8569C406.277 29.546 405.793 29.3856 405.27 29.3884L405.275 30.3884ZM406.124 30.6696C406.362 30.839 406.572 31.1099 406.735 31.5217L407.665 31.1542C407.449 30.6081 407.135 30.1618 406.704 29.8549L406.124 30.6696ZM406.735 31.5217C406.895 31.9251 406.986 32.4583 406.99 33.1392L407.99 33.1337C407.986 32.3746 407.884 31.7089 407.665 31.1542L406.735 31.5217ZM406.99 33.1392C406.992 33.5201 406.957 33.9094 406.885 34.3076L407.869 34.4865C407.952 34.0306 407.992 33.5795 407.99 33.1337L406.99 33.1392ZM406.888 34.2929C406.801 34.7004 406.696 35.0716 406.573 35.4078L407.513 35.75C407.653 35.3647 407.771 34.9481 407.866 34.5013L406.888 34.2929ZM406.576 35.4019C406.445 35.746 406.329 36.0416 406.226 36.2893L407.15 36.6724C407.258 36.4123 407.378 36.1066 407.511 35.7559L406.576 35.4019ZM406.551 36.9618L407.793 37.315L408.067 36.3532L406.825 35.9999L406.551 36.9618Z" fill="black" fill-opacity="0.2"/>
<rect x="427.825" y="10.0701" width="48" height="12" rx="0.5" transform="rotate(89.6887 427.825 10.0701)" stroke="white"/>
<path d="M423.557 52.9739C423.556 52.6406 423.479 52.3627 423.328 52.1402C423.173 51.9143 422.966 51.7438 422.705 51.6285C422.445 51.5133 422.153 51.4565 421.829 51.4583C421.513 51.46 421.228 51.5132 420.975 51.6179C420.722 51.7226 420.523 51.8837 420.378 52.1012C420.229 52.3187 420.155 52.6041 420.157 52.9574L420.164 54.1474L423.564 54.1289L423.557 52.9739ZM420.497 52.9405C420.496 52.6939 420.553 52.4919 420.669 52.3346C420.785 52.174 420.944 52.0548 421.147 51.977C421.347 51.8959 421.576 51.8547 421.836 51.8533C422.123 51.8517 422.37 51.8987 422.577 51.9942C422.784 52.0864 422.945 52.2156 423.059 52.3816C423.17 52.5477 423.226 52.7441 423.227 52.9707L423.232 53.7407L420.502 53.7555L420.497 52.9405ZM423.608 49.4391C423.61 49.7458 423.536 50.0195 423.388 50.2603C423.239 50.5011 423.033 50.6906 422.771 50.8287C422.505 50.9635 422.202 51.0318 421.862 51.0336C421.522 51.0355 421.218 50.9688 420.951 50.8336C420.68 50.695 420.466 50.5062 420.308 50.267C420.15 50.0246 420.067 49.7483 420.058 49.4384C420.057 49.1317 420.132 48.858 420.284 48.6171C420.432 48.3763 420.638 48.1869 420.901 48.0488C421.163 47.9107 421.465 47.8407 421.805 47.8389C422.145 47.837 422.45 47.9054 422.721 48.0439C422.991 48.1791 423.206 48.3679 423.364 48.6104C423.518 48.8496 423.6 49.1258 423.608 49.4391ZM423.263 49.451C423.262 49.2176 423.199 49.0113 423.075 48.832C422.951 48.6527 422.78 48.5119 422.563 48.4098C422.342 48.3076 422.092 48.2573 421.812 48.2588C421.539 48.2603 421.295 48.3116 421.083 48.4128C420.87 48.514 420.704 48.6532 420.585 48.8305C420.466 49.0045 420.407 49.2032 420.408 49.4265C420.409 49.6598 420.472 49.8661 420.597 50.0455C420.721 50.2248 420.892 50.3655 421.109 50.4677C421.326 50.5698 421.575 50.6202 421.855 50.6186C422.128 50.6172 422.371 50.5658 422.584 50.4647C422.797 50.3635 422.964 50.2259 423.087 50.0519C423.206 49.878 423.265 49.6776 423.263 49.451ZM423.205 45.1782L423.214 46.7632L420.124 46.7799L420.126 47.1699L423.526 47.1515L423.515 45.1365L423.205 45.1782ZM423.506 43.5572C423.505 43.3806 423.488 43.2173 423.454 43.0675C423.416 42.9144 423.36 42.7813 423.286 42.6684C423.209 42.5522 423.11 42.4627 422.99 42.4C422.866 42.334 422.718 42.3015 422.544 42.3024C422.314 42.3037 422.13 42.3664 421.991 42.4904C421.851 42.6112 421.749 42.7684 421.683 42.9621C421.612 42.8358 421.522 42.7263 421.411 42.6336C421.297 42.5409 421.162 42.4949 421.006 42.4958C420.776 42.497 420.596 42.5497 420.466 42.6537C420.337 42.7544 420.244 42.8949 420.189 43.0752C420.133 43.2555 420.106 43.4624 420.107 43.6957L420.112 44.6407L423.512 44.6222L423.506 43.5572ZM420.442 43.7089C420.441 43.5455 420.455 43.4038 420.485 43.2836C420.514 43.1601 420.57 43.0648 420.653 42.9977C420.736 42.9306 420.856 42.8966 421.013 42.8958C421.153 42.895 421.265 42.9361 421.348 43.0189C421.432 43.0985 421.493 43.2048 421.53 43.338C421.564 43.4711 421.583 43.6177 421.587 43.7777L421.59 44.2376L420.445 44.2439L420.442 43.7089ZM421.911 43.5209C421.91 43.2742 421.96 43.0773 422.063 42.9301C422.162 42.7795 422.327 42.7036 422.557 42.7024C422.71 42.7015 422.832 42.7392 422.922 42.8154C423.013 42.8916 423.078 42.9945 423.119 43.1243C423.156 43.2541 423.175 43.4007 423.176 43.564L423.18 44.229L421.915 44.2359L421.911 43.5209ZM423.49 40.568L422.105 40.5706L420.084 39.3915L420.086 39.8165L421.736 40.7726L420.016 41.7369L420.178 42.1061L422.127 40.9705L423.492 40.963L423.49 40.568ZM423.311 37.8846C423.34 37.8378 423.37 37.7776 423.4 37.7041C423.426 37.6306 423.449 37.5489 423.468 37.4587C423.488 37.3686 423.504 37.2802 423.517 37.1935C423.53 37.1034 423.536 37.0234 423.535 36.9534C423.534 36.6967 423.495 36.4803 423.417 36.304C423.339 36.1244 423.234 35.9883 423.1 35.8957C422.966 35.7998 422.812 35.7523 422.639 35.7532C422.516 35.7539 422.407 35.7745 422.314 35.815C422.218 35.8555 422.131 35.9143 422.055 35.9914C421.979 36.0685 421.908 36.1622 421.842 36.2726C421.776 36.3829 421.711 36.5116 421.649 36.6586C421.553 36.8558 421.469 37.0229 421.397 37.16C421.321 37.2971 421.24 37.4009 421.153 37.4713C421.067 37.5385 420.964 37.5724 420.844 37.573C420.684 37.5739 420.558 37.5079 420.468 37.375C420.377 37.2389 420.331 37.0641 420.33 36.8508C420.329 36.7375 420.339 36.6391 420.358 36.5556C420.374 36.4689 420.396 36.3921 420.422 36.3253C420.448 36.2551 420.475 36.1917 420.501 36.1348L420.195 36.0015C420.142 36.1085 420.095 36.2387 420.052 36.3923C420.01 36.5459 419.989 36.706 419.99 36.8726C419.991 37.096 420.031 37.2891 420.108 37.452C420.186 37.6116 420.288 37.736 420.415 37.8253C420.542 37.9113 420.688 37.9539 420.851 37.953C420.968 37.9523 421.074 37.9334 421.171 37.8962C421.267 37.8557 421.357 37.7986 421.44 37.7248C421.519 37.6477 421.594 37.5539 421.663 37.4436C421.729 37.3299 421.795 37.1995 421.861 37.0525C421.94 36.8554 422.017 36.69 422.093 36.5562C422.166 36.4225 422.245 36.322 422.332 36.2549C422.418 36.1844 422.523 36.1489 422.646 36.1482C422.749 36.1476 422.845 36.1788 422.932 36.2416C423.015 36.3012 423.081 36.3908 423.128 36.5106C423.175 36.6303 423.2 36.7802 423.2 36.9602C423.201 37.0635 423.192 37.1686 423.172 37.2754C423.149 37.3821 423.122 37.4806 423.089 37.5708C423.056 37.6577 423.026 37.7328 423 37.7963L423.311 37.8846ZM420.059 34.8038L420.061 35.1937L422.256 35.1818C422.496 35.1805 422.712 35.1277 422.905 35.0233C423.094 34.9156 423.244 34.7648 423.353 34.5709C423.458 34.3769 423.51 34.1483 423.509 33.885C423.507 33.6183 423.451 33.3903 423.34 33.2009C423.229 33.0082 423.078 32.8607 422.888 32.7584C422.697 32.6527 422.482 32.6006 422.242 32.6019L420.047 32.6138L420.049 33.0138L422.199 33.0021C422.389 33.0011 422.559 33.0368 422.71 33.1093C422.857 33.1785 422.972 33.2796 423.056 33.4124C423.14 33.5453 423.183 33.7034 423.184 33.8868C423.185 34.0668 423.144 34.2253 423.061 34.3624C422.979 34.4962 422.864 34.6018 422.718 34.6793C422.572 34.7534 422.402 34.791 422.209 34.7921L420.059 34.8038ZM420.372 30.8137C420.371 30.647 420.39 30.5002 420.43 30.3734C420.466 30.2465 420.532 30.1461 420.628 30.0723C420.724 29.9984 420.861 29.961 421.037 29.96C421.207 29.9591 421.343 30.0001 421.443 30.0828C421.54 30.1657 421.611 30.2736 421.655 30.4067C421.699 30.5398 421.721 30.6863 421.722 30.8463L421.725 31.3413L420.375 31.3487L420.372 30.8137ZM420.042 31.7405L423.442 31.722L423.44 31.332L422.045 31.3396L422.042 30.8596C422.042 30.8029 422.04 30.7413 422.036 30.6746C422.033 30.6046 422.027 30.5463 422.02 30.4997L423.431 29.712L423.429 29.277L421.913 30.1503C421.839 29.9774 421.73 29.8363 421.586 29.7271C421.439 29.6145 421.25 29.5572 421.02 29.5551C420.78 29.5564 420.589 29.6125 420.446 29.7233C420.3 29.8341 420.196 29.9846 420.134 30.175C420.068 30.3653 420.036 30.5788 420.037 30.8155L420.042 31.7405ZM420.356 27.8547C420.355 27.6881 420.374 27.5413 420.414 27.4144C420.45 27.2875 420.516 27.1872 420.612 27.1133C420.708 27.0395 420.845 27.0021 421.021 27.0011C421.191 27.0002 421.327 27.0411 421.427 27.1239C421.524 27.2067 421.595 27.3147 421.639 27.4478C421.683 27.5809 421.705 27.7274 421.706 27.8874L421.709 28.3824L420.359 28.3897L420.356 27.8547ZM420.026 28.7815L423.426 28.7631L423.424 28.3731L422.029 28.3807L422.026 27.9007C422.026 27.844 422.024 27.7823 422.02 27.7157C422.017 27.6457 422.011 27.5874 422.004 27.5408L423.415 26.7531L423.413 26.3181L421.897 27.1913C421.823 27.0184 421.714 26.8773 421.57 26.7681C421.423 26.6556 421.234 26.5983 421.004 26.5962C420.764 26.5975 420.573 26.6535 420.43 26.7643C420.284 26.8751 420.18 27.0257 420.117 27.216C420.052 27.4064 420.02 27.6199 420.021 27.8566L420.026 28.7815ZM423.473 24.4688C423.474 24.7754 423.401 25.0492 423.252 25.29C423.103 25.5308 422.898 25.7202 422.635 25.8583C422.369 25.9931 422.066 26.0614 421.726 26.0633C421.386 26.0651 421.083 25.9984 420.815 25.8632C420.544 25.7247 420.33 25.5359 420.172 25.2967C420.014 25.0542 419.931 24.778 419.923 24.4681C419.921 24.1614 419.996 23.8876 420.148 23.6468C420.297 23.406 420.502 23.2166 420.765 23.0785C421.028 22.9404 421.329 22.8704 421.669 22.8685C422.009 22.8667 422.314 22.935 422.585 23.0736C422.856 23.2088 423.07 23.3976 423.228 23.6401C423.383 23.8792 423.464 24.1555 423.473 24.4688ZM423.128 24.4806C423.126 24.2473 423.064 24.041 422.939 23.8617C422.815 23.6823 422.644 23.5416 422.427 23.4394C422.206 23.3373 421.956 23.287 421.676 23.2885C421.403 23.29 421.16 23.3413 420.947 23.4425C420.734 23.5436 420.568 23.6829 420.449 23.8602C420.33 24.0342 420.271 24.2328 420.273 24.4562C420.274 24.6895 420.337 24.8958 420.461 25.0751C420.585 25.2545 420.756 25.3952 420.973 25.4974C421.19 25.5995 421.439 25.6498 421.719 25.6483C421.992 25.6468 422.235 25.5955 422.448 25.4943C422.661 25.3932 422.829 25.2556 422.951 25.0816C423.07 24.9076 423.129 24.7073 423.128 24.4806ZM419.988 21.8596L419.991 22.2496L422.185 22.2377C422.425 22.2364 422.642 22.1835 422.835 22.0792C423.024 21.9715 423.173 21.8206 423.282 21.6267C423.388 21.4328 423.44 21.2042 423.438 20.9409C423.437 20.6742 423.381 20.4462 423.27 20.2568C423.159 20.064 423.008 19.9165 422.817 19.8142C422.627 19.7086 422.411 19.6564 422.171 19.6577L419.976 19.6696L419.979 20.0696L422.129 20.058C422.319 20.0569 422.489 20.0927 422.639 20.1652C422.786 20.2344 422.902 20.3354 422.986 20.4683C423.07 20.6012 423.112 20.7593 423.113 20.9426C423.114 21.1226 423.074 21.2812 422.991 21.4183C422.908 21.5521 422.794 21.6577 422.648 21.7352C422.501 21.8093 422.332 21.8469 422.138 21.8479L419.988 21.8596ZM423.37 18.3879L420.705 18.4023L420.924 18.2712L423.359 16.5229L423.358 16.2079L419.958 16.2264L419.96 16.6264L422.595 16.6121L422.261 16.8189L419.97 18.4863L419.972 18.7963L423.372 18.7779L423.37 18.3879ZM423.346 14.122C423.345 13.7886 423.268 13.5107 423.117 13.2882C422.962 13.0624 422.755 12.8918 422.494 12.7766C422.233 12.6613 421.941 12.6046 421.618 12.6063C421.301 12.608 421.017 12.6613 420.764 12.766C420.511 12.8707 420.312 13.0318 420.167 13.2492C420.018 13.4667 419.944 13.7521 419.946 14.1054L419.953 15.2954L423.353 15.2769L423.346 14.122ZM420.286 14.0886C420.285 13.8419 420.342 13.6399 420.458 13.4826C420.574 13.322 420.733 13.2028 420.936 13.125C421.136 13.044 421.365 13.0027 421.625 13.0013C421.912 12.9997 422.159 13.0467 422.366 13.1423C422.573 13.2345 422.734 13.3636 422.848 13.5297C422.959 13.6957 423.015 13.8921 423.016 14.1187L423.021 14.8887L420.291 14.9036L420.286 14.0886Z" fill="white"/>
<rect x="428.091" y="59.0694" width="19" height="12" rx="0.5" transform="rotate(89.6887 428.091 59.0694)" stroke="white"/>
<path d="M421.172 68.8181L417.94 71.0832C417.61 71.3148 417.156 71.0799 417.153 70.6765L417.129 66.1815C417.127 65.7781 417.579 65.5383 417.911 65.7662L421.168 67.9961C421.456 68.1934 421.458 68.6177 421.172 68.8181Z" fill="white" stroke="white"/>
<path d="M424.11 67.9801L427.342 65.715C427.672 65.4834 428.127 65.7183 428.129 66.1217L428.153 70.6167C428.155 71.0201 427.704 71.2599 427.371 71.032L424.115 68.8021C423.826 68.6048 423.824 68.1805 424.11 67.9801Z" fill="white" stroke="white"/>
<circle cx="298.651" cy="45.4535" r="3.76923" transform="rotate(-89.9675 298.651 45.4535)" fill="black" stroke="black"/>
<line x1="296.528" y1="48.8192" x2="292.724" y2="55.9094" stroke="black"/>
<path d="M295.29 45.1747L287.89 45.1705" stroke="black"/>
<line x1="296.881" y1="41.9826" x2="292.9" y2="36.8572" stroke="black"/>
<line x1="302.285" y1="45.1787" x2="309.655" y2="45.1213" stroke="black"/>
<line x1="300.735" y1="48.6234" x2="304.146" y2="55.4561" stroke="black"/>
<line x1="300.783" y1="42.072" x2="304.771" y2="35.2435" stroke="black"/>
<circle cx="291.282" cy="57.5724" r="2.5" transform="rotate(-89.9675 291.282 57.5724)" stroke="black"/>
<circle cx="291.282" cy="57.5724" r="2.5" transform="rotate(-89.9675 291.282 57.5724)" stroke="black"/>
<circle cx="291.282" cy="57.5724" r="2.5" transform="rotate(-89.9675 291.282 57.5724)" stroke="black"/>
<path d="M305.784 54.6807C307.552 54.6817 308.983 56.1152 308.982 57.8825C308.981 59.6498 307.548 61.0817 305.781 61.0807C304.013 61.0797 302.581 59.6462 302.582 57.8788C302.583 56.1115 304.017 54.6797 305.784 54.6807Z" stroke="black"/>
<circle cx="312.421" cy="44.5536" r="2.63077" transform="rotate(-89.9675 312.421 44.5536)" stroke="black"/>
<circle cx="284.705" cy="45.161" r="2.91538" transform="rotate(-89.9675 284.705 45.161)" stroke="black"/>
<circle cx="291.142" cy="34.8262" r="2.34615" transform="rotate(-89.9675 291.142 34.8262)" stroke="black"/>
<circle cx="306.343" cy="32.6502" r="2.91538" transform="rotate(-89.9675 306.343 32.6502)" stroke="black"/>
<path d="M35.3359 22.3859C48.0384 22.3931 58.3301 32.6964 58.3228 45.399C58.3156 58.1015 48.0124 68.3931 35.3098 68.3859C22.6073 68.3787 12.3157 58.0754 12.3229 45.3729C12.3301 32.6704 22.6333 22.3787 35.3359 22.3859Z" fill="#C2BEBE"/>
<path d="M39.4281 59.8243C39.5162 59.6883 39.6003 59.5204 39.6804 59.3204C39.7605 59.1205 39.8326 58.9045 39.8967 58.6725C39.9609 58.4406 40.013 58.2166 40.0531 58.0006C40.1013 57.7767 40.1254 57.5807 40.1255 57.4127C40.1258 56.7567 40.0261 56.2046 39.8264 55.7565C39.6267 55.3084 39.3628 54.9642 39.035 54.724C38.6991 54.4839 38.3152 54.3636 37.8832 54.3634C37.5312 54.3632 37.2271 54.435 36.9711 54.5789C36.715 54.7227 36.4869 54.9146 36.2867 55.1545C36.0786 55.3944 35.8905 55.6623 35.7223 55.9582C35.5461 56.2461 35.374 56.534 35.2058 56.8219C35.0376 57.0778 34.8895 57.3257 34.7614 57.5656C34.6252 57.8055 34.4811 57.9975 34.329 58.1414C34.177 58.2853 34.0009 58.3572 33.8009 58.3571C33.5209 58.3569 33.313 58.2408 33.1771 58.0087C33.0413 57.7767 32.9734 57.4846 32.9736 57.1326C32.9737 56.9006 33.0019 56.6846 33.058 56.4847C33.1061 56.2767 33.1702 56.0807 33.2503 55.8968C33.3224 55.7128 33.3985 55.5409 33.4786 55.3809L32.2309 54.8522C32.0787 55.1641 31.9385 55.524 31.8103 55.932C31.6821 56.3399 31.6178 56.7478 31.6176 57.1558C31.6173 57.7478 31.713 58.2559 31.9047 58.68C32.0965 59.0961 32.3563 59.4163 32.6842 59.6404C33.0121 59.8566 33.384 59.9648 33.8 59.9651C34.112 59.9653 34.4001 59.8934 34.6641 59.7496C34.9202 59.6057 35.1563 59.4139 35.3725 59.174C35.5886 58.9341 35.7887 58.6742 35.9729 58.3943C36.1571 58.1064 36.3372 57.8185 36.5134 57.5306C36.6575 57.2827 36.8017 57.0388 36.9458 56.7989C37.0819 56.5589 37.2221 56.363 37.3661 56.2111C37.5102 56.0512 37.6743 55.9713 37.8583 55.9714C38.0503 55.9715 38.2142 56.0276 38.3502 56.1397C38.4781 56.2437 38.574 56.4038 38.6379 56.6198C38.7018 56.8359 38.7336 57.1079 38.7334 57.4359C38.7333 57.6679 38.7052 57.9119 38.649 58.1678C38.5849 58.4158 38.5088 58.6558 38.4206 58.8877C38.3325 59.1117 38.2484 59.3076 38.1683 59.4756L39.4281 59.8243ZM32.1751 47.54C32.0469 47.78 31.9468 48.0359 31.8746 48.3079C31.7945 48.5798 31.7383 48.8398 31.7062 49.0878C31.666 49.3357 31.6459 49.5397 31.6458 49.6997C31.6455 50.2997 31.7492 50.8398 31.9569 51.3199C32.1646 51.8 32.4604 52.2162 32.8442 52.5684C33.228 52.9126 33.6839 53.1769 34.2118 53.3612C34.7317 53.5455 35.3036 53.6378 35.9276 53.6382C36.5116 53.6385 37.0596 53.5588 37.5717 53.3991C38.0838 53.2314 38.532 52.9836 38.9162 52.6559C39.3003 52.3281 39.6006 51.9242 39.8168 51.4444C40.0331 50.9565 40.1414 50.3966 40.1418 49.7646C40.1419 49.5406 40.1181 49.2925 40.0702 49.0205C40.0304 48.7405 39.9705 48.4645 39.8907 48.1924C39.8108 47.9204 39.719 47.6803 39.6151 47.4723L38.4628 48.0596C38.5666 48.3077 38.6545 48.5797 38.7263 48.8757C38.7981 49.1718 38.834 49.4918 38.8338 49.8358C38.8336 50.1878 38.7574 50.4998 38.6052 50.7717C38.4531 51.0436 38.2409 51.2715 37.9688 51.4553C37.6967 51.6312 37.3847 51.771 37.0326 51.8748C36.6805 51.9706 36.3085 52.0184 35.9165 52.0182C35.2925 52.0178 34.7646 51.9175 34.3327 51.7173C33.8928 51.517 33.553 51.2448 33.3132 50.9007C33.0733 50.5565 32.9536 50.1725 32.9538 49.7485C32.9539 49.5085 32.9701 49.3045 33.0022 49.1365C33.0342 48.9685 33.0743 48.7965 33.1224 48.6206C33.1625 48.4446 33.2187 48.2446 33.2908 48.0207L32.1751 47.54ZM39.9767 44.719L31.8167 44.7144L31.8158 46.2624L39.9758 46.267L39.9767 44.719ZM36.0792 40.1949L36.0774 43.3389L37.3015 43.2076L37.3033 40.0756L36.0792 40.1949ZM35.3144 34.5901L35.313 37.1461L33.045 37.1448L33.0468 33.8328L31.8227 34.0721L31.8201 38.6921L39.9801 38.6967L39.981 37.1487L36.525 37.1467L36.5265 34.3747L35.3144 34.5901ZM39.9844 31.0315L31.8244 31.0269L31.8235 32.5749L39.9835 32.5795L39.9844 31.0315Z" fill="black"/>
<defs>
<filter id="filter0_d_0_1" x="-3.64258" y="-0.238525" width="464.174" height="95.0057" filterUnits="userSpaceOnUse" color-interpolation-filters="sRGB">
<feFlood flood-opacity="0" result="BackgroundImageFix"/>
<feColorMatrix in="SourceAlpha" type="matrix" values="0 0 0 0 0 0 0 0 0 0 0 0 0 0 0 0 0 0 127 0" result="hardAlpha"/>
<feOffset dy="4"/>
<feGaussianBlur stdDeviation="2"/>
<feComposite in2="hardAlpha" operator="out"/>
<feColorMatrix type="matrix" values="0 0 0 0 0 0 0 0 0 0 0 0 0 0 0 0 0 0 0.25 0"/>
<feBlend mode="normal" in2="BackgroundImageFix" result="effect1_dropShadow_0_1"/>
<feBlend mode="normal" in="SourceGraphic" in2="effect1_dropShadow_0_1" result="shape"/>
</filter>
</defs>
</svg>
