<svg width="100%" height="86" viewBox="0 0 456 86" fill="none" xmlns="http://www.w3.org/2000/svg">
<rect width="100%" height="86" fill="#F5F5F5"/>
<g filter="url(#filter0_d_0_1)">
<rect x="455.934" y="-1.19125" width="86" height="456" rx="4" transform="rotate(89.7258 455.934 -1.19125)" fill="#E1DE9A"/>
</g>
<path d="M64.3477 35.9294C63.5956 35.2168 63.0223 34.4546 62.6278 33.6427C62.2496 32.8306 62.0583 31.9771 62.054 31.0819C62.0428 28.7382 63.1072 26.6823 65.2472 24.9142C67.3872 23.1461 69.8976 22.2552 72.7784 22.2414C74.227 22.2345 76.1577 22.6403 78.5705 23.4588L78.6071 31.1247L76.8249 31.1333C76.6845 29.0018 76.0252 27.2634 74.8468 25.9181C73.6685 24.5728 72.233 23.9042 70.5403 23.9123C69.1569 23.9189 68.0115 24.3557 67.1042 25.2227C66.213 26.0733 65.7706 27.1497 65.7768 28.4517C65.7828 29.705 66.236 30.8747 67.1364 31.9609C68.0205 33.0472 70.1525 34.7134 73.5325 36.9596C76.096 38.6564 77.8278 40.0316 78.728 41.0852C79.6121 42.1552 80.0578 43.4715 80.0653 45.0339C80.0775 47.5893 78.9085 49.8735 76.558 51.8867C74.2238 53.8836 71.5675 54.8892 68.589 54.9034C66.4568 54.9136 64.0618 54.4124 61.404 53.3997L61.3619 44.6107L63.0953 44.6025C63.1071 47.0764 63.8332 49.14 65.2734 50.7933C66.7136 52.4466 68.4184 53.2685 70.3878 53.2591C72.1944 53.2504 73.616 52.7146 74.6526 51.6517C75.7055 50.5887 76.228 49.2434 76.2202 47.6159C76.2134 46.1999 75.7762 44.9568 74.9084 43.8867C74.0407 42.8329 72.0721 41.2961 69.0025 39.2763C67.3208 38.1775 65.7692 37.0619 64.3477 35.9294ZM82.1301 32.646L90.4969 31.1167L90.5014 32.0688C89.8188 32.2674 89.4797 32.8305 89.4841 33.7583L89.5564 48.8704C89.5612 49.8632 89.7847 50.6434 90.2268 51.211C90.669 51.7785 91.2563 52.0605 91.9887 52.057C93.8604 52.0481 95.7173 50.6313 97.5593 47.8067C99.4012 44.9821 100.313 41.6655 100.295 37.857C100.288 36.3921 100.087 35.3026 99.6933 34.5883C99.3155 33.874 98.6384 33.5192 97.6618 33.5238C97.3526 33.5253 96.889 33.5926 96.2712 33.7258L96.2657 32.5783L104.755 31.0484L104.759 32.0006C104.043 32.1179 103.688 32.6812 103.693 33.6903L103.768 49.3883C103.775 50.902 104.34 51.6561 105.463 51.6508C106.131 51.6476 106.984 51.3993 108.023 50.9061L108.029 52.1024L101.304 54.8201L100.108 54.8258L100.069 46.7205C97.5301 50.2157 95.5143 52.4389 94.0215 53.3901C92.5448 54.3249 91.1717 54.7954 89.9022 54.8014C87.2167 54.8143 85.8648 52.9164 85.8466 49.1079L85.7827 35.7535C85.7759 34.3375 85.0157 33.6332 83.502 33.6404C83.1765 33.642 82.721 33.693 82.1356 33.7934L82.1301 32.646ZM117.053 19.5149L117.058 20.5158C116.603 20.7784 116.378 21.2108 116.38 21.813L116.46 38.5365C119.503 35.0062 121.65 32.8556 122.899 32.0847C124.149 31.2974 125.425 30.9007 126.727 30.8945C128.81 30.8845 130.474 31.7066 131.719 33.3608C132.98 34.9987 133.617 37.0953 133.629 39.6506C133.639 41.799 133.194 43.8926 132.292 45.9315C131.39 47.9541 130.218 49.6198 128.776 50.9288C127.333 52.2216 125.97 53.05 124.686 53.4143C123.402 53.7622 121.808 53.9407 119.903 53.9498L117.657 53.9606C115.948 53.9688 114.818 54.0881 114.265 54.3186C113.729 54.5653 113.324 54.966 113.05 55.5207L111.415 55.5286C111.834 54.7616 112.163 53.759 112.401 52.5209C112.656 51.2827 112.782 50.3543 112.779 49.7358L112.664 25.6883C112.657 24.256 112.108 23.5425 111.018 23.5477C110.513 23.5501 109.822 23.7406 108.945 24.1191L108.939 22.9229L117.053 19.5149ZM116.516 50.1574C118.508 51.3686 120.626 51.9688 122.872 51.9581C124.5 51.9503 125.841 51.5207 126.895 50.6693C127.965 49.8015 128.748 48.634 129.246 47.1668C129.744 45.6995 129.988 44.0301 129.979 42.1583C129.967 39.7332 129.486 37.7987 128.535 36.3546C127.584 34.9106 126.279 34.1926 124.618 34.2005C122.486 34.2107 120.539 35.4407 118.777 37.8906C117.031 40.3404 116.166 43.258 116.182 46.6434C116.187 47.685 116.298 48.8564 116.516 50.1574ZM141.351 20.6681C142.034 20.6649 142.597 20.89 143.039 21.3436C143.497 21.7972 143.727 22.3413 143.73 22.9761C143.733 23.6109 143.508 24.1572 143.054 24.6151C142.601 25.073 142.057 25.3035 141.422 25.3065C140.771 25.3096 140.216 25.0844 139.758 24.6309C139.317 24.1772 139.094 23.6331 139.091 22.9983C139.088 22.3473 139.314 21.8009 139.767 21.3593C140.237 20.9013 140.765 20.6709 141.351 20.6681ZM135.87 33.4142L142.181 30.8449L143.279 30.8397L143.381 52.0064C143.394 54.8872 142.481 57.7807 140.639 60.6866C138.797 63.5926 136.631 65.0516 134.141 65.0635C133.327 65.0674 132.456 64.8844 131.526 64.5145L131.495 57.8983L133.252 57.8899C133.276 59.5011 133.592 60.7204 134.198 61.5475C134.788 62.3748 135.514 62.7864 136.376 62.7822C137.239 62.7781 138.01 62.2292 138.688 61.1354C139.366 60.0417 139.702 58.6973 139.694 57.1022L139.595 36.3749C139.588 34.8613 139.006 34.1072 137.851 34.1128C137.297 34.1154 136.639 34.2976 135.876 34.6593L135.87 33.4142ZM168.555 47.589C164.947 52.1636 161.418 54.4592 157.968 54.4757C155.543 54.4873 153.397 53.4478 151.532 51.3571C149.666 49.2501 148.727 46.748 148.713 43.8509C148.697 40.5144 149.781 37.5062 151.966 34.8265C154.166 32.1304 156.764 30.7751 159.759 30.7608C162.167 30.7493 164.084 31.5946 165.508 33.2968C166.932 34.999 167.691 37.0787 167.784 39.536L152.037 39.6113C152.008 40.2463 151.994 40.7102 151.995 41.0032C152.009 43.884 152.785 46.2891 154.325 48.2187C155.864 50.1319 157.756 51.0831 160.002 51.0724C162.802 51.059 165.65 49.3608 168.547 45.9777L168.555 47.589ZM163.774 38.3345C163.57 36.4148 162.952 34.9285 161.922 33.8755C160.892 32.8225 159.677 32.2993 158.277 32.306C156.812 32.313 155.505 32.8971 154.354 34.0582C153.204 35.203 152.503 36.6468 152.251 38.3896L163.774 38.3345ZM190.089 47.6325C186.546 52.1091 183.106 54.3554 179.769 54.3714C177.621 54.3817 175.558 53.4801 173.58 51.6666C171.618 49.853 170.629 47.2617 170.613 43.8926C170.596 40.3933 171.769 37.3033 174.133 34.6227C176.513 31.942 179.371 30.5937 182.707 30.5777C184.742 30.568 186.95 31.0946 189.331 32.1574L189.362 38.5294L187.579 38.5379C187.521 36.6013 186.895 35.0418 185.702 33.8594C184.524 32.6605 183.048 32.0654 181.274 32.0739C179.028 32.0846 177.267 33.0534 175.99 34.9801C174.73 36.8904 174.105 39.0907 174.117 41.5809C174.13 44.2827 174.841 46.5498 176.249 48.3823C177.658 50.2148 179.469 51.1257 181.682 51.1151C183.033 51.1086 184.342 50.7036 185.607 49.9C186.889 49.0964 188.38 47.7708 190.081 45.9235L190.089 47.6325ZM201.497 23.5053L201.503 24.7748C200.479 25.0239 199.972 26.1819 199.981 28.249C199.988 29.6487 200.107 30.6247 200.337 31.177C200.584 31.7292 201.001 32.1829 201.589 32.5382C202.193 32.8934 202.991 33.0686 203.984 33.0638L206.01 33.0541L206.016 34.1528L200.034 34.1814L200.109 49.855C200.112 50.3596 200.211 50.7416 200.408 51.0011C200.621 51.2605 200.93 51.3892 201.337 51.3873C202.135 51.3835 203.32 50.7267 204.892 49.4171C205.071 49.2698 205.209 49.1633 205.306 49.0977L205.313 50.5137C202.558 53.0172 200.358 54.2728 198.714 54.2807C197.949 54.2844 197.37 53.9942 196.977 53.4101C196.6 52.8097 196.408 51.9236 196.403 50.7517L196.323 34.1992L192.588 34.217L192.583 33.1184C194.015 33.1116 195.031 32.8219 195.63 32.2493C196.23 31.6768 196.526 30.6744 196.519 29.2421L196.502 25.5556L201.497 23.5053ZM210.198 45.9981C210.339 48.1134 210.949 49.7543 212.029 50.9211C213.125 52.0877 214.43 52.6674 215.943 52.6602C217.196 52.6542 218.22 52.2668 219.014 51.498C219.808 50.7292 220.202 49.7589 220.196 48.587C220.191 47.5454 219.886 46.6679 219.28 45.9547C218.658 45.2578 217.442 44.344 215.629 43.2133C214.34 42.4057 213.164 41.6545 212.103 40.9597C211.042 40.2486 210.306 39.5278 209.895 38.7973C209.469 38.067 209.254 37.3193 209.25 36.5543C209.242 34.9756 209.96 33.5642 211.402 32.3203C212.861 31.0764 214.795 30.4486 217.204 30.4371C218.685 30.43 220.282 30.7479 221.994 31.3907L222.024 37.7871L220.267 37.7956C220.242 35.989 219.73 34.5429 218.732 33.4571C217.734 32.3714 216.592 31.8316 215.306 31.8378C214.395 31.8421 213.68 32.1385 213.162 32.727C212.66 33.299 212.411 33.9757 212.415 34.7569C212.419 35.6358 212.716 36.3912 213.305 37.0232C213.878 37.6715 215.029 38.5286 216.76 39.5946C219.731 41.4521 221.593 42.7616 222.345 43.523C223.097 44.3006 223.477 45.3324 223.483 46.6182C223.492 48.6526 222.598 50.4229 220.798 51.9289C219.015 53.4349 216.952 54.1934 214.608 54.2047C212.866 54.213 210.854 53.7343 208.571 52.7687L208.538 46.0061L210.198 45.9981Z" fill="black"/>
<path d="M386.408 61.8614L386.743 63.8098L403.561 57.2043L403.552 55.3043L386.522 49.0857L386.531 51.0107L400.957 56.2667L386.408 61.8614ZM403.452 34.4951L386.453 34.5765L386.462 36.5515L394.112 36.5149L394.15 44.5148L386.375 44.552L386.51 46.5014L403.51 46.42L403.5 44.47L395.725 44.5072L395.687 36.5073L403.462 36.4701L403.452 34.4951ZM402.61 30.822C402.759 30.5879 402.907 30.2872 403.056 29.9198C403.187 29.5525 403.302 29.1437 403.4 28.6932C403.498 28.2427 403.579 27.8006 403.643 27.367C403.708 26.9167 403.739 26.5165 403.738 26.1665C403.731 24.8832 403.535 23.8008 403.147 22.9193C402.759 22.0212 402.231 21.3404 401.562 20.8769C400.893 20.3967 400.125 20.1588 399.259 20.1629C398.642 20.1659 398.101 20.2684 397.635 20.4707C397.153 20.673 396.721 20.9667 396.339 21.3519C395.958 21.737 395.602 22.2054 395.271 22.757C394.94 23.3086 394.619 23.9518 394.305 24.6867C393.827 25.6723 393.406 26.5076 393.042 27.1927C392.662 27.8779 392.256 28.3965 391.825 28.7486C391.393 29.084 390.877 29.2531 390.277 29.256C389.477 29.2598 388.851 28.9295 388.397 28.265C387.944 27.5838 387.715 26.7099 387.71 25.6432C387.707 25.0766 387.755 24.5847 387.853 24.1675C387.934 23.7338 388.041 23.35 388.172 23.016C388.304 22.6654 388.436 22.3481 388.568 22.0641L387.04 21.3964C386.775 21.931 386.537 22.5821 386.324 23.3498C386.111 24.1175 386.006 24.918 386.01 25.7514C386.016 26.868 386.212 27.8338 386.599 28.6486C386.986 29.4467 387.498 30.0693 388.133 30.5163C388.769 30.9466 389.495 31.1598 390.311 31.1558C390.895 31.1531 391.428 31.0588 391.91 30.8732C392.392 30.6709 392.841 30.3854 393.256 30.0167C393.654 29.6315 394.027 29.163 394.374 28.6114C394.705 28.0431 395.035 27.3915 395.365 26.6566C395.76 25.6714 396.148 24.8445 396.528 24.176C396.891 23.5076 397.289 23.0057 397.721 22.6703C398.152 22.3182 398.677 22.1407 399.293 22.1378C399.81 22.1353 400.286 22.2913 400.721 22.6059C401.139 22.9039 401.466 23.3524 401.702 23.9513C401.938 24.5501 402.058 25.2996 402.063 26.1996C402.065 26.7162 402.018 27.2414 401.92 27.7753C401.806 28.3091 401.667 28.8015 401.502 29.2523C401.338 29.6864 401.19 30.0621 401.058 30.3794L402.61 30.822Z" fill="black"/>
<path d="M386.408 61.8614L386.049 60.928L385.284 61.2223L385.423 62.0305L386.408 61.8614ZM386.743 63.8098L385.757 63.9789L385.965 65.1897L387.108 64.7406L386.743 63.8098ZM403.561 57.2043L403.927 58.135L404.564 57.8846L404.561 57.1995L403.561 57.2043ZM403.552 55.3043L404.552 55.2995L404.549 54.6036L403.895 54.3649L403.552 55.3043ZM386.522 49.0857L386.865 48.1464L385.515 47.6535L385.522 49.0905L386.522 49.0857ZM386.531 51.0107L385.531 51.0155L385.535 51.7119L386.189 51.9503L386.531 51.0107ZM400.957 56.2667L401.316 57.2001L403.808 56.2415L401.299 55.3271L400.957 56.2667ZM385.423 62.0305L385.757 63.9789L387.728 63.6407L387.394 61.6923L385.423 62.0305ZM387.108 64.7406L403.927 58.135L403.196 56.2735L386.377 62.879L387.108 64.7406ZM404.561 57.1995L404.552 55.2995L402.552 55.3091L402.561 57.209L404.561 57.1995ZM403.895 54.3649L386.865 48.1464L386.179 50.025L403.209 56.2436L403.895 54.3649ZM385.522 49.0905L385.531 51.0155L387.531 51.0059L387.522 49.0809L385.522 49.0905ZM386.189 51.9503L400.614 57.2063L401.299 55.3271L386.874 50.0711L386.189 51.9503ZM400.598 55.3333L386.049 60.928L386.767 62.7948L401.316 57.2001L400.598 55.3333ZM403.452 34.4951L404.452 34.4904L404.448 33.4904L403.448 33.4952L403.452 34.4951ZM386.453 34.5765L386.448 33.5765L385.448 33.5813L385.453 34.5813L386.453 34.5765ZM386.462 36.5515L385.462 36.5563L385.467 37.5562L386.467 37.5515L386.462 36.5515ZM394.112 36.5149L395.112 36.5101L395.107 35.5101L394.107 35.5149L394.112 36.5149ZM394.15 44.5148L394.155 45.5148L395.155 45.51L395.15 44.51L394.15 44.5148ZM386.375 44.552L386.371 43.552L385.304 43.5571L385.378 44.6207L386.375 44.552ZM386.51 46.5014L385.512 46.5701L385.577 47.5058L386.515 47.5013L386.51 46.5014ZM403.51 46.42L403.514 47.42L404.514 47.4152L404.51 46.4152L403.51 46.42ZM403.5 44.47L404.5 44.4652L404.495 43.4653L403.495 43.47L403.5 44.47ZM395.725 44.5072L394.725 44.512L394.73 45.512L395.73 45.5072L395.725 44.5072ZM395.687 36.5073L395.682 35.5073L394.682 35.5121L394.687 36.5121L395.687 36.5073ZM403.462 36.4701L403.467 37.4701L404.467 37.4653L404.462 36.4653L403.462 36.4701ZM403.448 33.4952L386.448 33.5765L386.457 35.5765L403.457 35.4951L403.448 33.4952ZM385.453 34.5813L385.462 36.5563L387.462 36.5467L387.453 34.5717L385.453 34.5813ZM386.467 37.5515L394.117 37.5149L394.107 35.5149L386.457 35.5515L386.467 37.5515ZM393.112 36.5197L393.15 44.5196L395.15 44.51L395.112 36.5101L393.112 36.5197ZM394.146 43.5148L386.371 43.552L386.38 45.552L394.155 45.5148L394.146 43.5148ZM385.378 44.6207L385.512 46.5701L387.507 46.4326L387.373 44.4832L385.378 44.6207ZM386.515 47.5013L403.514 47.42L403.505 45.42L386.505 45.5014L386.515 47.5013ZM404.51 46.4152L404.5 44.4652L402.5 44.4748L402.51 46.4248L404.51 46.4152ZM403.495 43.47L395.72 43.5072L395.73 45.5072L403.505 45.47L403.495 43.47ZM396.725 44.5025L396.687 36.5025L394.687 36.5121L394.725 44.512L396.725 44.5025ZM395.692 37.5073L403.467 37.4701L403.457 35.4701L395.682 35.5073L395.692 37.5073ZM404.462 36.4653L404.452 34.4904L402.452 34.4999L402.462 36.4749L404.462 36.4653ZM402.61 30.822L402.336 31.7837L403.053 31.9882L403.454 31.3587L402.61 30.822ZM403.056 29.9198L403.983 30.294L403.99 30.2757L403.997 30.2571L403.056 29.9198ZM403.4 28.6932L402.422 28.4809L402.422 28.4809L403.4 28.6932ZM403.643 27.367L404.632 27.5143L404.633 27.5088L403.643 27.367ZM403.147 22.9193L402.229 23.3156L402.232 23.3218L403.147 22.9193ZM401.562 20.8769L400.979 21.6893L400.986 21.6941L400.993 21.6989L401.562 20.8769ZM397.635 20.4707L398.022 21.3929L398.034 21.3879L397.635 20.4707ZM395.271 22.757L394.414 22.2428L395.271 22.757ZM394.305 24.6867L395.205 25.1235L395.216 25.1013L395.225 25.0787L394.305 24.6867ZM393.042 27.1927L393.917 27.6778L393.921 27.6696L393.926 27.6613L393.042 27.1927ZM391.825 28.7486L392.438 29.5383L392.448 29.531L392.457 29.5235L391.825 28.7486ZM388.397 28.265L387.565 28.819L387.571 28.8284L388.397 28.265ZM387.853 24.1675L388.826 24.3962L388.832 24.3741L388.836 24.3517L387.853 24.1675ZM388.172 23.016L389.103 23.3829L389.106 23.3752L389.109 23.3675L388.172 23.016ZM388.568 22.0641L389.475 22.4855L389.906 21.5575L388.968 21.1477L388.568 22.0641ZM387.04 21.3964L387.44 20.48L386.566 20.098L386.143 20.9535L387.04 21.3964ZM386.599 28.6486L385.696 29.0778L385.7 29.085L386.599 28.6486ZM388.133 30.5163L387.558 31.3342L387.565 31.3393L387.573 31.3443L388.133 30.5163ZM391.91 30.8732L392.269 31.8065L392.283 31.8011L392.297 31.7954L391.91 30.8732ZM393.256 30.0167L393.92 30.7643L393.936 30.7502L393.951 30.7354L393.256 30.0167ZM394.374 28.6114L395.22 29.1442L395.23 29.1294L395.239 29.1143L394.374 28.6114ZM395.365 26.6566L396.277 27.0661L396.285 27.0477L396.293 27.029L395.365 26.6566ZM396.528 24.176L397.397 24.6703L397.402 24.6621L397.407 24.6537L396.528 24.176ZM397.721 22.6703L398.334 23.46L398.344 23.4527L398.353 23.4452L397.721 22.6703ZM400.721 22.6059L400.134 23.4162L400.14 23.4203L400.721 22.6059ZM401.702 23.9513L402.632 23.5843L402.632 23.5843L401.702 23.9513ZM401.92 27.7753L402.898 27.9843L402.901 27.9696L402.904 27.9548L401.92 27.7753ZM401.502 29.2523L402.437 29.6068L402.442 29.5951L401.502 29.2523ZM401.058 30.3794L400.134 29.9958L399.703 31.0331L400.784 31.3411L401.058 30.3794ZM403.454 31.3587C403.646 31.0565 403.821 30.6962 403.983 30.294L402.128 29.5456C401.994 29.8783 401.872 30.1194 401.766 30.2853L403.454 31.3587ZM403.997 30.2571C404.146 29.8424 404.271 29.3909 404.377 28.9054L402.422 28.4809C402.332 28.8964 402.229 29.2627 402.114 29.5826L403.997 30.2571ZM404.377 28.9054C404.479 28.4346 404.564 27.9708 404.632 27.5143L402.654 27.2197C402.593 27.6305 402.516 28.0509 402.422 28.4809L404.377 28.9054ZM404.633 27.5088C404.703 27.0235 404.74 26.5728 404.738 26.1618L402.738 26.1713C402.739 26.4603 402.713 26.8099 402.653 27.2252L404.633 27.5088ZM404.738 26.1618C404.731 24.7847 404.52 23.558 404.062 22.5168L402.232 23.3218C402.549 24.0436 402.732 24.9818 402.738 26.1713L404.738 26.1618ZM404.065 22.5231C403.619 21.4882 402.983 20.6447 402.132 20.0549L400.993 21.6989C401.479 22.036 401.9 22.5542 402.229 23.3156L404.065 22.5231ZM402.145 20.0645C401.296 19.4547 400.32 19.1578 399.254 19.1629L399.264 21.1629C399.931 21.1597 400.491 21.3388 400.979 21.6893L402.145 20.0645ZM399.254 19.1629C398.53 19.1664 397.851 19.287 397.237 19.5534L398.034 21.3879C398.351 21.2499 398.754 21.1653 399.264 21.1629L399.254 19.1629ZM397.249 19.5485C396.641 19.8035 396.1 20.1731 395.629 20.6482L397.05 22.0556C397.342 21.7604 397.665 21.5425 398.022 21.3929L397.249 19.5485ZM395.629 20.6482C395.182 21.0998 394.778 21.6347 394.414 22.2428L396.129 23.2712C396.426 22.7761 396.734 22.3743 397.05 22.0556L395.629 20.6482ZM394.414 22.2428C394.054 22.8417 393.712 23.5273 393.385 24.2946L395.225 25.0787C395.525 24.3763 395.827 23.7755 396.129 23.2712L394.414 22.2428ZM393.406 24.2498C392.931 25.2288 392.515 26.0528 392.159 26.7241L393.926 27.6613C394.297 26.9625 394.723 26.1158 395.205 25.1235L393.406 24.2498ZM392.168 26.7077C391.826 27.3235 391.495 27.7274 391.193 27.9736L392.457 29.5235C393.018 29.0656 393.498 28.4323 393.917 27.6778L392.168 26.7077ZM391.211 27.9589C390.971 28.1456 390.675 28.2541 390.272 28.256L390.282 30.256C391.08 30.2522 391.815 30.0223 392.438 29.5383L391.211 27.9589ZM390.272 28.256C389.807 28.2582 389.491 28.0933 389.224 27.7015L387.571 28.8284C388.211 29.7657 389.148 30.2614 390.282 30.256L390.272 28.256ZM389.23 27.711C388.913 27.2353 388.714 26.5682 388.71 25.6384L386.71 25.648C386.716 26.8516 386.975 27.9323 387.565 28.819L389.23 27.711ZM388.71 25.6384C388.707 25.1268 388.751 24.7169 388.826 24.3962L386.879 23.9388C386.759 24.4525 386.707 25.0263 386.71 25.648L388.71 25.6384ZM388.836 24.3517C388.908 23.9668 388.999 23.6462 389.103 23.3829L387.242 22.649C387.082 23.0537 386.96 23.5008 386.87 23.9834L388.836 24.3517ZM389.109 23.3675C389.233 23.0361 389.355 22.7427 389.475 22.4855L387.661 21.6426C387.516 21.9534 387.375 22.2946 387.236 22.6645L389.109 23.3675ZM388.968 21.1477L387.44 20.48L386.639 22.3127L388.167 22.9804L388.968 21.1477ZM386.143 20.9535C385.844 21.5595 385.585 22.2731 385.36 23.0825L387.288 23.6172C387.489 22.8912 387.707 22.3025 387.936 21.8393L386.143 20.9535ZM385.36 23.0825C385.122 23.9428 385.006 24.8351 385.01 25.7561L387.01 25.7466C387.007 25.001 387.1 24.2923 387.288 23.6172L385.36 23.0825ZM385.01 25.7561C385.016 26.9856 385.233 28.1027 385.696 29.0778L387.502 28.2193C387.191 27.5649 387.015 26.7504 387.01 25.7466L385.01 25.7561ZM385.7 29.085C386.15 30.0139 386.765 30.7765 387.558 31.3342L388.709 29.6983C388.23 29.3621 387.823 28.8796 387.499 28.2121L385.7 29.085ZM387.573 31.3443C388.386 31.895 389.312 32.1606 390.316 32.1558L390.307 30.1559C389.678 30.1589 389.152 29.9981 388.694 29.6883L387.573 31.3443ZM390.316 32.1558C391.005 32.1525 391.66 32.0409 392.269 31.8065L391.551 29.9399C391.195 30.0768 390.784 30.1536 390.307 30.1559L390.316 32.1558ZM392.297 31.7954C392.887 31.548 393.428 31.2015 393.92 30.7643L392.592 29.2692C392.254 29.5693 391.898 29.7938 391.523 29.951L392.297 31.7954ZM393.951 30.7354C394.416 30.2857 394.838 29.7521 395.22 29.1442L393.528 28.0785C393.216 28.574 392.892 28.9773 392.561 29.2981L393.951 30.7354ZM395.239 29.1143C395.59 28.5099 395.936 27.8261 396.277 27.0661L394.453 26.2472C394.134 26.9569 393.819 27.5763 393.51 28.1085L395.239 29.1143ZM396.293 27.029C396.677 26.0711 397.046 25.288 397.397 24.6703L395.659 23.6817C395.25 24.4011 394.843 25.2716 394.437 26.2842L396.293 27.029ZM397.407 24.6537C397.728 24.0622 398.045 23.6845 398.334 23.46L397.107 21.8806C396.533 22.3269 396.055 22.953 395.649 23.6983L397.407 24.6537ZM398.353 23.4452C398.588 23.2533 398.884 23.1397 399.298 23.1377L399.288 21.1378C398.469 21.1417 397.717 21.3831 397.089 21.8954L398.353 23.4452ZM399.298 23.1377C399.594 23.1363 399.864 23.2207 400.134 23.4161L401.307 21.7957C400.707 21.362 400.026 21.1342 399.288 21.1378L399.298 23.1377ZM400.14 23.4203C400.365 23.5807 400.588 23.8535 400.772 24.3182L402.632 23.5843C402.343 22.8512 401.912 22.2272 401.301 21.7916L400.14 23.4203ZM400.772 24.3182C400.948 24.7657 401.059 25.3826 401.063 26.2043L403.063 26.1948C403.058 25.2165 402.928 24.3346 402.632 23.5843L400.772 24.3182ZM401.063 26.2043C401.065 26.6562 401.023 27.1196 400.937 27.5957L402.904 27.9548C403.012 27.3632 403.066 26.7763 403.063 26.1948L401.063 26.2043ZM400.942 27.5662C400.837 28.0607 400.71 28.5078 400.563 28.9094L402.442 29.5951C402.624 29.0952 402.776 28.5575 402.898 27.9843L400.942 27.5662ZM400.567 28.8978C400.405 29.3253 400.261 29.6908 400.134 29.9958L401.981 30.7631C402.118 30.4334 402.27 30.0475 402.437 29.6068L400.567 28.8978ZM400.784 31.3411L402.336 31.7837L402.884 29.8603L401.332 29.4177L400.784 31.3411Z" fill="#FFFDD8"/>
<path d="M412.915 57.3554C412.823 57.5092 412.75 57.6929 412.698 57.9064C412.639 58.1134 412.597 58.3236 412.571 58.5371C412.545 58.7438 412.533 58.9172 412.534 59.0572C412.536 59.5506 412.628 59.9968 412.81 60.3959C412.992 60.7884 413.247 61.1239 413.575 61.4023C413.903 61.6741 414.284 61.8822 414.718 62.0268C415.152 62.1714 415.622 62.2425 416.129 62.2401C416.602 62.2378 417.049 62.1723 417.468 62.0437C417.887 61.9083 418.26 61.7099 418.585 61.4483C418.904 61.1801 419.156 60.8489 419.34 60.4547C419.525 60.0605 419.616 59.6034 419.614 59.0834C419.613 58.89 419.595 58.6834 419.561 58.4636C419.526 58.2438 419.479 58.034 419.418 57.8343C419.357 57.6279 419.289 57.4549 419.215 57.3152L418.627 57.6181C418.708 57.8043 418.779 58.014 418.84 58.2471C418.901 58.4801 418.932 58.7699 418.934 59.1166C418.936 59.4766 418.864 59.8003 418.719 60.0877C418.573 60.3684 418.371 60.6093 418.112 60.8106C417.846 61.0052 417.544 61.1533 417.204 61.2549C416.865 61.3565 416.502 61.4083 416.115 61.4101C415.548 61.4128 415.048 61.3119 414.613 61.1073C414.179 60.8961 413.838 60.6143 413.589 60.2622C413.341 59.9034 413.216 59.5006 413.214 59.054C413.213 58.8273 413.225 58.6339 413.251 58.4738C413.27 58.3137 413.303 58.1669 413.349 58.0333C413.388 57.8931 413.437 57.7496 413.497 57.6026L412.915 57.3554ZM419.573 50.4968C419.576 51.1101 419.428 51.6575 419.131 52.139C418.833 52.6204 418.421 52.999 417.896 53.2749C417.364 53.5441 416.758 53.6803 416.078 53.6836C415.398 53.6868 414.791 53.5531 414.256 53.2823C413.715 53.0049 413.286 52.6269 412.971 52.1484C412.655 51.6633 412.489 51.1107 412.473 50.4908C412.47 49.8775 412.62 49.3301 412.925 48.8486C413.222 48.3672 413.634 47.9885 414.159 47.7127C414.685 47.4368 415.287 47.2973 415.967 47.294C416.647 47.2908 417.258 47.4279 417.799 47.7053C418.341 47.976 418.769 48.354 419.085 48.8391C419.394 49.3177 419.556 49.8702 419.573 50.4968ZM418.883 50.5201C418.881 50.0535 418.755 49.6407 418.507 49.2819C418.259 48.9231 417.917 48.6414 417.483 48.4368C417.042 48.2322 416.541 48.1313 415.981 48.134C415.435 48.1366 414.949 48.2389 414.523 48.441C414.097 48.643 413.765 48.9213 413.527 49.2757C413.288 49.6235 413.17 50.0208 413.173 50.4674C413.175 50.9341 413.3 51.3468 413.548 51.7057C413.797 52.0645 414.138 52.3462 414.573 52.5508C415.007 52.7554 415.504 52.8563 416.064 52.8536C416.611 52.851 417.097 52.7487 417.523 52.5467C417.948 52.3446 418.284 52.0697 418.529 51.7218C418.767 51.374 418.885 50.9734 418.883 50.5201ZM418.758 38.9745L418.773 42.1445L412.593 42.174L412.597 42.954L419.396 42.9215L419.377 38.8915L418.758 38.9745ZM419.485 32.1923C419.488 32.8057 419.341 33.353 419.043 33.8345C418.745 34.3159 418.334 34.6945 417.808 34.9704C417.276 35.2396 416.67 35.3758 415.99 35.3791C415.31 35.3824 414.703 35.2486 414.168 34.9778C413.627 34.7004 413.199 34.3224 412.883 33.844C412.567 33.3588 412.401 32.8062 412.385 32.1863C412.382 31.573 412.533 31.0256 412.837 30.5441C413.135 30.0627 413.546 29.6841 414.072 29.4082C414.597 29.1324 415.2 28.9928 415.88 28.9896C416.56 28.9863 417.17 29.1234 417.712 29.4008C418.253 29.6715 418.682 30.0495 418.997 30.5347C419.306 31.0132 419.469 31.5657 419.485 32.1923ZM418.795 32.2156C418.793 31.749 418.668 31.3362 418.419 30.9774C418.171 30.6186 417.83 30.3369 417.395 30.1323C416.954 29.9278 416.454 29.8268 415.894 29.8295C415.347 29.8321 414.861 29.9344 414.435 30.1365C414.01 30.3385 413.678 30.6168 413.439 30.9713C413.201 31.3191 413.083 31.7163 413.085 32.163C413.087 32.6296 413.212 33.0424 413.461 33.4012C413.709 33.76 414.051 34.0417 414.485 34.2463C414.919 34.4509 415.416 34.5518 415.976 34.5492C416.523 34.5465 417.009 34.4442 417.435 34.2422C417.861 34.0401 418.196 33.7652 418.441 33.4173C418.679 33.0695 418.797 32.669 418.795 32.2156ZM413.17 22.7964C413.169 22.463 413.207 22.1695 413.286 21.9158C413.358 21.6621 413.49 21.4615 413.683 21.3139C413.876 21.1663 414.149 21.0917 414.502 21.09C414.842 21.0883 415.112 21.1704 415.313 21.3361C415.507 21.5018 415.648 21.7178 415.736 21.9841C415.824 22.2503 415.869 22.5434 415.87 22.8634L415.875 23.8534L413.175 23.8663L413.17 22.7964ZM412.509 24.6495L419.309 24.617L419.305 23.837L416.515 23.8504L416.511 22.8904C416.51 22.777 416.506 22.6537 416.499 22.5204C416.491 22.3805 416.481 22.2638 416.467 22.1706L419.29 20.597L419.285 19.7271L416.254 21.4716C416.105 21.1256 415.887 20.8433 415.6 20.6247C415.305 20.3994 414.928 20.2846 414.468 20.2801C413.988 20.2824 413.605 20.3942 413.32 20.6156C413.027 20.837 412.819 21.138 412.694 21.5186C412.562 21.8993 412.498 22.3262 412.5 22.7996L412.509 24.6495Z" fill="black"/>
<path d="M412.915 57.3554L413.111 56.8953L412.711 56.7252L412.487 57.0975L412.915 57.3554ZM412.698 57.9064L413.179 58.0435L413.182 58.0345L413.184 58.0254L412.698 57.9064ZM412.571 58.5371L413.067 58.5987L413.068 58.5967L412.571 58.5371ZM412.81 60.3959L412.355 60.6033L412.356 60.6062L412.81 60.3959ZM413.575 61.4023L413.251 61.7835L413.256 61.7873L413.575 61.4023ZM414.718 62.0268L414.876 61.5525L414.876 61.5525L414.718 62.0268ZM417.468 62.0437L417.615 62.5217L417.622 62.5195L417.468 62.0437ZM418.585 61.4483L418.898 61.8381L418.907 61.8309L418.585 61.4483ZM419.34 60.4547L419.793 60.6669L419.34 60.4547ZM419.561 58.4636L420.055 58.3863L420.055 58.3863L419.561 58.4636ZM419.418 57.8343L418.938 57.976L418.94 57.9802L419.418 57.8343ZM419.215 57.3152L419.657 57.0811L419.426 56.6446L418.987 56.8706L419.215 57.3152ZM418.627 57.6181L418.398 57.1735L417.982 57.3877L418.168 57.8172L418.627 57.6181ZM418.84 58.2471L419.323 58.1202L419.323 58.1202L418.84 58.2471ZM418.719 60.0877L419.163 60.3175L419.165 60.3133L418.719 60.0877ZM418.112 60.8106L418.407 61.214L418.413 61.2098L418.419 61.2054L418.112 60.8106ZM417.204 61.2549L417.061 60.7759L417.061 60.7759L417.204 61.2549ZM414.613 61.1073L414.395 61.557L414.4 61.5596L414.613 61.1073ZM413.589 60.2622L413.178 60.5468L413.181 60.5504L413.589 60.2622ZM413.251 58.4738L413.744 58.5536L413.746 58.5436L413.747 58.5334L413.251 58.4738ZM413.349 58.0333L413.821 58.1962L413.826 58.1824L413.83 58.1684L413.349 58.0333ZM413.497 57.6026L413.96 57.7897L414.144 57.3346L413.692 57.1425L413.497 57.6026ZM412.487 57.0975C412.363 57.3029 412.274 57.5355 412.212 57.7875L413.184 58.0254C413.227 57.8502 413.282 57.7155 413.344 57.6133L412.487 57.0975ZM412.217 57.7693C412.151 58.0016 412.103 58.2377 412.075 58.4774L413.068 58.5967C413.09 58.4095 413.127 58.2252 413.179 58.0435L412.217 57.7693ZM412.075 58.4754C412.048 58.6943 412.033 58.8906 412.034 59.0596L413.034 59.0548C413.033 58.9438 413.043 58.7934 413.067 58.5987L412.075 58.4754ZM412.034 59.0596C412.036 59.6149 412.14 60.1322 412.355 60.6033L413.265 60.1886C413.116 59.8614 413.036 59.4863 413.034 59.0548L412.034 59.0596ZM412.356 60.6062C412.569 61.064 412.868 61.4579 413.251 61.7835L413.898 61.0211C413.626 60.7898 413.415 60.5128 413.264 60.1857L412.356 60.6062ZM413.256 61.7873C413.635 62.1014 414.071 62.3385 414.56 62.5012L414.876 61.5525C414.496 61.426 414.171 61.2467 413.894 61.0173L413.256 61.7873ZM414.56 62.5012C415.051 62.6648 415.576 62.7427 416.131 62.7401L416.127 61.7401C415.669 61.7423 415.253 61.6781 414.876 61.5525L414.56 62.5012ZM416.131 62.7401C416.65 62.7376 417.145 62.6658 417.615 62.5217L417.321 61.5657C416.952 61.6789 416.555 61.738 416.127 61.7401L416.131 62.7401ZM417.622 62.5195C418.096 62.3665 418.523 62.1399 418.898 61.838L418.272 61.0586C417.997 61.2799 417.679 61.4502 417.314 61.5678L417.622 62.5195ZM418.907 61.8309C419.284 61.5139 419.579 61.1237 419.793 60.6669L418.888 60.2425C418.732 60.5741 418.524 60.8463 418.263 61.0657L418.907 61.8309ZM419.793 60.6669C420.015 60.1937 420.117 59.6609 420.114 59.081L419.114 59.0858C419.116 59.5458 419.035 59.9272 418.888 60.2425L419.793 60.6669ZM420.114 59.081C420.113 58.8592 420.093 58.6273 420.055 58.3863L419.067 58.5409C419.098 58.7396 419.113 58.9209 419.114 59.0858L420.114 59.081ZM420.055 58.3863C420.017 58.1448 419.964 57.9119 419.896 57.6883L418.94 57.9802C418.993 58.156 419.036 58.3428 419.067 58.5409L420.055 58.3863ZM419.897 57.6926C419.83 57.4648 419.751 57.2586 419.657 57.0811L418.774 57.5494C418.827 57.6511 418.884 57.791 418.938 57.976L419.897 57.6926ZM418.987 56.8706L418.398 57.1735L418.856 58.0627L419.444 57.7598L418.987 56.8706ZM418.168 57.8172C418.237 57.9762 418.3 58.1611 418.356 58.3739L419.323 58.1202C419.257 57.8669 419.178 57.6325 419.085 57.4189L418.168 57.8172ZM418.356 58.3739C418.403 58.5528 418.432 58.7977 418.434 59.119L419.434 59.1142C419.432 58.7422 419.399 58.4074 419.323 58.1202L418.356 58.3739ZM418.434 59.119C418.435 59.4093 418.378 59.6533 418.272 59.862L419.165 60.3133C419.35 59.9472 419.436 59.5439 419.434 59.1142L418.434 59.119ZM418.275 59.8578C418.164 60.0717 418.009 60.2572 417.805 60.4157L418.419 61.2054C418.733 60.9615 418.983 60.665 419.163 60.3175L418.275 59.8578ZM417.817 60.4072C417.6 60.5656 417.35 60.6894 417.061 60.7759L417.348 61.7339C417.738 61.6172 418.092 61.4447 418.407 61.214L417.817 60.4072ZM417.061 60.7759C416.771 60.8627 416.456 60.9085 416.113 60.9101L416.117 61.9101C416.547 61.9081 416.958 61.8504 417.348 61.7339L417.061 60.7759ZM416.113 60.9101C415.607 60.9126 415.182 60.8226 414.827 60.655L414.4 61.5596C414.913 61.8012 415.489 61.9131 416.117 61.9101L416.113 60.9101ZM414.832 60.6577C414.464 60.4788 414.192 60.2492 413.998 59.974L413.181 60.5504C413.483 60.9795 413.894 61.3133 414.395 61.5569L414.832 60.6577ZM414.001 59.9776C413.811 59.7038 413.715 59.3999 413.714 59.0516L412.714 59.0564C412.716 59.6014 412.871 60.103 413.178 60.5468L414.001 59.9776ZM413.714 59.0516C413.713 58.8425 413.724 58.6783 413.744 58.5536L412.757 58.394C412.726 58.5896 412.712 58.8121 412.714 59.0564L413.714 59.0516ZM413.747 58.5334C413.763 58.4037 413.788 58.292 413.821 58.1962L412.876 57.8704C412.817 58.0418 412.777 58.2237 412.754 58.4142L413.747 58.5334ZM413.83 58.1684C413.864 58.0473 413.907 57.9211 413.96 57.7897L413.033 57.4155C412.967 57.578 412.912 57.739 412.867 57.8983L413.83 58.1684ZM413.692 57.1425L413.111 56.8953L412.72 57.8155L413.301 58.0627L413.692 57.1425ZM419.573 50.4968L420.073 50.4944L420.073 50.4838L419.573 50.4968ZM419.131 52.139L418.705 51.876L418.705 51.876L419.131 52.139ZM417.896 53.2749L418.122 53.7211L418.128 53.7176L417.896 53.2749ZM414.256 53.2823L414.028 53.7273L414.03 53.7283L414.256 53.2823ZM412.971 52.1484L412.551 52.4211L412.553 52.4237L412.971 52.1484ZM412.473 50.4908L411.973 50.4932L411.973 50.5039L412.473 50.4908ZM412.925 48.8486L413.347 49.1158L413.35 49.1116L412.925 48.8486ZM417.799 47.7053L417.571 48.1503L417.576 48.1525L417.799 47.7053ZM419.085 48.8391L419.505 48.5679L419.504 48.5665L419.085 48.8391ZM418.507 49.2819L418.096 49.5665L418.096 49.5665L418.507 49.2819ZM417.483 48.4368L417.696 47.9845L417.693 47.9832L417.483 48.4368ZM414.523 48.441L414.737 48.8927L414.737 48.8927L414.523 48.441ZM413.527 49.2757L413.939 49.5584L413.942 49.5547L413.527 49.2757ZM413.548 51.7057L413.96 51.4211L413.96 51.4211L413.548 51.7057ZM414.573 52.5508L414.786 52.0984L414.786 52.0984L414.573 52.5508ZM417.523 52.5467L417.737 52.9984L417.737 52.9984L417.523 52.5467ZM418.529 51.7218L418.937 52.0098L418.941 52.0045L418.529 51.7218ZM419.073 50.4992C419.075 51.027 418.95 51.4809 418.705 51.876L419.556 52.4019C419.907 51.8341 420.076 51.1933 420.073 50.4944L419.073 50.4992ZM418.705 51.876C418.457 52.2776 418.114 52.5958 417.664 52.8322L418.128 53.7176C418.729 53.4022 419.209 52.9632 419.556 52.4019L418.705 51.876ZM417.67 52.8287C417.217 53.0583 416.689 53.1806 416.076 53.1836L416.08 54.1836C416.827 54.18 417.511 54.0299 418.122 53.721L417.67 52.8287ZM416.076 53.1836C415.464 53.1865 414.937 53.0666 414.482 52.8362L414.03 53.7283C414.644 54.0395 415.332 54.1872 416.08 54.1836L416.076 53.1836ZM414.484 52.8373C414.015 52.5967 413.653 52.2753 413.388 51.8731L412.553 52.4237C412.919 52.9786 413.415 53.413 414.028 53.7273L414.484 52.8373ZM413.39 51.8758C413.128 51.4735 412.987 51.0121 412.972 50.4777L411.973 50.5039C411.991 51.2093 412.182 51.853 412.551 52.4211L413.39 51.8758ZM412.973 50.4884C412.97 49.9628 413.098 49.5104 413.347 49.1158L412.502 48.5814C412.143 49.1498 411.969 49.7921 411.973 50.4932L412.973 50.4884ZM413.35 49.1116C413.598 48.71 413.942 48.3917 414.392 48.1554L413.927 47.27C413.326 47.5853 412.847 48.0244 412.5 48.5856L413.35 49.1116ZM414.392 48.1554C414.836 47.9219 415.358 47.797 415.97 47.794L415.965 46.794C415.217 46.7976 414.533 46.9518 413.927 47.27L414.392 48.1554ZM415.97 47.794C416.579 47.7911 417.109 47.9135 417.571 48.1502L418.027 47.2603C417.407 46.9422 416.716 46.7904 415.965 46.794L415.97 47.794ZM417.576 48.1525C418.041 48.3853 418.401 48.7046 418.666 49.1118L419.504 48.5665C419.138 48.0033 418.64 47.5667 418.023 47.2581L417.576 48.1525ZM418.665 49.1103C418.919 49.5041 419.059 49.9655 419.073 50.5098L420.073 50.4838C420.054 49.775 419.869 49.1312 419.505 48.5679L418.665 49.1103ZM419.383 50.5177C419.38 49.9576 419.228 49.4449 418.918 48.9973L418.096 49.5665C418.283 49.8365 418.381 50.1494 418.383 50.5225L419.383 50.5177ZM418.918 48.9973C418.615 48.559 418.202 48.2227 417.696 47.9845L417.27 48.8891C417.633 49.0601 417.902 49.2871 418.096 49.5665L418.918 48.9973ZM417.693 47.9832C417.176 47.7434 416.601 47.631 415.979 47.634L415.984 48.634C416.481 48.6316 416.908 48.7211 417.272 48.8904L417.693 47.9832ZM415.979 47.634C415.371 47.6369 414.81 47.7511 414.308 47.9893L414.737 48.8927C415.087 48.7267 415.499 48.6363 415.984 48.634L415.979 47.634ZM414.308 47.9892C413.81 48.2257 413.405 48.5602 413.112 48.9968L413.942 49.5547C414.125 49.2823 414.384 49.0603 414.737 48.8927L414.308 47.9892ZM413.114 48.9931C412.815 49.4299 412.67 49.9279 412.673 50.4698L413.673 50.4651C413.671 50.1137 413.762 49.8172 413.939 49.5584L413.114 48.9931ZM412.673 50.4698C412.675 51.03 412.827 51.5426 413.137 51.9902L413.96 51.4211C413.773 51.1511 413.674 50.8382 413.673 50.4651L412.673 50.4698ZM413.137 51.9902C413.441 52.4285 413.854 52.7649 414.359 53.0031L414.786 52.0984C414.423 51.9275 414.153 51.7004 413.96 51.4211L413.137 51.9902ZM414.359 53.0031C414.871 53.2443 415.444 53.3566 416.066 53.3536L416.062 52.3536C415.564 52.356 415.142 52.2664 414.786 52.0984L414.359 53.0031ZM416.066 53.3536C416.675 53.3507 417.235 53.2365 417.737 52.9984L417.308 52.0949C416.959 52.2609 416.547 52.3513 416.062 52.3536L416.066 53.3536ZM417.737 52.9984C418.232 52.7634 418.638 52.4354 418.937 52.0098L418.12 51.4339C417.93 51.704 417.665 51.9258 417.308 52.0949L417.737 52.9984ZM418.941 52.0045C419.241 51.5664 419.385 51.0647 419.383 50.5177L418.383 50.5225C418.385 50.8822 418.293 51.1817 418.116 51.4392L418.941 52.0045ZM418.758 38.9745L418.691 38.4789L418.255 38.5373L418.258 38.9769L418.758 38.9745ZM418.773 42.1445L418.775 42.6444L419.275 42.6421L419.273 42.1421L418.773 42.1445ZM412.593 42.174L412.59 41.674L412.09 41.6764L412.093 42.1764L412.593 42.174ZM412.597 42.954L412.097 42.9564L412.099 43.4564L412.599 43.454L412.597 42.954ZM419.396 42.9215L419.399 43.4215L419.899 43.4191L419.896 42.9191L419.396 42.9215ZM419.377 38.8915L419.877 38.8891L419.874 38.3205L419.311 38.3959L419.377 38.8915ZM418.258 38.9769L418.273 42.1468L419.273 42.1421L419.258 38.9721L418.258 38.9769ZM418.77 41.6445L412.59 41.674L412.595 42.674L418.775 42.6444L418.77 41.6445ZM412.093 42.1764L412.097 42.9564L413.097 42.9516L413.093 42.1716L412.093 42.1764ZM412.599 43.454L419.399 43.4215L419.394 42.4215L412.594 42.454L412.599 43.454ZM419.896 42.9191L419.877 38.8891L418.877 38.8939L418.896 42.9239L419.896 42.9191ZM419.311 38.3959L418.691 38.4789L418.824 39.4701L419.444 39.3871L419.311 38.3959ZM419.485 32.1923L419.985 32.1899L419.985 32.1793L419.485 32.1923ZM419.043 33.8345L418.618 33.5715L418.618 33.5715L419.043 33.8345ZM417.808 34.9704L418.034 35.4166L418.041 35.4131L417.808 34.9704ZM414.168 34.9778L413.94 35.4228L413.942 35.4239L414.168 34.9778ZM412.883 33.844L412.464 34.1166L412.466 34.1193L412.883 33.844ZM412.385 32.1863L411.885 32.1887L411.885 32.1995L412.385 32.1863ZM412.837 30.5441L413.26 30.8113L413.262 30.8071L412.837 30.5441ZM417.712 29.4008L417.484 29.8458L417.488 29.848L417.712 29.4008ZM418.997 30.5347L419.417 30.2634L419.416 30.262L418.997 30.5347ZM418.419 30.9774L418.008 31.262L418.008 31.262L418.419 30.9774ZM417.395 30.1323L417.608 29.68L417.606 29.6787L417.395 30.1323ZM414.435 30.1365L414.65 30.5882L414.65 30.5882L414.435 30.1365ZM413.439 30.9713L413.852 31.2539L413.854 31.2502L413.439 30.9713ZM413.461 33.4012L413.872 33.1166L413.872 33.1166L413.461 33.4012ZM414.485 34.2463L414.698 33.794L414.698 33.794L414.485 34.2463ZM417.435 34.2422L417.649 34.6939L417.649 34.6939L417.435 34.2422ZM418.441 33.4173L418.85 33.7053L418.853 33.7L418.441 33.4173ZM418.985 32.1947C418.988 32.7225 418.862 33.1764 418.618 33.5715L419.468 34.0974C419.819 33.5297 419.988 32.8888 419.985 32.1899L418.985 32.1947ZM418.618 33.5715C418.369 33.9731 418.026 34.2913 417.576 34.5277L418.041 35.4131C418.641 35.0977 419.121 34.6587 419.468 34.0974L418.618 33.5715ZM417.583 34.5243C417.129 34.7538 416.601 34.8762 415.988 34.8791L415.993 35.8791C416.739 35.8755 417.424 35.7254 418.034 35.4165L417.583 34.5243ZM415.988 34.8791C415.377 34.882 414.849 34.7621 414.394 34.5318L413.942 35.4239C414.557 35.735 415.244 35.8827 415.993 35.8791L415.988 34.8791ZM414.396 34.5328C413.927 34.2922 413.566 33.9708 413.3 33.5686L412.466 34.1193C412.832 34.6741 413.327 35.1086 413.94 35.4228L414.396 34.5328ZM413.302 33.5713C413.04 33.1691 412.899 32.7077 412.885 32.1732L411.885 32.1995C411.904 32.9048 412.094 33.5485 412.464 34.1166L413.302 33.5713ZM412.885 32.1839C412.883 31.6584 413.01 31.2059 413.26 30.8113L412.415 30.277C412.055 30.8453 411.882 31.4876 411.885 32.1887L412.885 32.1839ZM413.262 30.8071C413.511 30.4055 413.854 30.0873 414.304 29.8509L413.839 28.9655C413.239 29.2809 412.759 29.7199 412.412 30.2812L413.262 30.8071ZM414.304 29.8509C414.749 29.6174 415.271 29.4925 415.882 29.4895L415.877 28.4896C415.129 28.4931 414.445 28.6473 413.839 28.9655L414.304 29.8509ZM415.882 29.4895C416.492 29.4866 417.022 29.609 417.484 29.8458L417.94 28.9558C417.319 28.6377 416.628 28.486 415.877 28.4896L415.882 29.4895ZM417.488 29.848C417.954 30.0809 418.313 30.4001 418.578 30.8073L419.416 30.262C419.05 29.6988 418.552 29.2622 417.935 28.9536L417.488 29.848ZM418.577 30.8059C418.831 31.1997 418.971 31.661 418.985 32.2054L419.985 32.1793C419.966 31.4705 419.781 30.8267 419.417 30.2634L418.577 30.8059ZM419.295 32.2132C419.293 31.6531 419.14 31.1405 418.83 30.6928L418.008 31.262C418.195 31.532 418.293 31.8449 418.295 32.218L419.295 32.2132ZM418.83 30.6928C418.527 30.2546 418.114 29.9182 417.608 29.68L417.182 30.5846C417.545 30.7556 417.815 30.9827 418.008 31.262L418.83 30.6928ZM417.606 29.6787C417.089 29.4389 416.514 29.3265 415.891 29.3295L415.896 30.3295C416.394 30.3271 416.82 30.4166 417.185 30.5859L417.606 29.6787ZM415.891 29.3295C415.283 29.3324 414.723 29.4466 414.221 29.6848L414.65 30.5882C414.999 30.4223 415.411 30.3318 415.896 30.3295L415.891 29.3295ZM414.221 29.6848C413.723 29.9212 413.318 30.2557 413.024 30.6923L413.854 31.2502C414.037 30.9778 414.296 30.7558 414.65 30.5882L414.221 29.6848ZM413.027 30.6886C412.727 31.1254 412.582 31.6234 412.585 32.1654L413.585 32.1606C413.583 31.8092 413.674 31.5127 413.852 31.2539L413.027 30.6886ZM412.585 32.1654C412.588 32.7255 412.74 33.2382 413.05 33.6858L413.872 33.1166C413.685 32.8466 413.587 32.5337 413.585 32.1606L412.585 32.1654ZM413.05 33.6858C413.353 34.1241 413.766 34.4604 414.272 34.6986L414.698 33.794C414.335 33.623 414.065 33.3959 413.872 33.1166L413.05 33.6858ZM414.272 34.6986C414.784 34.9398 415.357 35.0521 415.979 35.0492L415.974 34.0492C415.476 34.0515 415.055 33.9619 414.698 33.794L414.272 34.6986ZM415.979 35.0492C416.587 35.0462 417.148 34.932 417.649 34.6939L417.221 33.7905C416.871 33.9564 416.459 34.0468 415.974 34.0492L415.979 35.0492ZM417.649 34.6939C418.144 34.459 418.55 34.1309 418.85 33.7053L418.032 33.1294C417.842 33.3995 417.577 33.6213 417.221 33.7905L417.649 34.6939ZM418.853 33.7C419.154 33.2619 419.298 32.7602 419.295 32.2132L418.295 32.218C418.297 32.5777 418.205 32.8772 418.029 33.1347L418.853 33.7ZM413.286 21.9158L413.764 22.0641L413.767 22.0525L413.286 21.9158ZM413.683 21.3139L413.379 20.917L413.379 20.917L413.683 21.3139ZM415.313 21.3361L415.638 20.9558L415.631 20.9504L415.313 21.3361ZM415.736 21.9841L416.211 21.8273L416.211 21.8273L415.736 21.9841ZM415.875 23.8534L415.878 24.3534L416.378 24.351L416.375 23.851L415.875 23.8534ZM413.175 23.8663L412.675 23.8687L412.678 24.3687L413.178 24.3663L413.175 23.8663ZM412.509 24.6495L412.009 24.6519L412.011 25.1519L412.511 25.1495L412.509 24.6495ZM419.309 24.617L419.311 25.117L419.811 25.1146L419.809 24.6146L419.309 24.617ZM419.305 23.837L419.805 23.8346L419.803 23.3346L419.303 23.337L419.305 23.837ZM416.515 23.8504L416.015 23.8528L416.018 24.3528L416.518 24.3504L416.515 23.8504ZM416.499 22.5204L416 22.5466L416 22.5478L416.499 22.5204ZM416.467 22.1706L416.224 21.7339L415.922 21.902L415.973 22.2437L416.467 22.1706ZM419.29 20.597L419.533 21.0338L419.791 20.89L419.79 20.5947L419.29 20.597ZM419.285 19.7271L419.785 19.7247L419.781 18.8648L419.036 19.2937L419.285 19.7271ZM416.254 21.4716L415.794 21.6686L416.016 22.1854L416.503 21.905L416.254 21.4716ZM415.6 20.6247L415.296 21.0218L415.297 21.0228L415.6 20.6247ZM414.468 20.2801L414.473 19.7801L414.466 19.7801L414.468 20.2801ZM413.32 20.6156L413.622 21.0142L413.626 21.0108L413.32 20.6156ZM412.694 21.5186L413.167 21.6819L413.169 21.6745L412.694 21.5186ZM413.67 22.794C413.669 22.4993 413.703 22.2584 413.763 22.0641L412.808 21.7675C412.711 22.0806 412.668 22.4268 412.67 22.7988L413.67 22.794ZM413.767 22.0525C413.812 21.8928 413.887 21.7872 413.987 21.7108L413.379 20.917C413.093 21.1358 412.904 21.4314 412.805 21.7791L413.767 22.0525ZM413.987 21.7108C414.062 21.6538 414.212 21.5914 414.504 21.59L414.5 20.59C414.085 20.592 413.69 20.6788 413.379 20.917L413.987 21.7108ZM414.504 21.59C414.764 21.5887 414.909 21.6507 414.995 21.7217L415.631 20.9504C415.316 20.6901 414.92 20.588 414.5 20.59L414.504 21.59ZM414.988 21.7163C415.106 21.817 415.199 21.9526 415.261 22.1409L416.211 21.8273C416.097 21.483 415.908 21.1867 415.638 20.9558L414.988 21.7163ZM415.261 22.1409C415.331 22.3508 415.369 22.591 415.37 22.8658L416.37 22.861C416.369 22.4959 416.318 22.1498 416.211 21.8273L415.261 22.1409ZM415.37 22.8658L415.375 23.8558L416.375 23.851L416.37 22.861L415.37 22.8658ZM415.873 23.3534L413.173 23.3664L413.178 24.3663L415.878 24.3534L415.873 23.3534ZM413.675 23.864L413.67 22.794L412.67 22.7988L412.675 23.8687L413.675 23.864ZM412.511 25.1495L419.311 25.117L419.306 24.117L412.507 24.1495L412.511 25.1495ZM419.809 24.6146L419.805 23.8346L418.805 23.8394L418.809 24.6194L419.809 24.6146ZM419.303 23.337L416.513 23.3504L416.518 24.3504L419.308 24.337L419.303 23.337ZM417.015 23.848L417.011 22.888L416.011 22.8928L416.015 23.8528L417.015 23.848ZM417.011 22.888C417.01 22.765 417.006 22.6333 416.998 22.4931L416 22.5478C416.006 22.6742 416.01 22.7891 416.011 22.8928L417.011 22.888ZM416.998 22.4943C416.99 22.3453 416.979 22.2118 416.962 22.0975L415.973 22.2437C415.983 22.3159 415.993 22.4156 416 22.5466L416.998 22.4943ZM416.711 22.6073L419.533 21.0338L419.046 20.1603L416.224 21.7339L416.711 22.6073ZM419.79 20.5947L419.785 19.7247L418.785 19.7295L418.79 20.5994L419.79 20.5947ZM419.036 19.2937L416.004 21.0382L416.503 21.905L419.535 20.1604L419.036 19.2937ZM416.713 21.2746C416.532 20.8526 416.262 20.4998 415.902 20.2266L415.297 21.0228C415.513 21.1869 415.679 21.3987 415.794 21.6686L416.713 21.2746ZM415.904 20.2276C415.504 19.9221 415.015 19.7854 414.473 19.7801L414.463 20.7801C414.842 20.7838 415.106 20.8767 415.296 21.0218L415.904 20.2276ZM414.466 19.7801C413.912 19.7828 413.411 19.9124 413.013 20.2204L413.626 21.0108C413.8 20.876 414.065 20.7821 414.47 20.7801L414.466 19.7801ZM413.018 20.2171C412.637 20.5056 412.372 20.8949 412.219 21.3628L413.169 21.6745C413.265 21.3811 413.418 21.1685 413.622 21.0142L413.018 20.2171ZM412.221 21.3553C412.069 21.7977 411.998 22.2819 412 22.802L413 22.7972C412.998 22.3706 413.056 22.0008 413.167 21.6819L412.221 21.3553ZM412 22.802L412.009 24.6519L413.009 24.6472L413 22.7972L412 22.802Z" fill="#FFFDD8"/>
<path d="M380.561 57.2965L372.401 57.3355L372.405 57.9955L376.173 57.9775L376.192 62.1414L372.365 62.1597L372.428 62.8194L380.588 62.7804L380.584 62.1204L376.72 62.1389L376.701 57.9749L380.564 57.9564L380.561 57.2965ZM380.523 49.2407L372.363 49.2798L372.366 49.9397L380.526 49.9007L380.523 49.2407ZM376.937 39.7538L376.951 42.6937L377.479 42.5952L377.465 39.6552L376.937 39.7538ZM376.049 29.6722L376.062 32.4201L372.786 32.4358L372.769 28.9079L372.266 28.9943L372.285 33.0982L380.445 33.0592L380.442 32.3992L376.554 32.4178L376.541 29.5978L376.049 29.6722ZM380.391 21.7577L372.231 21.7968L372.235 22.4568L380.394 22.4177L380.391 21.7577Z" fill="black"/>
<path d="M380.561 57.2965L381.061 57.2941L381.059 56.7941L380.559 56.7965L380.561 57.2965ZM372.401 57.3355L372.399 56.8355L371.899 56.8379L371.901 57.3379L372.401 57.3355ZM372.405 57.9955L371.905 57.9979L371.907 58.4979L372.407 58.4955L372.405 57.9955ZM376.173 57.9775L376.673 57.9751L376.67 57.4751L376.17 57.4775L376.173 57.9775ZM376.192 62.1414L376.195 62.6414L376.695 62.639L376.692 62.139L376.192 62.1414ZM372.365 62.1597L372.362 61.6597L371.815 61.6624L371.867 62.2074L372.365 62.1597ZM372.428 62.8194L371.93 62.8671L371.973 63.3216L372.43 63.3194L372.428 62.8194ZM380.588 62.7804L380.59 63.2804L381.09 63.278L381.088 62.778L380.588 62.7804ZM380.584 62.1204L381.084 62.118L381.082 61.618L380.582 61.6204L380.584 62.1204ZM376.72 62.1389L376.22 62.1413L376.223 62.6413L376.723 62.6389L376.72 62.1389ZM376.701 57.9749L376.698 57.4749L376.198 57.4773L376.201 57.9773L376.701 57.9749ZM380.564 57.9564L380.567 58.4564L381.067 58.454L381.064 57.9541L380.564 57.9564ZM380.559 56.7965L372.399 56.8355L372.404 57.8355L380.564 57.7964L380.559 56.7965ZM371.901 57.3379L371.905 57.9979L372.905 57.9931L372.901 57.3331L371.901 57.3379ZM372.407 58.4955L376.175 58.4775L376.17 57.4775L372.402 57.4955L372.407 58.4955ZM375.673 57.9799L375.692 62.1438L376.692 62.139L376.673 57.9751L375.673 57.9799ZM376.19 61.6414L372.362 61.6597L372.367 62.6597L376.195 62.6414L376.19 61.6414ZM371.867 62.2074L371.93 62.8671L372.925 62.7718L372.862 62.1121L371.867 62.2074ZM372.43 63.3194L380.59 63.2804L380.585 62.2804L372.425 62.3194L372.43 63.3194ZM381.088 62.778L381.084 62.118L380.084 62.1228L380.088 62.7828L381.088 62.778ZM380.582 61.6204L376.718 61.6389L376.723 62.6389L380.587 62.6204L380.582 61.6204ZM377.22 62.1365L377.201 57.9725L376.201 57.9773L376.22 62.1413L377.22 62.1365ZM376.703 58.4749L380.567 58.4564L380.562 57.4565L376.698 57.4749L376.703 58.4749ZM381.064 57.9541L381.061 57.2941L380.061 57.2988L380.064 57.9588L381.064 57.9541ZM380.523 49.2407L381.023 49.2383L381.02 48.7383L380.52 48.7407L380.523 49.2407ZM372.363 49.2798L372.36 48.7798L371.86 48.7822L371.863 49.2821L372.363 49.2798ZM372.366 49.9397L371.866 49.9421L371.868 50.4421L372.368 50.4397L372.366 49.9397ZM380.526 49.9007L380.528 50.4007L381.028 50.3983L381.026 49.8983L380.526 49.9007ZM380.52 48.7407L372.36 48.7798L372.365 49.7797L380.525 49.7407L380.52 48.7407ZM371.863 49.2821L371.866 49.9421L372.866 49.9374L372.863 49.2774L371.863 49.2821ZM372.368 50.4397L380.528 50.4007L380.524 49.4007L372.364 49.4398L372.368 50.4397ZM381.026 49.8983L381.023 49.2383L380.023 49.2431L380.026 49.9031L381.026 49.8983ZM376.937 39.7538L376.846 39.2623L376.435 39.3389L376.437 39.7561L376.937 39.7538ZM376.951 42.6937L376.451 42.6961L376.454 43.2952L377.043 43.1852L376.951 42.6937ZM377.479 42.5952L377.571 43.0867L377.981 43.0101L377.979 42.5928L377.479 42.5952ZM377.465 39.6552L377.965 39.6528L377.962 39.0537L377.373 39.1637L377.465 39.6552ZM376.437 39.7561L376.451 42.6961L377.451 42.6913L377.437 39.7514L376.437 39.7561ZM377.043 43.1852L377.571 43.0867L377.387 42.1037L376.86 42.2022L377.043 43.1852ZM377.979 42.5928L377.965 39.6528L376.965 39.6576L376.979 42.5976L377.979 42.5928ZM377.373 39.1637L376.846 39.2623L377.029 40.2453L377.557 40.1467L377.373 39.1637ZM376.049 29.6722L375.974 29.1778L375.547 29.2424L375.549 29.6746L376.049 29.6722ZM376.062 32.4201L376.065 32.9201L376.565 32.9177L376.562 32.4177L376.062 32.4201ZM372.786 32.4358L372.286 32.4382L372.289 32.9382L372.789 32.9358L372.786 32.4358ZM372.769 28.9079L373.269 28.9055L373.267 28.3152L372.685 28.4151L372.769 28.9079ZM372.266 28.9943L372.181 28.5015L371.764 28.5731L371.766 28.9967L372.266 28.9943ZM372.285 33.0982L371.785 33.1006L371.788 33.6006L372.288 33.5982L372.285 33.0982ZM380.445 33.0592L380.448 33.5592L380.948 33.5568L380.945 33.0568L380.445 33.0592ZM380.442 32.3992L380.942 32.3968L380.94 31.8968L380.44 31.8992L380.442 32.3992ZM376.554 32.4178L376.054 32.4202L376.057 32.9202L376.557 32.9178L376.554 32.4178ZM376.541 29.5978L377.041 29.5954L377.038 29.0169L376.466 29.1034L376.541 29.5978ZM375.549 29.6746L375.562 32.4225L376.562 32.4177L376.549 29.6698L375.549 29.6746ZM376.06 31.9201L372.784 31.9358L372.789 32.9358L376.065 32.9201L376.06 31.9201ZM373.286 32.4334L373.269 28.9055L372.269 28.9103L372.286 32.4382L373.286 32.4334ZM372.685 28.4151L372.181 28.5015L372.35 29.4871L372.854 29.4007L372.685 28.4151ZM371.766 28.9967L371.785 33.1006L372.785 33.0958L372.766 28.9919L371.766 28.9967ZM372.288 33.5982L380.448 33.5592L380.443 32.5592L372.283 32.5982L372.288 33.5982ZM380.945 33.0568L380.942 32.3968L379.942 32.4016L379.945 33.0616L380.945 33.0568ZM380.44 31.8992L376.552 31.9178L376.557 32.9178L380.445 32.8992L380.44 31.8992ZM377.054 32.4154L377.041 29.5954L376.041 29.6002L376.054 32.4202L377.054 32.4154ZM376.466 29.1034L375.974 29.1778L376.124 30.1665L376.615 30.0922L376.466 29.1034ZM380.391 21.7577L380.891 21.7553L380.889 21.2553L380.389 21.2577L380.391 21.7577ZM372.231 21.7968L372.229 21.2968L371.729 21.2992L371.731 21.7992L372.231 21.7968ZM372.235 22.4568L371.735 22.4592L371.737 22.9592L372.237 22.9568L372.235 22.4568ZM380.394 22.4177L380.397 22.9177L380.897 22.9153L380.894 22.4153L380.394 22.4177ZM380.389 21.2577L372.229 21.2968L372.234 22.2968L380.394 22.2577L380.389 21.2577ZM371.731 21.7992L371.735 22.4592L372.735 22.4544L372.731 21.7944L371.731 21.7992ZM372.237 22.9568L380.397 22.9177L380.392 21.9177L372.232 21.9568L372.237 22.9568ZM380.894 22.4153L380.891 21.7553L379.891 21.7601L379.894 22.4201L380.894 22.4153Z" fill="#FFFDD8"/>
<line x1="408.087" y1="62.6432" x2="407.877" y2="18.6437" stroke="#FFFDD8"/>
<rect x="285.828" y="86.3545" width="86.8726" height="18.635" transform="rotate(-90.328 285.828 86.3545)" fill="#FB3DFF"/>
<rect x="309.461" y="86.4279" width="86.8726" height="18.635" transform="rotate(-90.328 309.461 86.4279)" fill="#6F3DFF"/>
<rect x="332.46" y="86.6286" width="86.8726" height="18.635" transform="rotate(-90.328 332.46 86.6286)" fill="#FF833D"/>
<path d="M456.148 1.24136L456.246 79.2452C447.315 70.6135 416.959 35.6176 456.148 1.24136Z" fill="#251E1A"/>
<defs>
<filter id="filter0_d_0_1" x="-4.04126" y="-1.17215" width="464.368" height="96.143" filterUnits="userSpaceOnUse" color-interpolation-filters="sRGB">
<feFlood flood-opacity="0" result="BackgroundImageFix"/>
<feColorMatrix in="SourceAlpha" type="matrix" values="0 0 0 0 0 0 0 0 0 0 0 0 0 0 0 0 0 0 127 0" result="hardAlpha"/>
<feOffset dy="4"/>
<feGaussianBlur stdDeviation="2"/>
<feComposite in2="hardAlpha" operator="out"/>
<feColorMatrix type="matrix" values="0 0 0 0 0 0 0 0 0 0 0 0 0 0 0 0 0 0 0.25 0"/>
<feBlend mode="normal" in2="BackgroundImageFix" result="effect1_dropShadow_0_1"/>
<feBlend mode="normal" in="SourceGraphic" in2="effect1_dropShadow_0_1" result="shape"/>
</filter>
</defs>
</svg>
