<svg width="128" height="467" viewBox="0 0 128 467" fill="none" xmlns="http://www.w3.org/2000/svg">
<g filter="url(#filter0_d_301_269)">
<g filter="url(#filter1_d_301_269)">
<rect x="20.4656" y="2.02112" width="86" height="456" rx="4" transform="rotate(0.25 20.4656 2.02112)" fill="#B84040"/>
<rect x="20.7145" y="2.27221" width="85.5" height="455.5" rx="3.75" transform="rotate(0.25 20.7145 2.27221)" stroke="black" stroke-width="0.5"/>
</g>
<path d="M71.9659 57.9841C71.974 56.1174 72.5052 54.7081 73.5593 53.756C74.6368 52.804 76.1672 52.3324 78.1506 52.341L79.5505 52.3471L79.5347 55.9871L77.8547 55.9798C76.268 55.9728 75.4718 56.6344 75.466 57.9644C75.4631 58.6177 75.6477 59.1085 76.0196 59.4368C76.4147 59.7885 77.0439 59.9663 77.9073 59.97C78.9339 59.9745 79.8333 59.7451 80.6053 59.2818C81.4007 58.8186 82.3494 57.9594 83.4516 56.7042C84.8585 55.1236 86.1233 54.0208 87.246 53.3957C88.3921 52.7707 89.6768 52.4613 91.1001 52.4675C93.0368 52.476 94.528 52.9725 95.5737 53.9571C96.6427 54.9417 97.1732 56.3674 97.165 58.234C97.157 60.0774 96.6143 61.4633 95.5369 62.392C94.4827 63.3441 92.964 63.8158 90.9806 63.8071L89.9657 63.8027L89.9815 60.1627L91.2415 60.1682C92.0815 60.1719 92.6889 60.0112 93.0636 59.6862C93.4617 59.3612 93.6621 58.8838 93.6649 58.2538C93.6705 56.9704 92.8916 56.3254 91.3283 56.3186C90.4417 56.3147 89.6123 56.5444 88.8403 57.0077C88.0682 57.4943 87.131 58.3653 86.0289 59.6205C84.6219 61.2243 83.3454 62.3271 82.1994 62.9288C81.0534 63.5305 79.7104 63.8279 78.1705 63.8212C76.1638 63.8125 74.626 63.3041 73.5571 62.2961C72.488 61.3114 71.9576 59.8741 71.9659 57.9841ZM93.2675 69.1046L93.2851 65.0796L96.7851 65.0949L96.7332 76.9948L93.2332 76.9795L93.2508 72.9546L72.251 72.8629L72.2677 69.013L93.2675 69.1046ZM96.7191 80.2273L96.6963 85.4423L72.1791 89.3254L72.1959 85.4754L77.0639 84.7966L76.9939 84.7963L77.013 80.4214L72.2211 79.7004L72.2367 76.1305L96.7191 80.2273ZM80.3209 84.3558L92.4382 82.6937L92.4386 82.6237L80.336 80.8909L80.3209 84.3558ZM96.6707 91.3001L96.6263 101.485L93.1263 101.47L93.154 95.1348L86.329 95.105L86.3074 100.075L82.8074 100.06L82.8291 95.0897L72.1542 95.0432L72.171 91.1932L96.6707 91.3001ZM96.6182 103.331L96.5738 113.516L93.0738 113.501L93.1015 107.166L86.2765 107.136L86.2549 112.106L82.7549 112.091L82.7766 107.121L72.1017 107.074L72.1185 103.224L96.6182 103.331ZM71.674 124.884C71.6801 123.484 72.163 122.425 73.1228 121.706C74.0827 120.986 75.4726 120.631 77.2925 120.639L79.8475 120.65C81.1308 120.656 82.2032 120.882 83.0646 121.329C83.926 121.776 84.5528 122.502 84.9451 123.507L85.0151 123.508C85.3924 122.599 85.9903 121.925 86.8089 121.485C87.6508 121.069 88.725 120.864 90.0317 120.869L90.4866 120.871C92.47 120.88 93.9729 121.365 94.9953 122.326C96.0178 123.287 96.5249 124.724 96.5165 126.638L96.4973 131.048L92.9973 131.032L93.0163 126.692C93.019 126.062 92.8345 125.572 92.4627 125.22C92.0908 124.892 91.4848 124.726 90.6448 124.722L89.1399 124.716C88.2065 124.711 87.5407 124.895 87.1424 125.267C86.744 125.662 86.5432 126.244 86.5398 127.014L86.5332 128.519L89.2632 128.531L89.2467 132.311L86.5167 132.299L86.512 133.384L83.012 133.369L83.0168 132.284L74.9669 132.249C74.2669 132.246 73.6951 132.267 73.2516 132.311C72.8314 132.356 72.4109 132.471 71.9901 132.656L72.0069 128.806C72.521 128.621 73.1632 128.508 73.9334 128.464L73.9337 128.394C73.1655 127.971 72.596 127.478 72.2251 126.917C71.8541 126.378 71.6704 125.701 71.674 124.884ZM75.1677 126.335C75.1624 127.548 75.8943 128.263 77.3633 128.479L83.0333 128.504L83.0397 127.034C83.0436 126.147 82.8014 125.505 82.3131 125.106C81.8482 124.707 81.0557 124.505 79.9357 124.5L77.4507 124.49C76.6341 124.486 76.05 124.647 75.6986 124.972C75.3472 125.297 75.1702 125.751 75.1677 126.335ZM71.5797 146.484C71.5878 144.641 72.1189 143.232 73.1732 142.256C74.2273 141.304 75.7111 140.832 77.6244 140.841L90.7843 140.898C92.6976 140.906 94.1771 141.391 95.223 142.352C96.2687 143.337 96.7875 144.751 96.7795 146.594C96.7714 148.438 96.2403 149.835 95.1862 150.787C94.1319 151.763 92.6481 152.246 90.7348 152.238L88.1448 152.227L88.1607 148.587L90.9957 148.599C92.5123 148.606 93.2734 147.967 93.279 146.684C93.2846 145.401 92.5291 144.756 91.0125 144.749L77.3276 144.689C75.8343 144.683 75.0848 145.321 75.0792 146.605C75.0736 147.888 75.8175 148.533 77.3108 148.539L81.0558 148.556L81.0399 152.196L77.5749 152.181C75.6616 152.172 74.1821 151.676 73.1364 150.691C72.0906 149.73 71.5717 148.328 71.5797 146.484ZM71.5205 160.058C71.5286 158.191 72.0598 156.77 73.1141 155.795C74.1917 154.819 75.7222 154.336 77.7055 154.345L96.3953 154.426L96.3785 158.276L77.4087 158.193C76.5687 158.19 75.9613 158.35 75.5866 158.675C75.2117 159.024 75.0229 159.513 75.0201 160.143C75.0174 160.773 75.202 161.252 75.5739 161.58C75.9457 161.932 76.5516 162.11 77.3916 162.113L96.3614 162.196L96.3452 165.906L77.6554 165.824C75.6721 165.816 74.1459 165.319 73.0768 164.334C72.0311 163.35 71.5123 161.924 71.5205 160.058ZM71.4616 173.545C71.4698 171.678 72.0009 170.268 73.0551 169.316C74.1326 168.364 75.663 167.893 77.6463 167.901L79.0463 167.908L79.0304 171.548L77.3504 171.54C75.7638 171.533 74.9676 172.195 74.9618 173.525C74.9589 174.178 75.1434 174.669 75.5153 174.997C75.9105 175.349 76.5397 175.527 77.403 175.53C78.4297 175.535 79.329 175.306 80.1011 174.842C80.8964 174.379 81.8452 173.52 82.9473 172.265C84.3542 170.684 85.6191 169.581 86.7418 168.956C87.8879 168.331 89.1726 168.022 90.5959 168.028C92.5325 168.036 94.0237 168.533 95.0694 169.517C96.1385 170.502 96.6689 171.928 96.6608 173.794C96.6527 175.638 96.11 177.024 95.0326 177.952C93.9785 178.904 92.4597 179.376 90.4764 179.368L89.4614 179.363L89.4773 175.723L90.7373 175.729C91.5773 175.732 92.1847 175.572 92.5594 175.247C92.9575 174.922 93.1579 174.444 93.1607 173.814C93.1663 172.531 92.3874 171.886 90.8241 171.879C89.9374 171.875 89.1081 172.105 88.3361 172.568C87.5639 173.055 86.6268 173.926 85.5246 175.181C84.1176 176.785 82.8411 177.888 81.6952 178.489C80.5492 179.091 79.2062 179.388 77.6662 179.382C75.6596 179.373 74.1218 178.864 73.0528 177.856C71.9838 176.872 71.4534 175.434 71.4616 173.545ZM92.7633 184.665L92.7809 180.64L96.2808 180.655L96.2289 192.555L92.729 192.54L92.7465 188.515L71.7467 188.423L71.7635 184.573L92.7633 184.665ZM71.3473 199.739C71.3556 197.849 71.8986 196.405 72.9763 195.406C74.054 194.407 75.5728 193.912 77.5328 193.921L90.4127 193.977C92.3726 193.986 93.8871 194.494 94.9561 195.502C96.025 196.51 96.5553 197.959 96.5471 199.849C96.5389 201.739 95.9959 203.183 94.9182 204.182C93.8405 205.181 92.3216 205.676 90.3617 205.667L77.4818 205.611C75.5218 205.602 74.0073 205.094 72.9384 204.086C71.8694 203.078 71.3391 201.629 71.3473 199.739ZM74.8473 199.754C74.8415 201.084 75.6436 201.753 77.2536 201.76L90.6235 201.818C92.2334 201.825 93.0413 201.164 93.0471 199.834C93.0529 198.504 92.2508 197.835 90.6409 197.828L77.271 197.77C75.661 197.763 74.8531 198.424 74.8473 199.754ZM96.1602 208.296L96.1363 213.791L78.5907 216.164L78.5904 216.234L96.1146 218.761L96.0906 224.256L71.5908 224.149L71.6067 220.509L90.1565 220.59L90.1568 220.52L71.6192 217.639L71.6333 214.419L90.1953 211.7L90.1956 211.63L71.6458 211.549L71.6605 208.189L96.1602 208.296ZM96.0781 227.129L96.0323 237.629L92.5323 237.613L92.5613 230.964L86.0864 230.935L86.0633 236.22L82.5633 236.205L82.5864 230.92L75.0615 230.887L75.0325 237.537L71.5325 237.522L71.5783 227.022L96.0781 227.129ZM96.0226 239.844L95.9977 245.549C95.989 247.532 95.5161 248.976 94.5788 249.882C93.6648 250.788 92.2512 251.237 90.3379 251.229L88.8329 251.222C86.2896 251.211 84.6832 250.364 84.0139 248.681L83.9439 248.681C83.6598 249.613 83.0853 250.264 82.2204 250.633C81.3553 251.026 80.1995 251.22 78.7528 251.213L74.4479 251.195C73.7479 251.192 73.1761 251.212 72.7326 251.257C72.3124 251.302 71.8919 251.417 71.4711 251.602L71.4882 247.682C71.8854 247.543 72.2592 247.452 72.6094 247.406C72.9596 247.361 73.5897 247.341 74.4997 247.345L78.9796 247.364C80.0996 247.369 80.8821 247.186 81.327 246.815C81.7719 246.466 81.9963 245.849 82.0001 244.962L82.0059 243.632L71.506 243.587L71.5228 239.737L96.0226 239.844ZM85.4998 245.048C85.4964 245.818 85.6923 246.39 86.0873 246.765C86.4822 247.164 87.1464 247.365 88.0797 247.369L89.9697 247.377C90.8563 247.381 91.4987 247.221 91.8968 246.896C92.2948 246.594 92.4952 246.105 92.4982 245.428L92.5058 243.678L85.5059 243.648L85.4998 245.048ZM67.8342 53.781L67.8078 59.831L29.3081 59.663L29.3345 53.613L67.8342 53.781ZM67.788 64.362L67.7549 71.9519L44.6844 77.7363L44.6839 77.8463L67.7287 77.9468L67.7052 83.3368L29.2056 83.1688L29.2327 76.9539L57.3691 69.8166L57.3696 69.7066L29.2649 69.5839L29.2884 64.194L67.788 64.362ZM62.165 92.5394L62.1926 86.2144L67.6925 86.2384L67.611 104.938L62.111 104.914L62.1386 98.5893L29.1389 98.4453L29.1653 92.3954L62.165 92.5394ZM67.5982 107.867L67.5262 124.367L62.0262 124.343L62.0718 113.893L51.8969 113.849L51.8607 122.154L46.3607 122.13L46.397 113.825L34.5721 113.773L34.5265 124.223L29.0265 124.199L29.0985 107.699L67.5982 107.867ZM67.511 127.848L67.4719 136.813C67.4583 139.929 66.715 142.199 65.2421 143.623C63.8059 145.047 61.5845 145.752 58.5778 145.739L56.2129 145.729C52.2162 145.711 49.692 144.38 48.6402 141.735L48.5302 141.735C48.0838 143.2 47.181 144.222 45.8218 144.803C44.4624 145.421 42.6461 145.724 40.3728 145.714L33.6078 145.685C32.5079 145.68 31.6094 145.713 30.9124 145.783C30.2521 145.854 29.5913 146.034 28.93 146.325L28.9569 140.165C29.5812 139.947 30.1685 139.803 30.7188 139.732C31.2691 139.661 32.2593 139.629 33.6892 139.635L40.7292 139.666C42.4892 139.674 43.7188 139.386 44.418 138.802C45.117 138.255 45.4696 137.285 45.4757 135.892L45.4848 133.802L28.985 133.73L29.0114 127.68L67.511 127.848ZM50.9752 136.026C50.9699 137.236 51.2776 138.135 51.8984 138.725C52.519 139.351 53.5626 139.667 55.0293 139.673L57.9992 139.686C59.3926 139.692 60.402 139.44 61.0276 138.93C61.653 138.456 61.968 137.687 61.9726 136.624L61.9846 133.874L50.9848 133.826L50.9752 136.026ZM67.4221 148.22L67.3955 154.325L37.5135 158.155L37.513 158.265L67.3604 162.355L67.3362 167.91L28.862 161.912L28.897 153.882L67.4221 148.22ZM67.3235 170.816L67.2971 176.866L28.7975 176.698L28.8239 170.648L67.3235 170.816ZM67.2773 181.397L67.2053 197.897L61.7054 197.873L61.751 187.423L51.5761 187.379L51.5399 195.683L46.0399 195.659L46.0761 187.355L34.2513 187.303L34.2057 197.753L28.7057 197.729L28.7777 181.229L67.2773 181.397ZM67.1964 199.947L67.171 205.777L37.5695 208.343L37.569 208.453L67.1462 211.442L67.1174 218.042L37.5152 220.773L37.5148 220.883L67.0927 223.707L67.0699 228.932L28.5873 224.859L28.6202 217.324L54.592 214.687L54.5924 214.577L28.6447 211.714L28.6797 203.684L67.1964 199.947ZM27.9726 239.687C27.9854 236.753 28.8201 234.539 30.4766 233.043C32.1699 231.547 34.5748 230.805 37.6914 230.819L39.8914 230.829L39.8664 236.549L37.2265 236.537C34.7331 236.526 33.4819 237.566 33.4728 239.656C33.4683 240.682 33.7583 241.454 34.3427 241.97C34.9637 242.522 35.9524 242.802 37.3091 242.808C38.9224 242.815 40.3357 242.454 41.5489 241.726C42.7987 240.998 44.2896 239.648 46.0216 237.675C48.2324 235.192 50.22 233.459 51.9843 232.476C53.7853 231.494 55.8041 231.008 58.0407 231.018C61.084 231.031 63.4273 231.811 65.0706 233.359C66.7505 234.906 67.5841 237.146 67.5713 240.08C67.5587 242.976 66.7058 245.154 65.0128 246.613C63.3562 248.11 60.9696 248.851 57.853 248.837L56.258 248.83L56.283 243.11L58.2629 243.119C59.5829 243.125 60.5374 242.872 61.1263 242.361C61.7518 241.851 62.0668 241.101 62.0711 240.111C62.0799 238.094 60.856 237.08 58.3993 237.069C57.006 237.063 55.7028 237.424 54.4896 238.152C53.2762 238.917 51.8036 240.286 50.0716 242.258C47.8606 244.779 45.8547 246.511 44.0539 247.457C42.2531 248.402 40.1427 248.87 37.7227 248.859C34.5694 248.846 32.1529 248.047 30.4731 246.463C28.7932 244.915 27.9597 242.657 27.9726 239.687Z" fill="black"/>
<path d="M85.5755 275.003L85.5634 277.778L71.9806 279.518L71.9804 279.568L85.5474 281.427L85.5364 283.952L68.0482 281.226L68.0641 277.576L85.5755 275.003ZM67.7637 289.122C67.7696 287.772 68.1574 286.74 68.9272 286.027C69.697 285.314 70.7819 284.96 72.1819 284.966L81.3818 285.006C82.7818 285.013 83.8635 285.376 84.6271 286.096C85.3906 286.816 85.7694 287.851 85.7635 289.201C85.7576 290.551 85.3698 291.582 84.6 292.296C83.8302 293.009 82.7453 293.362 81.3454 293.356L72.1454 293.316C70.7455 293.31 69.6637 292.947 68.9002 292.227C68.1366 291.507 67.7578 290.472 67.7637 289.122ZM70.2637 289.133C70.2595 290.083 70.8325 290.56 71.9824 290.565L81.5323 290.607C82.6823 290.612 83.2594 290.14 83.2636 289.19C83.2677 288.24 82.6948 287.762 81.5448 287.757L71.9949 287.715C70.8449 287.71 70.2678 288.183 70.2637 289.133ZM85.4872 295.234L85.4752 297.984L70.4753 297.919L70.4556 302.444L67.9556 302.433L67.9874 295.158L85.4872 295.234ZM67.6824 307.75C67.6882 306.417 68.0677 305.402 68.8207 304.705C69.5904 304.009 70.6836 303.663 72.1003 303.67L85.4501 303.728L85.4381 306.478L71.8883 306.419C71.2883 306.416 70.8544 306.531 70.5868 306.763C70.319 307.012 70.1841 307.361 70.1822 307.811C70.1802 308.261 70.3121 308.604 70.5777 308.838C70.8433 309.089 71.2761 309.216 71.876 309.219L85.4259 309.278L85.4144 311.928L72.0645 311.87C70.6478 311.863 69.5577 311.509 68.7941 310.805C68.0472 310.102 67.6766 309.084 67.6824 307.75ZM85.4058 313.886L85.3887 317.811L72.8562 319.507L72.856 319.557L85.3732 321.361L85.3561 325.286L67.8562 325.21L67.8676 322.61L81.1175 322.668L81.1177 322.618L67.8765 320.56L67.8866 318.26L81.1452 316.318L81.1454 316.268L67.8955 316.21L67.906 313.81L85.4058 313.886ZM85.3471 327.338L85.3144 334.838L82.8144 334.827L82.8351 330.077L78.2102 330.057L78.1937 333.832L75.6937 333.821L75.7102 330.046L70.3353 330.023L70.3145 334.773L67.8146 334.762L67.8473 327.262L85.3471 327.338ZM67.5418 339.967C67.5477 338.633 67.9271 337.627 68.68 336.947C69.4497 336.267 70.5428 335.93 71.9595 335.936L72.9595 335.94L72.9481 338.54L71.7481 338.535C70.6148 338.53 70.0461 339.003 70.0419 339.953C70.0399 340.419 70.1717 340.77 70.4373 341.004C70.7196 341.256 71.169 341.382 71.7857 341.385C72.519 341.388 73.1614 341.225 73.7129 340.894C74.281 340.563 74.9587 339.949 75.7459 339.052C76.7508 337.923 77.6543 337.136 78.4562 336.689C79.2749 336.243 80.1925 336.022 81.2092 336.026C82.5925 336.032 83.6576 336.387 84.4046 337.09C85.1682 337.794 85.5471 338.812 85.5412 340.145C85.5355 341.462 85.1478 342.452 84.3783 343.115C83.6253 343.795 82.5405 344.132 81.1238 344.126L80.3988 344.123L80.4102 341.523L81.3102 341.527C81.9102 341.529 82.344 341.415 82.6117 341.182C82.896 340.95 83.0392 340.609 83.0412 340.159C83.0452 339.243 82.4888 338.782 81.3722 338.777C80.7388 338.774 80.1465 338.938 79.595 339.269C79.0435 339.617 78.3741 340.239 77.5868 341.135C76.5818 342.281 75.6701 343.069 74.8515 343.499C74.033 343.928 73.0737 344.141 71.9737 344.136C70.5404 344.13 69.4419 343.767 68.6784 343.047C67.9148 342.343 67.536 341.317 67.5418 339.967ZM51.3332 296.067L51.3458 293.192L53.2958 293.2C53.2924 293.983 53.3563 294.609 53.4876 295.076C53.6188 295.56 53.8338 295.944 54.1326 296.229C54.448 296.513 54.8969 296.765 55.4793 296.985L55.4712 298.835L37.9714 298.758L37.9834 296.008L51.3332 296.067ZM47.9581 301.812L47.9341 307.312L45.4342 307.301L45.4582 301.801L47.9581 301.812ZM37.6601 312.805C37.666 311.455 38.0454 310.432 38.7985 309.735C39.5515 309.055 40.6279 308.718 42.0279 308.724L43.4529 308.73L43.4416 311.33L41.8916 311.324C40.7416 311.318 40.1645 311.791 40.1604 312.741C40.1583 313.208 40.2985 313.558 40.5808 313.793C40.8797 314.044 41.3958 314.171 42.1291 314.175L43.5541 314.181C44.3541 314.184 44.9214 314.045 45.256 313.763C45.6072 313.481 45.7842 313.024 45.787 312.391L45.791 311.466L48.291 311.476L48.2866 312.476C48.2842 313.026 48.4241 313.435 48.7063 313.703C48.9884 313.988 49.4627 314.132 50.1294 314.134L51.4044 314.14C52.0044 314.143 52.4466 314.02 52.731 313.771C53.0154 313.522 53.1585 313.189 53.1604 312.773C53.1642 311.889 52.6245 311.445 51.5412 311.441L50.3912 311.436L50.4025 308.836L51.3275 308.84C52.7275 308.846 53.801 309.192 54.548 309.879C55.2949 310.582 55.6656 311.584 55.6599 312.884C55.6542 314.2 55.2748 315.199 54.5218 315.879C53.7855 316.559 52.7174 316.896 51.3174 316.89L50.6924 316.887C49.7424 316.883 48.9764 316.721 48.3945 316.402C47.8292 316.083 47.423 315.589 47.1759 314.922L47.1259 314.921C46.8561 315.637 46.4206 316.152 45.8192 316.466C45.2178 316.78 44.4505 316.935 43.5171 316.931L41.9671 316.924C40.5672 316.918 39.4937 316.563 38.7468 315.86C38.0164 315.173 37.6542 314.155 37.6601 312.805ZM41.0383 323.53L41.0612 318.28L43.5612 318.291L55.3643 323.342L55.3512 326.342L43.5263 326.291L43.5206 327.591L41.0206 327.58L41.0263 326.28L37.8513 326.266L37.8633 323.516L41.0383 323.53ZM43.5383 323.541L50.3632 323.57L50.3634 323.52L43.5503 320.791L43.5383 323.541Z" fill="black"/>
<mask id="path-5-outside-1_301_269" maskUnits="userSpaceOnUse" x="39.508" y="427.722" width="39.0738" height="17.17" fill="black">
<rect fill="white" x="39.508" y="427.722" width="39.0738" height="17.17"/>
<path d="M43.485 428.999L41.9239 429.252L47.085 442.755L48.605 442.762L53.7043 429.184L52.1643 429.177L47.8541 440.678L43.485 428.999ZM65.2524 442.834L65.3117 429.234L63.7317 429.228L63.705 435.348L57.3051 435.32L57.3322 429.1L55.7718 429.193L55.7125 442.793L57.2724 442.8L57.2996 436.58L63.6995 436.608L63.6724 442.827L65.2524 442.834ZM68.1969 442.187C68.3831 442.308 68.6226 442.429 68.9154 442.55C69.2082 442.658 69.5345 442.753 69.8941 442.835C70.2538 442.916 70.6068 442.984 70.9532 443.039C71.313 443.094 71.6329 443.122 71.9129 443.123C72.9395 443.128 73.8069 442.978 74.5149 442.675C75.2362 442.371 75.7847 441.954 76.1604 441.422C76.5493 440.89 76.7454 440.278 76.7484 439.584C76.7505 439.091 76.6724 438.657 76.5141 438.283C76.3557 437.896 76.1239 437.548 75.8186 437.24C75.5133 436.932 75.1412 436.644 74.7024 436.376C74.2635 436.107 73.7513 435.845 73.1658 435.589C72.3808 435.199 71.7156 434.856 71.1702 434.56C70.6249 434.251 70.213 433.923 69.9345 433.575C69.6694 433.227 69.5379 432.813 69.54 432.333C69.5427 431.693 69.8116 431.194 70.3465 430.836C70.8947 430.479 71.5955 430.302 72.4488 430.306C72.9022 430.308 73.2953 430.349 73.6283 430.431C73.9747 430.499 74.2809 430.587 74.5471 430.695C74.8267 430.803 75.0795 430.91 75.3057 431.018L75.8511 429.8C75.4253 429.585 74.9062 429.39 74.2936 429.214C73.681 429.038 73.0414 428.948 72.3748 428.945C71.4814 428.941 70.7074 429.091 70.0528 429.395C69.4114 429.699 68.9097 430.104 68.5475 430.609C68.1986 431.114 68.0227 431.693 68.0199 432.346C68.0178 432.813 68.0893 433.24 68.2343 433.627C68.3926 434.015 68.6177 434.376 68.9096 434.71C69.2148 435.032 69.5869 435.333 70.0256 435.615C70.4778 435.884 70.9966 436.153 71.5821 436.422C72.3674 436.745 73.026 437.062 73.558 437.371C74.0901 437.666 74.4887 437.988 74.7538 438.336C75.0323 438.684 75.1705 439.104 75.1683 439.598C75.1665 440.011 75.0382 440.39 74.7833 440.736C74.5419 441.068 74.1808 441.327 73.6999 441.511C73.2191 441.696 72.6187 441.786 71.8987 441.783C71.4854 441.782 71.0656 441.74 70.6393 441.658C70.213 441.563 69.8202 441.448 69.4608 441.313C69.1147 441.178 68.8152 441.057 68.5623 440.949L68.1969 442.187Z"/>
</mask>
<path d="M43.485 428.999L41.9239 429.252L47.085 442.755L48.605 442.762L53.7043 429.184L52.1643 429.177L47.8541 440.678L43.485 428.999ZM65.2524 442.834L65.3117 429.234L63.7317 429.228L63.705 435.348L57.3051 435.32L57.3322 429.1L55.7718 429.193L55.7125 442.793L57.2724 442.8L57.2996 436.58L63.6995 436.608L63.6724 442.827L65.2524 442.834ZM68.1969 442.187C68.3831 442.308 68.6226 442.429 68.9154 442.55C69.2082 442.658 69.5345 442.753 69.8941 442.835C70.2538 442.916 70.6068 442.984 70.9532 443.039C71.313 443.094 71.6329 443.122 71.9129 443.123C72.9395 443.128 73.8069 442.978 74.5149 442.675C75.2362 442.371 75.7847 441.954 76.1604 441.422C76.5493 440.89 76.7454 440.278 76.7484 439.584C76.7505 439.091 76.6724 438.657 76.5141 438.283C76.3557 437.896 76.1239 437.548 75.8186 437.24C75.5133 436.932 75.1412 436.644 74.7024 436.376C74.2635 436.107 73.7513 435.845 73.1658 435.589C72.3808 435.199 71.7156 434.856 71.1702 434.56C70.6249 434.251 70.213 433.923 69.9345 433.575C69.6694 433.227 69.5379 432.813 69.54 432.333C69.5427 431.693 69.8116 431.194 70.3465 430.836C70.8947 430.479 71.5955 430.302 72.4488 430.306C72.9022 430.308 73.2953 430.349 73.6283 430.431C73.9747 430.499 74.2809 430.587 74.5471 430.695C74.8267 430.803 75.0795 430.91 75.3057 431.018L75.8511 429.8C75.4253 429.585 74.9062 429.39 74.2936 429.214C73.681 429.038 73.0414 428.948 72.3748 428.945C71.4814 428.941 70.7074 429.091 70.0528 429.395C69.4114 429.699 68.9097 430.104 68.5475 430.609C68.1986 431.114 68.0227 431.693 68.0199 432.346C68.0178 432.813 68.0893 433.24 68.2343 433.627C68.3926 434.015 68.6177 434.376 68.9096 434.71C69.2148 435.032 69.5869 435.333 70.0256 435.615C70.4778 435.884 70.9966 436.153 71.5821 436.422C72.3674 436.745 73.026 437.062 73.558 437.371C74.0901 437.666 74.4887 437.988 74.7538 438.336C75.0323 438.684 75.1705 439.104 75.1683 439.598C75.1665 440.011 75.0382 440.39 74.7833 440.736C74.5419 441.068 74.1808 441.327 73.6999 441.511C73.2191 441.696 72.6187 441.786 71.8987 441.783C71.4854 441.782 71.0656 441.74 70.6393 441.658C70.213 441.563 69.8202 441.448 69.4608 441.313C69.1147 441.178 68.8152 441.057 68.5623 440.949L68.1969 442.187Z" fill="black"/>
<path d="M43.485 428.999L44.4216 428.649L44.1343 427.881L43.3249 428.012L43.485 428.999ZM41.9239 429.252L41.7638 428.265L40.5512 428.462L40.9898 429.609L41.9239 429.252ZM47.085 442.755L46.151 443.112L46.3956 443.752L47.0807 443.755L47.085 442.755ZM48.605 442.762L48.6007 443.762L49.2965 443.765L49.5412 443.113L48.605 442.762ZM53.7043 429.184L54.6405 429.535L55.1457 428.19L53.7087 428.184L53.7043 429.184ZM52.1643 429.177L52.1687 428.177L51.4723 428.174L51.2279 428.826L52.1643 429.177ZM47.8541 440.678L46.9175 441.029L47.8533 443.53L48.7905 441.029L47.8541 440.678ZM43.3249 428.012L41.7638 428.265L42.084 430.24L43.6451 429.986L43.3249 428.012ZM40.9898 429.609L46.151 443.112L48.0191 442.398L42.858 428.895L40.9898 429.609ZM47.0807 443.755L48.6007 443.762L48.6094 441.762L47.0894 441.755L47.0807 443.755ZM49.5412 443.113L54.6405 429.535L52.7682 428.832L47.6689 442.41L49.5412 443.113ZM53.7087 428.184L52.1687 428.177L52.16 430.177L53.7 430.184L53.7087 428.184ZM51.2279 428.826L46.9177 440.328L48.7905 441.029L53.1007 429.528L51.2279 428.826ZM48.7907 440.328L44.4216 428.649L42.5484 429.35L46.9175 441.029L48.7907 440.328ZM65.2524 442.834L65.248 443.834L66.248 443.839L66.2524 442.839L65.2524 442.834ZM65.3117 429.234L66.3117 429.239L66.3161 428.239L65.3161 428.235L65.3117 429.234ZM63.7317 429.228L63.7361 428.228L62.7361 428.223L62.7317 429.223L63.7317 429.228ZM63.705 435.348L63.7007 436.348L64.7007 436.352L64.705 435.352L63.705 435.348ZM57.3051 435.32L56.3051 435.315L56.3007 436.315L57.3007 436.32L57.3051 435.32ZM57.3322 429.1L58.3322 429.104L58.3369 428.038L57.2726 428.101L57.3322 429.1ZM55.7718 429.193L55.7122 428.195L54.7759 428.251L54.7718 429.189L55.7718 429.193ZM55.7125 442.793L54.7125 442.788L54.7081 443.788L55.7081 443.793L55.7125 442.793ZM57.2724 442.8L57.2681 443.8L58.2681 443.804L58.2724 442.804L57.2724 442.8ZM57.2996 436.58L57.3039 435.58L56.304 435.575L56.2996 436.575L57.2996 436.58ZM63.6995 436.608L64.6995 436.612L64.7039 435.612L63.7039 435.608L63.6995 436.608ZM63.6724 442.827L62.6724 442.823L62.668 443.823L63.668 443.827L63.6724 442.827ZM66.2524 442.839L66.3117 429.239L64.3117 429.23L64.2524 442.83L66.2524 442.839ZM65.3161 428.235L63.7361 428.228L63.7274 430.228L65.3073 430.234L65.3161 428.235ZM62.7317 429.223L62.705 435.343L64.705 435.352L64.7317 429.232L62.7317 429.223ZM63.7094 434.348L57.3094 434.32L57.3007 436.32L63.7007 436.348L63.7094 434.348ZM58.3051 435.324L58.3322 429.104L56.3322 429.095L56.3051 435.315L58.3051 435.324ZM57.2726 428.101L55.7122 428.195L55.8314 430.191L57.3918 430.098L57.2726 428.101ZM54.7718 429.189L54.7125 442.788L56.7125 442.797L56.7718 429.197L54.7718 429.189ZM55.7081 443.793L57.2681 443.8L57.2768 441.8L55.7168 441.793L55.7081 443.793ZM58.2724 442.804L58.2996 436.584L56.2996 436.575L56.2725 442.795L58.2724 442.804ZM57.2952 437.58L63.6952 437.608L63.7039 435.608L57.3039 435.58L57.2952 437.58ZM62.6995 436.603L62.6724 442.823L64.6724 442.832L64.6995 436.612L62.6995 436.603ZM63.668 443.827L65.248 443.834L65.2567 441.834L63.6767 441.827L63.668 443.827ZM68.1969 442.187L67.2378 441.904L67.0267 442.62L67.6525 443.026L68.1969 442.187ZM68.9154 442.55L68.5327 443.474L68.551 443.482L68.5695 443.489L68.9154 442.55ZM69.8941 442.835L70.1153 441.859L70.1153 441.859L69.8941 442.835ZM70.9532 443.039L70.7969 444.027L70.8024 444.028L70.9532 443.039ZM74.5149 442.675L74.127 441.753L74.1208 441.756L74.5149 442.675ZM76.1604 441.422L75.3533 440.831L75.3484 440.838L75.3436 440.845L76.1604 441.422ZM76.5141 438.283L75.5883 438.662L75.5932 438.673L76.5141 438.283ZM73.1658 435.589L72.7207 436.484L72.7428 436.495L72.7653 436.505L73.1658 435.589ZM71.1702 434.56L70.6772 435.43L70.6854 435.435L70.6936 435.439L71.1702 434.56ZM69.9345 433.575L69.1393 434.181L69.1464 434.19L69.1539 434.2L69.9345 433.575ZM70.3465 430.836L69.8001 429.999L69.7906 430.005L70.3465 430.836ZM73.6283 430.431L73.3907 431.402L73.4128 431.408L73.4352 431.412L73.6283 430.431ZM74.5471 430.695L74.1717 431.622L74.1794 431.625L74.1871 431.628L74.5471 430.695ZM75.3057 431.018L74.876 431.921L75.8001 432.361L76.2184 431.427L75.3057 431.018ZM75.8511 429.8L76.7637 430.209L77.1537 429.338L76.3022 428.908L75.8511 429.8ZM70.0528 429.395L69.6318 428.488L69.6246 428.491L70.0528 429.395ZM68.5475 430.609L67.7348 430.026L67.7297 430.033L67.7246 430.04L68.5475 430.609ZM68.2343 433.627L67.2978 433.978L67.303 433.992L67.3086 434.006L68.2343 433.627ZM68.9096 434.71L68.156 435.368L68.1699 435.384L68.1846 435.399L68.9096 434.71ZM70.0256 435.615L69.4851 436.456L69.4998 436.466L69.5149 436.475L70.0256 435.615ZM71.5821 436.422L71.1644 437.33L71.1827 437.339L71.2013 437.347L71.5821 436.422ZM73.558 437.371L73.0558 438.235L73.064 438.24L73.0723 438.245L73.558 437.371ZM74.7538 438.336L73.9585 438.942L73.9657 438.951L73.9731 438.961L74.7538 438.336ZM74.7833 440.736L73.9785 440.142L73.9744 440.148L74.7833 440.736ZM73.6999 441.511L74.0583 442.445L74.0583 442.445L73.6999 441.511ZM70.6393 441.658L70.4213 442.634L70.436 442.637L70.4507 442.64L70.6393 441.658ZM69.4608 441.313L69.0977 442.245L69.1094 442.249L69.4608 441.313ZM68.5623 440.949L68.9544 440.029L67.9211 439.588L67.6032 440.666L68.5623 440.949ZM67.6525 443.026C67.9064 443.191 68.2053 443.339 68.5327 443.474L69.298 441.626C69.0398 441.52 68.8597 441.425 68.7414 441.348L67.6525 443.026ZM68.5695 443.489C68.9096 443.614 69.2783 443.72 69.6729 443.81L70.1153 441.859C69.7906 441.786 69.5068 441.703 69.2612 441.612L68.5695 443.489ZM69.6729 443.81C70.053 443.896 70.4276 443.968 70.7969 444.027L71.1096 442.052C70.786 442 70.4546 441.936 70.1153 441.859L69.6729 443.81ZM70.8024 444.028C71.1971 444.088 71.5675 444.122 71.9085 444.123L71.9173 442.123C71.6983 442.122 71.4289 442.1 71.1041 442.051L70.8024 444.028ZM71.9085 444.123C73.029 444.128 74.0407 443.966 74.909 443.594L74.1208 441.756C73.5731 441.991 72.8501 442.128 71.9173 442.123L71.9085 444.123ZM74.9027 443.597C75.7613 443.235 76.4735 442.712 76.9771 441.999L75.3436 440.845C75.0959 441.195 74.7111 441.507 74.127 441.753L74.9027 443.597ZM76.9674 442.012C77.4877 441.301 77.7445 440.481 77.7484 439.589L75.7484 439.58C75.7462 440.074 75.611 440.479 75.3533 440.831L76.9674 442.012ZM77.7484 439.589C77.751 438.988 77.6561 438.416 77.4349 437.894L75.5932 438.673C75.6887 438.899 75.7501 439.194 75.7484 439.58L77.7484 439.589ZM77.4397 437.905C77.2299 437.392 76.9232 436.934 76.5288 436.536L75.1084 437.944C75.3246 438.163 75.4816 438.401 75.5884 438.662L77.4397 437.905ZM76.5288 436.536C76.1576 436.162 75.7194 435.826 75.2244 435.523L74.1803 437.228C74.563 437.463 74.8689 437.703 75.1084 437.944L76.5288 436.536ZM75.2244 435.523C74.7385 435.225 74.1841 434.943 73.5662 434.672L72.7653 436.505C73.3185 436.747 73.7885 436.989 74.1803 437.228L75.2244 435.523ZM73.6108 434.693C72.8325 434.307 72.1786 433.969 71.6469 433.681L70.6936 435.439C71.2527 435.742 71.9291 436.091 72.7207 436.484L73.6108 434.693ZM71.6633 433.69C71.1869 433.42 70.889 433.167 70.7152 432.95L69.1539 434.2C69.537 434.678 70.0629 435.082 70.6772 435.43L71.6633 433.69ZM70.7298 432.968C70.6115 432.813 70.5387 432.62 70.5399 432.337L68.54 432.329C68.537 433.006 68.7272 433.64 69.1393 434.181L70.7298 432.968ZM70.5399 432.337C70.5413 432.032 70.6419 431.842 70.9023 431.668L69.7906 430.005C68.9813 430.546 68.5442 431.354 68.54 432.329L70.5399 432.337ZM70.8928 431.674C71.2343 431.451 71.7281 431.303 72.4445 431.306L72.4532 429.306C71.4629 429.301 70.5551 429.506 69.8001 429.999L70.8928 431.674ZM72.4445 431.306C72.8428 431.307 73.154 431.344 73.3907 431.402L73.8659 429.459C73.4366 429.354 72.9615 429.308 72.4532 429.306L72.4445 431.306ZM73.4352 431.412C73.7327 431.471 73.976 431.542 74.1717 431.622L74.9226 429.768C74.5859 429.632 74.2166 429.527 73.8214 429.45L73.4352 431.412ZM74.1871 431.628C74.4474 431.728 74.6765 431.826 74.876 431.921L75.7355 430.115C75.4825 429.995 75.2059 429.877 74.9072 429.762L74.1871 431.628ZM76.2184 431.427L76.7637 430.209L74.9384 429.392L74.3931 430.609L76.2184 431.427ZM76.3022 428.908C75.8053 428.657 75.2239 428.441 74.5698 428.253L74.0175 430.175C74.5884 430.339 75.0453 430.514 75.3999 430.693L76.3022 428.908ZM74.5698 428.253C73.8648 428.05 73.1335 427.949 72.3791 427.945L72.3704 429.945C72.9493 429.948 73.4972 430.025 74.0175 430.175L74.5698 428.253ZM72.3791 427.945C71.373 427.941 70.4475 428.11 69.6318 428.488L70.4737 430.302C70.9674 430.073 71.5899 429.942 72.3704 429.945L72.3791 427.945ZM69.6246 428.491C68.852 428.858 68.2092 429.364 67.7348 430.026L69.3601 431.191C69.6102 430.843 69.9709 430.541 70.481 430.299L69.6246 428.491ZM67.7246 430.04C67.2537 430.722 67.0236 431.501 67.0199 432.342L69.0199 432.351C69.0219 431.885 69.1435 431.505 69.3703 431.177L67.7246 430.04ZM67.0199 432.342C67.0174 432.914 67.1052 433.463 67.2978 433.978L69.1708 433.277C69.0734 433.017 69.0183 432.712 69.0199 432.351L67.0199 432.342ZM67.3086 434.006C67.511 434.501 67.7962 434.955 68.156 435.368L69.6632 434.053C69.4392 433.796 69.2742 433.528 69.16 433.249L67.3086 434.006ZM68.1846 435.399C68.5537 435.788 68.9904 436.139 69.4851 436.456L70.5662 434.774C70.1833 434.528 69.876 434.276 69.6346 434.021L68.1846 435.399ZM69.5149 436.475C70.003 436.765 70.5538 437.05 71.1644 437.33L71.9999 435.513C71.4395 435.256 70.9526 435.003 70.5364 434.755L69.5149 436.475ZM71.2013 437.347C71.9592 437.659 72.5744 437.956 73.0558 438.235L74.0603 436.506C73.4777 436.167 72.7755 435.832 71.963 435.497L71.2013 437.347ZM73.0723 438.245C73.5279 438.498 73.8029 438.738 73.9585 438.942L75.5491 437.73C75.1744 437.238 74.6523 436.835 74.0437 436.496L73.0723 438.245ZM73.9731 438.961C74.0932 439.111 74.1696 439.303 74.1683 439.593L76.1683 439.602C76.1713 438.906 75.9713 438.257 75.5345 437.711L73.9731 438.961ZM74.1683 439.593C74.1675 439.786 74.1127 439.96 73.9785 440.142L75.5881 441.329C75.9637 440.82 76.1655 440.236 76.1683 439.602L74.1683 439.593ZM73.9744 440.148C73.8723 440.289 73.6876 440.445 73.3416 440.578L74.0583 442.445C74.6739 442.208 75.2115 441.848 75.5923 441.324L73.9744 440.148ZM73.3416 440.578C73.0127 440.704 72.5448 440.786 71.9031 440.783L71.8944 442.783C72.6926 442.787 73.4256 442.688 74.0583 442.445L73.3416 440.578ZM71.9031 440.783C71.5546 440.782 71.1965 440.747 70.8278 440.676L70.4507 442.64C70.9347 442.733 71.4162 442.781 71.8944 442.783L71.9031 440.783ZM70.8572 440.682C70.4703 440.595 70.1226 440.493 69.8122 440.376L69.1094 442.249C69.5177 442.402 69.9558 442.53 70.4213 442.634L70.8572 440.682ZM69.8238 440.381C69.4843 440.249 69.195 440.131 68.9544 440.029L68.1703 441.869C68.4354 441.982 68.745 442.107 69.0977 442.244L69.8238 440.381ZM67.6032 440.666L67.2378 441.904L69.1561 442.47L69.5215 441.232L67.6032 440.666Z" fill="black" mask="url(#path-5-outside-1_301_269)"/>
</g>
<defs>
<filter id="filter0_d_301_269" x="14.4933" y="2.03854" width="95.954" height="464.336" filterUnits="userSpaceOnUse" color-interpolation-filters="sRGB">
<feFlood flood-opacity="0" result="BackgroundImageFix"/>
<feColorMatrix in="SourceAlpha" type="matrix" values="0 0 0 0 0 0 0 0 0 0 0 0 0 0 0 0 0 0 127 0" result="hardAlpha"/>
<feOffset dy="4"/>
<feGaussianBlur stdDeviation="2"/>
<feComposite in2="hardAlpha" operator="out"/>
<feColorMatrix type="matrix" values="0 0 0 0 0 0 0 0 0 0 0 0 0 0 0 0 0 0 0.25 0"/>
<feBlend mode="normal" in2="BackgroundImageFix" result="effect1_dropShadow_301_269"/>
<feBlend mode="normal" in="SourceGraphic" in2="effect1_dropShadow_301_269" result="shape"/>
</filter>
<filter id="filter1_d_301_269" x="14.4933" y="2.03854" width="95.954" height="464.336" filterUnits="userSpaceOnUse" color-interpolation-filters="sRGB">
<feFlood flood-opacity="0" result="BackgroundImageFix"/>
<feColorMatrix in="SourceAlpha" type="matrix" values="0 0 0 0 0 0 0 0 0 0 0 0 0 0 0 0 0 0 127 0" result="hardAlpha"/>
<feOffset dy="4"/>
<feGaussianBlur stdDeviation="2"/>
<feComposite in2="hardAlpha" operator="out"/>
<feColorMatrix type="matrix" values="0 0 0 0 0 0 0 0 0 0 0 0 0 0 0 0 0 0 0.25 0"/>
<feBlend mode="normal" in2="BackgroundImageFix" result="effect1_dropShadow_301_269"/>
<feBlend mode="normal" in="SourceGraphic" in2="effect1_dropShadow_301_269" result="shape"/>
</filter>
</defs>
</svg>
