<svg width="84" height="459" viewBox="0 0 84 459" fill="none" xmlns="http://www.w3.org/2000/svg">
<rect width="84" height="459" fill="#F5F5F5"/>
<g filter="url(#filter0_d_0_1)">
<g filter="url(#filter1_d_0_1)">
<rect x="0.465607" y="0.0211182" width="86" height="456" rx="4" transform="rotate(0.25 0.465607 0.0211182)" fill="#B84040"/>
<rect x="0.714513" y="0.272207" width="85.5" height="455.5" rx="3.75" transform="rotate(0.25 0.714513 0.272207)" stroke="black" stroke-width="0.5"/>
</g>
<path d="M51.9659 55.9841C51.974 54.1174 52.5052 52.7081 53.5593 51.756C54.6368 50.804 56.1672 50.3324 58.1506 50.341L59.5505 50.3471L59.5347 53.9871L57.8547 53.9798C56.268 53.9728 55.4718 54.6344 55.466 55.9644C55.4631 56.6177 55.6477 57.1085 56.0196 57.4368C56.4147 57.7885 57.0439 57.9663 57.9073 57.97C58.9339 57.9745 59.8333 57.7451 60.6053 57.2818C61.4007 56.8186 62.3494 55.9594 63.4516 54.7042C64.8585 53.1236 66.1233 52.0208 67.246 51.3957C68.3921 50.7707 69.6768 50.4613 71.1001 50.4675C73.0368 50.476 74.528 50.9725 75.5737 51.9571C76.6427 52.9417 77.1732 54.3674 77.165 56.234C77.157 58.0774 76.6143 59.4633 75.5369 60.392C74.4827 61.3441 72.964 61.8158 70.9806 61.8071L69.9657 61.8027L69.9815 58.1627L71.2415 58.1682C72.0815 58.1719 72.6889 58.0112 73.0636 57.6862C73.4617 57.3612 73.6621 56.8838 73.6649 56.2538C73.6705 54.9704 72.8916 54.3254 71.3283 54.3186C70.4417 54.3147 69.6123 54.5444 68.8403 55.0077C68.0682 55.4943 67.131 56.3653 66.0289 57.6205C64.6219 59.2243 63.3454 60.3271 62.1994 60.9288C61.0534 61.5305 59.7104 61.8279 58.1705 61.8212C56.1638 61.8125 54.626 61.3041 53.5571 60.2961C52.488 59.3114 51.9576 57.8741 51.9659 55.9841ZM73.2675 67.1046L73.2851 63.0796L76.7851 63.0949L76.7332 74.9948L73.2332 74.9795L73.2508 70.9546L52.251 70.8629L52.2677 67.013L73.2675 67.1046ZM76.7191 78.2273L76.6963 83.4423L52.1791 87.3254L52.1959 83.4754L57.0639 82.7966L56.9939 82.7963L57.013 78.4214L52.2211 77.7004L52.2367 74.1305L76.7191 78.2273ZM60.3209 82.3558L72.4382 80.6937L72.4386 80.6237L60.336 78.8909L60.3209 82.3558ZM76.6707 89.3001L76.6263 99.485L73.1263 99.4697L73.154 93.1348L66.329 93.105L66.3074 98.075L62.8074 98.0597L62.8291 93.0897L52.1542 93.0432L52.171 89.1932L76.6707 89.3001ZM76.6182 101.331L76.5738 111.516L73.0738 111.501L73.1015 105.166L66.2765 105.136L66.2549 110.106L62.7549 110.091L62.7766 105.121L52.1017 105.074L52.1185 101.224L76.6182 101.331ZM51.674 122.884C51.6801 121.484 52.163 120.425 53.1228 119.706C54.0827 118.986 55.4726 118.631 57.2925 118.639L59.8475 118.65C61.1308 118.656 62.2032 118.882 63.0646 119.329C63.926 119.776 64.5528 120.502 64.9451 121.507L65.0151 121.508C65.3924 120.599 65.9903 119.925 66.8089 119.485C67.6508 119.069 68.725 118.864 70.0317 118.869L70.4866 118.871C72.47 118.88 73.9729 119.365 74.9953 120.326C76.0178 121.287 76.5249 122.724 76.5165 124.638L76.4973 129.048L72.9973 129.032L73.0163 124.692C73.019 124.062 72.8345 123.572 72.4627 123.22C72.0908 122.892 71.4848 122.726 70.6448 122.722L69.1399 122.716C68.2065 122.711 67.5407 122.895 67.1424 123.267C66.744 123.662 66.5432 124.244 66.5398 125.014L66.5332 126.519L69.2632 126.531L69.2467 130.311L66.5167 130.299L66.512 131.384L63.012 131.369L63.0168 130.284L54.9669 130.249C54.2669 130.246 53.6951 130.267 53.2516 130.311C52.8314 130.356 52.4109 130.471 51.9901 130.656L52.0069 126.806C52.521 126.621 53.1632 126.508 53.9334 126.464L53.9337 126.394C53.1655 125.971 52.596 125.478 52.2251 124.917C51.8541 124.378 51.6704 123.701 51.674 122.884ZM55.1677 124.335C55.1624 125.548 55.8943 126.263 57.3633 126.479L63.0333 126.504L63.0397 125.034C63.0436 124.147 62.8014 123.505 62.3131 123.106C61.8482 122.707 61.0557 122.505 59.9357 122.5L57.4507 122.49C56.6341 122.486 56.05 122.647 55.6986 122.972C55.3472 123.297 55.1702 123.751 55.1677 124.335ZM51.5797 144.484C51.5878 142.641 52.1189 141.232 53.1732 140.256C54.2273 139.304 55.7111 138.832 57.6244 138.841L70.7843 138.898C72.6976 138.906 74.1771 139.391 75.223 140.352C76.2687 141.337 76.7875 142.751 76.7795 144.594C76.7714 146.438 76.2403 147.835 75.1862 148.787C74.1319 149.763 72.6481 150.246 70.7348 150.238L68.1448 150.227L68.1607 146.587L70.9957 146.599C72.5123 146.606 73.2734 145.967 73.279 144.684C73.2846 143.401 72.5291 142.756 71.0125 142.749L57.3276 142.689C55.8343 142.683 55.0848 143.321 55.0792 144.605C55.0736 145.888 55.8175 146.533 57.3108 146.539L61.0558 146.556L61.0399 150.196L57.5749 150.181C55.6616 150.172 54.1821 149.676 53.1364 148.691C52.0906 147.73 51.5717 146.328 51.5797 144.484ZM51.5205 158.058C51.5286 156.191 52.0598 154.77 53.1141 153.795C54.1917 152.819 55.7222 152.336 57.7055 152.345L76.3953 152.426L76.3785 156.276L57.4087 156.193C56.5687 156.19 55.9613 156.35 55.5866 156.675C55.2117 157.024 55.0229 157.513 55.0201 158.143C55.0174 158.773 55.202 159.252 55.5739 159.58C55.9457 159.932 56.5516 160.11 57.3916 160.113L76.3614 160.196L76.3452 163.906L57.6554 163.824C55.6721 163.816 54.1459 163.319 53.0768 162.334C52.0311 161.35 51.5123 159.924 51.5205 158.058ZM51.4616 171.545C51.4698 169.678 52.0009 168.268 53.0551 167.316C54.1326 166.364 55.663 165.893 57.6463 165.901L59.0463 165.908L59.0304 169.548L57.3504 169.54C55.7638 169.533 54.9676 170.195 54.9618 171.525C54.9589 172.178 55.1434 172.669 55.5153 172.997C55.9105 173.349 56.5397 173.527 57.403 173.53C58.4297 173.535 59.329 173.306 60.1011 172.842C60.8964 172.379 61.8452 171.52 62.9473 170.265C64.3542 168.684 65.6191 167.581 66.7418 166.956C67.8879 166.331 69.1726 166.022 70.5959 166.028C72.5325 166.036 74.0237 166.533 75.0694 167.517C76.1385 168.502 76.6689 169.928 76.6608 171.794C76.6527 173.638 76.11 175.024 75.0326 175.952C73.9785 176.904 72.4597 177.376 70.4764 177.368L69.4614 177.363L69.4773 173.723L70.7373 173.729C71.5773 173.732 72.1847 173.572 72.5594 173.247C72.9575 172.922 73.1579 172.444 73.1607 171.814C73.1663 170.531 72.3874 169.886 70.8241 169.879C69.9374 169.875 69.1081 170.105 68.3361 170.568C67.5639 171.055 66.6268 171.926 65.5246 173.181C64.1176 174.785 62.8411 175.888 61.6952 176.489C60.5492 177.091 59.2062 177.388 57.6662 177.382C55.6596 177.373 54.1218 176.864 53.0528 175.856C51.9838 174.872 51.4534 173.434 51.4616 171.545ZM72.7633 182.665L72.7809 178.64L76.2808 178.655L76.2289 190.555L72.729 190.54L72.7465 186.515L51.7467 186.423L51.7635 182.573L72.7633 182.665ZM51.3473 197.739C51.3556 195.849 51.8986 194.405 52.9763 193.406C54.054 192.407 55.5728 191.912 57.5328 191.921L70.4127 191.977C72.3726 191.986 73.8871 192.494 74.9561 193.502C76.025 194.51 76.5553 195.959 76.5471 197.849C76.5389 199.739 75.9959 201.183 74.9182 202.182C73.8405 203.181 72.3216 203.676 70.3617 203.667L57.4818 203.611C55.5218 203.602 54.0073 203.094 52.9384 202.086C51.8694 201.078 51.3391 199.629 51.3473 197.739ZM54.8473 197.754C54.8415 199.084 55.6436 199.753 57.2536 199.76L70.6235 199.818C72.2334 199.825 73.0413 199.164 73.0471 197.834C73.0529 196.504 72.2508 195.835 70.6409 195.828L57.271 195.77C55.661 195.763 54.8531 196.424 54.8473 197.754ZM76.1602 206.296L76.1363 211.791L58.5907 214.164L58.5904 214.234L76.1146 216.761L76.0906 222.256L51.5908 222.149L51.6067 218.509L70.1565 218.59L70.1568 218.52L51.6192 215.639L51.6333 212.419L70.1953 209.7L70.1956 209.63L51.6458 209.549L51.6605 206.189L76.1602 206.296ZM76.0781 225.129L76.0323 235.629L72.5323 235.613L72.5613 228.964L66.0864 228.935L66.0633 234.22L62.5633 234.205L62.5864 228.92L55.0615 228.887L55.0325 235.537L51.5325 235.522L51.5783 225.022L76.0781 225.129ZM76.0226 237.844L75.9977 243.549C75.989 245.532 75.5161 246.976 74.5788 247.882C73.6648 248.788 72.2512 249.237 70.3379 249.229L68.8329 249.222C66.2896 249.211 64.6832 248.364 64.0139 246.681L63.9439 246.681C63.6598 247.613 63.0853 248.264 62.2204 248.633C61.3553 249.026 60.1995 249.22 58.7528 249.213L54.4479 249.195C53.7479 249.192 53.1761 249.212 52.7326 249.257C52.3124 249.302 51.8919 249.417 51.4711 249.602L51.4882 245.682C51.8854 245.543 52.2592 245.452 52.6094 245.406C52.9596 245.361 53.5897 245.341 54.4997 245.345L58.9796 245.364C60.0996 245.369 60.8821 245.186 61.327 244.815C61.7719 244.466 61.9963 243.849 62.0001 242.962L62.0059 241.632L51.506 241.587L51.5228 237.737L76.0226 237.844ZM65.4998 243.048C65.4964 243.818 65.6923 244.39 66.0873 244.765C66.4822 245.164 67.1464 245.365 68.0797 245.369L69.9697 245.377C70.8563 245.381 71.4987 245.221 71.8968 244.896C72.2948 244.594 72.4952 244.105 72.4982 243.428L72.5058 241.678L65.5059 241.648L65.4998 243.048ZM47.8342 51.781L47.8078 57.831L9.30814 57.663L9.33454 51.613L47.8342 51.781ZM47.788 62.362L47.7549 69.9519L24.6844 75.7363L24.6839 75.8463L47.7287 75.9468L47.7052 81.3368L9.20558 81.1688L9.23269 74.9539L37.3691 67.8166L37.3696 67.7066L9.26485 67.5839L9.28837 62.194L47.788 62.362ZM42.165 90.5394L42.1926 84.2144L47.6925 84.2384L47.611 102.938L42.111 102.914L42.1386 96.5893L9.13892 96.4453L9.16532 90.3954L42.165 90.5394ZM47.5982 105.867L47.5262 122.367L42.0262 122.343L42.0718 111.893L31.8969 111.849L31.8607 120.154L26.3607 120.13L26.397 111.825L14.5721 111.773L14.5265 122.223L9.02655 122.199L9.09854 105.699L47.5982 105.867ZM47.511 125.848L47.4719 134.813C47.4583 137.929 46.715 140.199 45.2421 141.623C43.8059 143.047 41.5845 143.752 38.5778 143.739L36.2129 143.729C32.2162 143.711 29.692 142.38 28.6402 139.735L28.5302 139.735C28.0838 141.2 27.181 142.222 25.8218 142.803C24.4624 143.421 22.6461 143.724 20.3728 143.714L13.6078 143.685C12.5079 143.68 11.6094 143.713 10.9124 143.783C10.2521 143.854 9.59128 144.034 8.93001 144.325L8.95688 138.165C9.58117 137.947 10.1685 137.803 10.7188 137.732C11.2691 137.661 12.2593 137.629 13.6892 137.635L20.7292 137.666C22.4892 137.674 23.7188 137.386 24.418 136.802C25.117 136.255 25.4696 135.285 25.4757 133.892L25.4848 131.802L8.98496 131.73L9.01136 125.68L47.511 125.848ZM30.9752 134.026C30.9699 135.236 31.2776 136.135 31.8984 136.725C32.519 137.351 33.5626 137.667 35.0293 137.673L37.9992 137.686C39.3926 137.692 40.402 137.44 41.0276 136.93C41.653 136.456 41.968 135.687 41.9726 134.624L41.9846 131.874L30.9848 131.826L30.9752 134.026ZM47.4221 146.22L47.3955 152.325L17.5135 156.155L17.513 156.265L47.3604 160.355L47.3362 165.91L8.86199 159.912L8.89703 151.882L47.4221 146.22ZM47.3235 168.816L47.2971 174.866L8.79748 174.698L8.82387 168.648L47.3235 168.816ZM47.2773 179.397L47.2053 195.897L41.7054 195.873L41.751 185.423L31.5761 185.379L31.5399 193.683L26.0399 193.659L26.0761 185.355L14.2513 185.303L14.2057 195.753L8.70571 195.729L8.77771 179.229L47.2773 179.397ZM47.1964 197.947L47.171 203.777L17.5695 206.343L17.569 206.453L47.1462 209.442L47.1174 216.042L17.5152 218.773L17.5148 218.883L47.0927 221.707L47.0699 226.932L8.58733 222.859L8.62021 215.324L34.592 212.687L34.5924 212.577L8.64469 209.714L8.67973 201.684L47.1964 197.947ZM7.97263 237.687C7.98543 234.753 8.8201 232.539 10.4766 231.043C12.1699 229.547 14.5748 228.805 17.6914 228.819L19.8914 228.829L19.8664 234.549L17.2265 234.537C14.7331 234.526 13.4819 235.566 13.4728 237.656C13.4683 238.682 13.7583 239.454 14.3427 239.97C14.9637 240.522 15.9524 240.802 17.3091 240.808C18.9224 240.815 20.3357 240.454 21.5489 239.726C22.7987 238.998 24.2896 237.648 26.0216 235.675C28.2324 233.192 30.22 231.459 31.9843 230.476C33.7853 229.494 35.8041 229.008 38.0407 229.018C41.084 229.031 43.4273 229.811 45.0706 231.359C46.7505 232.906 47.5841 235.146 47.5713 238.08C47.5587 240.976 46.7058 243.154 45.0128 244.613C43.3562 246.11 40.9696 246.851 37.853 246.837L36.258 246.83L36.283 241.11L38.2629 241.119C39.5829 241.125 40.5374 240.872 41.1263 240.361C41.7518 239.851 42.0668 239.101 42.0711 238.111C42.0799 236.094 40.856 235.08 38.3993 235.069C37.006 235.063 35.7028 235.424 34.4896 236.152C33.2762 236.917 31.8036 238.286 30.0716 240.258C27.8606 242.779 25.8547 244.511 24.0539 245.457C22.2531 246.402 20.1427 246.87 17.7227 246.859C14.5694 246.846 12.1529 246.047 10.4731 244.463C8.79316 242.915 7.95967 240.657 7.97263 237.687Z" fill="black"/>
<path d="M65.5756 272.978L65.5635 275.753L51.9807 277.494L51.9805 277.544L65.5475 279.403L65.5365 281.928L48.0483 279.202L48.0642 275.552L65.5756 272.978ZM47.7636 287.146C47.7695 285.796 48.1573 284.765 48.9271 284.051C49.6969 283.338 50.7818 282.985 52.1818 282.991L61.3817 283.031C62.7817 283.037 63.8634 283.4 64.627 284.12C65.3905 284.84 65.7693 285.875 65.7634 287.225C65.7575 288.575 65.3697 289.607 64.5999 290.32C63.8301 291.033 62.7452 291.387 61.3452 291.381L52.1453 291.341C50.7453 291.334 49.6636 290.971 48.9001 290.251C48.1365 289.531 47.7577 288.496 47.7636 287.146ZM50.2636 287.157C50.2594 288.107 50.8323 288.585 51.9823 288.59L61.5322 288.632C62.6822 288.637 63.2593 288.164 63.2634 287.214C63.2676 286.264 62.6947 285.787 61.5447 285.782L51.9948 285.74C50.8448 285.735 50.2677 286.207 50.2636 287.157ZM65.4871 293.259L65.4751 296.009L50.4752 295.943L50.4555 300.468L47.9555 300.457L47.9873 293.182L65.4871 293.259ZM47.6823 305.775C47.6881 304.441 48.0676 303.426 48.8206 302.73C49.5903 302.033 50.6835 301.688 52.1002 301.694L65.45 301.752L65.438 304.502L51.8882 304.443C51.2882 304.44 50.8543 304.555 50.5866 304.787C50.3189 305.036 50.184 305.386 50.1821 305.836C50.1801 306.286 50.3119 306.628 50.5776 306.862C50.8432 307.114 51.2759 307.24 51.8759 307.243L65.4258 307.302L65.4143 309.952L52.0644 309.894C50.6477 309.888 49.5576 309.533 48.794 308.83C48.0471 308.126 47.6765 307.108 47.6823 305.775ZM65.4057 311.911L65.3886 315.836L52.8561 317.531L52.8558 317.581L65.3731 319.386L65.356 323.311L47.8561 323.234L47.8675 320.634L61.1173 320.692L61.1176 320.642L47.8764 318.584L47.8865 316.284L61.1451 314.342L61.1453 314.292L47.8954 314.234L47.9059 311.834L65.4057 311.911ZM65.347 325.363L65.3143 332.863L62.8143 332.852L62.835 328.102L58.2101 328.082L58.1936 331.857L55.6936 331.846L55.7101 328.071L50.3352 328.047L50.3144 332.797L47.8145 332.786L47.8472 325.286L65.347 325.363ZM47.5417 337.991C47.5476 336.658 47.927 335.651 48.6799 334.971C49.4496 334.291 50.5427 333.954 51.9594 333.96L52.9594 333.965L52.948 336.565L51.748 336.559C50.6147 336.554 50.046 337.027 50.0418 337.977C50.0398 338.444 50.1716 338.794 50.4372 339.029C50.7195 339.28 51.1689 339.407 51.7856 339.41C52.5189 339.413 53.1613 339.249 53.7128 338.918C54.2809 338.587 54.9586 337.973 55.7458 337.077C56.7507 335.948 57.6542 335.16 58.4561 334.714C59.2748 334.267 60.1924 334.046 61.2091 334.051C62.5924 334.057 63.6575 334.411 64.4045 335.115C65.1681 335.818 65.5469 336.836 65.5411 338.17C65.5354 339.486 65.1477 340.476 64.3782 341.14C63.6252 341.82 62.5404 342.157 61.1237 342.15L60.3987 342.147L60.4101 339.547L61.3101 339.551C61.9101 339.554 62.3439 339.439 62.6116 339.207C62.8959 338.975 63.0391 338.634 63.041 338.184C63.045 337.267 62.4887 336.806 61.3721 336.801C60.7387 336.799 60.1463 336.963 59.5949 337.294C59.0434 337.641 58.374 338.263 57.5867 339.16C56.5817 340.306 55.6699 341.093 54.8514 341.523C54.0328 341.953 53.0736 342.165 51.9736 342.16C50.5403 342.154 49.4418 341.791 48.6783 341.071C47.9147 340.368 47.5358 339.341 47.5417 337.991ZM31.3332 294.067L31.3458 291.192L33.2958 291.2C33.2924 291.983 33.3563 292.609 33.4876 293.076C33.6188 293.56 33.8338 293.944 34.1326 294.229C34.448 294.513 34.8969 294.765 35.4793 294.985L35.4712 296.835L17.9714 296.758L17.9834 294.008L31.3332 294.067ZM27.9581 299.812L27.9341 305.312L25.4342 305.301L25.4582 299.801L27.9581 299.812ZM17.6601 310.805C17.666 309.455 18.0454 308.432 18.7985 307.735C19.5515 307.055 20.6279 306.718 22.0279 306.724L23.4529 306.73L23.4416 309.33L21.8916 309.324C20.7416 309.318 20.1645 309.791 20.1604 310.741C20.1583 311.208 20.2985 311.558 20.5808 311.793C20.8797 312.044 21.3958 312.171 22.1291 312.175L23.5541 312.181C24.3541 312.184 24.9214 312.045 25.256 311.763C25.6072 311.481 25.7842 311.024 25.787 310.391L25.791 309.466L28.291 309.476L28.2866 310.476C28.2842 311.026 28.4241 311.435 28.7063 311.703C28.9884 311.988 29.4627 312.132 30.1294 312.134L31.4044 312.14C32.0044 312.143 32.4466 312.02 32.731 311.771C33.0154 311.522 33.1585 311.189 33.1604 310.773C33.1642 309.889 32.6245 309.445 31.5412 309.441L30.3912 309.436L30.4025 306.836L31.3275 306.84C32.7275 306.846 33.801 307.192 34.548 307.879C35.2949 308.582 35.6656 309.584 35.6599 310.884C35.6542 312.2 35.2748 313.199 34.5218 313.879C33.7855 314.559 32.7174 314.896 31.3174 314.89L30.6924 314.887C29.7424 314.883 28.9764 314.721 28.3945 314.402C27.8292 314.083 27.423 313.589 27.1759 312.922L27.1259 312.921C26.8561 313.637 26.4206 314.152 25.8192 314.466C25.2178 314.78 24.4505 314.935 23.5171 314.931L21.9671 314.924C20.5672 314.918 19.4937 314.563 18.7468 313.86C18.0164 313.173 17.6542 312.155 17.6601 310.805ZM17.6159 320.94C17.6217 319.606 18.0011 318.591 18.7542 317.895C19.5239 317.198 20.6171 316.853 22.0337 316.859L23.4087 316.865L23.3973 319.465L21.8224 319.458C20.689 319.453 20.1203 319.926 20.1162 320.876C20.112 321.826 20.6766 322.303 21.8099 322.308L25.7349 322.325C26.8849 322.33 27.4619 321.858 27.4661 320.908C27.4702 319.958 26.8973 319.48 25.7473 319.475L25.5973 319.475L25.6087 316.875L35.3814 317.417L35.3498 324.667L32.8498 324.656L32.8707 319.856L28.6968 319.613L28.6965 319.663C29.5443 320.183 29.9658 320.977 29.9612 322.044C29.9568 323.044 29.6118 323.8 28.9262 324.314C28.2407 324.828 27.2479 325.082 25.9479 325.076L21.9979 325.059C20.5813 325.053 19.4911 324.698 18.7275 323.995C17.9806 323.291 17.61 322.273 17.6159 320.94Z" fill="black"/>
<path d="M23.485 426.999L21.9239 427.252L27.085 440.755L28.605 440.762L33.7043 427.184L32.1643 427.177L27.8541 438.678L23.485 426.999ZM45.2524 440.834L45.3117 427.234L43.7317 427.228L43.705 433.348L37.3051 433.32L37.3322 427.1L35.7718 427.193L35.7125 440.793L37.2724 440.8L37.2996 434.58L43.6995 434.608L43.6724 440.827L45.2524 440.834ZM48.1969 440.187C48.3831 440.308 48.6226 440.429 48.9154 440.55C49.2082 440.658 49.5345 440.753 49.8941 440.835C50.2538 440.916 50.6068 440.984 50.9532 441.039C51.313 441.094 51.6329 441.122 51.9129 441.123C52.9395 441.128 53.8069 440.978 54.5149 440.675C55.2362 440.371 55.7847 439.954 56.1604 439.422C56.5493 438.89 56.7454 438.278 56.7484 437.584C56.7505 437.091 56.6724 436.657 56.5141 436.283C56.3557 435.896 56.1239 435.548 55.8186 435.24C55.5133 434.932 55.1412 434.644 54.7024 434.376C54.2635 434.107 53.7513 433.845 53.1658 433.589C52.3808 433.199 51.7156 432.856 51.1702 432.56C50.6249 432.251 50.213 431.923 49.9345 431.575C49.6694 431.227 49.5379 430.813 49.54 430.333C49.5427 429.693 49.8116 429.194 50.3465 428.836C50.8947 428.479 51.5955 428.302 52.4488 428.306C52.9022 428.308 53.2953 428.349 53.6283 428.431C53.9747 428.499 54.2809 428.587 54.5471 428.695C54.8267 428.803 55.0795 428.91 55.3057 429.018L55.8511 427.8C55.4253 427.585 54.9062 427.39 54.2936 427.214C53.681 427.038 53.0414 426.948 52.3748 426.945C51.4814 426.941 50.7074 427.091 50.0528 427.395C49.4114 427.699 48.9097 428.104 48.5475 428.609C48.1986 429.114 48.0227 429.693 48.0199 430.346C48.0178 430.813 48.0893 431.24 48.2343 431.627C48.3926 432.015 48.6177 432.376 48.9096 432.71C49.2148 433.032 49.5869 433.333 50.0256 433.615C50.4778 433.884 50.9966 434.153 51.5821 434.422C52.3674 434.745 53.026 435.062 53.558 435.371C54.0901 435.666 54.4887 435.988 54.7538 436.336C55.0323 436.684 55.1705 437.104 55.1683 437.598C55.1665 438.011 55.0382 438.39 54.7833 438.736C54.5419 439.068 54.1808 439.327 53.6999 439.511C53.2191 439.696 52.6187 439.786 51.8987 439.783C51.4854 439.782 51.0656 439.74 50.6393 439.658C50.213 439.563 49.8202 439.448 49.4608 439.313C49.1147 439.178 48.8152 439.057 48.5623 438.949L48.1969 440.187Z" fill="black"/>
<path d="M23.485 426.999L24.4216 426.649L24.1343 425.881L23.3249 426.012L23.485 426.999ZM21.9239 427.252L21.7638 426.265L20.5512 426.462L20.9898 427.609L21.9239 427.252ZM27.085 440.755L26.151 441.112L26.3956 441.752L27.0807 441.755L27.085 440.755ZM28.605 440.762L28.6007 441.762L29.2965 441.765L29.5412 441.113L28.605 440.762ZM33.7043 427.184L34.6405 427.535L35.1457 426.19L33.7087 426.184L33.7043 427.184ZM32.1643 427.177L32.1687 426.177L31.4723 426.174L31.2279 426.826L32.1643 427.177ZM27.8541 438.678L26.9175 439.029L27.8533 441.53L28.7905 439.029L27.8541 438.678ZM23.3249 426.012L21.7638 426.265L22.084 428.24L23.6451 427.986L23.3249 426.012ZM20.9898 427.609L26.151 441.112L28.0191 440.398L22.858 426.895L20.9898 427.609ZM27.0807 441.755L28.6007 441.762L28.6094 439.762L27.0894 439.755L27.0807 441.755ZM29.5412 441.113L34.6405 427.535L32.7682 426.832L27.6689 440.41L29.5412 441.113ZM33.7087 426.184L32.1687 426.177L32.16 428.177L33.7 428.184L33.7087 426.184ZM31.2279 426.826L26.9177 438.328L28.7905 439.029L33.1007 427.528L31.2279 426.826ZM28.7907 438.328L24.4216 426.649L22.5484 427.35L26.9175 439.029L28.7907 438.328ZM45.2524 440.834L45.248 441.834L46.248 441.839L46.2524 440.839L45.2524 440.834ZM45.3117 427.234L46.3117 427.239L46.3161 426.239L45.3161 426.235L45.3117 427.234ZM43.7317 427.228L43.7361 426.228L42.7361 426.223L42.7317 427.223L43.7317 427.228ZM43.705 433.348L43.7007 434.348L44.7007 434.352L44.705 433.352L43.705 433.348ZM37.3051 433.32L36.3051 433.315L36.3007 434.315L37.3007 434.32L37.3051 433.32ZM37.3322 427.1L38.3322 427.104L38.3369 426.038L37.2726 426.101L37.3322 427.1ZM35.7718 427.193L35.7122 426.195L34.7759 426.251L34.7718 427.189L35.7718 427.193ZM35.7125 440.793L34.7125 440.788L34.7081 441.788L35.7081 441.793L35.7125 440.793ZM37.2724 440.8L37.2681 441.8L38.2681 441.804L38.2724 440.804L37.2724 440.8ZM37.2996 434.58L37.3039 433.58L36.304 433.575L36.2996 434.575L37.2996 434.58ZM43.6995 434.608L44.6995 434.612L44.7039 433.612L43.7039 433.608L43.6995 434.608ZM43.6724 440.827L42.6724 440.823L42.668 441.823L43.668 441.827L43.6724 440.827ZM46.2524 440.839L46.3117 427.239L44.3117 427.23L44.2524 440.83L46.2524 440.839ZM45.3161 426.235L43.7361 426.228L43.7274 428.228L45.3073 428.234L45.3161 426.235ZM42.7317 427.223L42.705 433.343L44.705 433.352L44.7317 427.232L42.7317 427.223ZM43.7094 432.348L37.3094 432.32L37.3007 434.32L43.7007 434.348L43.7094 432.348ZM38.3051 433.324L38.3322 427.104L36.3322 427.095L36.3051 433.315L38.3051 433.324ZM37.2726 426.101L35.7122 426.195L35.8314 428.191L37.3918 428.098L37.2726 426.101ZM34.7718 427.189L34.7125 440.788L36.7125 440.797L36.7718 427.197L34.7718 427.189ZM35.7081 441.793L37.2681 441.8L37.2768 439.8L35.7168 439.793L35.7081 441.793ZM38.2724 440.804L38.2996 434.584L36.2996 434.575L36.2725 440.795L38.2724 440.804ZM37.2952 435.58L43.6952 435.608L43.7039 433.608L37.3039 433.58L37.2952 435.58ZM42.6995 434.603L42.6724 440.823L44.6724 440.832L44.6995 434.612L42.6995 434.603ZM43.668 441.827L45.248 441.834L45.2567 439.834L43.6767 439.827L43.668 441.827ZM48.1969 440.187L47.2378 439.904L47.0267 440.62L47.6525 441.026L48.1969 440.187ZM48.9154 440.55L48.5327 441.474L48.551 441.482L48.5695 441.489L48.9154 440.55ZM49.8941 440.835L50.1153 439.859L50.1153 439.859L49.8941 440.835ZM50.9532 441.039L50.7969 442.027L50.8024 442.028L50.9532 441.039ZM54.5149 440.675L54.127 439.753L54.1208 439.756L54.5149 440.675ZM56.1604 439.422L55.3533 438.831L55.3484 438.838L55.3436 438.845L56.1604 439.422ZM56.5141 436.283L55.5883 436.662L55.5932 436.673L56.5141 436.283ZM53.1658 433.589L52.7207 434.484L52.7428 434.495L52.7653 434.505L53.1658 433.589ZM51.1702 432.56L50.6772 433.43L50.6854 433.435L50.6936 433.439L51.1702 432.56ZM49.9345 431.575L49.1393 432.181L49.1464 432.19L49.1539 432.2L49.9345 431.575ZM50.3465 428.836L49.8001 427.999L49.7906 428.005L50.3465 428.836ZM53.6283 428.431L53.3907 429.402L53.4128 429.408L53.4352 429.412L53.6283 428.431ZM54.5471 428.695L54.1717 429.622L54.1794 429.625L54.1871 429.628L54.5471 428.695ZM55.3057 429.018L54.876 429.921L55.8001 430.361L56.2184 429.427L55.3057 429.018ZM55.8511 427.8L56.7637 428.209L57.1537 427.338L56.3022 426.908L55.8511 427.8ZM50.0528 427.395L49.6318 426.488L49.6246 426.491L50.0528 427.395ZM48.5475 428.609L47.7348 428.026L47.7297 428.033L47.7246 428.04L48.5475 428.609ZM48.2343 431.627L47.2978 431.978L47.303 431.992L47.3086 432.006L48.2343 431.627ZM48.9096 432.71L48.156 433.368L48.1699 433.384L48.1846 433.399L48.9096 432.71ZM50.0256 433.615L49.4851 434.456L49.4998 434.466L49.5149 434.475L50.0256 433.615ZM51.5821 434.422L51.1644 435.33L51.1827 435.339L51.2013 435.347L51.5821 434.422ZM53.558 435.371L53.0558 436.235L53.064 436.24L53.0723 436.245L53.558 435.371ZM54.7538 436.336L53.9585 436.942L53.9657 436.951L53.9731 436.961L54.7538 436.336ZM54.7833 438.736L53.9785 438.142L53.9744 438.148L54.7833 438.736ZM53.6999 439.511L54.0583 440.445L54.0583 440.445L53.6999 439.511ZM50.6393 439.658L50.4213 440.634L50.436 440.637L50.4507 440.64L50.6393 439.658ZM49.4608 439.313L49.0977 440.245L49.1094 440.249L49.4608 439.313ZM48.5623 438.949L48.9544 438.029L47.9211 437.588L47.6032 438.666L48.5623 438.949ZM47.6525 441.026C47.9064 441.191 48.2053 441.339 48.5327 441.474L49.298 439.626C49.0398 439.52 48.8597 439.425 48.7414 439.348L47.6525 441.026ZM48.5695 441.489C48.9096 441.614 49.2783 441.72 49.6729 441.81L50.1153 439.859C49.7906 439.786 49.5068 439.703 49.2612 439.612L48.5695 441.489ZM49.6729 441.81C50.053 441.896 50.4276 441.968 50.7969 442.027L51.1096 440.052C50.786 440 50.4546 439.936 50.1153 439.859L49.6729 441.81ZM50.8024 442.028C51.1971 442.088 51.5675 442.122 51.9085 442.123L51.9173 440.123C51.6983 440.122 51.4289 440.1 51.1041 440.051L50.8024 442.028ZM51.9085 442.123C53.029 442.128 54.0407 441.966 54.909 441.594L54.1208 439.756C53.5731 439.991 52.8501 440.128 51.9173 440.123L51.9085 442.123ZM54.9027 441.597C55.7613 441.235 56.4735 440.712 56.9771 439.999L55.3436 438.845C55.0959 439.195 54.7111 439.507 54.127 439.753L54.9027 441.597ZM56.9674 440.012C57.4877 439.301 57.7445 438.481 57.7484 437.589L55.7484 437.58C55.7462 438.074 55.611 438.479 55.3533 438.831L56.9674 440.012ZM57.7484 437.589C57.751 436.988 57.6561 436.416 57.4349 435.894L55.5932 436.673C55.6887 436.899 55.7501 437.194 55.7484 437.58L57.7484 437.589ZM57.4397 435.905C57.2299 435.392 56.9232 434.934 56.5288 434.536L55.1084 435.944C55.3246 436.163 55.4816 436.401 55.5884 436.662L57.4397 435.905ZM56.5288 434.536C56.1576 434.162 55.7194 433.826 55.2244 433.523L54.1803 435.228C54.563 435.463 54.8689 435.703 55.1084 435.944L56.5288 434.536ZM55.2244 433.523C54.7385 433.225 54.1841 432.943 53.5662 432.672L52.7653 434.505C53.3185 434.747 53.7885 434.989 54.1803 435.228L55.2244 433.523ZM53.6108 432.693C52.8325 432.307 52.1786 431.969 51.6469 431.681L50.6936 433.439C51.2527 433.742 51.9291 434.091 52.7207 434.484L53.6108 432.693ZM51.6633 431.69C51.1869 431.42 50.889 431.167 50.7152 430.95L49.1539 432.2C49.537 432.678 50.0629 433.082 50.6772 433.43L51.6633 431.69ZM50.7298 430.968C50.6115 430.813 50.5387 430.62 50.5399 430.337L48.54 430.329C48.537 431.006 48.7272 431.64 49.1393 432.181L50.7298 430.968ZM50.5399 430.337C50.5413 430.032 50.6419 429.842 50.9023 429.668L49.7906 428.005C48.9813 428.546 48.5442 429.354 48.54 430.329L50.5399 430.337ZM50.8928 429.674C51.2343 429.451 51.7281 429.303 52.4445 429.306L52.4532 427.306C51.4629 427.301 50.5551 427.506 49.8001 427.999L50.8928 429.674ZM52.4445 429.306C52.8428 429.307 53.154 429.344 53.3907 429.402L53.8659 427.459C53.4366 427.354 52.9615 427.308 52.4532 427.306L52.4445 429.306ZM53.4352 429.412C53.7327 429.471 53.976 429.542 54.1717 429.622L54.9226 427.768C54.5859 427.632 54.2166 427.527 53.8214 427.45L53.4352 429.412ZM54.1871 429.628C54.4474 429.728 54.6765 429.826 54.876 429.921L55.7355 428.115C55.4825 427.995 55.2059 427.877 54.9072 427.762L54.1871 429.628ZM56.2184 429.427L56.7637 428.209L54.9384 427.392L54.3931 428.609L56.2184 429.427ZM56.3022 426.908C55.8053 426.657 55.2239 426.441 54.5698 426.253L54.0175 428.175C54.5884 428.339 55.0453 428.514 55.3999 428.693L56.3022 426.908ZM54.5698 426.253C53.8648 426.05 53.1335 425.949 52.3791 425.945L52.3704 427.945C52.9493 427.948 53.4972 428.025 54.0175 428.175L54.5698 426.253ZM52.3791 425.945C51.373 425.941 50.4475 426.11 49.6318 426.488L50.4737 428.302C50.9674 428.073 51.5899 427.942 52.3704 427.945L52.3791 425.945ZM49.6246 426.491C48.852 426.858 48.2092 427.364 47.7348 428.026L49.3601 429.191C49.6102 428.843 49.9709 428.541 50.481 428.299L49.6246 426.491ZM47.7246 428.04C47.2537 428.722 47.0236 429.501 47.0199 430.342L49.0199 430.351C49.0219 429.885 49.1435 429.505 49.3703 429.177L47.7246 428.04ZM47.0199 430.342C47.0174 430.914 47.1052 431.463 47.2978 431.978L49.1708 431.277C49.0734 431.017 49.0183 430.712 49.0199 430.351L47.0199 430.342ZM47.3086 432.006C47.511 432.501 47.7962 432.955 48.156 433.368L49.6632 432.053C49.4392 431.796 49.2742 431.528 49.16 431.249L47.3086 432.006ZM48.1846 433.399C48.5537 433.788 48.9904 434.139 49.4851 434.456L50.5662 432.774C50.1833 432.528 49.876 432.276 49.6346 432.021L48.1846 433.399ZM49.5149 434.475C50.003 434.765 50.5538 435.05 51.1644 435.33L51.9999 433.513C51.4395 433.256 50.9526 433.003 50.5364 432.755L49.5149 434.475ZM51.2013 435.347C51.9592 435.659 52.5744 435.956 53.0558 436.235L54.0603 434.506C53.4777 434.167 52.7755 433.832 51.963 433.497L51.2013 435.347ZM53.0723 436.245C53.5279 436.498 53.8029 436.738 53.9585 436.942L55.5491 435.73C55.1744 435.238 54.6523 434.835 54.0437 434.496L53.0723 436.245ZM53.9731 436.961C54.0932 437.111 54.1696 437.303 54.1683 437.593L56.1683 437.602C56.1713 436.906 55.9713 436.257 55.5345 435.711L53.9731 436.961ZM54.1683 437.593C54.1675 437.786 54.1127 437.96 53.9785 438.142L55.5881 439.329C55.9637 438.82 56.1655 438.236 56.1683 437.602L54.1683 437.593ZM53.9744 438.148C53.8723 438.289 53.6876 438.445 53.3416 438.578L54.0583 440.445C54.6739 440.208 55.2115 439.848 55.5923 439.324L53.9744 438.148ZM53.3416 438.578C53.0127 438.704 52.5448 438.786 51.9031 438.783L51.8944 440.783C52.6926 440.787 53.4256 440.688 54.0583 440.445L53.3416 438.578ZM51.9031 438.783C51.5546 438.782 51.1965 438.747 50.8278 438.676L50.4507 440.64C50.9347 440.733 51.4162 440.781 51.8944 440.783L51.9031 438.783ZM50.8572 438.682C50.4703 438.595 50.1226 438.493 49.8122 438.376L49.1094 440.249C49.5177 440.402 49.9558 440.53 50.4213 440.634L50.8572 438.682ZM49.8238 438.381C49.4843 438.249 49.195 438.131 48.9544 438.029L48.1703 439.869C48.4354 439.982 48.745 440.107 49.0977 440.244L49.8238 438.381ZM47.6032 438.666L47.2378 439.904L49.1561 440.47L49.5215 439.232L47.6032 438.666Z" fill="black"/>
</g>
<defs>
<filter id="filter0_d_0_1" x="-5.50665" y="0.0385437" width="95.954" height="464.336" filterUnits="userSpaceOnUse" color-interpolation-filters="sRGB">
<feFlood flood-opacity="0" result="BackgroundImageFix"/>
<feColorMatrix in="SourceAlpha" type="matrix" values="0 0 0 0 0 0 0 0 0 0 0 0 0 0 0 0 0 0 127 0" result="hardAlpha"/>
<feOffset dy="4"/>
<feGaussianBlur stdDeviation="2"/>
<feComposite in2="hardAlpha" operator="out"/>
<feColorMatrix type="matrix" values="0 0 0 0 0 0 0 0 0 0 0 0 0 0 0 0 0 0 0.25 0"/>
<feBlend mode="normal" in2="BackgroundImageFix" result="effect1_dropShadow_0_1"/>
<feBlend mode="normal" in="SourceGraphic" in2="effect1_dropShadow_0_1" result="shape"/>
</filter>
<filter id="filter1_d_0_1" x="-5.50665" y="0.0385437" width="95.954" height="464.336" filterUnits="userSpaceOnUse" color-interpolation-filters="sRGB">
<feFlood flood-opacity="0" result="BackgroundImageFix"/>
<feColorMatrix in="SourceAlpha" type="matrix" values="0 0 0 0 0 0 0 0 0 0 0 0 0 0 0 0 0 0 127 0" result="hardAlpha"/>
<feOffset dy="4"/>
<feGaussianBlur stdDeviation="2"/>
<feComposite in2="hardAlpha" operator="out"/>
<feColorMatrix type="matrix" values="0 0 0 0 0 0 0 0 0 0 0 0 0 0 0 0 0 0 0.25 0"/>
<feBlend mode="normal" in2="BackgroundImageFix" result="effect1_dropShadow_0_1"/>
<feBlend mode="normal" in="SourceGraphic" in2="effect1_dropShadow_0_1" result="shape"/>
</filter>
</defs>
</svg>
