<svg width="456" height="88" viewBox="0 0 456 88" fill="none" xmlns="http://www.w3.org/2000/svg">
<rect width="456" height="88" fill="#F5F5F5"/>
<g filter="url(#filter0_d_0_1)">
<rect x="456.335" y="2.15305" width="86" height="456" transform="rotate(90.2258 456.335 2.15305)" fill="#2B1F21"/>
</g>
<g filter="url(#filter1_d_0_1)">
<path d="M53.8373 59.1672C48.6022 57.0665 45.0593 54.4092 43.2087 51.1952C43.2274 46.4286 44.6563 41.2342 47.4951 35.612C50.334 29.9898 53.512 26.2756 57.0291 24.4695C58.5024 24.4753 60.1487 24.5684 61.968 24.7489C66.779 24.5079 70.8977 24.0041 74.3241 23.2376L76.0806 22.8545C74.3248 28.5677 72.9141 34.6505 71.8487 41.103C68.042 39.398 64.7578 37.0667 61.9961 34.1091C58.6402 38.9926 56.604 44.3579 55.8877 50.2052L73.1957 45.6583C73.1923 46.525 72.7543 47.715 71.8816 49.2282C71.0525 50.6983 70.0291 51.9943 68.8113 53.1161C67.5937 54.1947 65.6609 55.3354 63.0128 56.5383C60.4082 57.698 57.3497 58.5743 53.8373 59.1672ZM95.7727 56.7324C92.3394 56.7189 90.194 55.5604 89.3364 53.257C88.2988 54.3196 86.879 55.1307 85.0767 55.6903C83.3079 56.25 81.7067 56.527 80.2734 56.5213C77.8734 56.5119 76.1572 56.4051 75.1246 56.201L74.575 56.0989C74.5434 55.6654 74.5285 55.2153 74.5304 54.7487C74.5323 54.2487 74.5348 53.6154 74.5379 52.8487C74.5742 52.0822 74.8829 49.8667 75.4641 46.2023C76.0452 42.5379 76.9099 38.7913 78.0584 34.9624C79.4611 34.268 81.2971 33.6085 83.5662 32.9841C85.8354 32.3597 87.8533 32.0343 89.6201 32.008C89.251 32.6399 88.7808 33.5213 88.2097 34.6524C87.6385 35.7835 86.7966 37.9802 85.6837 41.2425C84.6042 44.505 83.9085 47.6189 83.5969 50.5844L88.7039 48.8045C88.7483 46.0046 88.9916 43.4723 89.4339 41.2073C89.8762 38.909 90.2992 37.3274 90.7026 36.4623L91.3577 35.1648C93.8871 36.1748 97.0017 36.6871 100.702 36.7017C99.2193 40.6959 98.1719 44.2584 97.5596 47.3894C96.9473 50.487 96.6397 52.4358 96.6365 53.2358C96.6335 54.0025 96.6316 54.4691 96.631 54.6358L96.7731 56.6364C96.5062 56.702 96.1727 56.734 95.7727 56.7324ZM99.8936 55.7986C102.4 45.7418 103.655 40.2634 103.658 39.3634C103.666 37.4967 103.605 35.9631 103.477 34.7626L103.379 34.1622C103.68 33.9634 104.147 33.6986 104.782 33.3677C105.45 33.037 107.002 32.5598 109.438 31.9361C111.907 31.3125 114.642 30.8899 117.643 30.6684C115.291 35.3258 112.934 41.3833 110.571 48.8407C112.071 48.8466 113.405 48.7185 114.573 48.4564C115.741 48.161 116.542 47.8809 116.976 47.6159L117.628 47.1685L115.587 57.4105C111.424 56.6274 107.009 56.1267 102.343 55.9083L99.8936 55.7986ZM120.684 31.8304C124.047 32.8103 127.962 33.3091 132.428 33.3267C135.461 33.3387 138.312 33.1666 140.98 32.8104C139.873 34.6394 139.194 37.7201 138.944 42.0524L132.743 42.228C131.756 47.4908 131.084 52.9049 130.729 58.4702C126.964 57.922 124.234 57.2446 122.537 56.4379L121.639 55.9843L125.292 42.3986L117.642 42.5685C118.479 41.5385 119.151 40.1411 119.658 38.3764C120.165 36.5784 120.455 35.0295 120.526 33.7298L120.684 31.8304ZM155.42 59.3675C150.587 57.4285 147.317 54.9755 145.608 52.0088C145.626 47.6088 146.945 42.814 149.565 37.6243C152.186 32.4346 155.119 29.0061 158.366 27.3389C159.726 27.3442 161.245 27.4302 162.925 27.5968C167.366 27.3743 171.168 26.9093 174.33 26.2018L175.952 25.8482C174.331 31.1218 173.029 36.7367 172.045 42.6929C168.532 41.119 165.5 38.9671 162.951 36.237C159.853 40.7448 157.973 45.6975 157.312 51.0949L173.289 46.8978C173.286 47.6978 172.881 48.7962 172.076 50.1931C171.31 51.5501 170.366 52.7464 169.242 53.7819C168.118 54.7775 166.334 55.8305 163.889 56.9409C161.485 58.0114 158.662 58.8203 155.42 59.3675ZM173.741 56.0897C176.247 46.0328 177.502 40.5544 177.505 39.6544C177.513 37.7878 177.452 36.2542 177.324 35.0536L177.226 34.4533C177.527 34.2544 177.994 33.9896 178.629 33.6588C179.297 33.3281 180.849 32.8509 183.285 32.2271C185.754 31.6035 188.489 31.181 191.49 30.9595C189.138 35.6169 186.781 41.6743 184.418 49.1317C185.918 49.1376 187.252 49.0096 188.42 48.7475C189.588 48.4521 190.389 48.1719 190.823 47.907L191.475 47.4595L189.434 57.7016C185.271 56.9185 180.856 56.4177 176.19 56.1993L173.741 56.0897ZM215.297 31.2533C215.223 33.053 215.182 35.1029 215.173 37.4028C215.164 39.7028 215.27 42.3866 215.491 45.4542C215.746 48.4885 216.054 50.6064 216.416 51.8079L216.959 53.56C214.719 55.3179 211.595 57.2222 207.587 59.2731C207.625 58.0733 207.646 56.89 207.651 55.7233C207.655 54.5567 207.643 53.4233 207.614 52.3232C206.28 52.5512 204.979 52.6628 203.713 52.6578C202.479 52.6529 201.463 52.6323 200.663 52.5958C200.191 53.9273 199.533 55.958 198.689 58.688C197.491 58.0833 196.178 57.1615 194.75 55.9225C193.321 54.6502 192.21 53.3958 191.415 52.1593C192.452 51.1301 193.408 49.6672 194.282 47.7706C196.164 43.8113 197.883 39.118 199.437 33.6908C206.639 33.1858 211.926 32.3733 215.297 31.2533ZM206.616 39.0191C205.342 40.9141 203.796 44.2247 201.977 48.9509C202.677 48.987 204.51 49.0109 207.477 49.0226C207.291 45.5552 207.052 42.6209 206.762 40.2197L206.616 39.0191ZM241.666 48.6073C241.656 51.0407 240.098 53.1512 236.991 54.939C233.884 56.6934 228.963 57.9073 222.227 58.5808C221.994 58.4132 221.629 58.0118 221.131 57.3765C220.634 56.7412 220.203 56.1228 219.839 55.5214C218.878 53.9176 218.169 52.0481 217.711 49.9129L222.408 50.6315C223.941 50.8042 225.29 50.8928 226.457 50.8974C230.157 50.912 232.01 50.1026 232.016 48.4693C227.485 48.0514 224.271 47.4221 222.374 46.5813C220.477 45.7071 219.533 44.1867 219.542 42.0201C219.554 38.8535 221.448 36.3276 225.222 34.4424C228.996 32.5573 234.1 31.6274 240.533 31.6527L242.041 42.3088C238.578 41.2951 233.847 40.6931 227.848 40.5028C228.544 41.5056 229.707 42.2935 231.339 42.8666C232.97 43.4397 234.518 43.8291 235.984 44.0349C237.483 44.2408 238.798 44.7127 239.928 45.4505C241.092 46.1884 241.671 47.2407 241.666 48.6073ZM266.178 48.7039C266.168 51.1373 264.61 53.2478 261.503 55.0356C258.396 56.79 253.474 58.004 246.738 58.6774C246.505 58.5098 246.14 58.1084 245.643 57.4731C245.145 56.8378 244.714 56.2194 244.35 55.618C243.39 54.0142 242.68 52.1447 242.222 50.0095L246.919 50.7281C248.452 50.9008 249.802 50.9894 250.968 50.994C254.668 51.0086 256.522 50.1992 256.528 48.5659C251.996 48.148 248.782 47.5187 246.885 46.6779C244.989 45.8037 244.045 44.2833 244.053 42.1167C244.066 38.9501 245.959 36.4242 249.733 34.539C253.507 32.6539 258.611 31.724 265.044 31.7493L266.552 42.4054C263.09 41.3917 258.359 40.7897 252.359 40.5994C253.055 41.6022 254.219 42.3901 255.85 42.9632C257.481 43.5363 259.03 43.9257 260.496 44.1315C261.995 44.3374 263.31 44.8093 264.44 45.5471C265.604 46.285 266.183 47.3373 266.178 48.7039ZM271.257 31.5738C273.554 32.2162 276.652 32.7451 280.551 33.1605C279.029 38.7212 277.842 43.7165 276.992 48.1466C276.141 52.5432 275.662 55.5747 275.556 57.241L275.396 59.6904C272.866 58.9137 270.455 57.4209 268.164 55.2118C268.379 51.4126 268.744 47.5474 269.259 43.616C269.775 39.6514 270.237 36.6532 270.645 34.6214L271.257 31.5738ZM287.647 59.4886C283.62 57.8728 280.895 55.8287 279.471 53.3564C279.485 49.6897 280.585 45.694 282.768 41.3693C284.952 37.0445 287.397 34.1875 290.102 32.7981C291.235 32.8026 292.502 32.8742 293.901 33.0131C297.602 32.8277 300.77 32.4402 303.406 31.8505L304.757 31.5559C303.406 35.9506 302.321 40.6297 301.502 45.5931C298.574 44.2816 296.047 42.4883 293.923 40.2132C291.341 43.9697 289.775 48.0969 289.224 52.5948L302.538 49.0972C302.535 49.7639 302.198 50.6793 301.527 51.8433C300.889 52.9741 300.102 53.971 299.165 54.834C298.229 55.6637 296.742 56.5411 294.705 57.4664C292.701 58.3586 290.349 59.0326 287.647 59.4886ZM327.212 48.9445C327.203 51.3778 325.644 53.4883 322.537 55.2761C319.43 57.0306 314.509 58.2445 307.773 58.918C307.54 58.7504 307.175 58.3489 306.678 57.7136C306.18 57.0783 305.749 56.46 305.385 55.8585C304.424 54.2547 303.715 52.3852 303.257 50.2501L307.954 50.9686C309.487 51.1413 310.836 51.23 312.003 51.2346C315.703 51.2492 317.556 50.4398 317.563 48.8065C313.031 48.3886 309.817 47.7593 307.92 46.9184C306.023 46.0443 305.079 44.5239 305.088 42.3572C305.1 39.1906 306.994 36.6647 310.768 34.7796C314.542 32.8944 319.646 31.9645 326.079 31.9899L327.587 42.6459C324.124 41.6323 319.393 41.0303 313.394 40.84C314.09 41.8427 315.254 42.6306 316.885 43.2037C318.516 43.7768 320.064 44.1663 321.53 44.3721C323.029 44.578 324.344 45.0498 325.475 45.7876C326.638 46.5255 327.218 47.5778 327.212 48.9445Z" fill="#F2F2F2"/>
</g>
<path d="M386.91 65.1565L387.227 67.1078L404.103 60.6492L404.11 58.7492L387.135 52.3823L387.128 54.3073L401.507 59.689L386.91 65.1565ZM404.192 37.94L387.192 37.873L387.185 39.848L394.835 39.8782L394.803 47.8781L387.028 47.8475L387.145 49.7979L404.145 49.8649L404.153 47.9149L396.378 47.8843L396.41 39.8844L404.185 39.915L404.192 37.94ZM403.382 34.2597C403.533 34.0269 403.684 33.7275 403.835 33.3614C403.97 32.9953 404.088 32.5874 404.19 32.1378C404.292 31.6882 404.377 31.2469 404.445 30.8138C404.514 30.3641 404.549 29.9642 404.55 29.6142C404.555 28.3309 404.368 27.2468 403.988 26.362C403.608 25.4605 403.086 24.7751 402.421 24.3058C401.756 23.8198 400.991 23.5751 400.124 23.5717C399.507 23.5693 398.965 23.6672 398.498 23.8653C398.014 24.0634 397.579 24.3534 397.194 24.7352C396.809 25.117 396.449 25.5823 396.114 26.1309C395.778 26.6796 395.451 27.32 395.131 28.0521C394.644 29.0335 394.216 29.8652 393.846 30.547C393.46 31.2289 393.05 31.7439 392.615 32.0922C392.181 32.4238 391.663 32.5885 391.063 32.5861C390.263 32.5829 389.64 32.2471 389.192 31.5787C388.745 30.8936 388.523 30.0177 388.528 28.9511C388.53 28.3844 388.582 27.8929 388.683 27.4767C388.768 27.0437 388.878 26.6608 389.013 26.328C389.148 25.9785 389.282 25.6624 389.417 25.3795L387.894 24.6985C387.626 25.2308 387.381 25.8799 387.162 26.6457C386.942 27.4115 386.831 28.211 386.827 29.0444C386.823 30.161 387.011 31.1284 387.391 31.9466C387.771 32.7481 388.277 33.3751 388.908 33.8276C389.54 34.2634 390.264 34.483 391.081 34.4862C391.664 34.4885 392.198 34.3989 392.682 34.2175C393.166 34.0194 393.617 33.7378 394.035 33.3728C394.437 32.9911 394.814 32.5259 395.166 31.9773C395.501 31.4119 395.837 30.7632 396.173 30.0312C396.577 29.0495 396.972 28.226 397.358 27.5609C397.727 26.8956 398.129 26.3972 398.564 26.0656C398.999 25.7173 399.524 25.5444 400.141 25.5468C400.658 25.5488 401.132 25.7091 401.564 26.0274C401.98 26.3291 402.303 26.7803 402.534 27.3813C402.765 27.9822 402.879 28.7326 402.875 29.6326C402.873 30.1493 402.821 30.6741 402.719 31.207C402.6 31.7399 402.456 32.231 402.288 32.6803C402.12 33.113 401.968 33.4874 401.834 33.8035L403.382 34.2597Z" fill="white"/>
<path d="M386.91 65.1565L386.559 64.22L385.791 64.5077L385.923 65.317L386.91 65.1565ZM387.227 67.1078L386.24 67.2683L386.437 68.4808L387.585 68.0417L387.227 67.1078ZM404.103 60.6492L404.46 61.5832L405.1 61.3383L405.103 60.6532L404.103 60.6492ZM404.11 58.7492L405.11 58.7532L405.113 58.0573L404.461 57.8129L404.11 58.7492ZM387.135 52.3823L387.486 51.446L386.141 50.9413L386.135 52.3783L387.135 52.3823ZM387.128 54.3073L386.128 54.3033L386.125 54.9997L386.777 55.2438L387.128 54.3073ZM401.507 59.689L401.857 60.6254L404.358 59.6886L401.857 58.7524L401.507 59.689ZM385.923 65.317L386.24 67.2683L388.214 66.9473L387.897 64.996L385.923 65.317ZM387.585 68.0417L404.46 61.5832L403.745 59.7153L386.87 66.1738L387.585 68.0417ZM405.103 60.6532L405.11 58.7532L403.11 58.7453L403.103 60.6453L405.103 60.6532ZM404.461 57.8129L387.486 51.446L386.784 53.3186L403.759 59.6855L404.461 57.8129ZM386.135 52.3783L386.128 54.3033L388.128 54.3112L388.135 52.3862L386.135 52.3783ZM386.777 55.2438L401.156 60.6255L401.857 58.7524L387.478 53.3707L386.777 55.2438ZM401.156 58.7525L386.559 64.22L387.261 66.093L401.857 60.6254L401.156 58.7525ZM404.192 37.94L405.192 37.944L405.196 36.944L404.196 36.94L404.192 37.94ZM387.192 37.873L387.196 36.873L386.196 36.8691L386.192 37.8691L387.192 37.873ZM387.185 39.848L386.185 39.8441L386.181 40.8441L387.181 40.848L387.185 39.848ZM394.835 39.8782L395.835 39.8821L395.839 38.8821L394.839 38.8782L394.835 39.8782ZM394.803 47.8781L394.799 48.8781L395.799 48.882L395.803 47.882L394.803 47.8781ZM387.028 47.8475L387.032 46.8475L385.966 46.8433L386.03 47.9075L387.028 47.8475ZM387.145 49.7979L386.147 49.858L386.204 50.7942L387.141 50.7979L387.145 49.7979ZM404.145 49.8649L404.141 50.8649L405.141 50.8689L405.145 49.8689L404.145 49.8649ZM404.153 47.9149L405.153 47.9189L405.157 46.9189L404.157 46.915L404.153 47.9149ZM396.378 47.8843L395.378 47.8804L395.374 48.8804L396.374 48.8843L396.378 47.8843ZM396.41 39.8844L396.414 38.8844L395.414 38.8804L395.41 39.8804L396.41 39.8844ZM404.185 39.915L404.181 40.915L405.181 40.9189L405.185 39.9189L404.185 39.915ZM404.196 36.94L387.196 36.873L387.188 38.873L404.188 38.94L404.196 36.94ZM386.192 37.8691L386.185 39.8441L388.185 39.8519L388.192 37.877L386.192 37.8691ZM387.181 40.848L394.831 40.8782L394.839 38.8782L387.189 38.848L387.181 40.848ZM393.835 39.8742L393.803 47.8742L395.803 47.882L395.835 39.8821L393.835 39.8742ZM394.807 46.8781L387.032 46.8475L387.024 48.8474L394.799 48.8781L394.807 46.8781ZM386.03 47.9075L386.147 49.858L388.144 49.7379L388.026 47.7874L386.03 47.9075ZM387.141 50.7979L404.141 50.8649L404.149 48.8649L387.149 48.7979L387.141 50.7979ZM405.145 49.8689L405.153 47.9189L403.153 47.911L403.145 49.861L405.145 49.8689ZM404.157 46.915L396.382 46.8843L396.374 48.8843L404.149 48.9149L404.157 46.915ZM397.378 47.8882L397.41 39.8883L395.41 39.8804L395.378 47.8804L397.378 47.8882ZM396.406 40.8844L404.181 40.915L404.188 38.915L396.414 38.8844L396.406 40.8844ZM405.185 39.9189L405.192 37.944L403.192 37.9361L403.185 39.9111L405.185 39.9189ZM403.382 34.2597L403.099 35.2189L403.815 35.4297L404.221 34.8037L403.382 34.2597ZM403.835 33.3614L404.759 33.7437L404.767 33.7254L404.774 33.7069L403.835 33.3614ZM404.19 32.1378L403.215 31.917L403.215 31.917L404.19 32.1378ZM404.445 30.8138L405.433 30.9698L405.434 30.9643L404.445 30.8138ZM403.988 26.362L403.066 26.7502L403.069 26.7565L403.988 26.362ZM402.421 24.3058L401.831 25.1131L401.838 25.118L401.844 25.1228L402.421 24.3058ZM398.498 23.8653L398.876 24.7909L398.888 24.786L398.498 23.8653ZM396.114 26.1309L395.261 25.6093L396.114 26.1309ZM395.131 28.0521L396.027 28.4967L396.038 28.4747L396.048 28.4521L395.131 28.0521ZM393.846 30.547L394.717 31.0397L394.721 31.0316L394.726 31.0233L393.846 30.547ZM392.615 32.0922L393.222 32.8872L393.231 32.88L393.241 32.8726L392.615 32.0922ZM389.192 31.5787L388.355 32.1254L388.361 32.1349L389.192 31.5787ZM388.683 27.4767L389.655 27.7139L389.66 27.6917L389.665 27.6694L388.683 27.4767ZM389.013 26.328L389.94 26.703L389.943 26.6953L389.946 26.6876L389.013 26.328ZM389.417 25.3795L390.32 25.8089L390.759 24.8846L389.825 24.4667L389.417 25.3795ZM387.894 24.6985L388.303 23.7857L387.432 23.3961L387.002 24.2478L387.894 24.6985ZM387.391 31.9466L386.484 32.368L386.487 32.3752L387.391 31.9466ZM388.908 33.8276L388.326 34.6405L388.333 34.6457L388.34 34.6507L388.908 33.8276ZM392.682 34.2175L393.033 35.1539L393.047 35.1486L393.061 35.143L392.682 34.2175ZM394.035 33.3728L394.693 34.1261L394.709 34.1122L394.724 34.0975L394.035 33.3728ZM395.166 31.9773L396.007 32.5175L396.017 32.5027L396.026 32.4877L395.166 31.9773ZM396.173 30.0312L397.082 30.4486L397.091 30.4303L397.098 30.4117L396.173 30.0312ZM397.358 27.5609L398.223 28.0627L398.228 28.0545L398.232 28.0462L397.358 27.5609ZM398.564 26.0656L399.171 26.8606L399.18 26.8534L399.189 26.846L398.564 26.0656ZM401.564 26.0274L400.971 26.8325L400.977 26.8367L401.564 26.0274ZM402.534 27.3813L403.467 27.0225L403.467 27.0225L402.534 27.3813ZM402.719 31.207L403.695 31.4246L403.698 31.4099L403.701 31.3952L402.719 31.207ZM402.288 32.6803L403.22 33.043L403.224 33.0313L402.288 32.6803ZM401.834 33.8035L400.913 33.4119L400.474 34.4454L401.551 34.7628L401.834 33.8035ZM404.221 34.8037C404.416 34.5032 404.594 34.1444 404.759 33.7437L402.911 32.9792C402.774 33.3106 402.65 33.5506 402.543 33.7156L404.221 34.8037ZM404.774 33.7069C404.926 33.2935 405.056 32.8432 405.165 32.3586L403.215 31.917C403.121 32.3317 403.014 32.6971 402.897 33.016L404.774 33.7069ZM405.165 32.3586C405.272 31.8886 405.361 31.4257 405.433 30.9698L403.458 30.6579C403.393 31.0681 403.312 31.4878 403.215 31.917L405.165 32.3586ZM405.434 30.9643C405.508 30.4796 405.548 30.0292 405.55 29.6182L403.55 29.6103C403.549 29.8992 403.52 30.2486 403.457 30.6634L405.434 30.9643ZM405.55 29.6182C405.556 28.2411 405.355 27.0126 404.907 25.9675L403.069 26.7565C403.38 27.481 403.555 28.4207 403.55 29.6103L405.55 29.6182ZM404.909 25.9737C404.472 24.935 403.844 24.086 402.998 23.4888L401.844 25.1228C402.328 25.4642 402.744 25.986 403.066 26.7502L404.909 25.9737ZM403.011 23.4985C402.167 22.8813 401.194 22.5759 400.128 22.5717L400.12 24.5717C400.788 24.5744 401.346 24.7583 401.831 25.1131L403.011 23.4985ZM400.128 22.5717C399.404 22.5689 398.723 22.6836 398.107 22.9446L398.888 24.786C399.207 24.6508 399.61 24.5697 400.12 24.5717L400.128 22.5717ZM398.119 22.9398C397.509 23.1895 396.965 23.5543 396.49 24.0253L397.899 25.4451C398.194 25.1524 398.518 24.9373 398.876 24.7908L398.119 22.9398ZM396.49 24.0253C396.039 24.473 395.63 25.0044 395.261 25.6093L396.967 26.6526C397.268 26.1601 397.58 25.761 397.899 25.4451L396.49 24.0253ZM395.261 25.6093C394.896 26.205 394.548 26.8876 394.215 27.652L396.048 28.4521C396.353 27.7524 396.66 27.1543 396.967 26.6526L395.261 25.6093ZM394.235 27.6074C393.752 28.5822 393.329 29.4026 392.967 30.0708L394.726 31.0233C395.102 30.3277 395.536 29.4848 396.027 28.4967L394.235 27.6074ZM392.976 30.0544C392.629 30.6672 392.294 31.0682 391.99 31.3118L393.241 32.8726C393.806 32.4196 394.291 31.7905 394.717 31.0397L392.976 30.0544ZM392.009 31.2972C391.767 31.4818 391.469 31.5877 391.067 31.5861L391.059 33.5861C391.857 33.5892 392.595 33.3658 393.222 32.8872L392.009 31.2972ZM391.067 31.5861C390.602 31.5843 390.287 31.4166 390.023 31.0225L388.361 32.1349C388.992 33.0777 389.925 33.5816 391.059 33.5861L391.067 31.5861ZM390.03 31.032C389.717 30.5536 389.524 29.8847 389.528 28.955L387.528 28.9471C387.523 30.1507 387.773 31.2336 388.355 32.1254L390.03 31.032ZM389.528 28.955C389.53 28.4434 389.577 28.0338 389.655 27.7139L387.712 27.2395C387.587 27.752 387.53 28.3254 387.528 28.9471L389.528 28.955ZM389.665 27.6694C389.74 27.2852 389.834 26.9653 389.94 26.703L388.086 25.9529C387.923 26.3562 387.797 26.8022 387.702 27.284L389.665 27.6694ZM389.946 26.6876C390.073 26.3574 390.198 26.065 390.32 25.8089L388.514 24.9502C388.366 25.2597 388.222 25.5996 388.08 25.9683L389.946 26.6876ZM389.825 24.4667L388.303 23.7857L387.486 25.6114L389.008 26.2924L389.825 24.4667ZM387.002 24.2478C386.697 24.8512 386.432 25.5625 386.2 26.3699L388.123 26.9214C388.331 26.1972 388.554 25.6104 388.787 25.1493L387.002 24.2478ZM386.2 26.3699C385.954 27.2281 385.831 28.1194 385.827 29.0404L387.827 29.0483C387.83 28.3027 387.93 27.5948 388.123 26.9214L386.2 26.3699ZM385.827 29.0404C385.822 30.2699 386.029 31.3888 386.484 32.3679L388.298 31.5253C387.992 30.8681 387.823 30.0522 387.827 29.0483L385.827 29.0404ZM386.487 32.3752C386.93 33.3079 387.538 34.0759 388.326 34.6405L389.491 33.0147C389.016 32.6743 388.612 32.1883 388.294 31.518L386.487 32.3752ZM388.34 34.6507C389.149 35.2085 390.072 35.4822 391.077 35.4862L391.085 33.4862C390.456 33.4837 389.931 33.3184 389.476 33.0045L388.34 34.6507ZM391.077 35.4862C391.766 35.4889 392.422 35.3829 393.033 35.1539L392.331 33.2811C391.974 33.4149 391.562 33.4881 391.085 33.4862L391.077 35.4862ZM393.061 35.143C393.653 34.9008 394.197 34.5591 394.693 34.1261L393.378 32.6195C393.037 32.9166 392.679 33.138 392.303 33.292L393.061 35.143ZM394.724 34.0975C395.193 33.6519 395.619 33.1219 396.007 32.5175L394.324 31.4371C394.008 31.9298 393.681 32.3302 393.346 32.6481L394.724 34.0975ZM396.026 32.4877C396.383 31.8864 396.734 31.2057 397.082 30.4486L395.265 29.6138C394.94 30.3208 394.62 30.9374 394.306 31.4668L396.026 32.4877ZM397.098 30.4117C397.491 29.4572 397.866 28.6773 398.223 28.0627L396.493 27.059C396.078 27.7747 395.664 28.6417 395.249 29.6508L397.098 30.4117ZM398.232 28.0462C398.559 27.4575 398.88 27.0826 399.171 26.8606L397.957 25.2706C397.379 25.7118 396.896 26.3338 396.484 27.0755L398.232 28.0462ZM399.189 26.846C399.426 26.6562 399.723 26.5452 400.137 26.5468L400.145 24.5468C399.326 24.5436 398.571 24.7784 397.939 25.2852L399.189 26.846ZM400.137 26.5468C400.433 26.548 400.703 26.6347 400.971 26.8325L402.157 25.2224C401.562 24.7834 400.882 24.5497 400.145 24.5468L400.137 26.5468ZM400.977 26.8367C401.2 26.999 401.421 27.2738 401.6 27.74L403.467 27.0225C403.185 26.2869 402.759 25.6591 402.152 25.2182L400.977 26.8367ZM401.6 27.74C401.773 28.1891 401.878 28.8069 401.875 29.6287L403.875 29.6366C403.879 28.6583 403.757 27.7753 403.467 27.0225L401.6 27.74ZM401.875 29.6287C401.873 30.0805 401.828 30.5436 401.737 31.0189L403.701 31.3952C403.814 30.8046 403.873 30.2181 403.875 29.6366L401.875 29.6287ZM401.743 30.9895C401.633 31.483 401.502 31.9289 401.352 32.3293L403.224 33.0313C403.411 32.533 403.567 31.9967 403.695 31.4246L401.743 30.9895ZM401.356 32.3177C401.19 32.7437 401.043 33.108 400.913 33.4119L402.754 34.1952C402.893 33.8668 403.049 33.4823 403.22 33.043L401.356 32.3177ZM401.551 34.7628L403.099 35.2189L403.664 33.3004L402.116 32.8443L401.551 34.7628Z" fill="white"/>
<path d="M413.55 61.3297C413.456 61.4827 413.382 61.6657 413.328 61.8788C413.267 62.0853 413.223 62.2951 413.196 62.5083C413.168 62.7149 413.154 62.8882 413.154 63.0282C413.152 63.5215 413.24 63.9685 413.418 64.3692C413.597 64.7633 413.849 65.1009 414.174 65.3822C414.5 65.6568 414.879 65.8683 415.312 66.0167C415.744 66.1651 416.214 66.2402 416.721 66.2422C417.194 66.2441 417.641 66.1825 418.062 66.0575C418.482 65.9259 418.856 65.7307 419.184 65.4719C419.505 65.2065 419.76 64.8775 419.948 64.4849C420.136 64.0924 420.231 63.6361 420.233 63.1161C420.234 62.9227 420.218 62.716 420.186 62.4959C420.153 62.2757 420.107 62.0656 420.048 61.8653C419.989 61.6584 419.923 61.4848 419.85 61.3445L419.259 61.6422C419.338 61.8292 419.407 62.0395 419.467 62.273C419.526 62.5066 419.554 62.7967 419.553 63.1434C419.552 63.5034 419.477 63.8264 419.329 64.1125C419.182 64.3919 418.977 64.6311 418.716 64.8301C418.449 65.0224 418.145 65.1678 417.805 65.2665C417.464 65.3652 417.101 65.4137 416.714 65.4122C416.147 65.41 415.648 65.3047 415.215 65.0963C414.783 64.8813 414.444 64.5966 414.199 64.2423C413.953 63.8813 413.832 63.4775 413.833 63.0308C413.834 62.8042 413.848 62.6109 413.876 62.451C413.896 62.2911 413.93 62.1445 413.978 62.0114C414.018 61.8716 414.069 61.7284 414.129 61.582L413.55 61.3297ZM420.267 54.5295C420.265 55.1428 420.112 55.6889 419.811 56.1677C419.509 56.6465 419.094 57.0216 418.566 57.2928C418.032 57.5574 417.425 57.6883 416.745 57.6856C416.065 57.683 415.458 57.5439 414.926 57.2685C414.387 56.9863 413.962 56.6047 413.651 56.1234C413.339 55.6355 413.178 55.0816 413.167 54.4615C413.17 53.8482 413.325 53.3021 413.634 52.8233C413.936 52.3445 414.35 51.9695 414.878 51.6982C415.406 51.427 416.01 51.2927 416.69 51.2954C417.37 51.298 417.979 51.4404 418.518 51.7226C419.057 51.998 419.482 52.3797 419.794 52.8676C420.098 53.3488 420.256 53.9028 420.267 54.5295ZM419.577 54.5468C419.579 54.0801 419.457 53.6663 419.212 53.3053C418.967 52.9444 418.628 52.6597 418.195 52.4513C417.756 52.2429 417.256 52.1376 416.696 52.1354C416.15 52.1332 415.663 52.2313 415.235 52.4296C414.808 52.628 414.473 52.9033 414.232 53.2557C413.991 53.6014 413.869 53.9976 413.867 54.4443C413.865 54.9109 413.987 55.3247 414.232 55.6857C414.478 56.0467 414.817 56.3314 415.249 56.5397C415.682 56.7481 416.178 56.8534 416.738 56.8556C417.285 56.8578 417.772 56.7597 418.199 56.5614C418.626 56.363 418.964 56.091 419.212 55.7453C419.454 55.3996 419.575 55.0001 419.577 54.5468ZM419.552 43.0005L419.54 46.1705L413.36 46.1461L413.357 46.9261L420.157 46.9529L420.173 42.9229L419.552 43.0005ZM420.339 36.2249C420.337 36.8383 420.185 37.3843 419.883 37.8632C419.581 38.342 419.166 38.717 418.638 38.9883C418.104 39.2528 417.497 39.3838 416.817 39.3811C416.137 39.3784 415.531 39.2394 414.998 38.9639C414.459 38.6818 414.034 38.3001 413.723 37.8189C413.411 37.331 413.25 36.777 413.239 36.157C413.242 35.5436 413.397 34.9976 413.706 34.5188C414.008 34.04 414.423 33.6649 414.95 33.3937C415.478 33.1224 416.082 32.9881 416.762 32.9908C417.442 32.9935 418.051 33.1359 418.59 33.418C419.129 33.6935 419.554 34.0752 419.866 34.5631C420.171 35.0443 420.328 35.5982 420.339 36.2249ZM419.649 36.2422C419.651 35.7756 419.529 35.3617 419.284 35.0008C419.039 34.6398 418.7 34.3551 418.267 34.1468C417.828 33.9384 417.329 33.8331 416.769 33.8309C416.222 33.8287 415.735 33.9268 415.307 34.1251C414.88 34.3234 414.546 34.5988 414.304 34.9511C414.063 35.2969 413.941 35.6931 413.939 36.1397C413.938 36.6064 414.059 37.0202 414.305 37.3812C414.55 37.7421 414.889 38.0268 415.321 38.2352C415.754 38.4436 416.25 38.5488 416.81 38.5511C417.357 38.5532 417.844 38.4551 418.271 38.2568C418.699 38.0585 419.036 37.7865 419.284 37.4408C419.526 37.0951 419.647 36.6956 419.649 36.2422ZM414.106 26.7742C414.108 26.4409 414.149 26.1477 414.23 25.8947C414.304 25.6417 414.438 25.4422 414.632 25.2963C414.826 25.1504 415.1 25.0781 415.453 25.0795C415.793 25.0808 416.063 25.1652 416.262 25.3327C416.455 25.5001 416.594 25.7173 416.68 25.9843C416.765 26.2514 416.807 26.5449 416.806 26.8649L416.802 27.8548L414.102 27.8442L414.106 26.7742ZM413.429 28.6216L420.229 28.6484L420.232 27.8684L417.442 27.8574L417.446 26.8974C417.446 26.784 417.444 26.6607 417.437 26.5273C417.431 26.3873 417.422 26.2706 417.409 26.1772L420.245 24.6284L420.248 23.7584L417.202 25.4764C417.056 25.1292 416.841 24.845 416.555 24.6238C416.262 24.396 415.886 24.2779 415.426 24.2694C414.946 24.2675 414.563 24.376 414.275 24.5949C413.981 24.8137 413.77 25.1129 413.641 25.4924C413.507 25.8718 413.438 26.2982 413.436 26.7716L413.429 28.6216Z" fill="white"/>
<path d="M413.55 61.3297L413.75 60.8713L413.352 60.6977L413.124 61.0681L413.55 61.3297ZM413.328 61.8788L413.808 62.0201L413.81 62.0111L413.813 62.002L413.328 61.8788ZM413.196 62.5083L413.691 62.5743L413.691 62.5723L413.196 62.5083ZM413.418 64.3692L412.961 64.5726L412.963 64.5755L413.418 64.3692ZM414.174 65.3822L413.847 65.7606L413.852 65.7644L414.174 65.3822ZM415.312 66.0167L415.474 65.5437L415.474 65.5437L415.312 66.0167ZM418.062 66.0575L418.204 66.5368L418.211 66.5347L418.062 66.0575ZM419.184 65.4719L419.494 65.8645L419.502 65.8573L419.184 65.4719ZM419.948 64.4849L420.399 64.7011L419.948 64.4849ZM420.186 62.4959L420.68 62.4229L420.68 62.4229L420.186 62.4959ZM420.048 61.8653L419.567 62.0028L419.569 62.0071L420.048 61.8653ZM419.85 61.3445L420.294 61.1143L420.067 60.6758L419.625 60.898L419.85 61.3445ZM419.259 61.6422L419.034 61.1956L418.616 61.4062L418.799 61.8374L419.259 61.6422ZM419.467 62.273L419.951 62.1504L419.951 62.1504L419.467 62.273ZM419.329 64.1125L419.771 64.3463L419.773 64.342L419.329 64.1125ZM418.716 64.8301L419.008 65.2361L419.014 65.2319L419.02 65.2276L418.716 64.8301ZM417.805 65.2665L417.666 64.7863L417.666 64.7863L417.805 65.2665ZM415.215 65.0963L414.993 65.544L414.998 65.5468L415.215 65.0963ZM414.199 64.2423L413.785 64.5233L413.788 64.5269L414.199 64.2423ZM413.876 62.451L414.369 62.5351L414.37 62.5251L414.372 62.515L413.876 62.451ZM413.978 62.0114L414.449 62.1784L414.454 62.1647L414.458 62.1507L413.978 62.0114ZM414.129 61.582L414.591 61.7731L414.779 61.3196L414.329 61.1236L414.129 61.582ZM413.124 61.0681C412.999 61.2724 412.907 61.5043 412.843 61.7557L413.813 62.002C413.857 61.8272 413.914 61.693 413.976 61.5914L413.124 61.0681ZM412.848 61.7375C412.78 61.9693 412.731 62.2049 412.7 62.4443L413.691 62.5723C413.716 62.3853 413.754 62.2013 413.808 62.0201L412.848 61.7375ZM412.7 62.4424C412.671 62.661 412.654 62.8572 412.654 63.0262L413.653 63.0301C413.654 62.9191 413.665 62.7688 413.691 62.5743L412.7 62.4424ZM412.654 63.0262C412.651 63.5814 412.751 64.0997 412.961 64.5726L413.875 64.1658C413.729 63.8374 413.652 63.4616 413.653 63.0301L412.654 63.0262ZM412.963 64.5755C413.171 65.0352 413.467 65.4316 413.847 65.7605L414.501 65.0039C414.231 64.7702 414.022 64.4914 413.874 64.1629L412.963 64.5755ZM413.852 65.7644C414.228 66.0818 414.663 66.3227 415.15 66.4897L415.474 65.5437C415.095 65.4139 414.771 65.2318 414.497 65L413.852 65.7644ZM415.15 66.4897C415.639 66.6575 416.164 66.7401 416.719 66.7422L416.723 65.7422C416.265 65.7404 415.85 65.6726 415.474 65.5437L415.15 66.4897ZM416.719 66.7422C417.237 66.7443 417.733 66.6768 418.204 66.5368L417.919 65.5783C417.549 65.6883 417.151 65.7439 416.723 65.7422L416.719 66.7422ZM418.211 66.5347C418.686 66.3858 419.116 66.1629 419.494 65.8644L418.874 65.0795C418.597 65.2984 418.278 65.4659 417.912 65.5804L418.211 66.5347ZM419.502 65.8573C419.882 65.5437 420.181 65.156 420.399 64.7011L419.497 64.2688C419.339 64.5991 419.128 64.8694 418.865 65.0866L419.502 65.8573ZM420.399 64.7011C420.625 64.2299 420.731 63.6979 420.733 63.118L419.733 63.1141C419.731 63.5742 419.647 63.9548 419.497 64.2688L420.399 64.7011ZM420.733 63.118C420.734 62.8962 420.716 62.6642 420.68 62.4229L419.691 62.5688C419.72 62.7678 419.734 62.9492 419.733 63.1141L420.733 63.118ZM420.68 62.4229C420.645 62.181 420.594 61.9477 420.528 61.7235L419.569 62.0071C419.621 62.1834 419.662 62.3705 419.691 62.5688L420.68 62.4229ZM420.529 61.7278C420.464 61.4995 420.387 61.2926 420.294 61.1143L419.406 61.5748C419.459 61.677 419.514 61.8173 419.567 62.0028L420.529 61.7278ZM419.625 60.898L419.034 61.1956L419.484 62.0888L420.075 61.7911L419.625 60.898ZM418.799 61.8374C418.866 61.997 418.928 62.1824 418.982 62.3956L419.951 62.1504C419.887 61.8965 419.81 61.6614 419.719 61.4471L418.799 61.8374ZM418.982 62.3956C419.027 62.575 419.054 62.8201 419.053 63.1414L420.053 63.1454C420.055 62.7734 420.024 62.4382 419.951 62.1504L418.982 62.3956ZM419.053 63.1414C419.052 63.4317 418.992 63.6752 418.885 63.883L419.773 64.342C419.962 63.9776 420.051 63.5751 420.053 63.1454L419.053 63.1414ZM418.887 63.8788C418.775 64.0918 418.619 64.2758 418.413 64.4326L419.02 65.2276C419.336 64.9864 419.588 64.6921 419.771 64.3463L418.887 63.8788ZM418.425 64.4241C418.207 64.5807 417.955 64.7023 417.666 64.7863L417.944 65.7467C418.335 65.6334 418.691 65.4641 419.008 65.2361L418.425 64.4241ZM417.666 64.7863C417.375 64.8705 417.059 64.9136 416.716 64.9122L416.712 65.9122C417.142 65.9139 417.554 65.8598 417.944 65.7467L417.666 64.7863ZM416.716 64.9122C416.211 64.9102 415.787 64.8166 415.432 64.6459L414.998 65.5468C415.509 65.7928 416.084 65.9097 416.712 65.9122L416.716 64.9122ZM415.438 64.6486C415.072 64.4665 414.801 64.2345 414.61 63.9577L413.788 64.5269C414.087 64.9587 414.494 65.296 414.993 65.544L415.438 64.6486ZM414.612 63.9613C414.425 63.6858 414.332 63.3811 414.333 63.0328L413.333 63.0289C413.331 63.5739 413.482 64.0768 413.785 64.5233L414.612 63.9613ZM414.333 63.0328C414.334 62.8237 414.347 62.6596 414.369 62.5351L413.383 62.3669C413.35 62.5622 413.334 62.7846 413.333 63.0289L414.333 63.0328ZM414.372 62.515C414.388 62.3853 414.415 62.2739 414.449 62.1784L413.506 61.8444C413.446 62.0152 413.404 62.1968 413.38 62.387L414.372 62.515ZM414.458 62.1507C414.493 62.0299 414.537 61.9041 414.591 61.7731L413.667 61.3909C413.6 61.5528 413.543 61.7132 413.497 61.8721L414.458 62.1507ZM414.329 61.1236L413.75 60.8713L413.35 61.7881L413.929 62.0404L414.329 61.1236ZM420.267 54.5295L420.767 54.5315L420.767 54.5208L420.267 54.5295ZM419.811 56.1677L419.388 55.901L419.388 55.901L419.811 56.1677ZM418.566 57.2928L418.788 57.7409L418.795 57.7375L418.566 57.2928ZM414.926 57.2685L414.694 57.7114L414.696 57.7125L414.926 57.2685ZM413.651 56.1234L413.229 56.3924L413.231 56.3951L413.651 56.1234ZM413.167 54.4615L412.667 54.4595L412.667 54.4703L413.167 54.4615ZM413.634 52.8233L414.054 53.0942L414.057 53.09L413.634 52.8233ZM418.518 51.7226L418.286 52.1656L418.291 52.1678L418.518 51.7226ZM419.794 52.8676L420.216 52.6001L420.215 52.5986L419.794 52.8676ZM419.212 53.3053L418.798 53.5863L418.798 53.5863L419.212 53.3053ZM418.195 52.4513L418.412 52.0008L418.41 51.9996L418.195 52.4513ZM415.235 52.4296L415.446 52.8832L415.446 52.8832L415.235 52.4296ZM414.232 53.2557L414.642 53.5419L414.645 53.5383L414.232 53.2557ZM414.232 55.6857L414.646 55.4047L414.646 55.4047L414.232 55.6857ZM415.249 56.5397L415.466 56.0893L415.466 56.0893L415.249 56.5397ZM418.199 56.5614L418.409 57.0149L418.409 57.0149L418.199 56.5614ZM419.212 55.7453L419.619 56.0368L419.622 56.0316L419.212 55.7453ZM419.767 54.5275C419.765 55.0553 419.635 55.5081 419.388 55.901L420.234 56.4344C420.59 55.8697 420.764 55.2304 420.767 54.5315L419.767 54.5275ZM419.388 55.901C419.136 56.3005 418.79 56.6157 418.338 56.8481L418.795 57.7375C419.398 57.4274 419.882 56.9926 420.234 56.4344L419.388 55.901ZM418.344 56.8447C417.889 57.0703 417.36 57.1881 416.747 57.1856L416.743 58.1856C417.489 58.1886 418.175 58.0445 418.788 57.7409L418.344 56.8447ZM416.747 57.1856C416.135 57.1832 415.609 57.0587 415.156 56.8244L414.696 57.7125C415.308 58.0291 415.994 58.1827 416.743 58.1856L416.747 57.1856ZM415.158 56.8255C414.691 56.5808 414.332 56.2562 414.07 55.8518L413.231 56.3951C413.592 56.9531 414.084 57.3919 414.694 57.7114L415.158 56.8255ZM414.072 55.8544C413.814 55.4499 413.677 54.9873 413.667 54.4527L412.667 54.4703C412.68 55.1758 412.865 55.8211 413.229 56.3924L414.072 55.8544ZM413.667 54.4635C413.669 53.9379 413.801 53.4866 414.054 53.0942L413.213 52.5525C412.849 53.1176 412.67 53.7585 412.667 54.4595L413.667 54.4635ZM414.057 53.09C414.309 52.6906 414.655 52.3754 415.107 52.1429L414.65 51.2535C414.046 51.5636 413.563 51.9985 413.211 52.5567L414.057 53.09ZM415.107 52.1429C415.553 51.9133 416.076 51.793 416.688 51.7954L416.692 50.7954C415.943 50.7924 415.258 50.9406 414.65 51.2535L415.107 52.1429ZM416.688 51.7954C417.297 51.7978 417.826 51.9248 418.286 52.1655L418.75 51.2796C418.132 50.9561 417.442 50.7983 416.692 50.7954L416.688 51.7954ZM418.291 52.1678C418.754 52.4047 419.111 52.7271 419.372 53.1366L420.215 52.5986C419.854 52.0323 419.36 51.5913 418.746 51.2774L418.291 52.1678ZM419.371 53.1351C419.622 53.5311 419.758 53.9937 419.767 54.5382L420.767 54.5208C420.755 53.8119 420.575 53.1665 420.216 52.6001L419.371 53.1351ZM420.077 54.5487C420.079 53.9886 419.931 53.4746 419.625 53.0243L418.798 53.5863C418.983 53.8579 419.078 54.1716 419.077 54.5448L420.077 54.5487ZM419.625 53.0243C419.326 52.5834 418.916 52.2435 418.412 52.0009L417.978 52.9018C418.34 53.0759 418.607 53.3053 418.798 53.5863L419.625 53.0243ZM418.41 51.9996C417.895 51.7552 417.321 51.6379 416.698 51.6354L416.694 52.6354C417.192 52.6374 417.617 52.7306 417.981 52.903L418.41 51.9996ZM416.698 51.6354C416.09 51.633 415.529 51.7423 415.025 51.9761L415.446 52.8832C415.797 52.7203 416.209 52.6335 416.694 52.6354L416.698 51.6354ZM415.025 51.9761C414.525 52.2082 414.117 52.5391 413.82 52.9731L414.645 53.5383C414.83 53.2675 415.091 53.0477 415.446 52.8832L415.025 51.9761ZM413.822 52.9695C413.519 53.4037 413.369 53.9003 413.367 54.4423L414.367 54.4462C414.369 54.0949 414.462 53.7992 414.642 53.5419L413.822 52.9695ZM413.367 54.4423C413.365 55.0025 413.513 55.5164 413.819 55.9667L414.646 55.4047C414.461 55.1331 414.366 54.8194 414.367 54.4462L413.367 54.4423ZM413.819 55.9667C414.118 56.4076 414.528 56.7475 415.032 56.9902L415.466 56.0893C415.105 55.9152 414.837 55.6858 414.646 55.4047L413.819 55.9667ZM415.032 56.9902C415.542 57.2358 416.114 57.3531 416.736 57.3556L416.74 56.3556C416.242 56.3536 415.821 56.2604 415.466 56.0893L415.032 56.9902ZM416.736 57.3556C417.344 57.358 417.906 57.2487 418.409 57.0149L417.989 56.1078C417.638 56.2707 417.225 56.3575 416.74 56.3556L416.736 57.3556ZM418.409 57.0149C418.906 56.7843 419.315 56.4598 419.619 56.0368L418.806 55.4539C418.613 55.7222 418.347 55.9417 417.989 56.1078L418.409 57.0149ZM419.622 56.0316C419.926 55.5961 420.075 55.0957 420.077 54.5487L419.077 54.5448C419.076 54.9045 418.981 55.2032 418.802 55.4591L419.622 56.0316ZM419.552 43.0005L419.49 42.5044L419.054 42.5589L419.052 42.9985L419.552 43.0005ZM419.54 46.1705L419.538 46.6705L420.038 46.6724L420.04 46.1724L419.54 46.1705ZM413.36 46.1461L413.362 45.6461L412.862 45.6441L412.86 46.1441L413.36 46.1461ZM413.357 46.9261L412.857 46.9241L412.855 47.4241L413.355 47.4261L413.357 46.9261ZM420.157 46.9529L420.155 47.4529L420.655 47.4549L420.657 46.9549L420.157 46.9529ZM420.173 42.9229L420.673 42.9249L420.675 42.3562L420.111 42.4268L420.173 42.9229ZM419.052 42.9985L419.04 46.1685L420.04 46.1724L420.052 43.0025L419.052 42.9985ZM419.542 45.6705L413.362 45.6461L413.358 46.6461L419.538 46.6705L419.542 45.6705ZM412.86 46.1441L412.857 46.9241L413.857 46.9281L413.86 46.1481L412.86 46.1441ZM413.355 47.4261L420.155 47.4529L420.159 46.4529L413.359 46.4261L413.355 47.4261ZM420.657 46.9549L420.673 42.9249L419.673 42.921L419.657 46.9509L420.657 46.9549ZM420.111 42.4268L419.49 42.5044L419.615 43.4966L420.235 43.4191L420.111 42.4268ZM420.339 36.2249L420.839 36.2269L420.839 36.2163L420.339 36.2249ZM419.883 37.8632L419.46 37.5965L419.46 37.5965L419.883 37.8632ZM418.638 38.9883L418.86 39.4364L418.867 39.433L418.638 38.9883ZM414.998 38.9639L414.766 39.4069L414.769 39.408L414.998 38.9639ZM413.723 37.8189L413.301 38.0879L413.303 38.0905L413.723 37.8189ZM413.239 36.157L412.739 36.155L412.739 36.1657L413.239 36.157ZM413.706 34.5188L414.126 34.7897L414.129 34.7855L413.706 34.5188ZM418.59 33.418L418.358 33.861L418.363 33.8632L418.59 33.418ZM419.866 34.5631L420.288 34.2955L420.287 34.2941L419.866 34.5631ZM419.284 35.0008L418.87 35.2818L418.87 35.2818L419.284 35.0008ZM418.267 34.1468L418.484 33.6963L418.482 33.695L418.267 34.1468ZM415.307 34.1251L415.518 34.5787L415.518 34.5787L415.307 34.1251ZM414.304 34.9511L414.714 35.2374L414.717 35.2337L414.304 34.9511ZM414.305 37.3812L414.718 37.1002L414.718 37.1002L414.305 37.3812ZM415.321 38.2352L415.538 37.7847L415.538 37.7847L415.321 38.2352ZM418.271 38.2568L418.482 38.7104L418.482 38.7104L418.271 38.2568ZM419.284 37.4408L419.691 37.7323L419.694 37.727L419.284 37.4408ZM419.839 36.223C419.837 36.7507 419.708 37.2036 419.46 37.5965L420.306 38.1298C420.662 37.5651 420.836 36.9258 420.839 36.2269L419.839 36.223ZM419.46 37.5965C419.208 37.9959 418.862 38.3111 418.41 38.5436L418.867 39.433C419.47 39.1229 419.954 38.688 420.306 38.1298L419.46 37.5965ZM418.416 38.5402C417.961 38.7657 417.432 38.8835 416.819 38.8811L416.815 39.8811C417.561 39.884 418.247 39.7399 418.86 39.4364L418.416 38.5402ZM416.819 38.8811C416.207 38.8787 415.681 38.7542 415.228 38.5199L414.769 39.408C415.38 39.7245 416.066 39.8781 416.815 39.8811L416.819 38.8811ZM415.23 38.521C414.763 38.2763 414.404 37.9517 414.143 37.5472L413.303 38.0905C413.664 38.6486 414.156 39.0873 414.766 39.4069L415.23 38.521ZM414.144 37.5499C413.886 37.1454 413.749 36.6828 413.739 36.1482L412.739 36.1657C412.752 36.8713 412.937 37.5166 413.301 38.0879L414.144 37.5499ZM413.739 36.1589C413.741 35.6334 413.873 35.1821 414.126 34.7896L413.286 34.2479C412.921 34.8131 412.742 35.4539 412.739 36.155L413.739 36.1589ZM414.129 34.7855C414.381 34.386 414.727 34.0708 415.179 33.8384L414.722 32.949C414.118 33.2591 413.635 33.6939 413.283 34.2521L414.129 34.7855ZM415.179 33.8384C415.626 33.6088 416.148 33.4884 416.76 33.4908L416.764 32.4908C416.015 32.4879 415.331 32.6361 414.722 32.949L415.179 33.8384ZM416.76 33.4908C417.369 33.4932 417.898 33.6202 418.358 33.861L418.822 32.9751C418.204 32.6516 417.514 32.4938 416.764 32.4908L416.76 33.4908ZM418.363 33.8632C418.826 34.1002 419.183 34.4226 419.444 34.8321L420.287 34.2941C419.926 33.7277 419.432 33.2868 418.818 32.9728L418.363 33.8632ZM419.443 34.8306C419.694 35.2266 419.83 35.6892 419.839 36.2336L420.839 36.2163C420.827 35.5073 420.647 34.8619 420.288 34.2955L419.443 34.8306ZM420.149 36.2442C420.151 35.684 420.004 35.1701 419.698 34.7198L418.87 35.2818C419.055 35.5534 419.151 35.8671 419.149 36.2403L420.149 36.2442ZM419.698 34.7198C419.398 34.2789 418.988 33.939 418.484 33.6963L418.05 34.5972C418.412 34.7713 418.68 35.0007 418.87 35.2818L419.698 34.7198ZM418.482 33.695C417.967 33.4507 417.393 33.3333 416.771 33.3309L416.767 34.3308C417.264 34.3328 417.69 34.426 418.053 34.5985L418.482 33.695ZM416.771 33.3309C416.162 33.3285 415.601 33.4378 415.097 33.6715L415.518 34.5787C415.869 34.4158 416.282 34.3289 416.767 34.3308L416.771 33.3309ZM415.097 33.6715C414.597 33.9036 414.189 34.2346 413.892 34.6686L414.717 35.2337C414.902 34.9629 415.163 34.7432 415.518 34.5787L415.097 33.6715ZM413.894 34.6649C413.591 35.0991 413.442 35.5958 413.439 36.1378L414.439 36.1417C414.441 35.7904 414.535 35.4946 414.714 35.2374L413.894 34.6649ZM413.439 36.1378C413.437 36.6979 413.585 37.2119 413.891 37.6622L414.718 37.1002C414.534 36.8285 414.438 36.5148 414.439 36.1417L413.439 36.1378ZM413.891 37.6622C414.191 38.1031 414.601 38.443 415.104 38.6856L415.538 37.7847C415.177 37.6106 414.909 37.3812 414.718 37.1002L413.891 37.6622ZM415.104 38.6856C415.614 38.9313 416.186 39.0486 416.808 39.051L416.812 38.0511C416.314 38.0491 415.893 37.9558 415.538 37.7847L415.104 38.6856ZM416.808 39.051C417.416 39.0534 417.978 38.9441 418.482 38.7104L418.061 37.8032C417.71 37.9661 417.297 38.053 416.812 38.0511L416.808 39.051ZM418.482 38.7104C418.979 38.4798 419.387 38.1553 419.691 37.7323L418.878 37.1493C418.686 37.4177 418.419 37.6372 418.061 37.8032L418.482 38.7104ZM419.694 37.727C419.998 37.2915 420.147 36.7912 420.149 36.2442L419.149 36.2403C419.148 36.5999 419.053 36.8986 418.874 37.1546L419.694 37.727ZM414.23 25.8947L414.706 26.0472L414.71 26.0356L414.23 25.8947ZM414.632 25.2963L414.332 24.8967L414.332 24.8967L414.632 25.2963ZM416.262 25.3327L416.59 24.9552L416.584 24.9499L416.262 25.3327ZM416.68 25.9843L417.156 25.8317L417.156 25.8317L416.68 25.9843ZM416.802 27.8548L416.8 28.3548L417.3 28.3568L417.302 27.8568L416.802 27.8548ZM414.102 27.8442L413.602 27.8422L413.6 28.3422L414.1 28.3442L414.102 27.8442ZM413.429 28.6216L412.929 28.6196L412.927 29.1196L413.427 29.1216L413.429 28.6216ZM420.229 28.6484L420.227 29.1484L420.727 29.1503L420.729 28.6503L420.229 28.6484ZM420.232 27.8684L420.732 27.8703L420.734 27.3703L420.234 27.3684L420.232 27.8684ZM417.442 27.8574L416.942 27.8554L416.94 28.3554L417.44 28.3574L417.442 27.8574ZM417.437 26.5273L416.938 26.5492L416.938 26.5503L417.437 26.5273ZM417.409 26.1772L417.169 25.7384L416.866 25.9039L416.914 26.246L417.409 26.1772ZM420.245 24.6284L420.485 25.0672L420.744 24.9257L420.745 24.6304L420.245 24.6284ZM420.248 23.7584L420.748 23.7604L420.752 22.9005L420.003 23.3229L420.248 23.7584ZM417.202 25.4764L416.74 25.6694L416.957 26.1881L417.447 25.9119L417.202 25.4764ZM416.555 24.6238L416.248 25.0183L416.249 25.0193L416.555 24.6238ZM415.426 24.2694L415.435 23.7694L415.428 23.7694L415.426 24.2694ZM414.275 24.5949L414.573 24.9961L414.578 24.9927L414.275 24.5949ZM413.641 25.4924L414.113 25.6598L414.115 25.6524L413.641 25.4924ZM414.606 26.7762C414.608 26.4815 414.644 26.241 414.706 26.0471L413.754 25.7422C413.654 26.0545 413.608 26.4002 413.606 26.7722L414.606 26.7762ZM414.71 26.0356C414.756 25.8763 414.832 25.7713 414.933 25.6958L414.332 24.8967C414.044 25.113 413.852 25.407 413.75 25.7538L414.71 26.0356ZM414.933 25.6958C415.008 25.6394 415.159 25.5784 415.451 25.5795L415.455 24.5795C415.041 24.5779 414.644 24.6613 414.332 24.8967L414.933 25.6958ZM415.451 25.5795C415.71 25.5805 415.855 25.6438 415.94 25.7155L416.584 24.9499C416.27 24.6867 415.876 24.5812 415.455 24.5795L415.451 25.5795ZM415.934 25.7101C416.051 25.8118 416.143 25.9482 416.203 26.137L417.156 25.8317C417.045 25.4865 416.858 25.1885 416.59 24.9553L415.934 25.7101ZM416.203 26.137C416.271 26.3476 416.307 26.5881 416.306 26.8629L417.306 26.8668C417.307 26.5016 417.259 26.1552 417.156 25.8317L416.203 26.137ZM416.306 26.8629L416.302 27.8529L417.302 27.8568L417.306 26.8668L416.306 26.8629ZM416.804 27.3549L414.104 27.3442L414.1 28.3442L416.8 28.3548L416.804 27.3549ZM414.602 27.8462L414.606 26.7762L413.606 26.7722L413.602 27.8422L414.602 27.8462ZM413.427 29.1216L420.227 29.1484L420.231 28.1484L413.431 28.1216L413.427 29.1216ZM420.729 28.6503L420.732 27.8703L419.732 27.8664L419.729 28.6464L420.729 28.6503ZM420.234 27.3684L417.444 27.3574L417.44 28.3574L420.23 28.3684L420.234 27.3684ZM417.942 27.8593L417.946 26.8993L416.946 26.8954L416.942 27.8554L417.942 27.8593ZM417.946 26.8993C417.946 26.7764 417.943 26.6446 417.937 26.5043L416.938 26.5503C416.944 26.6768 416.946 26.7917 416.946 26.8954L417.946 26.8993ZM417.937 26.5055C417.93 26.3566 417.92 26.2229 417.904 26.1085L416.914 26.246C416.924 26.3183 416.932 26.4181 416.938 26.5492L417.937 26.5055ZM417.648 26.6161L420.485 25.0672L420.005 24.1896L417.169 25.7384L417.648 26.6161ZM420.745 24.6304L420.748 23.7604L419.748 23.7564L419.745 24.6264L420.745 24.6304ZM420.003 23.3229L416.956 25.0409L417.447 25.9119L420.494 24.1939L420.003 23.3229ZM417.663 25.2834C417.486 24.8598 417.218 24.5047 416.861 24.2284L416.249 25.0193C416.463 25.1853 416.627 25.3985 416.74 25.6694L417.663 25.2834ZM416.862 24.2294C416.466 23.9205 415.977 23.7795 415.435 23.7695L415.417 24.7693C415.795 24.7763 416.059 24.8716 416.248 25.0183L416.862 24.2294ZM415.428 23.7694C414.874 23.7672 414.372 23.8925 413.972 24.197L414.578 24.9927C414.753 24.8595 415.018 24.7678 415.424 24.7694L415.428 23.7694ZM413.977 24.1937C413.593 24.4788 413.325 24.8659 413.168 25.3324L414.115 25.6524C414.214 25.3599 414.368 25.1486 414.573 24.996L413.977 24.1937ZM413.17 25.325C413.014 25.766 412.938 26.2496 412.936 26.7696L413.936 26.7735C413.938 26.3469 414 25.9777 414.113 25.6598L413.17 25.325ZM412.936 26.7696L412.929 28.6196L413.929 28.6235L413.936 26.7735L412.936 26.7696Z" fill="white"/>
<path d="M381.103 60.5407L372.943 60.5085L372.94 61.1685L376.708 61.1834L376.692 65.3474L372.864 65.3323L372.921 65.9925L381.081 66.0247L381.084 65.3647L377.22 65.3494L377.236 61.1855L381.1 61.2007L381.103 60.5407ZM381.135 52.4849L372.975 52.4528L372.972 53.1128L381.132 53.1449L381.135 52.4849ZM377.632 42.967L377.621 45.907L378.149 45.8131L378.161 42.8731L377.632 42.967ZM376.832 32.8781L376.821 35.6261L373.545 35.6132L373.559 32.0852L373.055 32.1672L373.039 36.2712L381.199 36.3033L381.201 35.6433L377.313 35.628L377.324 32.808L376.832 32.8781ZM381.243 25.0018L373.083 24.9697L373.081 25.6297L381.24 25.6618L381.243 25.0018Z" fill="white"/>
<path d="M381.103 60.5407L381.603 60.5427L381.605 60.0427L381.105 60.0407L381.103 60.5407ZM372.943 60.5085L372.945 60.0085L372.445 60.0066L372.443 60.5066L372.943 60.5085ZM372.94 61.1685L372.44 61.1666L372.439 61.6666L372.939 61.6685L372.94 61.1685ZM376.708 61.1834L377.208 61.1854L377.21 60.6854L376.71 60.6834L376.708 61.1834ZM376.692 65.3474L376.69 65.8473L377.19 65.8493L377.192 65.3493L376.692 65.3474ZM372.864 65.3323L372.866 64.8323L372.319 64.8301L372.366 65.3756L372.864 65.3323ZM372.921 65.9925L372.423 66.0358L372.463 66.4907L372.919 66.4925L372.921 65.9925ZM381.081 66.0247L381.079 66.5247L381.579 66.5266L381.581 66.0266L381.081 66.0247ZM381.084 65.3647L381.584 65.3666L381.586 64.8666L381.086 64.8647L381.084 65.3647ZM377.22 65.3494L376.72 65.3475L376.718 65.8475L377.218 65.8494L377.22 65.3494ZM377.236 61.1855L377.238 60.6855L376.738 60.6835L376.736 61.1835L377.236 61.1855ZM381.1 61.2007L381.098 61.7007L381.598 61.7027L381.6 61.2027L381.1 61.2007ZM381.105 60.0407L372.945 60.0085L372.941 61.0085L381.101 61.0407L381.105 60.0407ZM372.443 60.5066L372.44 61.1666L373.44 61.1705L373.443 60.5105L372.443 60.5066ZM372.939 61.6685L376.706 61.6834L376.71 60.6834L372.942 60.6685L372.939 61.6685ZM376.208 61.1814L376.192 65.3454L377.192 65.3493L377.208 61.1854L376.208 61.1814ZM376.694 64.8474L372.866 64.8323L372.862 65.8323L376.69 65.8473L376.694 64.8474ZM372.366 65.3756L372.423 66.0358L373.42 65.9492L373.362 65.289L372.366 65.3756ZM372.919 66.4925L381.079 66.5247L381.083 65.5247L372.923 65.4925L372.919 66.4925ZM381.581 66.0266L381.584 65.3666L380.584 65.3627L380.581 66.0227L381.581 66.0266ZM381.086 64.8647L377.222 64.8494L377.218 65.8494L381.082 65.8647L381.086 64.8647ZM377.72 65.3514L377.736 61.1874L376.736 61.1835L376.72 65.3475L377.72 65.3514ZM377.234 61.6855L381.098 61.7007L381.102 60.7007L377.238 60.6855L377.234 61.6855ZM381.6 61.2027L381.603 60.5427L380.603 60.5387L380.6 61.1987L381.6 61.2027ZM381.135 52.4849L381.635 52.4869L381.637 51.9869L381.137 51.9849L381.135 52.4849ZM372.975 52.4528L372.977 51.9528L372.477 51.9508L372.475 52.4508L372.975 52.4528ZM372.972 53.1128L372.472 53.1108L372.47 53.6108L372.97 53.6127L372.972 53.1128ZM381.132 53.1449L381.13 53.6449L381.63 53.6469L381.632 53.1469L381.132 53.1449ZM381.137 51.9849L372.977 51.9528L372.973 52.9528L381.133 52.9849L381.137 51.9849ZM372.475 52.4508L372.472 53.1108L373.472 53.1147L373.475 52.4547L372.475 52.4508ZM372.97 53.6127L381.13 53.6449L381.134 52.6449L372.974 52.6128L372.97 53.6127ZM381.632 53.1469L381.635 52.4869L380.635 52.4829L380.632 53.1429L381.632 53.1469ZM377.632 42.967L377.545 42.4748L377.134 42.5478L377.132 42.9651L377.632 42.967ZM377.621 45.907L377.121 45.905L377.118 46.5041L377.708 46.3993L377.621 45.907ZM378.149 45.8131L378.237 46.3054L378.647 46.2324L378.649 45.8151L378.149 45.8131ZM378.161 42.8731L378.661 42.8751L378.663 42.276L378.073 42.3808L378.161 42.8731ZM377.132 42.9651L377.121 45.905L378.121 45.909L378.132 42.969L377.132 42.9651ZM377.708 46.3993L378.237 46.3054L378.062 45.3208L377.533 45.4147L377.708 46.3993ZM378.649 45.8151L378.661 42.8751L377.661 42.8712L377.649 45.8111L378.649 45.8151ZM378.073 42.3808L377.545 42.4748L377.72 43.4593L378.248 43.3654L378.073 42.3808ZM376.832 32.8781L376.762 32.3831L376.334 32.444L376.332 32.8761L376.832 32.8781ZM376.821 35.6261L376.819 36.1261L377.319 36.128L377.321 35.628L376.821 35.6261ZM373.545 35.6132L373.045 35.6112L373.043 36.1112L373.543 36.1132L373.545 35.6132ZM373.559 32.0852L374.059 32.0872L374.061 31.4969L373.479 31.5917L373.559 32.0852ZM373.055 32.1672L372.975 31.6737L372.556 31.7417L372.555 32.1652L373.055 32.1672ZM373.039 36.2712L372.539 36.2692L372.537 36.7692L373.037 36.7712L373.039 36.2712ZM381.199 36.3033L381.197 36.8033L381.697 36.8053L381.699 36.3053L381.199 36.3033ZM381.201 35.6433L381.701 35.6453L381.703 35.1453L381.203 35.1433L381.201 35.6433ZM377.313 35.628L376.813 35.626L376.811 36.126L377.311 36.128L377.313 35.628ZM377.324 32.808L377.824 32.81L377.827 32.2315L377.254 32.313L377.324 32.808ZM376.332 32.8761L376.321 35.6241L377.321 35.628L377.332 32.8801L376.332 32.8761ZM376.823 35.1261L373.547 35.1132L373.543 36.1132L376.819 36.1261L376.823 35.1261ZM374.045 35.6151L374.059 32.0872L373.059 32.0832L373.045 35.6112L374.045 35.6151ZM373.479 31.5917L372.975 31.6737L373.135 32.6607L373.639 32.5787L373.479 31.5917ZM372.555 32.1652L372.539 36.2692L373.539 36.2731L373.555 32.1692L372.555 32.1652ZM373.037 36.7712L381.197 36.8033L381.201 35.8033L373.041 35.7712L373.037 36.7712ZM381.699 36.3053L381.701 35.6453L380.701 35.6414L380.699 36.3014L381.699 36.3053ZM381.203 35.1433L377.315 35.128L377.311 36.128L381.199 36.1433L381.203 35.1433ZM377.813 35.63L377.824 32.81L376.824 32.8061L376.813 35.626L377.813 35.63ZM377.254 32.313L376.762 32.3831L376.902 33.3731L377.395 33.303L377.254 32.313ZM381.243 25.0018L381.743 25.0038L381.745 24.5038L381.245 24.5019L381.243 25.0018ZM373.083 24.9697L373.085 24.4697L372.585 24.4677L372.583 24.9677L373.083 24.9697ZM373.081 25.6297L372.581 25.6277L372.579 26.1277L373.079 26.1297L373.081 25.6297ZM381.24 25.6618L381.239 26.1618L381.739 26.1638L381.74 25.6638L381.24 25.6618ZM381.245 24.5019L373.085 24.4697L373.081 25.4697L381.241 25.5018L381.245 24.5019ZM372.583 24.9677L372.581 25.6277L373.581 25.6317L373.583 24.9717L372.583 24.9677ZM373.079 26.1297L381.239 26.1618L381.242 25.1618L373.083 25.1297L373.079 26.1297ZM381.74 25.6638L381.743 25.0038L380.743 24.9999L380.74 25.6599L381.74 25.6638Z" fill="white"/>
<line x1="408.581" y1="66.1275" x2="408.755" y2="22.1278" stroke="white"/>
<defs>
<filter id="filter0_d_0_1" x="-4.00049" y="0.355865" width="464.335" height="95.7965" filterUnits="userSpaceOnUse" color-interpolation-filters="sRGB">
<feFlood flood-opacity="0" result="BackgroundImageFix"/>
<feColorMatrix in="SourceAlpha" type="matrix" values="0 0 0 0 0 0 0 0 0 0 0 0 0 0 0 0 0 0 127 0" result="hardAlpha"/>
<feOffset dy="4"/>
<feGaussianBlur stdDeviation="2"/>
<feComposite in2="hardAlpha" operator="out"/>
<feColorMatrix type="matrix" values="0 0 0 0 0 0 0 0 0 0 0 0 0 0 0 0 0 0 0.25 0"/>
<feBlend mode="normal" in2="BackgroundImageFix" result="effect1_dropShadow_0_1"/>
<feBlend mode="normal" in="SourceGraphic" in2="effect1_dropShadow_0_1" result="shape"/>
</filter>
<filter id="filter1_d_0_1" x="43.1774" y="22.7254" width="289.484" height="37.5204" filterUnits="userSpaceOnUse" color-interpolation-filters="sRGB">
<feFlood flood-opacity="0" result="BackgroundImageFix"/>
<feColorMatrix in="SourceAlpha" type="matrix" values="0 0 0 0 0 0 0 0 0 0 0 0 0 0 0 0 0 0 127 0" result="hardAlpha"/>
<feOffset dx="5"/>
<feComposite in2="hardAlpha" operator="out"/>
<feColorMatrix type="matrix" values="0 0 0 0 0.841667 0 0 0 0 0.182361 0 0 0 0 0.182361 0 0 0 0.6 0"/>
<feBlend mode="normal" in2="BackgroundImageFix" result="effect1_dropShadow_0_1"/>
<feBlend mode="normal" in="SourceGraphic" in2="effect1_dropShadow_0_1" result="shape"/>
</filter>
</defs>
</svg>
