<svg width="87" height="456" viewBox="0 0 87 456" fill="none" xmlns="http://www.w3.org/2000/svg">
<rect width="87" height="456" fill="#F5F5F5"/>
<g filter="url(#filter0_d_0_1)">
<rect x="-0.00219727" y="0.307617" width="86" height="456" rx="4" transform="rotate(-0.161135 -0.00219727 0.307617)" fill="#2AB927"/>
</g>
<path d="M23.3833 102.292L59.3827 102.076L59.5552 130.826C59.5632 132.159 59.2371 133.361 58.5768 134.432C57.9501 135.535 57.0887 136.424 55.9928 137.097C54.9301 137.77 53.7321 138.111 52.3988 138.119L30.7992 138.248C29.4659 138.256 28.2473 137.93 27.1433 137.27C26.0726 136.61 25.2007 135.732 24.5274 134.636C23.8877 133.573 23.5638 132.375 23.5558 131.042L23.3833 102.292ZM30.6779 109.699L30.8036 130.648C30.8042 130.748 30.8213 130.815 30.8548 130.848C30.9219 130.914 31.0054 130.947 31.1054 130.946L52.005 130.821C52.105 130.82 52.1715 130.787 52.2044 130.72C52.2709 130.686 52.3038 130.619 52.3032 130.519L52.1775 109.57C52.1771 109.503 52.1434 109.436 52.0763 109.37C52.0426 109.304 51.9757 109.271 51.8757 109.271L30.9761 109.397C30.8761 109.397 30.793 109.431 30.7267 109.498C30.6938 109.565 30.6775 109.632 30.6779 109.699ZM23.6335 143.991L52.433 143.818C53.7663 143.81 54.9682 144.119 56.0387 144.746C57.1426 145.406 58.0145 146.268 58.6542 147.331C59.3275 148.427 59.6681 149.641 59.6761 150.974L59.8054 172.524C59.8134 173.857 59.4873 175.059 58.827 176.13C58.2003 177.234 57.3389 178.122 56.243 178.796C55.1803 179.469 53.9823 179.809 52.649 179.817L23.8495 179.99L23.8057 172.69L35.6555 172.619L35.5265 151.119L23.6767 151.19L23.6335 143.991ZM42.7264 151.076L42.8554 172.576L52.2552 172.519C52.3552 172.519 52.4217 172.485 52.4546 172.418C52.5211 172.384 52.554 172.318 52.5534 172.218L52.428 151.318C52.4274 151.218 52.3936 151.135 52.3265 151.069C52.293 151.035 52.2262 151.019 52.1262 151.02L42.7264 151.076ZM23.9593 198.287L52.7088 198.114L52.6224 183.714L59.8723 183.671L60.0883 219.67L52.8384 219.714L52.7523 205.364L24.0028 205.536L23.9593 198.287ZM24.112 223.726L52.9114 223.553C54.2447 223.545 55.4466 223.854 56.5171 224.481C57.6211 225.141 58.4929 226.003 59.1326 227.065C59.8059 228.161 60.1465 229.376 60.1545 230.709L60.2838 252.259C60.2918 253.592 59.9657 254.794 59.3054 255.865C58.6787 256.969 57.8174 257.857 56.7214 258.53C55.6587 259.204 54.4607 259.544 53.1274 259.552L24.328 259.725L24.2842 252.425L36.1339 252.354L36.0049 230.854L24.1552 230.925L24.112 223.726ZM43.2048 230.811L43.3338 252.311L52.7336 252.254C52.8336 252.254 52.9001 252.22 52.933 252.153C52.9995 252.119 53.0324 252.053 53.0318 251.953L52.9064 231.053C52.9058 230.953 52.872 230.87 52.8049 230.803C52.7714 230.77 52.7046 230.754 52.6046 230.755L43.2048 230.811Z" fill="black"/>
<path d="M25.3236 394.737L23.7652 395.006L29.0659 408.454L30.5859 408.445L35.5442 394.815L34.0043 394.825L29.8135 406.37L25.3236 394.737ZM47.2331 408.345L47.1515 394.746L45.5716 394.755L45.6083 400.875L39.2084 400.913L39.1711 394.694L37.6117 394.803L37.6933 408.403L39.2533 408.393L39.2159 402.173L45.6158 402.135L45.6532 408.355L47.2331 408.345ZM50.1708 407.668C50.3582 407.787 50.5989 407.905 50.893 408.023C51.1869 408.128 51.5142 408.22 51.8746 408.298C52.2351 408.375 52.5888 408.44 52.9358 408.491C53.2961 408.542 53.6163 408.567 53.8963 408.565C54.9229 408.559 55.7887 408.401 56.4935 408.09C57.2116 407.779 57.7558 407.356 58.1259 406.82C58.5093 406.284 58.699 405.67 58.6948 404.977C58.6919 404.483 58.6093 404.05 58.447 403.678C58.2847 403.292 58.0493 402.947 57.7408 402.642C57.4323 402.337 57.0573 402.053 56.6157 401.789C56.1741 401.525 55.6592 401.268 55.071 401.018C54.282 400.636 53.6134 400.3 53.0649 400.01C52.5164 399.707 52.1012 399.383 51.8191 399.038C51.5503 398.693 51.4145 398.28 51.4116 397.8C51.4078 397.16 51.6715 396.659 52.2026 396.295C52.7471 395.932 53.446 395.748 54.2994 395.743C54.7527 395.74 55.1462 395.778 55.4801 395.856C55.8271 395.92 56.1343 396.005 56.4016 396.11C56.6822 396.215 56.9362 396.32 57.1635 396.426L57.6962 395.202C57.2682 394.992 56.7471 394.801 56.1327 394.632C55.5184 394.462 54.8778 394.379 54.2112 394.383C53.3179 394.389 52.5455 394.547 51.894 394.857C51.2558 395.168 50.7583 395.577 50.4013 396.086C50.0577 396.595 49.8879 397.176 49.8918 397.829C49.8946 398.296 49.9705 398.722 50.1195 399.108C50.2818 399.494 50.5106 399.852 50.8059 400.184C51.1145 400.502 51.4896 400.8 51.9313 401.077C52.3862 401.341 52.9078 401.605 53.4961 401.868C54.2847 402.183 54.9465 402.492 55.4817 402.796C56.0168 403.086 56.4187 403.404 56.6874 403.749C56.9695 404.094 57.112 404.513 57.115 405.006C57.1175 405.419 56.9931 405.8 56.7418 406.148C56.5038 406.483 56.1454 406.745 55.6665 406.935C55.1877 407.124 54.5882 407.221 53.8682 407.226C53.4549 407.228 53.0347 407.191 52.6075 407.113C52.1803 407.022 51.7863 406.911 51.4255 406.78C51.0781 406.649 50.7774 406.531 50.5234 406.426L50.1708 407.668Z" fill="white"/>
<path d="M25.3236 394.737L25.79 394.557L25.6424 394.174L25.2384 394.244L25.3236 394.737ZM23.7652 395.006L23.68 394.513L23.0748 394.618L23.3 395.189L23.7652 395.006ZM29.066 408.454L28.6008 408.638L28.7264 408.956L29.069 408.954L29.066 408.454ZM30.5859 408.445L30.5889 408.945L30.9369 408.943L31.0558 408.616L30.5859 408.445ZM35.5442 394.815L36.0141 394.986L36.2597 394.311L35.5412 394.315L35.5442 394.815ZM34.0043 394.825L34.0013 394.325L33.6531 394.327L33.5343 394.654L34.0043 394.825ZM29.8135 406.37L29.347 406.55L29.8278 407.796L30.2835 406.541L29.8135 406.37ZM25.2384 394.244L23.68 394.513L23.8503 395.499L25.4087 395.229L25.2384 394.244ZM23.3 395.189L28.6008 408.638L29.5311 408.271L24.2303 394.823L23.3 395.189ZM29.069 408.954L30.5889 408.945L30.5829 407.945L29.063 407.954L29.069 408.954ZM31.0558 408.616L36.0141 394.986L35.0744 394.644L30.116 408.274L31.0558 408.616ZM35.5412 394.315L34.0013 394.325L34.0073 395.325L35.5472 395.315L35.5412 394.315ZM33.5343 394.654L29.3435 406.199L30.2835 406.541L34.4743 394.995L33.5343 394.654ZM30.2799 406.19L25.79 394.557L24.8571 394.917L29.347 406.55L30.2799 406.19ZM47.2331 408.345L47.2361 408.845L47.7361 408.842L47.7331 408.342L47.2331 408.345ZM47.1515 394.746L47.6515 394.743L47.6485 394.243L47.1485 394.246L47.1515 394.746ZM45.5716 394.755L45.5686 394.255L45.0686 394.258L45.0716 394.758L45.5716 394.755ZM45.6083 400.875L45.6113 401.375L46.1113 401.372L46.1083 400.872L45.6083 400.875ZM39.2084 400.913L38.7084 400.916L38.7114 401.416L39.2114 401.413L39.2084 400.913ZM39.1711 394.694L39.6711 394.691L39.6679 394.157L39.1361 394.195L39.1711 394.694ZM37.6117 394.803L37.5767 394.304L37.1089 394.337L37.1117 394.806L37.6117 394.803ZM37.6933 408.403L37.1933 408.406L37.1963 408.906L37.6963 408.903L37.6933 408.403ZM39.2533 408.393L39.2563 408.893L39.7563 408.89L39.7533 408.39L39.2533 408.393ZM39.2159 402.173L39.2129 401.673L38.713 401.676L38.716 402.176L39.2159 402.173ZM45.6158 402.135L46.1158 402.132L46.1128 401.632L45.6128 401.635L45.6158 402.135ZM45.6532 408.355L45.1532 408.358L45.1562 408.858L45.6562 408.855L45.6532 408.355ZM47.7331 408.342L47.6515 394.743L46.6515 394.749L46.7331 408.348L47.7331 408.342ZM47.1485 394.246L45.5686 394.255L45.5746 395.255L47.1545 395.246L47.1485 394.246ZM45.0716 394.758L45.1083 400.878L46.1083 400.872L46.0715 394.752L45.0716 394.758ZM45.6053 400.375L39.2054 400.413L39.2114 401.413L45.6113 401.375L45.6053 400.375ZM39.7084 400.91L39.6711 394.691L38.6711 394.697L38.7084 400.916L39.7084 400.91ZM39.1361 394.195L37.5767 394.304L37.6467 395.302L39.206 395.192L39.1361 394.195ZM37.1117 394.806L37.1933 408.406L38.1933 408.4L38.1117 394.8L37.1117 394.806ZM37.6963 408.903L39.2563 408.893L39.2503 407.893L37.6903 407.903L37.6963 408.903ZM39.7533 408.39L39.7159 402.17L38.716 402.176L38.7533 408.396L39.7533 408.39ZM39.2189 402.673L45.6188 402.635L45.6128 401.635L39.2129 401.673L39.2189 402.673ZM45.1158 402.138L45.1532 408.358L46.1531 408.352L46.1158 402.132L45.1158 402.138ZM45.6562 408.855L47.2361 408.845L47.2301 407.845L45.6502 407.855L45.6562 408.855ZM50.1708 407.668L49.6898 407.531L49.588 407.89L49.903 408.09L50.1708 407.668ZM50.893 408.023L50.7064 408.487L50.7156 408.491L50.7249 408.494L50.893 408.023ZM51.8746 408.298L51.9802 407.809L51.8746 408.298ZM52.9358 408.491L52.8628 408.986L52.8655 408.986L52.9358 408.491ZM56.4935 408.09L56.2948 407.631L56.2917 407.632L56.4935 408.09ZM58.1259 406.82L57.7193 406.529L57.7146 406.536L58.1259 406.82ZM58.447 403.678L57.9861 403.872L57.9887 403.878L58.447 403.678ZM55.071 401.018L54.8532 401.468L54.8642 401.474L54.8756 401.478L55.071 401.018ZM53.0649 400.01L52.8229 400.448L52.8312 400.452L53.0649 400.01ZM51.8191 399.038L51.4245 399.345L51.432 399.354L51.8191 399.038ZM52.2026 396.295L51.9251 395.879L51.9204 395.883L52.2026 396.295ZM55.4801 395.856L55.3663 396.343L55.3774 396.345L55.3886 396.347L55.4801 395.856ZM56.4016 396.11L56.2187 396.576L56.2264 396.579L56.4016 396.11ZM57.1635 396.426L56.9533 396.879L57.4176 397.094L57.6219 396.625L57.1635 396.426ZM57.6962 395.202L58.1546 395.402L58.3451 394.965L57.9171 394.754L57.6962 395.202ZM51.894 394.857L51.6788 394.406L51.6752 394.408L51.894 394.857ZM50.4013 396.086L49.992 395.799L49.987 395.806L50.4013 396.086ZM50.1195 399.108L49.653 399.288L49.6557 399.295L49.6586 399.302L50.1195 399.108ZM50.8059 400.184L50.4326 400.516L50.4396 400.524L50.447 400.532L50.8059 400.184ZM51.9313 401.077L51.6654 401.501L51.6728 401.505L51.6804 401.51L51.9313 401.077ZM53.4961 401.868L53.2919 402.324L53.3011 402.328L53.3105 402.332L53.4961 401.868ZM55.4817 402.796L55.235 403.231L55.2434 403.235L55.4817 402.796ZM56.6874 403.749L56.2928 404.056L56.3004 404.065L56.6874 403.749ZM56.7418 406.148L56.3364 405.856L56.3343 405.859L56.7418 406.148ZM55.6665 406.935L55.8505 407.4L55.6665 406.935ZM52.6075 407.113L52.5036 407.602L52.511 407.604L52.5184 407.605L52.6075 407.113ZM51.4255 406.78L51.2488 407.248L51.2547 407.25L51.4255 406.78ZM50.5234 406.426L50.7146 405.964L50.1957 405.749L50.0424 406.289L50.5234 406.426ZM49.903 408.09C50.1245 408.231 50.395 408.362 50.7064 408.487L51.0795 407.56C50.8028 407.448 50.5919 407.343 50.4387 407.246L49.903 408.09ZM50.7249 408.494C51.0426 408.608 51.3911 408.705 51.7691 408.786L51.9802 407.809C51.6372 407.735 51.3313 407.649 51.061 407.553L50.7249 408.494ZM51.7691 408.786C52.1398 408.866 52.5044 408.933 52.8628 408.986L53.0089 407.997C52.6733 407.947 52.3304 407.884 51.9802 407.809L51.7691 408.786ZM52.8655 408.986C53.2433 409.04 53.5888 409.067 53.8993 409.065L53.8933 408.065C53.6438 408.067 53.3489 408.045 53.0061 407.996L52.8655 408.986ZM53.8993 409.065C54.9728 409.059 55.9107 408.893 56.6953 408.547L56.2917 407.632C55.6666 407.908 54.873 408.06 53.8933 408.065L53.8993 409.065ZM56.6922 408.549C57.4786 408.208 58.104 407.731 58.5372 407.104L57.7146 406.536C57.4075 406.98 56.9446 407.35 56.2948 407.631L56.6922 408.549ZM58.5324 407.111C58.9806 406.485 59.1996 405.766 59.1948 404.974L58.1948 404.98C58.1984 405.573 58.0381 406.084 57.7193 406.529L58.5324 407.111ZM59.1948 404.974C59.1915 404.427 59.0998 403.925 58.9054 403.478L57.9887 403.878C58.1187 404.176 58.1922 404.54 58.1948 404.98L59.1948 404.974ZM58.9079 403.484C58.7191 403.036 58.4457 402.636 58.0922 402.287L57.3894 402.998C57.6529 403.258 57.8503 403.549 57.9862 403.872L58.9079 403.484ZM58.0922 402.287C57.7505 401.949 57.3421 401.641 56.8723 401.36L56.3591 402.218C56.7724 402.465 57.1141 402.726 57.3894 402.998L58.0922 402.287ZM56.8723 401.36C56.407 401.082 55.8709 400.815 55.2665 400.558L54.8756 401.478C55.4475 401.721 55.9412 401.968 56.3591 402.218L56.8723 401.36ZM55.2889 400.568C54.5033 400.188 53.8402 399.855 53.2987 399.568L52.8312 400.452C53.3865 400.746 54.0608 401.085 54.8532 401.468L55.2889 400.568ZM53.3069 399.573C52.7931 399.289 52.4352 399.001 52.2062 398.721L51.432 399.354C51.7671 399.764 52.2398 400.125 52.8229 400.448L53.3069 399.573ZM52.2136 398.731C52.0192 398.481 51.9139 398.178 51.9116 397.797L50.9117 397.803C50.9151 398.382 51.0814 398.904 51.4246 399.345L52.2136 398.731ZM51.9116 397.797C51.9088 397.324 52.09 396.978 52.4849 396.708L51.9204 395.883C51.253 396.339 50.9068 396.996 50.9117 397.803L51.9116 397.797ZM52.4801 396.711C52.922 396.417 53.5175 396.248 54.3024 396.243L54.2964 395.243C53.3746 395.248 52.5723 395.448 51.9251 395.879L52.4801 396.711ZM54.3024 396.243C54.7282 396.24 55.0807 396.276 55.3663 396.343L55.5938 395.369C55.2117 395.28 54.7772 395.24 54.2964 395.243L54.3024 396.243ZM55.3886 396.347C55.7112 396.407 55.9868 396.484 56.2187 396.576L56.5845 395.645C56.2818 395.526 55.943 395.433 55.5715 395.364L55.3886 396.347ZM56.2264 396.579C56.4974 396.68 56.7395 396.78 56.9533 396.879L57.3737 395.972C57.1329 395.86 56.8671 395.75 56.5768 395.642L56.2264 396.579ZM57.6219 396.625L58.1546 395.402L57.2378 395.003L56.7051 396.226L57.6219 396.625ZM57.9171 394.754C57.4534 394.526 56.901 394.325 56.2658 394.15L55.9996 395.114C56.5931 395.278 57.083 395.458 57.4752 395.651L57.9171 394.754ZM56.2658 394.15C55.6051 393.967 54.9187 393.879 54.2082 393.883L54.2142 394.883C54.837 394.88 55.4316 394.957 55.9996 395.114L56.2658 394.15ZM54.2082 393.883C53.2585 393.889 52.4104 394.057 51.6788 394.406L52.1092 395.309C52.6805 395.036 53.3773 394.888 54.2142 394.883L54.2082 393.883ZM51.6752 394.408C50.9718 394.75 50.4042 395.211 49.992 395.799L50.8107 396.373C51.1124 395.943 51.5399 395.586 52.1128 395.307L51.6752 394.408ZM49.987 395.806C49.5833 396.404 49.3873 397.085 49.3918 397.832L50.3918 397.826C50.3884 397.267 50.5322 396.786 50.8157 396.366L49.987 395.806ZM49.3918 397.832C49.3949 398.352 49.4796 398.839 49.653 399.288L50.5859 398.928C50.4614 398.605 50.3943 398.24 50.3918 397.826L49.3918 397.832ZM49.6586 399.302C49.8435 399.741 50.1029 400.146 50.4326 400.516L51.1793 399.851C50.9183 399.558 50.72 399.246 50.5803 398.914L49.6586 399.302ZM50.447 400.532C50.7879 400.883 51.1956 401.206 51.6654 401.501L52.1972 400.654C51.7837 400.394 51.4412 400.121 51.1648 399.836L50.447 400.532ZM51.6804 401.51C52.1534 401.784 52.6911 402.055 53.2919 402.324L53.7003 401.411C53.1246 401.154 52.6191 400.898 52.1822 400.645L51.6804 401.51ZM53.3105 402.332C54.0853 402.642 54.7254 402.942 55.2351 403.231L55.7283 402.361C55.1677 402.043 54.484 401.724 53.6817 401.403L53.3105 402.332ZM55.2434 403.235C55.74 403.505 56.0797 403.782 56.293 404.056L57.0819 403.441C56.7576 403.025 56.2935 402.667 55.72 402.356L55.2434 403.235ZM56.3004 404.065C56.5022 404.312 56.6126 404.617 56.615 405.009L57.615 405.003C57.6114 404.408 57.4368 403.875 57.0745 403.432L56.3004 404.065ZM56.615 405.009C56.6168 405.312 56.5281 405.59 56.3364 405.856L57.1473 406.441C57.458 406.01 57.6181 405.527 57.615 405.003L56.615 405.009ZM56.3343 405.859C56.165 406.097 55.8943 406.307 55.4825 406.47L55.8505 407.4C56.3965 407.184 56.8427 406.869 57.1493 406.438L56.3343 405.859ZM55.4825 406.47C55.0793 406.63 54.5461 406.722 53.8652 406.726L53.8712 407.726C54.6304 407.721 55.296 407.619 55.8505 407.4L55.4825 406.47ZM53.8652 406.726C53.4843 406.728 53.095 406.693 52.6967 406.621L52.5184 407.605C52.9744 407.688 53.4255 407.728 53.8712 407.726L53.8652 406.726ZM52.7115 406.624C52.3039 406.537 51.9326 406.433 51.5964 406.31L51.2547 407.25C51.64 407.39 52.0567 407.507 52.5036 407.602L52.7115 406.624ZM51.6022 406.313C51.2581 406.183 50.9625 406.066 50.7146 405.964L50.3321 406.888C50.5923 406.995 50.8981 407.115 51.2488 407.248L51.6022 406.313ZM50.0424 406.289L49.6898 407.531L50.6518 407.804L51.0044 406.562L50.0424 406.289Z" fill="white"/>
<path d="M25.3236 394.737L25.79 394.557L25.6424 394.174L25.2384 394.244L25.3236 394.737ZM23.7652 395.006L23.68 394.513L23.0748 394.618L23.3 395.189L23.7652 395.006ZM29.066 408.454L28.6008 408.638L28.7264 408.956L29.069 408.954L29.066 408.454ZM30.5859 408.445L30.5889 408.945L30.9369 408.943L31.0558 408.616L30.5859 408.445ZM35.5442 394.815L36.0141 394.986L36.2597 394.311L35.5412 394.315L35.5442 394.815ZM34.0043 394.825L34.0013 394.325L33.6531 394.327L33.5343 394.654L34.0043 394.825ZM29.8135 406.37L29.347 406.55L29.8278 407.796L30.2835 406.541L29.8135 406.37ZM25.2384 394.244L23.68 394.513L23.8503 395.499L25.4087 395.229L25.2384 394.244ZM23.3 395.189L28.6008 408.638L29.5311 408.271L24.2303 394.823L23.3 395.189ZM29.069 408.954L30.5889 408.945L30.5829 407.945L29.063 407.954L29.069 408.954ZM31.0558 408.616L36.0141 394.986L35.0744 394.644L30.116 408.274L31.0558 408.616ZM35.5412 394.315L34.0013 394.325L34.0073 395.325L35.5472 395.315L35.5412 394.315ZM33.5343 394.654L29.3435 406.199L30.2835 406.541L34.4743 394.995L33.5343 394.654ZM30.2799 406.19L25.79 394.557L24.8571 394.917L29.347 406.55L30.2799 406.19ZM47.2331 408.345L47.2361 408.845L47.7361 408.842L47.7331 408.342L47.2331 408.345ZM47.1515 394.746L47.6515 394.743L47.6485 394.243L47.1485 394.246L47.1515 394.746ZM45.5716 394.755L45.5686 394.255L45.0686 394.258L45.0716 394.758L45.5716 394.755ZM45.6083 400.875L45.6113 401.375L46.1113 401.372L46.1083 400.872L45.6083 400.875ZM39.2084 400.913L38.7084 400.916L38.7114 401.416L39.2114 401.413L39.2084 400.913ZM39.1711 394.694L39.6711 394.691L39.6679 394.157L39.1361 394.195L39.1711 394.694ZM37.6117 394.803L37.5767 394.304L37.1089 394.337L37.1117 394.806L37.6117 394.803ZM37.6933 408.403L37.1933 408.406L37.1963 408.906L37.6963 408.903L37.6933 408.403ZM39.2533 408.393L39.2563 408.893L39.7563 408.89L39.7533 408.39L39.2533 408.393ZM39.2159 402.173L39.2129 401.673L38.713 401.676L38.716 402.176L39.2159 402.173ZM45.6158 402.135L46.1158 402.132L46.1128 401.632L45.6128 401.635L45.6158 402.135ZM45.6532 408.355L45.1532 408.358L45.1562 408.858L45.6562 408.855L45.6532 408.355ZM47.7331 408.342L47.6515 394.743L46.6515 394.749L46.7331 408.348L47.7331 408.342ZM47.1485 394.246L45.5686 394.255L45.5746 395.255L47.1545 395.246L47.1485 394.246ZM45.0716 394.758L45.1083 400.878L46.1083 400.872L46.0715 394.752L45.0716 394.758ZM45.6053 400.375L39.2054 400.413L39.2114 401.413L45.6113 401.375L45.6053 400.375ZM39.7084 400.91L39.6711 394.691L38.6711 394.697L38.7084 400.916L39.7084 400.91ZM39.1361 394.195L37.5767 394.304L37.6467 395.302L39.206 395.192L39.1361 394.195ZM37.1117 394.806L37.1933 408.406L38.1933 408.4L38.1117 394.8L37.1117 394.806ZM37.6963 408.903L39.2563 408.893L39.2503 407.893L37.6903 407.903L37.6963 408.903ZM39.7533 408.39L39.7159 402.17L38.716 402.176L38.7533 408.396L39.7533 408.39ZM39.2189 402.673L45.6188 402.635L45.6128 401.635L39.2129 401.673L39.2189 402.673ZM45.1158 402.138L45.1532 408.358L46.1531 408.352L46.1158 402.132L45.1158 402.138ZM45.6562 408.855L47.2361 408.845L47.2301 407.845L45.6502 407.855L45.6562 408.855ZM50.1708 407.668L49.6898 407.531L49.588 407.89L49.903 408.09L50.1708 407.668ZM50.893 408.023L50.7064 408.487L50.7156 408.491L50.7249 408.494L50.893 408.023ZM51.8746 408.298L51.9802 407.809L51.8746 408.298ZM52.9358 408.491L52.8628 408.986L52.8655 408.986L52.9358 408.491ZM56.4935 408.09L56.2948 407.631L56.2917 407.632L56.4935 408.09ZM58.1259 406.82L57.7193 406.529L57.7146 406.536L58.1259 406.82ZM58.447 403.678L57.9861 403.872L57.9887 403.878L58.447 403.678ZM55.071 401.018L54.8532 401.468L54.8642 401.474L54.8756 401.478L55.071 401.018ZM53.0649 400.01L52.8229 400.448L52.8312 400.452L53.0649 400.01ZM51.8191 399.038L51.4245 399.345L51.432 399.354L51.8191 399.038ZM52.2026 396.295L51.9251 395.879L51.9204 395.883L52.2026 396.295ZM55.4801 395.856L55.3663 396.343L55.3774 396.345L55.3886 396.347L55.4801 395.856ZM56.4016 396.11L56.2187 396.576L56.2264 396.579L56.4016 396.11ZM57.1635 396.426L56.9533 396.879L57.4176 397.094L57.6219 396.625L57.1635 396.426ZM57.6962 395.202L58.1546 395.402L58.3451 394.965L57.9171 394.754L57.6962 395.202ZM51.894 394.857L51.6788 394.406L51.6752 394.408L51.894 394.857ZM50.4013 396.086L49.992 395.799L49.987 395.806L50.4013 396.086ZM50.1195 399.108L49.653 399.288L49.6557 399.295L49.6586 399.302L50.1195 399.108ZM50.8059 400.184L50.4326 400.516L50.4396 400.524L50.447 400.532L50.8059 400.184ZM51.9313 401.077L51.6654 401.501L51.6728 401.505L51.6804 401.51L51.9313 401.077ZM53.4961 401.868L53.2919 402.324L53.3011 402.328L53.3105 402.332L53.4961 401.868ZM55.4817 402.796L55.235 403.231L55.2434 403.235L55.4817 402.796ZM56.6874 403.749L56.2928 404.056L56.3004 404.065L56.6874 403.749ZM56.7418 406.148L56.3364 405.856L56.3343 405.859L56.7418 406.148ZM55.6665 406.935L55.8505 407.4L55.6665 406.935ZM52.6075 407.113L52.5036 407.602L52.511 407.604L52.5184 407.605L52.6075 407.113ZM51.4255 406.78L51.2488 407.248L51.2547 407.25L51.4255 406.78ZM50.5234 406.426L50.7146 405.964L50.1957 405.749L50.0424 406.289L50.5234 406.426ZM49.903 408.09C50.1245 408.231 50.395 408.362 50.7064 408.487L51.0795 407.56C50.8028 407.448 50.5919 407.343 50.4387 407.246L49.903 408.09ZM50.7249 408.494C51.0426 408.608 51.3911 408.705 51.7691 408.786L51.9802 407.809C51.6372 407.735 51.3313 407.649 51.061 407.553L50.7249 408.494ZM51.7691 408.786C52.1398 408.866 52.5044 408.933 52.8628 408.986L53.0089 407.997C52.6733 407.947 52.3304 407.884 51.9802 407.809L51.7691 408.786ZM52.8655 408.986C53.2433 409.04 53.5888 409.067 53.8993 409.065L53.8933 408.065C53.6438 408.067 53.3489 408.045 53.0061 407.996L52.8655 408.986ZM53.8993 409.065C54.9728 409.059 55.9107 408.893 56.6953 408.547L56.2917 407.632C55.6666 407.908 54.873 408.06 53.8933 408.065L53.8993 409.065ZM56.6922 408.549C57.4786 408.208 58.104 407.731 58.5372 407.104L57.7146 406.536C57.4075 406.98 56.9446 407.35 56.2948 407.631L56.6922 408.549ZM58.5324 407.111C58.9806 406.485 59.1996 405.766 59.1948 404.974L58.1948 404.98C58.1984 405.573 58.0381 406.084 57.7193 406.529L58.5324 407.111ZM59.1948 404.974C59.1915 404.427 59.0998 403.925 58.9054 403.478L57.9887 403.878C58.1187 404.176 58.1922 404.54 58.1948 404.98L59.1948 404.974ZM58.9079 403.484C58.7191 403.036 58.4457 402.636 58.0922 402.287L57.3894 402.998C57.6529 403.258 57.8503 403.549 57.9862 403.872L58.9079 403.484ZM58.0922 402.287C57.7505 401.949 57.3421 401.641 56.8723 401.36L56.3591 402.218C56.7724 402.465 57.1141 402.726 57.3894 402.998L58.0922 402.287ZM56.8723 401.36C56.407 401.082 55.8709 400.815 55.2665 400.558L54.8756 401.478C55.4475 401.721 55.9412 401.968 56.3591 402.218L56.8723 401.36ZM55.2889 400.568C54.5033 400.188 53.8402 399.855 53.2987 399.568L52.8312 400.452C53.3865 400.746 54.0608 401.085 54.8532 401.468L55.2889 400.568ZM53.3069 399.573C52.7931 399.289 52.4352 399.001 52.2062 398.721L51.432 399.354C51.7671 399.764 52.2398 400.125 52.8229 400.448L53.3069 399.573ZM52.2136 398.731C52.0192 398.481 51.9139 398.178 51.9116 397.797L50.9117 397.803C50.9151 398.382 51.0814 398.904 51.4246 399.345L52.2136 398.731ZM51.9116 397.797C51.9088 397.324 52.09 396.978 52.4849 396.708L51.9204 395.883C51.253 396.339 50.9068 396.996 50.9117 397.803L51.9116 397.797ZM52.4801 396.711C52.922 396.417 53.5175 396.248 54.3024 396.243L54.2964 395.243C53.3746 395.248 52.5723 395.448 51.9251 395.879L52.4801 396.711ZM54.3024 396.243C54.7282 396.24 55.0807 396.276 55.3663 396.343L55.5938 395.369C55.2117 395.28 54.7772 395.24 54.2964 395.243L54.3024 396.243ZM55.3886 396.347C55.7112 396.407 55.9868 396.484 56.2187 396.576L56.5845 395.645C56.2818 395.526 55.943 395.433 55.5715 395.364L55.3886 396.347ZM56.2264 396.579C56.4974 396.68 56.7395 396.78 56.9533 396.879L57.3737 395.972C57.1329 395.86 56.8671 395.75 56.5768 395.642L56.2264 396.579ZM57.6219 396.625L58.1546 395.402L57.2378 395.003L56.7051 396.226L57.6219 396.625ZM57.9171 394.754C57.4534 394.526 56.901 394.325 56.2658 394.15L55.9996 395.114C56.5931 395.278 57.083 395.458 57.4752 395.651L57.9171 394.754ZM56.2658 394.15C55.6051 393.967 54.9187 393.879 54.2082 393.883L54.2142 394.883C54.837 394.88 55.4316 394.957 55.9996 395.114L56.2658 394.15ZM54.2082 393.883C53.2585 393.889 52.4104 394.057 51.6788 394.406L52.1092 395.309C52.6805 395.036 53.3773 394.888 54.2142 394.883L54.2082 393.883ZM51.6752 394.408C50.9718 394.75 50.4042 395.211 49.992 395.799L50.8107 396.373C51.1124 395.943 51.5399 395.586 52.1128 395.307L51.6752 394.408ZM49.987 395.806C49.5833 396.404 49.3873 397.085 49.3918 397.832L50.3918 397.826C50.3884 397.267 50.5322 396.786 50.8157 396.366L49.987 395.806ZM49.3918 397.832C49.3949 398.352 49.4796 398.839 49.653 399.288L50.5859 398.928C50.4614 398.605 50.3943 398.24 50.3918 397.826L49.3918 397.832ZM49.6586 399.302C49.8435 399.741 50.1029 400.146 50.4326 400.516L51.1793 399.851C50.9183 399.558 50.72 399.246 50.5803 398.914L49.6586 399.302ZM50.447 400.532C50.7879 400.883 51.1956 401.206 51.6654 401.501L52.1972 400.654C51.7837 400.394 51.4412 400.121 51.1648 399.836L50.447 400.532ZM51.6804 401.51C52.1534 401.784 52.6911 402.055 53.2919 402.324L53.7003 401.411C53.1246 401.154 52.6191 400.898 52.1822 400.645L51.6804 401.51ZM53.3105 402.332C54.0853 402.642 54.7254 402.942 55.2351 403.231L55.7283 402.361C55.1677 402.043 54.484 401.724 53.6817 401.403L53.3105 402.332ZM55.2434 403.235C55.74 403.505 56.0797 403.782 56.293 404.056L57.0819 403.441C56.7576 403.025 56.2935 402.667 55.72 402.356L55.2434 403.235ZM56.3004 404.065C56.5022 404.312 56.6126 404.617 56.615 405.009L57.615 405.003C57.6114 404.408 57.4368 403.875 57.0745 403.432L56.3004 404.065ZM56.615 405.009C56.6168 405.312 56.5281 405.59 56.3364 405.856L57.1473 406.441C57.458 406.01 57.6181 405.527 57.615 405.003L56.615 405.009ZM56.3343 405.859C56.165 406.097 55.8943 406.307 55.4825 406.47L55.8505 407.4C56.3965 407.184 56.8427 406.869 57.1493 406.438L56.3343 405.859ZM55.4825 406.47C55.0793 406.63 54.5461 406.722 53.8652 406.726L53.8712 407.726C54.6304 407.721 55.296 407.619 55.8505 407.4L55.4825 406.47ZM53.8652 406.726C53.4843 406.728 53.095 406.693 52.6967 406.621L52.5184 407.605C52.9744 407.688 53.4255 407.728 53.8712 407.726L53.8652 406.726ZM52.7115 406.624C52.3039 406.537 51.9326 406.433 51.5964 406.31L51.2547 407.25C51.64 407.39 52.0567 407.507 52.5036 407.602L52.7115 406.624ZM51.6022 406.313C51.2581 406.183 50.9625 406.066 50.7146 405.964L50.3321 406.888C50.5923 406.995 50.8981 407.115 51.2488 407.248L51.6022 406.313ZM50.0424 406.289L49.6898 407.531L50.6518 407.804L51.0044 406.562L50.0424 406.289Z" fill="black" fill-opacity="0.2"/>
<rect x="76.9461" y="427.547" width="48" height="12" rx="0.5" transform="rotate(179.656 76.9461 427.547)" stroke="white"/>
<path d="M34.0399 423.304C34.3732 423.302 34.6511 423.226 34.8736 423.074C35.0993 422.92 35.2697 422.712 35.3848 422.451C35.4999 422.191 35.5565 421.899 35.5546 421.575C35.5527 421.259 35.4993 420.974 35.3944 420.721C35.2896 420.468 35.1284 420.269 34.9109 420.124C34.6933 419.975 34.4078 419.902 34.0545 419.904L32.8645 419.911L32.8849 423.311L34.0399 423.304ZM34.0716 420.244C34.3182 420.243 34.5202 420.3 34.6776 420.415C34.8383 420.531 34.9576 420.69 35.0355 420.893C35.1167 421.093 35.158 421.323 35.1596 421.583C35.1613 421.869 35.1145 422.116 35.0191 422.323C34.927 422.531 34.7979 422.691 34.6319 422.806C34.4659 422.917 34.2696 422.973 34.0429 422.974L33.273 422.979L33.2566 420.249L34.0716 420.244ZM37.5748 423.353C37.2681 423.355 36.9943 423.282 36.7534 423.133C36.5125 422.984 36.323 422.779 36.1847 422.516C36.0498 422.251 35.9813 421.948 35.9793 421.608C35.9772 421.268 36.0437 420.964 36.1788 420.696C36.3172 420.426 36.5059 420.211 36.745 420.053C36.9873 419.895 37.2635 419.812 37.5735 419.803C37.8801 419.801 38.1539 419.876 38.3948 420.028C38.6357 420.177 38.8253 420.382 38.9635 420.645C39.1018 420.907 39.1719 421.208 39.174 421.548C39.176 421.888 39.1078 422.194 38.9695 422.465C38.8344 422.736 38.6457 422.95 38.4033 423.108C38.1642 423.263 37.8881 423.345 37.5748 423.353ZM37.5627 423.008C37.796 423.007 38.0023 422.944 38.1816 422.819C38.3608 422.695 38.5015 422.524 38.6035 422.307C38.7055 422.086 38.7557 421.836 38.754 421.556C38.7524 421.283 38.7009 421.04 38.5996 420.827C38.4984 420.614 38.359 420.448 38.1816 420.329C38.0076 420.21 37.8089 420.152 37.5856 420.153C37.3522 420.154 37.1459 420.217 36.9667 420.342C36.7874 420.466 36.6468 420.637 36.5448 420.854C36.4427 421.072 36.3925 421.32 36.3942 421.6C36.3959 421.873 36.4473 422.117 36.5486 422.329C36.6499 422.542 36.7876 422.709 36.9616 422.832C37.1357 422.951 37.336 423.01 37.5627 423.008ZM41.8355 422.948L40.2505 422.957L40.2319 419.867L39.842 419.869L39.8624 423.269L41.8773 423.257L41.8355 422.948ZM43.4566 423.248C43.6332 423.247 43.7965 423.229 43.9463 423.195C44.0994 423.157 44.2324 423.101 44.3453 423.027C44.4615 422.95 44.5509 422.851 44.6135 422.731C44.6794 422.607 44.7119 422.459 44.7108 422.285C44.7095 422.055 44.6467 421.871 44.5225 421.731C44.4017 421.592 44.2444 421.49 44.0507 421.424C44.1769 421.353 44.2864 421.263 44.379 421.152C44.4717 421.038 44.5175 420.903 44.5166 420.746C44.5152 420.516 44.4625 420.337 44.3584 420.207C44.2576 420.078 44.117 419.985 43.9367 419.93C43.7563 419.874 43.5495 419.847 43.3162 419.849L42.3712 419.854L42.3916 423.254L43.4566 423.248ZM43.3032 420.184C43.4665 420.183 43.6083 420.197 43.7285 420.226C43.852 420.255 43.9473 420.311 44.0145 420.394C44.0816 420.477 44.1157 420.597 44.1166 420.754C44.1175 420.894 44.0765 421.006 43.9936 421.09C43.9141 421.173 43.8078 421.234 43.6747 421.271C43.5416 421.306 43.395 421.325 43.2351 421.329L42.7751 421.332L42.7682 420.187L43.3032 420.184ZM43.492 421.653C43.7387 421.651 43.9356 421.702 44.0829 421.804C44.2335 421.903 44.3095 422.068 44.3109 422.298C44.3118 422.451 44.2742 422.573 44.1981 422.663C44.122 422.754 44.019 422.819 43.8893 422.86C43.7595 422.898 43.6129 422.917 43.4496 422.918L42.7846 422.922L42.777 421.657L43.492 421.653ZM46.4458 423.23L46.4424 421.845L47.6203 419.823L47.1953 419.825L46.2402 421.476L45.2749 419.757L44.9059 419.919L46.0426 421.867L46.0508 423.232L46.4458 423.23ZM49.1291 423.049C49.1759 423.078 49.2361 423.108 49.3096 423.138C49.3831 423.164 49.4649 423.187 49.555 423.206C49.6452 423.226 49.7336 423.242 49.8203 423.255C49.9104 423.267 49.9905 423.274 50.0605 423.273C50.3171 423.272 50.5335 423.232 50.7097 423.154C50.8893 423.077 51.0253 422.971 51.1179 422.837C51.2137 422.703 51.2611 422.549 51.2601 422.376C51.2593 422.253 51.2387 422.144 51.1981 422.051C51.1576 421.955 51.0987 421.869 51.0216 421.792C50.9445 421.716 50.8507 421.645 50.7403 421.579C50.6299 421.513 50.5012 421.449 50.3541 421.386C50.1569 421.291 49.9897 421.207 49.8526 421.134C49.7155 421.059 49.6117 420.978 49.5411 420.891C49.474 420.805 49.44 420.702 49.4393 420.582C49.4383 420.422 49.5042 420.296 49.637 420.206C49.7732 420.115 49.9479 420.069 50.1612 420.068C50.2745 420.067 50.3729 420.076 50.4564 420.096C50.5432 420.112 50.62 420.133 50.6868 420.159C50.7569 420.186 50.8204 420.212 50.8773 420.238L51.0104 419.932C50.9034 419.88 50.7732 419.832 50.6196 419.79C50.466 419.747 50.3058 419.727 50.1392 419.728C49.9158 419.729 49.7227 419.768 49.5599 419.846C49.4003 419.924 49.276 420.026 49.1867 420.153C49.1008 420.281 49.0583 420.426 49.0593 420.589C49.06 420.706 49.079 420.812 49.1162 420.909C49.1568 421.005 49.214 421.095 49.2879 421.178C49.365 421.257 49.4588 421.332 49.5692 421.401C49.6829 421.467 49.8133 421.533 49.9604 421.599C50.1575 421.678 50.323 421.755 50.4568 421.831C50.5906 421.903 50.6911 421.983 50.7582 422.069C50.8288 422.155 50.8644 422.26 50.8651 422.383C50.8657 422.487 50.8346 422.582 50.7718 422.669C50.7123 422.753 50.6227 422.818 50.503 422.866C50.3833 422.913 50.2334 422.937 50.0534 422.938C49.9501 422.939 49.8451 422.929 49.7383 422.91C49.6315 422.887 49.533 422.86 49.4428 422.827C49.3559 422.794 49.2807 422.765 49.2172 422.738L49.1291 423.049ZM52.2081 419.795L51.8181 419.798L51.8313 421.993C51.8327 422.233 51.8857 422.449 51.9902 422.642C52.098 422.831 52.2489 422.98 52.4429 423.089C52.6368 423.194 52.8655 423.246 53.1288 423.245C53.3955 423.243 53.6235 423.187 53.8128 423.076C54.0055 422.965 54.1529 422.814 54.2551 422.623C54.3606 422.432 54.4127 422.217 54.4112 421.977L54.3981 419.782L53.9981 419.785L54.011 421.934C54.0121 422.124 53.9765 422.295 53.904 422.445C53.8349 422.592 53.7339 422.708 53.6011 422.792C53.4683 422.876 53.3102 422.919 53.1269 422.92C52.9469 422.921 52.7883 422.88 52.6511 422.798C52.5173 422.715 52.4116 422.601 52.3341 422.455C52.2598 422.308 52.2222 422.139 52.221 421.945L52.2081 419.795ZM56.1984 420.106C56.365 420.105 56.5118 420.124 56.6387 420.164C56.7656 420.2 56.866 420.266 56.9399 420.362C57.0138 420.458 57.0513 420.595 57.0524 420.771C57.0534 420.941 57.0125 421.076 56.9298 421.177C56.847 421.274 56.7391 421.345 56.6061 421.389C56.473 421.433 56.3265 421.456 56.1665 421.457L55.6715 421.459L55.6634 420.11L56.1984 420.106ZM55.2714 419.777L55.2918 423.177L55.6818 423.174L55.6734 421.779L56.1534 421.777C56.21 421.776 56.2717 421.774 56.3383 421.77C56.4083 421.767 56.4666 421.761 56.5133 421.754L57.3017 423.165L57.7367 423.162L56.8626 421.647C57.0355 421.573 57.1765 421.464 57.2857 421.32C57.3981 421.172 57.4553 420.984 57.4573 420.754C57.4558 420.514 57.3997 420.322 57.2888 420.18C57.1779 420.034 57.0273 419.93 56.8369 419.867C56.6465 419.802 56.433 419.77 56.1963 419.771L55.2714 419.777ZM59.1573 420.089C59.324 420.088 59.4707 420.107 59.5976 420.146C59.7245 420.182 59.8249 420.248 59.8988 420.344C59.9727 420.44 60.0102 420.577 60.0113 420.753C60.0123 420.923 59.9715 421.059 59.8887 421.159C59.806 421.256 59.6981 421.327 59.565 421.371C59.4319 421.415 59.2854 421.438 59.1254 421.439L58.6304 421.442L58.6223 420.092L59.1573 420.089ZM58.2303 419.759L58.2507 423.159L58.6407 423.157L58.6323 421.762L59.1123 421.759C59.169 421.759 59.2306 421.756 59.2973 421.753C59.3673 421.749 59.4256 421.744 59.4722 421.737L60.2607 423.147L60.6956 423.144L59.8215 421.63C59.9944 421.555 60.1354 421.446 60.2446 421.302C60.357 421.155 60.4142 420.966 60.4162 420.736C60.4148 420.496 60.3586 420.305 60.2477 420.162C60.1369 420.016 59.9862 419.912 59.7959 419.85C59.6055 419.784 59.3919 419.752 59.1553 419.754L58.2303 419.759ZM62.545 423.203C62.2384 423.205 61.9646 423.132 61.7237 422.983C61.4828 422.835 61.2932 422.629 61.155 422.367C61.02 422.101 60.9516 421.798 60.9495 421.458C60.9475 421.118 61.014 420.814 61.1491 420.547C61.2874 420.276 61.4761 420.061 61.7152 419.903C61.9576 419.745 62.2338 419.662 62.5437 419.653C62.8504 419.651 63.1242 419.726 63.3651 419.878C63.606 420.027 63.7956 420.232 63.9338 420.495C64.072 420.757 64.1422 421.059 64.1442 421.399C64.1463 421.739 64.0781 422.044 63.9397 422.315C63.8047 422.586 63.616 422.8 63.3736 422.958C63.1345 423.113 62.8583 423.195 62.545 423.203ZM62.533 422.858C62.7663 422.857 62.9726 422.794 63.1518 422.67C63.3311 422.545 63.4717 422.374 63.5738 422.157C63.6758 421.936 63.7259 421.686 63.7243 421.406C63.7226 421.133 63.6712 420.89 63.5699 420.677C63.4686 420.464 63.3293 420.299 63.1519 420.18C62.9778 420.061 62.7791 420.002 62.5558 420.003C62.3225 420.005 62.1162 420.067 61.9369 420.192C61.7577 420.316 61.617 420.487 61.515 420.704C61.413 420.922 61.3628 421.17 61.3645 421.45C61.3661 421.724 61.4176 421.967 61.5189 422.179C61.6201 422.392 61.7578 422.56 61.9319 422.682C62.1059 422.801 62.3063 422.86 62.533 422.858ZM65.1522 419.718L64.7622 419.72L64.7754 421.915C64.7768 422.155 64.8298 422.371 64.9343 422.564C65.0421 422.753 65.193 422.902 65.387 423.011C65.5809 423.117 65.8096 423.169 66.0729 423.167C66.3396 423.166 66.5676 423.109 66.7569 422.998C66.9496 422.887 67.097 422.736 67.1992 422.545C67.3047 422.355 67.3568 422.139 67.3553 421.899L67.3422 419.704L66.9422 419.707L66.9551 421.857C66.9562 422.047 66.9206 422.217 66.8481 422.367C66.779 422.515 66.678 422.63 66.5452 422.714C66.4124 422.798 66.2543 422.841 66.071 422.842C65.891 422.843 65.7324 422.802 65.5952 422.72C65.4614 422.637 65.3557 422.523 65.2782 422.377C65.2039 422.231 65.1663 422.061 65.1651 421.868L65.1522 419.718ZM68.6259 423.097L68.6099 420.432L68.7412 420.651L70.4908 423.086L70.8058 423.084L70.7854 419.684L70.3854 419.686L70.4012 422.321L70.1942 421.987L68.5255 419.697L68.2155 419.699L68.2359 423.099L68.6259 423.097ZM72.8918 423.071C73.2251 423.069 73.503 422.993 73.7254 422.841C73.9511 422.687 74.1216 422.479 74.2367 422.218C74.3518 421.957 74.4084 421.665 74.4064 421.342C74.4045 421.025 74.3511 420.741 74.2463 420.488C74.1414 420.235 73.9802 420.036 73.7627 419.891C73.5451 419.742 73.2597 419.669 72.9064 419.671L71.7164 419.678L71.7368 423.078L72.8918 423.071ZM72.9234 420.011C73.1701 420.009 73.3721 420.067 73.5294 420.182C73.6901 420.298 73.8094 420.457 73.8873 420.66C73.9685 420.86 74.0099 421.089 74.0114 421.349C74.0132 421.636 73.9663 421.883 73.8709 422.09C73.7788 422.298 73.6498 422.458 73.4838 422.573C73.3178 422.684 73.1214 422.74 72.8948 422.741L72.1248 422.746L72.1084 420.016L72.9234 420.011Z" fill="white"/>
<rect x="27.947" y="427.841" width="19" height="12" rx="0.5" transform="rotate(179.656 27.947 427.841)" stroke="white"/>
<path d="M19.0163 420.923C18.8192 421.211 18.3949 421.214 18.1943 420.928L15.9274 417.698C15.6956 417.367 15.9302 416.913 16.3336 416.91L20.8287 416.883C21.2321 416.881 21.4721 417.333 21.2444 417.666L19.0163 420.923Z" fill="white" stroke="white"/>
<path d="M18.212 423.87C18.4091 423.582 18.8334 423.58 19.0339 423.866L21.3009 427.096C21.5326 427.426 21.298 427.881 20.8946 427.883L16.3996 427.91C15.9962 427.913 15.7562 427.461 15.9839 427.128L18.212 423.87Z" fill="white" stroke="white"/>
<circle cx="41.4894" cy="298.394" r="3.76923" fill="black" stroke="black"/>
<line x1="38.1225" y1="296.273" x2="31.0302" y2="292.473" stroke="black"/>
<path d="M41.7664 295.032V287.632" stroke="black"/>
<line x1="44.9594" y1="296.622" x2="50.0825" y2="292.638" stroke="black"/>
<line x1="41.7663" y1="302.028" x2="41.8279" y2="309.397" stroke="black"/>
<line x1="38.3208" y1="300.479" x2="31.49" y2="303.895" stroke="black"/>
<line x1="44.8722" y1="300.523" x2="51.7029" y2="304.508" stroke="black"/>
<circle cx="29.3663" cy="291.032" r="2.5" stroke="black"/>
<circle cx="29.3663" cy="291.032" r="2.5" stroke="black"/>
<circle cx="29.3663" cy="291.032" r="2.5" stroke="black"/>
<path d="M32.2664 305.532C32.2664 307.3 30.8337 308.732 29.0664 308.732C27.299 308.732 25.8664 307.3 25.8664 305.532C25.8664 303.765 27.299 302.332 29.0664 302.332C30.8337 302.332 32.2664 303.765 32.2664 305.532Z" stroke="black"/>
<circle cx="42.3971" cy="312.163" r="2.63077" stroke="black"/>
<circle cx="41.774" cy="284.448" r="2.91538" stroke="black"/>
<circle cx="52.1125" cy="290.878" r="2.34615" stroke="black"/>
<circle cx="54.2971" cy="306.078" r="2.91538" stroke="black"/>
<path d="M64.4077 35.0657C64.4077 47.7682 54.1103 58.0657 41.4077 58.0657C28.7052 58.0657 18.4077 47.7682 18.4077 35.0657C18.4077 22.3631 28.7052 12.0657 41.4077 12.0657C54.1103 12.0657 64.4077 22.3631 64.4077 35.0657Z" fill="#C2BEBE"/>
<path d="M26.9717 39.1791C27.1077 39.2671 27.2757 39.3511 27.4757 39.4311C27.6757 39.5111 27.8917 39.5831 28.1237 39.6471C28.3557 39.7111 28.5797 39.7631 28.7957 39.8031C29.0197 39.8511 29.2157 39.8751 29.3837 39.8751C30.0397 39.8751 30.5917 39.7751 31.0397 39.5751C31.4877 39.3751 31.8317 39.1111 32.0717 38.7831C32.3117 38.4471 32.4317 38.0631 32.4317 37.6311C32.4317 37.2791 32.3597 36.9751 32.2157 36.7191C32.0717 36.4631 31.8797 36.2351 31.6397 36.0351C31.3997 35.8271 31.1317 35.6391 30.8357 35.4711C30.5477 35.2951 30.2597 35.1231 29.9717 34.9551C29.7157 34.7871 29.4677 34.6391 29.2277 34.5111C28.9877 34.3751 28.7957 34.2311 28.6517 34.0791C28.5077 33.9271 28.4357 33.7511 28.4357 33.5511C28.4357 33.2711 28.5517 33.0631 28.7837 32.9271C29.0157 32.7911 29.3077 32.7231 29.6597 32.7231C29.8917 32.7231 30.1077 32.7511 30.3077 32.8071C30.5157 32.8551 30.7117 32.9191 30.8957 32.9991C31.0797 33.0711 31.2517 33.1471 31.4117 33.2271L31.9397 31.9791C31.6277 31.8271 31.2677 31.6871 30.8597 31.5591C30.4517 31.4311 30.0437 31.3671 29.6357 31.3671C29.0437 31.3671 28.5357 31.4631 28.1117 31.6551C27.6957 31.8471 27.3757 32.1071 27.1517 32.4351C26.9357 32.7631 26.8277 33.1351 26.8277 33.5511C26.8277 33.8631 26.8997 34.1511 27.0437 34.4151C27.1877 34.6711 27.3797 34.9071 27.6197 35.1231C27.8597 35.3391 28.1197 35.5391 28.3997 35.7231C28.6877 35.9071 28.9757 36.0871 29.2637 36.2631C29.5117 36.4071 29.7557 36.5511 29.9957 36.6951C30.2357 36.8311 30.4317 36.9711 30.5837 37.1151C30.7437 37.2591 30.8237 37.4231 30.8237 37.6071C30.8237 37.7991 30.7677 37.9631 30.6557 38.0991C30.5517 38.2271 30.3917 38.3231 30.1757 38.3871C29.9597 38.4511 29.6877 38.4831 29.3597 38.4831C29.1277 38.4831 28.8837 38.4551 28.6277 38.3991C28.3797 38.3351 28.1397 38.2591 27.9077 38.1711C27.6837 38.0831 27.4877 37.9991 27.3197 37.9191L26.9717 39.1791ZM39.2518 31.9191C39.0118 31.7911 38.7558 31.6911 38.4838 31.6191C38.2118 31.5391 37.9518 31.4831 37.7038 31.4511C37.4558 31.4111 37.2518 31.3911 37.0918 31.3911C36.4918 31.3911 35.9518 31.4951 35.4718 31.7031C34.9918 31.9111 34.5758 32.2071 34.2238 32.5911C33.8798 32.9751 33.6158 33.4311 33.4318 33.9591C33.2478 34.4791 33.1558 35.0511 33.1558 35.6751C33.1558 36.2591 33.2358 36.8071 33.3958 37.3191C33.5638 37.8311 33.8118 38.2791 34.1398 38.6631C34.4678 39.0471 34.8718 39.3471 35.3518 39.5631C35.8398 39.7791 36.3998 39.8871 37.0318 39.8871C37.2558 39.8871 37.5038 39.8631 37.7758 39.8151C38.0558 39.7751 38.3318 39.7151 38.6038 39.6351C38.8758 39.5551 39.1158 39.4631 39.3238 39.3591L38.7358 38.2071C38.4878 38.3111 38.2158 38.3991 37.9198 38.4711C37.6238 38.5431 37.3038 38.5791 36.9598 38.5791C36.6078 38.5791 36.2958 38.5031 36.0238 38.3511C35.7518 38.1991 35.5238 37.9871 35.3398 37.7151C35.1638 37.4431 35.0238 37.1311 34.9198 36.7791C34.8238 36.4271 34.7758 36.0551 34.7758 35.6631C34.7758 35.0391 34.8758 34.5111 35.0758 34.0791C35.2758 33.6391 35.5478 33.2991 35.8918 33.0591C36.2358 32.8191 36.6198 32.6991 37.0438 32.6991C37.2838 32.6991 37.4878 32.7151 37.6558 32.7471C37.8238 32.7791 37.9958 32.8191 38.1718 32.8671C38.3478 32.9071 38.5478 32.9631 38.7718 33.0351L39.2518 31.9191ZM42.0773 39.7191V31.5591H40.5293V39.7191H42.0773ZM46.5992 35.8191H43.4552L43.5872 37.0431H46.7192L46.5992 35.8191ZM52.2036 35.0511H49.6476V32.7831H52.9596L52.7196 31.5591H48.0996V39.7191H49.6476V36.2631H52.4196L52.2036 35.0511ZM55.7648 39.7191V31.5591H54.2168V39.7191H55.7648Z" fill="black"/>
<defs>
<filter id="filter0_d_0_1" x="-3.99097" y="0.0769882" width="95.2596" height="464.218" filterUnits="userSpaceOnUse" color-interpolation-filters="sRGB">
<feFlood flood-opacity="0" result="BackgroundImageFix"/>
<feColorMatrix in="SourceAlpha" type="matrix" values="0 0 0 0 0 0 0 0 0 0 0 0 0 0 0 0 0 0 127 0" result="hardAlpha"/>
<feOffset dy="4"/>
<feGaussianBlur stdDeviation="2"/>
<feComposite in2="hardAlpha" operator="out"/>
<feColorMatrix type="matrix" values="0 0 0 0 0 0 0 0 0 0 0 0 0 0 0 0 0 0 0.25 0"/>
<feBlend mode="normal" in2="BackgroundImageFix" result="effect1_dropShadow_0_1"/>
<feBlend mode="normal" in="SourceGraphic" in2="effect1_dropShadow_0_1" result="shape"/>
</filter>
</defs>
</svg>
