<svg width="455" height="84" viewBox="0 0 455 84" fill="none" xmlns="http://www.w3.org/2000/svg">
<rect width="455" height="84" fill="#F5F5F5"/>
<g filter="url(#filter0_d_0_1)">
<rect x="455.456" y="0.426071" width="86" height="456" rx="4" transform="rotate(90.2258 455.456 0.426071)" fill="#415F70"/>
</g>
<rect x="11.6351" y="9.89909" width="341.978" height="63.0823" rx="4" transform="rotate(0.175693 11.6351 9.89909)" fill="#E4E4E4"/>
<path d="M23.0624 41.1399C22.5719 41.278 22.1166 41.3462 21.6966 41.3445C20.5766 41.3401 19.5052 40.8459 18.4824 39.8619C18.6244 39.3491 18.8592 38.9767 19.1868 38.7446C19.5145 38.4893 19.8419 38.2922 20.1691 38.1535C20.4964 38.0148 20.7184 37.9223 20.8352 37.8761C22.0974 37.3444 23.4175 36.883 24.7957 36.4917C25.3798 36.3074 25.7429 35.9355 25.8851 35.376C26.3107 33.9543 26.6429 32.5556 26.8817 31.1799C27.1205 29.7808 27.4079 27.9036 27.7439 25.5483L27.8882 24.4638C27.9118 24.3939 27.9239 24.289 27.9244 24.149C27.9263 23.659 27.6827 23.3197 27.1934 23.1311C27.0304 23.0604 26.8441 22.943 26.6348 22.7789C26.4255 22.5914 26.2628 22.4507 26.1465 22.3569L25.3048 22.7736C24.6269 23.0743 23.8555 23.4446 22.9904 23.8845C22.6864 24.0466 22.3711 24.1271 22.0444 24.1258C21.6945 24.1244 21.3214 24.0413 20.9254 23.8764C20.5528 23.6882 20.3316 23.5824 20.2617 23.5588C20.052 23.4646 19.8776 23.3239 19.7383 23.1367C19.6224 22.9496 19.5648 22.751 19.5657 22.541C19.5668 22.261 19.6612 21.993 19.8488 21.7371C20.107 21.3648 20.5052 20.9814 21.0434 20.5868C23.1495 19.0318 25.3693 18.2588 27.7026 18.268C28.7759 18.2723 29.837 18.4281 30.8858 18.7356C31.8646 19.0428 32.7152 19.3028 33.4377 19.5157C34.1836 19.7053 34.8013 19.871 35.2908 20.013L37.4933 20.6516C37.5399 20.6518 37.6332 20.6639 37.7731 20.6877C37.9364 20.7117 38.0528 20.7589 38.1226 20.8291C38.2621 20.9463 38.4015 21.1102 38.5406 21.3208C38.7032 21.5081 38.831 21.6603 38.9238 21.7773C38.8068 21.8702 38.6429 22.0095 38.4322 22.1954C38.2448 22.3813 38.0694 22.4739 37.9061 22.4733C37.7193 22.4959 37.4276 22.5064 37.031 22.5048C36.7276 22.5036 36.2727 22.4785 35.6662 22.4295L34.8964 22.3914L32.4125 22.1016L32.2325 23.3609C31.9206 25.5531 31.6454 27.2903 31.407 28.5727C31.2159 29.692 30.9067 31.1958 30.4792 33.0841L30.0511 35.1474C31.6386 34.9437 32.7124 34.8079 33.2727 34.7401C34.5332 34.6051 35.4785 34.5388 36.1085 34.5413C36.8785 34.5443 37.5198 34.6519 38.0323 34.8639C38.5448 35.0759 38.9047 35.509 39.1121 36.1631C38.8776 36.4656 38.6084 36.6862 38.3045 36.825C38.024 36.9639 37.7319 37.0677 37.4283 37.1365C37.148 37.2054 36.9728 37.2514 36.9027 37.2744L36.2369 37.4818C34.8353 37.8963 33.8777 38.1375 33.364 38.2055C32.2667 38.3645 31.1925 38.5936 30.1413 38.8928C29.1135 39.1921 27.8285 39.5954 26.2865 40.1026C25.2817 40.472 24.207 40.8178 23.0624 41.1399ZM53.173 24.7735C53.083 23.9331 53.2026 23.1752 53.532 22.4999C53.8847 21.8013 54.3774 21.1265 55.0099 20.4757L57.1456 20.3091C57.4725 20.2637 57.6709 20.2412 57.7409 20.2414C58.0909 20.2428 58.5325 20.6762 59.0658 21.5417C59.1119 21.6819 59.1579 21.857 59.2037 22.0672C59.2496 22.2541 59.319 22.406 59.4119 22.523L63.4497 28.174C64.0533 28.9464 64.6451 29.7537 65.2251 30.596L65.8277 28.6734C66.584 26.2263 67.2685 24.2457 67.8812 22.7314C68.5172 21.1939 69.3396 19.7388 70.3484 18.3661L72.0274 18.6177C72.4694 18.9695 72.6192 19.4367 72.4769 20.0195C72.2636 20.8587 72.0394 21.4878 71.8044 21.9069C71.2388 23.328 70.7665 24.7728 70.3873 26.2413C70.0083 27.6865 69.5811 29.5165 69.1057 31.7313C69.0345 32.0344 68.9394 32.489 68.8203 33.0952C68.63 34.0278 68.2656 34.7264 67.7271 35.1909C67.1886 35.6321 66.4527 35.8742 65.5192 35.9172C64.5857 35.9602 63.7822 35.572 63.1087 34.7527C62.4121 33.91 61.5415 32.7749 60.4971 31.3474L59.8009 30.3996C59.1742 29.5572 58.2224 28.3167 56.9455 26.6784L56.6246 28.1821C56.268 29.8607 56.0528 31.1782 55.979 32.1346L55.7523 36.3687C55.7271 36.8353 55.7015 37.4302 55.6753 38.1534C55.6492 38.8533 55.5993 39.6815 55.5255 40.6379C55.4994 41.3378 55.252 41.9435 54.7833 42.455C54.338 42.9665 53.7766 43.3143 53.0992 43.4983C52.7488 43.5903 52.3175 43.4952 51.8053 43.2132C51.3163 42.9546 51.0259 42.6501 50.9339 42.2998C50.773 41.6925 50.6934 41.1555 50.6953 40.6888C50.6969 40.2688 50.7567 39.8957 50.8747 39.5695C51.0869 39.0104 51.2304 38.1243 51.3051 36.9112C51.3548 36.1647 51.4153 35.605 51.4868 35.2319C51.7986 33.0865 52.2769 30.125 52.9218 26.3475C52.9459 26.1609 52.9935 25.9161 53.0647 25.6131C53.1593 25.2868 53.1954 25.0069 53.173 24.7735ZM91.1468 41.5133C91.0295 41.6761 90.8535 41.9438 90.6187 42.3162C90.3838 42.7119 90.1259 43.0143 89.8451 43.2231C89.5642 43.4554 89.2253 43.594 88.8285 43.6391C86.7786 42.7444 85.6644 41.27 85.4859 39.2159C85.3275 37.9553 85.0203 35.9707 84.5643 33.2623C84.2224 31.2076 83.7882 28.8958 83.2616 26.3271C83.2157 26.1402 83.0766 25.918 82.8443 25.6604C82.6353 25.4029 82.496 25.2157 82.4265 25.0988C82.3569 24.9818 82.2295 24.7597 82.0441 24.4323C81.8588 24.0815 81.7434 23.7544 81.698 23.4509C81.6763 23.0308 81.7709 22.6928 81.982 22.437C82.193 22.1812 82.4968 22.054 82.8935 22.0556C83.0335 22.0561 83.1501 22.0683 83.2433 22.092C84.1525 22.3055 84.898 22.6002 85.4799 22.9758C86.0851 23.3515 86.5378 23.925 86.8381 24.6962C87.3 25.9113 87.6335 27.1376 87.8386 28.3751C88.0438 29.5893 88.2475 31.2001 88.4496 33.2076L88.5508 34.153C88.5736 34.2931 88.6303 34.7016 88.721 35.3787L88.8577 36.2192C89.4431 35.6848 89.947 35.1385 90.3692 34.5801C90.8148 33.9986 91.3075 33.3122 91.8473 32.521L92.4809 31.6134L95.6134 27.1808C97.9602 23.76 99.8373 21.1074 101.245 19.2229C101.526 18.8507 101.866 18.4787 102.264 18.1069C102.686 17.7352 103.095 17.3752 103.493 17.0267C104.008 16.6088 104.383 16.2836 104.617 16.0512C104.945 15.7258 105.238 15.5636 105.494 15.5646C105.658 15.5653 105.821 15.6476 105.983 15.8115C106.146 15.9988 106.285 16.2211 106.401 16.4782C106.516 16.7353 106.574 16.9805 106.573 17.2139C106.571 17.6339 106.336 18.1696 105.866 18.8211L104.6 20.5661C103.919 21.4501 103.333 22.2528 102.84 22.9742C102.136 24.0448 101.596 24.8476 101.22 25.3828C100.211 26.8955 99.3779 28.1639 98.7205 29.188C98.0864 30.2122 97.4874 31.2482 96.9232 32.296C95.4423 35.0668 93.5168 38.1392 91.1468 41.5133ZM124.572 28.9399L125.832 28.7699C126.743 28.6335 127.361 28.5542 127.688 28.5322L128.529 28.4655C128.809 28.4433 129.159 28.4213 129.579 28.3996C129.999 28.378 130.477 28.3682 131.014 28.3703C131.527 28.3723 131.901 28.3854 132.134 28.4097C132.95 28.4829 133.544 28.7536 133.916 29.2217C134.31 29.69 134.541 30.3909 134.607 31.3245C134.514 31.3241 134.374 31.3119 134.187 31.2878C134.001 31.2637 133.849 31.2398 133.733 31.216C133.08 31.0968 132.485 31.0361 131.948 31.034C131.318 31.0315 130.711 31.1108 130.127 31.2718C128.632 31.7326 126.717 32.215 124.382 32.7192C123.938 32.8341 123.587 33.0194 123.33 33.275C123.095 33.5074 122.942 33.8452 122.871 34.2882C122.727 35.1743 122.549 36.0603 122.335 36.9461C122.168 37.7622 122.037 38.4383 121.942 38.9746C121.918 39.1612 121.905 39.4061 121.904 39.7095C121.903 39.9895 121.902 40.1878 121.902 40.3045C122.275 40.3759 122.66 40.4125 123.056 40.414C123.826 40.4171 124.772 40.2691 125.893 39.9702C127.948 39.4883 130.015 38.9714 132.094 38.4196L135.948 37.4548C137.163 37.1563 138.12 36.8917 138.821 36.6611C140.34 36.2471 141.437 35.9598 142.115 35.7991C142.395 35.7535 142.605 35.731 142.745 35.7316C143.328 35.7339 143.712 35.9687 143.897 36.4361C143.967 36.5997 144.001 36.7632 144 36.9265C143.999 37.2065 143.905 37.4745 143.717 37.7304C143.529 37.9864 143.272 38.1953 142.945 38.3574C142.501 38.5423 141.893 38.7382 141.122 38.9452C138.88 39.5897 136.894 40.2002 135.165 40.7767C131.801 41.8368 129.301 42.5853 127.666 43.0222C127.012 43.2063 126.031 43.3658 124.724 43.5006L123.429 43.6705C122.635 43.7607 121.924 43.4896 121.297 42.8571L120.669 42.2246C119.902 41.4983 119.31 40.8659 118.892 40.3276C118.59 39.9297 118.464 39.3809 118.513 38.6811C118.586 37.8647 118.743 36.617 118.983 34.9379L119.127 33.8185L119.236 32.7689C118.537 32.5561 117.99 32.2973 117.595 31.9924C117.222 31.6643 117.026 31.1502 117.006 30.4501C117.753 30.3597 118.313 30.3152 118.686 30.3167C119.106 30.295 119.445 30.1914 119.702 30.0057C119.96 29.8201 120.159 29.5175 120.301 29.0981C120.561 28.2591 120.997 27.0241 121.611 25.3932C121.8 24.7873 122.036 24.1115 122.319 23.366C122.437 22.9931 122.52 22.5268 122.569 21.967C122.571 21.547 122.665 21.2207 122.853 20.9881C123.064 20.7322 123.391 20.5352 123.835 20.3969C125.961 19.752 128.728 19.2612 132.136 18.9246C133.257 18.8124 134.365 18.7818 135.462 18.8327C137.002 18.8388 138.143 19.4266 138.885 20.5962C139.094 20.8771 139.197 21.2508 139.195 21.7175C139.194 21.9275 139.17 22.079 139.123 22.1722C138.982 22.4983 138.771 22.7775 138.49 23.0097C138.233 23.2187 137.906 23.3224 137.509 23.3208L136.144 23.3505C135.49 23.3946 135.012 23.416 134.708 23.4148C134.055 23.4122 133.612 23.2938 133.38 23.0596C133.054 22.7316 132.647 22.5667 132.157 22.5647C132.017 22.5642 131.783 22.5866 131.457 22.632L127.988 23.4233L126.587 23.7678L124.572 28.9399ZM155.246 25.1758C155.156 24.3354 155.276 23.5775 155.605 22.9022C155.958 22.2035 156.451 21.5288 157.083 20.878L159.219 20.7114C159.546 20.666 159.744 20.6435 159.814 20.6437C160.164 20.6451 160.606 21.0785 161.139 21.944C161.185 22.0841 161.231 22.2593 161.277 22.4695C161.323 22.6564 161.392 22.8083 161.485 22.9253L165.523 28.5763C166.127 29.3487 166.719 30.156 167.299 30.9983L167.901 29.0757C168.657 26.6286 169.342 24.648 169.955 23.1337C170.591 21.5962 171.413 20.1411 172.422 18.7684L174.101 19.02C174.543 19.3718 174.693 19.839 174.55 20.4218C174.337 21.261 174.113 21.8901 173.878 22.3092C173.312 23.7303 172.84 25.1751 172.461 26.6436C172.082 28.0888 171.655 29.9188 171.179 32.1336C171.108 32.4367 171.013 32.8913 170.894 33.4975C170.703 34.4301 170.339 35.1287 169.8 35.5932C169.262 36.0344 168.526 36.2765 167.593 36.3195C166.659 36.3625 165.856 35.9743 165.182 35.155C164.485 34.3122 163.615 33.1771 162.571 31.7497L161.874 30.8019C161.248 29.9595 160.296 28.719 159.019 27.0806L158.698 28.5844C158.341 30.263 158.126 31.5805 158.052 32.5369L157.826 36.771C157.801 37.2376 157.775 37.8325 157.749 38.5557C157.723 39.2556 157.673 40.0838 157.599 41.0402C157.573 41.7401 157.325 42.3458 156.857 42.8572C156.411 43.3688 155.85 43.7166 155.173 43.9006C154.822 43.9926 154.391 43.8975 153.879 43.6155C153.39 43.3569 153.099 43.0524 153.007 42.7021C152.846 42.0948 152.767 41.5578 152.769 41.0911C152.77 40.6711 152.83 40.298 152.948 39.9718C153.16 39.4127 153.304 38.5265 153.379 37.3135C153.428 36.567 153.489 36.0073 153.56 35.6342C153.872 33.4887 154.35 30.5273 154.995 26.7498C155.019 26.5632 155.067 26.3184 155.138 26.0153C155.233 25.689 155.269 25.4092 155.246 25.1758ZM188.96 21.7036C187.771 21.3723 187.039 20.7044 186.763 19.6999C187.371 19.329 187.978 19.1097 188.585 19.0421C189.216 18.9513 190.044 18.8962 191.071 18.8769L193.836 18.8528C195.773 18.8371 197.465 18.8554 198.911 18.9078C200.358 18.9368 201.571 18.965 202.551 18.9922L205.456 19.0386C206.412 19.0424 207.135 19.0802 207.625 19.1522C207.882 19.1998 208.196 19.2827 208.569 19.4009L209.303 19.6138L209.302 19.9638C209.138 20.0565 208.881 20.1838 208.53 20.3457C208.203 20.5078 207.923 20.6117 207.689 20.6574C205.844 21.0235 204.304 21.2041 203.067 21.1992C201.9 21.2646 200.15 21.351 197.816 21.4585L196.486 21.5233C196.508 21.8267 196.518 22.2934 196.515 22.9234C196.508 24.72 196.303 26.4926 195.899 28.241C195.519 29.9662 195.009 32.0525 194.37 34.5C194.109 35.5023 193.577 37.1453 192.775 39.4288L192.456 40.3375C192.244 40.9667 191.855 41.9102 191.29 43.168C191.219 43.401 191.032 43.5869 190.728 43.7257C190.447 43.888 190.155 43.9685 189.852 43.9673C189.782 43.967 189.654 43.9432 189.467 43.8958C189.048 43.7308 188.839 43.415 188.841 42.9483C188.842 42.855 188.865 42.7034 188.913 42.4936C189.198 41.2114 189.684 39.2649 190.371 36.6543L190.833 34.7661C191.355 32.6681 191.771 30.8381 192.08 29.276C192.413 27.7139 192.699 26.1517 192.939 24.5893C192.963 24.4261 192.998 24.2395 193.046 24.0297C193.093 23.7966 193.129 23.5867 193.153 23.4001C193.202 22.9103 193.133 22.5367 192.948 22.2793C192.785 21.9987 192.518 21.8576 192.144 21.8562C192.074 21.8559 191.911 21.8786 191.654 21.9242C191.35 21.993 191.035 22.0268 190.709 22.0255C190.289 22.0238 189.706 21.9165 188.96 21.7036ZM219.869 25.0805C220.785 23.5674 222.202 22.243 224.119 21.1072C225.64 20.2032 227.403 19.7551 229.41 19.763C230.833 19.7686 232.209 20.019 233.537 20.5143C234.865 20.9862 235.959 21.6555 236.819 22.5222C237.121 22.8268 237.447 23.1197 237.796 23.4011C238.33 23.8699 238.644 24.1628 238.737 24.2798C239.899 25.5211 240.477 26.8884 240.471 28.3817C240.466 29.5483 240.088 30.7368 239.337 31.9472C238.351 33.5534 237.33 34.961 236.275 36.1702C235.22 37.3794 234.038 38.4131 232.728 39.2712C230.506 40.7325 228.379 41.4591 226.349 41.4511C225.743 41.4487 225.136 41.3763 224.53 41.2339C222.502 40.7826 220.861 39.8311 219.606 38.3795C218.352 36.9046 217.729 35.2338 217.736 33.3671C217.742 31.9438 218.144 30.522 218.943 29.1018C218.99 28.9854 219.084 28.8691 219.224 28.7529C219.388 28.6369 219.517 28.5441 219.61 28.4745L220.414 28.8626L221.182 29.2507C221.904 29.6502 222.369 29.9787 222.578 30.2362C222.811 30.4938 222.926 30.8559 222.924 31.3225C222.923 31.6492 222.886 32.0924 222.814 32.6521C222.79 32.862 222.777 33.1653 222.775 33.562C222.772 34.4253 222.873 35.464 223.078 36.6782C223.123 37.0284 223.262 37.2973 223.495 37.4848C223.751 37.6725 224.065 37.7671 224.439 37.7686C224.625 37.7693 224.777 37.7582 224.894 37.7354C225.991 37.5297 226.926 37.2884 227.697 37.0114C228.491 36.7345 229.205 36.3173 229.837 35.7598C231.007 34.7611 232.026 33.7968 232.893 32.8668C233.76 31.9369 234.522 30.9366 235.18 29.8658C235.626 29.1209 235.851 28.3985 235.854 27.6985C235.856 27.1151 235.73 26.543 235.475 25.982C235.221 25.421 234.85 24.7895 234.363 24.0876C233.551 22.9644 232.491 22.4002 231.184 22.395C230.718 22.3932 230.239 22.4613 229.749 22.5994C229.585 22.6454 228.837 22.8874 227.506 23.3255C227.366 23.3716 227.214 23.4177 227.05 23.4637C226.91 23.5099 226.758 23.5559 226.595 23.6019L222.6 24.7412C222.086 24.9025 221.292 25.1211 220.218 25.3968L219.869 25.0805ZM270.51 39.5251C270.579 39.7588 270.613 39.9806 270.613 40.1906C270.611 40.5639 270.493 40.8668 270.259 41.0992C270.048 41.3083 269.756 41.4122 269.383 41.4107C269.243 41.4102 269.126 41.398 269.033 41.3743C267.984 41.1369 267.157 40.8769 266.551 40.5946C266.085 40.3827 265.224 39.8543 263.967 39.0094C263.013 38.3756 262.222 37.8825 261.593 37.53C260.778 37.0834 259.904 36.7767 258.972 36.6097C258.552 36.538 257.561 36.4174 255.998 36.2479C255.298 36.1985 254.785 36.1498 254.459 36.1019L253.808 41.2793L253.841 41.8395C253.838 42.6795 253.731 43.239 253.519 43.5182C253.332 43.7975 252.934 43.9359 252.328 43.9335C251.698 43.931 251.15 43.7305 250.685 43.332C250.22 42.9335 249.989 42.4426 249.991 41.8593C249.998 40.086 250.097 38.5114 250.29 37.1354C250.96 32.9147 252.482 28.534 254.856 23.9933C256.196 21.4553 258.246 19.5033 261.005 18.1375C261.893 17.6977 262.792 17.4796 263.702 17.4831C264.635 17.4868 265.498 17.7352 266.289 18.2283C267.104 18.6982 267.778 19.3892 268.311 20.3013C268.798 21.1199 269.04 21.9142 269.037 22.6842C269.032 23.7575 268.608 24.8409 267.764 25.9342C266.755 27.2369 265.325 29.0863 263.472 31.4823L261.185 34.4134C261.209 34.4135 261.232 34.4485 261.255 34.5186C261.301 34.5655 261.348 34.6123 261.394 34.6592L262.163 35.0822C264.095 36.1398 265.515 36.9738 266.423 37.584C267.307 38.1242 268.251 38.3962 269.255 38.4002C269.558 38.4014 269.791 38.3906 269.955 38.368C270.024 38.4849 270.117 38.6603 270.233 38.8941C270.349 39.1278 270.441 39.3382 270.51 39.5251ZM257.588 32.5442C258.549 31.4746 259.51 30.3584 260.471 29.1955C261.456 28.0327 262.323 26.9395 263.074 25.9157C263.379 25.4969 263.637 25.0546 263.849 24.5888C264.061 24.0996 264.25 23.6104 264.415 23.121C264.603 22.6317 264.733 22.2822 264.804 22.0725C264.828 22.0026 264.84 21.886 264.84 21.7227C264.841 21.536 264.819 21.3026 264.773 21.0224C264.728 20.7422 264.693 20.5437 264.671 20.427C262.965 20.9336 261.409 21.9775 260.003 23.5586C258.597 25.1398 257.482 26.897 256.657 28.8305C255.856 30.764 255.441 32.4307 255.413 33.8306C255.879 33.8791 256.241 33.7989 256.499 33.5899C256.779 33.381 257.142 33.0324 257.588 32.5442ZM290.807 35.4401C290.738 35.3932 290.621 35.2994 290.459 35.1587C290.296 35.0181 290.144 34.9242 290.005 34.8769C287.395 33.91 285.442 32.0589 284.146 29.3238C283.545 28.0614 282.782 26.0984 281.86 23.4348L281.548 22.5585C281.456 22.2315 281.411 21.9396 281.412 21.683C281.413 21.3096 281.484 21.0766 281.624 20.9838C281.812 20.8445 282.127 20.7758 282.57 20.7775C282.78 20.7784 283.048 20.8028 283.375 20.8507C283.585 20.8749 283.841 20.9575 284.144 21.0987C284.447 21.2166 284.68 21.3109 284.843 21.3815C285.169 21.4994 285.402 21.6754 285.541 21.9093C285.703 22.1199 285.819 22.412 285.887 22.7856C286.458 25.9379 287.508 28.8471 289.038 31.5131C289.363 32.0277 289.827 32.5312 290.432 33.0236C290.92 33.3989 291.305 33.5871 291.585 33.5882C292.005 33.5898 292.426 33.2765 292.848 32.6481L294.362 30.4141C295.278 28.9943 296.287 27.505 297.39 25.946C298.235 24.736 299.217 24.1332 300.337 24.1376C301.06 24.1404 301.806 24.3884 302.574 24.8814C302.993 25.1164 303.202 25.4555 303.2 25.8989C303.199 26.2255 303.046 26.5049 302.742 26.7371C301.337 27.8516 300.096 29.1067 299.017 30.5024C297.938 31.8749 296.718 33.6317 295.356 35.773L294.793 36.6458L293.666 38.3914C291.342 41.9989 289.405 44.978 287.856 47.3286C287.785 47.4216 287.644 47.6194 287.433 47.9219C287.245 48.2245 287.034 48.457 286.8 48.6194C286.566 48.8052 286.298 48.8974 285.994 48.8962C285.41 49.1039 284.978 49.2189 284.698 49.2411C284.418 49.2634 284.208 49.3092 284.067 49.3787L283.823 49.2027L290.807 35.4401ZM317.256 41.7294C316.841 41.9811 316.368 42.1059 315.834 42.1038C315.248 42.1015 314.682 41.9526 314.136 41.6571C313.604 41.3483 313.179 40.9133 312.861 40.3521C312.543 39.7908 312.413 39.1503 312.469 38.4305L312.571 37.9509C312.653 37.4712 312.721 37.1182 312.775 36.8917C312.897 36.3988 313.138 36.0531 313.499 35.8545C313.86 35.656 314.34 35.4979 314.941 35.3802C315.328 35.3017 315.708 35.2632 316.081 35.2647C317.255 35.2693 318.24 35.6666 319.037 36.4564C319.462 36.8847 319.673 37.4056 319.67 38.0189C319.668 38.6189 319.446 39.2647 319.003 39.9563C318.493 40.7409 317.911 41.332 317.256 41.7294ZM315.597 36.2828C315.382 36.802 315.153 37.4477 314.91 38.2201L314.707 38.8193L314.847 38.8799C314.847 38.9732 314.846 39.1199 314.845 39.3199C314.858 39.5066 314.884 39.6667 314.923 39.8002C315.068 40.2141 315.234 40.4681 315.42 40.5622C315.5 40.6025 315.614 40.5829 315.761 40.5035C315.921 40.4241 316.061 40.3313 316.182 40.2252C316.369 40.0659 316.67 39.7337 317.086 39.2287C317.394 38.8833 317.549 38.4705 317.551 37.9905C317.552 37.5772 317.434 37.2034 317.195 36.8691C316.97 36.5349 316.65 36.307 316.238 36.1853C316.198 36.1719 316.124 36.1649 316.018 36.1645C315.764 36.1635 315.624 36.2029 315.597 36.2828ZM324.255 36.8169C324.253 37.2969 324.272 37.6104 324.311 37.7572C324.364 37.904 324.484 37.9779 324.67 37.9786C324.844 37.9793 325.117 37.9404 325.491 37.8618L325.951 37.8636C326.711 37.8666 327.177 38.0351 327.349 38.3692C327.416 38.3961 327.482 38.4697 327.548 38.5899C327.614 38.6969 327.661 38.7704 327.687 38.8105C327.634 38.8503 327.553 38.9166 327.446 39.0095C327.339 39.0891 327.239 39.1354 327.146 39.1484C326.839 39.2138 326.379 39.2987 325.765 39.4029C325.645 39.4158 325.431 39.4483 325.124 39.5004C324.644 39.5918 324.403 39.8709 324.401 40.3375C324.401 40.4042 324.414 40.5309 324.44 40.7177C324.597 41.4383 324.728 42.0722 324.832 42.6193C324.937 43.153 325.022 43.6 325.087 43.9603L325.44 45.7217C325.571 46.3622 325.635 46.8558 325.634 47.2025C325.633 47.4558 325.572 47.6422 325.452 47.7617C325.331 47.8946 325.098 47.9604 324.751 47.959C324.458 47.9578 324.238 47.8836 324.092 47.7364C323.946 47.5891 323.84 47.3554 323.775 47.0351C323.657 46.4213 323.454 45.5005 323.166 44.2727L322.539 40.9502C322.515 40.1768 322.137 39.7886 321.403 39.7857C321.163 39.7848 320.997 39.7441 320.904 39.6638C320.824 39.5968 320.751 39.5232 320.685 39.4429C320.618 39.3493 320.585 39.2625 320.586 39.1825C320.586 39.1158 320.626 39.0427 320.707 38.963C320.8 38.87 320.887 38.817 320.967 38.804C321.447 38.7392 321.768 38.6072 321.929 38.4078C322.103 38.2085 322.197 37.8955 322.212 37.4689L322.258 36.1891C322.273 35.6291 322.295 35.0559 322.324 34.4693C322.353 33.8828 322.402 33.3629 322.47 32.9099C322.525 32.5234 322.693 32.2441 322.974 32.0719C323.254 31.8863 323.642 31.7945 324.135 31.7964C324.348 31.7973 324.515 31.8046 324.635 31.8184C324.915 31.8462 325.234 31.9808 325.593 32.2222C325.952 32.4503 326.145 32.6977 326.17 32.9645C326.301 33.725 326.019 34.1372 325.325 34.2011C324.872 34.106 324.606 34.1583 324.525 34.358C324.444 34.5577 324.39 34.8041 324.362 35.0974C324.361 35.2707 324.347 35.5173 324.319 35.8372C324.278 36.157 324.256 36.4836 324.255 36.8169ZM27.2577 58.8266C27.2821 59.4134 27.2937 59.8601 27.2924 60.1667C27.2896 60.8867 27.2336 61.5532 27.1246 62.1661C27.0288 62.7791 26.8532 63.365 26.5976 63.924C26.5443 63.9238 26.4177 63.8967 26.218 63.8425C26.0315 63.7885 25.9049 63.768 25.8382 63.781C25.6785 63.7004 25.579 63.5867 25.5395 63.4399C25.5001 63.293 25.4877 63.053 25.5024 62.7197C25.5161 62.6131 25.5235 62.4398 25.5244 62.1998L25.5082 61.2397C25.4833 60.7863 25.4714 60.4262 25.4725 60.1596C25.4746 59.6129 25.5099 59.113 25.5784 58.66C25.2048 58.7118 24.6847 58.7365 24.0181 58.7338L23.1781 58.7305C22.8447 58.7292 22.6047 58.7349 22.458 58.7477C21.8312 58.7852 21.5169 59.0173 21.5153 59.444C21.5148 59.5506 21.5343 59.6774 21.5738 59.8242C21.705 60.3447 21.8352 61.1519 21.9642 62.2458C22.0542 63.0861 22.1514 63.7932 22.2559 64.3669C22.3735 64.9541 22.5647 65.5082 22.8293 66.0292C22.8558 66.0826 22.8689 66.1227 22.8688 66.1494C22.8678 66.4027 22.7469 66.6355 22.5061 66.8479C22.2652 67.0737 22.0114 67.186 21.7447 67.1849C21.4381 67.1837 21.2054 67.0095 21.0468 66.6622C20.9014 66.3283 20.7762 65.9744 20.671 65.6007C20.5657 65.2403 20.4475 64.7798 20.3164 64.2193C20.1852 63.6721 20.1 63.3184 20.0606 63.1583C19.916 62.6244 19.7989 61.9039 19.7091 60.9969C19.6059 60.1165 19.5018 59.4694 19.3968 59.0556C19.3837 58.9889 19.3439 58.9421 19.2773 58.9151C19.2108 58.8749 19.1309 58.8479 19.0376 58.8342C18.9444 58.8072 18.8712 58.7802 18.818 58.7533C18.7382 58.6997 18.605 58.6592 18.4184 58.6318C18.2453 58.5911 18.1187 58.5506 18.0389 58.5103C17.9457 58.4699 17.8593 58.4096 17.7796 58.3292C17.7 58.2356 17.6603 58.1554 17.6606 58.0888C17.6609 58.0088 17.7012 57.9223 17.7816 57.8292C17.8753 57.7229 17.9622 57.6633 18.0423 57.6503C18.6026 57.5725 18.9831 57.4473 19.1838 57.2748C19.3845 57.1022 19.4854 56.8626 19.4866 56.556C19.487 56.4626 19.4744 56.2826 19.4487 56.0158C19.3717 55.2555 19.3342 54.642 19.336 54.1753C19.3372 53.8687 19.3581 53.6354 19.3988 53.4756L19.521 52.8961C19.6026 52.4964 19.6772 52.1767 19.7448 51.9369C19.8258 51.6839 19.9402 51.4177 20.088 51.1383C20.4101 50.5929 20.9579 50.3217 21.7312 50.3248C21.8512 50.3252 22.0045 50.3392 22.191 50.3666C22.4042 50.4074 22.6172 50.5016 22.8299 50.6491C23.0427 50.7966 23.2421 50.9507 23.4281 51.1114C23.6141 51.2722 23.747 51.386 23.8268 51.453C23.9464 51.5468 24.0525 51.6872 24.1451 51.8743C24.2377 52.0613 24.2837 52.2415 24.283 52.4148C24.2828 52.4548 24.2692 52.5148 24.2423 52.5947C24.1344 52.9009 23.9005 53.0533 23.5405 53.0519C23.3671 53.0512 23.1806 53.0172 22.9809 52.9497C22.6479 52.8551 22.3681 52.8073 22.1414 52.8064C21.8748 52.8053 21.6878 52.8846 21.5805 53.0442C21.4866 53.1905 21.4389 53.4436 21.4375 53.8036L21.4557 54.2437C21.4805 54.7238 21.4925 55.0705 21.4916 55.2838C21.4901 55.6838 21.4685 56.0838 21.4269 56.4836C21.358 57.0433 21.6104 57.3043 22.1838 57.2666C22.2772 57.2536 22.4106 57.2475 22.5839 57.2482C22.7839 57.249 23.0839 57.2635 23.4837 57.2917C24.8438 57.2837 25.7437 57.3206 26.1833 57.4024C26.2766 57.4294 26.3564 57.4764 26.4228 57.5433C26.6892 57.611 26.8889 57.6851 27.0219 57.7657C27.155 57.8329 27.2278 57.9665 27.2403 58.1665L27.2577 58.8266ZM31.5818 63.0237C31.8498 62.7047 32.0441 62.4522 32.1648 62.266C32.3123 62.0665 32.466 61.9672 32.626 61.9678C32.786 61.9684 32.9056 62.0689 32.9848 62.2692C33.1694 62.8033 33.2611 63.2236 33.2599 63.5303C33.2593 63.6636 33.2523 63.7636 33.2387 63.8302C33.1843 64.0967 33.0302 64.2827 32.7765 64.3884C32.5361 64.4941 32.2492 64.533 31.916 64.505C31.796 64.5045 31.5893 64.5037 31.296 64.5026C31.016 64.5015 30.7695 64.4605 30.5565 64.3796C30.3568 64.2989 30.1773 64.1648 30.0181 63.9775C29.673 63.5628 29.5013 63.1621 29.5028 62.7755C29.5151 59.6555 29.511 57.3088 29.4906 55.7354L29.4844 52.2153C29.4863 51.7487 29.4413 51.3218 29.3495 50.9348C29.3364 50.8681 29.33 50.788 29.3304 50.6947C29.3324 50.2014 29.6667 49.956 30.3333 49.9587C30.7733 49.9604 31.1394 50.1085 31.4316 50.403C31.7371 50.6842 31.8757 51.0581 31.8472 51.5246C31.8044 52.2311 31.7469 53.2909 31.6746 54.704L31.5452 57.1035C31.4296 59.3697 31.3495 61.0694 31.3051 62.2026C31.2912 62.3359 31.2973 62.4825 31.3233 62.6427C31.3494 62.8028 31.369 62.9028 31.3822 62.9429L31.5818 63.0237ZM42.7531 57.8077C43.3029 57.0098 43.924 56.7456 44.6163 57.015C45.3219 57.2844 45.7472 57.6195 45.8923 58.02L46.486 59.6224C46.6444 60.0363 46.7752 60.6702 46.8785 61.5239C46.9951 62.3777 47.0986 63.1915 47.1889 63.9652C47.2021 64.0052 47.2084 64.0786 47.208 64.1853C47.2064 64.5986 46.9787 64.8644 46.5249 64.9826C46.2312 65.0614 45.9915 64.9871 45.8057 64.7597C45.5271 64.4253 45.3024 63.9111 45.1318 63.2171C45.04 62.8434 44.9098 62.0429 44.7413 60.8155C44.7451 59.8555 44.4131 59.5009 43.7455 59.7516C43.3961 60.4302 43.1673 60.9827 43.0589 61.4089C42.9639 61.8352 42.8625 62.2015 42.7546 62.5077C42.4182 63.2797 42.1299 63.6986 41.8896 63.7643C41.6628 63.8167 41.4362 63.7892 41.21 63.6816C40.997 63.5741 40.8912 63.3604 40.8925 63.0404C40.8951 62.3737 40.8583 61.5602 40.7821 60.5999C40.7193 59.6263 40.4944 59.1654 40.1075 59.2172C39.734 59.2558 39.4735 59.3947 39.3259 59.6342C39.1783 59.8603 38.99 60.2929 38.7608 60.932C38.5449 61.5711 38.3822 62.2705 38.2725 63.03C38.245 63.2299 38.1642 63.4496 38.0299 63.6891C37.909 63.9153 37.7951 64.0548 37.6882 64.1077C37.5813 64.174 37.3814 64.1399 37.0886 64.0054C36.8091 63.8843 36.6432 63.7036 36.5908 63.4634C36.5384 63.2099 36.4928 62.9497 36.4539 62.6829C36.3501 61.9358 36.2993 61.2956 36.3014 60.7623C36.3169 60.229 36.2788 59.7288 36.1873 59.2618C36.1611 59.155 36.1017 58.9948 36.0092 58.7811C35.9167 58.5674 35.4315 58.2055 34.5535 57.6953C34.3144 57.4677 34.2019 57.2473 34.2161 57.034C34.2303 56.8074 34.3243 56.6411 34.4981 56.5351C34.7654 56.3762 35.0523 56.2973 35.359 56.2985C35.7457 56.3 36.1119 56.4148 36.4577 56.6428C36.8034 56.8709 37.0624 57.1252 37.2347 57.4059C37.3937 57.6599 37.4995 57.8603 37.5523 58.0072C37.605 58.154 37.6781 58.2277 37.7714 58.228C37.8514 58.2283 37.9383 58.1687 38.0321 58.0491C38.1393 57.9161 38.2866 57.7501 38.4741 57.5508C38.8624 57.139 39.2301 56.8671 39.5773 56.7351C39.9379 56.5899 40.2315 56.5177 40.4582 56.5186C40.6982 56.5196 40.9512 56.6006 41.2172 56.7616C41.4833 56.9093 41.6623 57.17 41.7541 57.5437L42.1283 59.0252L42.7531 57.8077ZM50.8982 64.4598C49.7782 64.4554 49.0668 63.9726 48.7639 63.0114C48.8706 63.0118 49.0105 63.019 49.1838 63.033C49.3705 63.0338 49.5238 63.0477 49.6437 63.0749C49.8302 63.1023 49.9635 63.1161 50.0435 63.1164C50.6435 63.1188 51.1445 62.8541 51.5466 62.3224C51.8282 61.9368 51.9697 61.544 51.9713 61.144C51.9723 60.8774 51.9067 60.6171 51.7744 60.3632C51.4831 59.8421 51.1253 59.2673 50.7011 58.639C50.4228 58.2246 50.171 57.8302 49.9458 57.456C49.6808 57.0283 49.5494 56.5544 49.5514 56.0344C49.5533 55.5544 49.6883 55.135 49.9564 54.776C50.2378 54.4038 50.6454 54.1721 51.1791 54.0808L51.8196 53.9634C52.5134 53.8328 53.0337 53.7681 53.3804 53.7695C53.9537 53.7718 54.4598 53.9071 54.8988 54.1755C54.9918 54.2425 55.0847 54.3629 55.1774 54.5366C55.2834 54.697 55.3629 54.824 55.4159 54.9175C55.3224 54.9572 55.1888 55.0233 55.0151 55.116C54.8548 55.1953 54.7146 55.2415 54.5945 55.2543C54.4077 55.2802 54.1277 55.2925 53.7544 55.291C53.3944 55.2896 53.121 55.2952 52.9343 55.3078C52.5075 55.3461 52.1669 55.4914 51.9126 55.7437C51.6716 55.9828 51.5505 56.2757 51.5491 56.6223C51.5481 56.889 51.627 57.1626 51.7859 57.4433C52.1435 58.0447 52.6408 58.7333 53.2777 59.5092C53.7554 60.111 53.9929 60.732 53.9904 61.372C53.989 61.7186 53.9076 62.085 53.7461 62.471C53.1942 63.8022 52.2449 64.4651 50.8982 64.4598ZM69.803 62.4943C69.6028 62.5335 69.4094 62.5528 69.2227 62.552C68.7827 62.5503 68.3699 62.4353 67.9841 62.2071C67.5983 61.9789 67.1996 61.644 66.788 61.2024L66.586 61.7216C66.3972 62.2542 66.3029 62.5138 66.3029 62.5005C66.1543 63.0066 65.8593 63.4121 65.4181 63.717C64.977 64.0086 64.4897 64.1534 63.9564 64.1513C63.5831 64.1498 63.2234 64.0751 62.8773 63.927C62.5312 63.7657 62.2255 63.5378 61.96 63.2434C61.3228 62.5209 61.0058 61.753 61.009 60.9396C61.0126 60.0463 61.3962 59.1211 62.16 58.1642C62.4949 57.7521 62.876 57.4736 63.3033 57.3287C63.7439 57.1837 64.2575 57.1124 64.8441 57.1147C65.1241 57.1158 65.3244 57.0566 65.4448 56.9371C65.5653 56.8176 65.6128 56.6044 65.5874 56.2976C65.4593 54.9638 65.3974 53.7435 65.4018 52.6369C65.403 52.3302 65.458 51.8971 65.5669 51.3375C65.6213 51.0711 65.7488 50.8582 65.9494 50.699C66.1501 50.5265 66.3905 50.4408 66.6705 50.4419C66.7638 50.4422 66.8304 50.4492 66.8704 50.4627C67.5099 50.5852 67.8284 50.9731 67.8258 51.6264L67.8608 52.8866C67.9043 55.3934 67.9769 57.2671 68.0787 58.5075C68.1039 58.8676 68.1826 59.2146 68.3146 59.5484C68.4599 59.8823 68.6715 60.3365 68.9492 60.9109C69.0154 61.0445 69.2015 61.1786 69.5076 61.3131C69.5475 61.34 69.6141 61.3736 69.7072 61.4139C69.8137 61.4543 69.8936 61.5013 69.9467 61.5549C70.0664 61.6353 70.1792 61.7491 70.2853 61.8962C70.3915 62.03 70.4644 62.1236 70.5042 62.1771C70.4107 62.2167 70.2905 62.2762 70.1435 62.3556C70.0099 62.4218 69.8964 62.468 69.803 62.4943ZM64.3185 58.5527C63.9843 58.7647 63.7096 59.1036 63.4945 59.5694C63.2793 60.0219 63.1708 60.4948 63.1689 60.9881C63.1661 61.6948 63.3972 62.2557 63.8622 62.6709C64.2917 61.9526 64.621 61.2939 64.85 60.6948C65.0791 60.0823 65.1949 59.4561 65.1974 58.8161C65.1985 58.5361 65.0658 58.3956 64.7991 58.3946C64.6524 58.394 64.4922 58.4467 64.3185 58.5527ZM76.8858 62.7822C76.4715 63.0339 75.9976 63.1587 75.4643 63.1566C74.8777 63.1543 74.3116 63.0054 73.7661 62.7099C73.2339 62.4012 72.809 61.9661 72.4912 61.4049C72.1734 60.8436 72.0426 60.2031 72.0988 59.4833L72.2007 59.0037C72.2825 58.524 72.3506 58.171 72.4048 57.9445C72.5268 57.4517 72.7681 57.106 73.1289 56.9074C73.4897 56.7088 73.9703 56.5507 74.5708 56.4331C74.9578 56.3546 75.3379 56.3161 75.7113 56.3175C76.8846 56.3222 77.8697 56.7194 78.6666 57.5092C79.0916 57.9375 79.3029 58.4584 79.3004 59.0717C79.2981 59.6717 79.0755 60.3175 78.6328 61.0091C78.123 61.7938 77.5407 62.3848 76.8858 62.7822ZM75.2273 57.3356C75.0119 57.8548 74.7827 58.5006 74.5396 59.2729L74.3373 59.8722L74.477 59.9327C74.4766 60.026 74.4761 60.1727 74.4753 60.3727C74.4879 60.5594 74.5139 60.7195 74.5534 60.853C74.6984 61.2669 74.8641 61.5209 75.0504 61.615C75.1302 61.6553 75.2436 61.6357 75.3906 61.5563C75.5509 61.477 75.6913 61.3842 75.8117 61.278C75.999 61.1187 76.3003 60.7866 76.7157 60.2815C77.0237 59.9361 77.1786 59.5234 77.1805 59.0434C77.1822 58.63 77.0636 58.2562 76.825 57.9219C76.5996 57.5877 76.2805 57.3598 75.8676 57.2382C75.8277 57.2247 75.7544 57.2177 75.6477 57.2173C75.3944 57.2163 75.2542 57.2557 75.2273 57.3356ZM84.07 56.6105C84.0697 56.6905 84.056 56.7971 84.0288 56.9303C84.0016 57.0502 83.9946 57.1302 84.0078 57.1702C84.9286 56.9739 85.709 56.877 86.349 56.8795C87.349 56.8834 88.1004 57.3664 88.6033 58.3284C89.0134 59.1433 89.2165 60.0441 89.2126 61.0308C89.2116 61.2841 89.1835 61.6507 89.1283 62.1305C89.087 62.4503 88.9594 62.7098 88.7452 62.909C88.5312 63.0948 88.2775 63.1871 87.9841 63.186C87.6775 63.1848 87.4577 63.1306 87.3248 63.0234C87.2053 62.9029 87.1324 62.7693 87.1064 62.6225C87.0936 62.4758 87.0879 62.2424 87.0891 61.9224L87.0708 61.5024C87.0473 60.7023 86.9967 60.0087 86.919 59.4217C86.8799 59.1816 86.7872 59.0146 86.6409 58.9206C86.508 58.8134 86.3282 58.7594 86.1016 58.7585C85.8882 58.7577 85.6348 58.79 85.3412 58.8555C84.8874 58.9737 84.5804 59.0659 84.4201 59.1319C84.2732 59.198 84.0526 59.3371 83.7584 59.5493C83.6648 59.6156 83.5977 59.7487 83.5569 59.9485C83.5161 60.1483 83.4956 60.2616 83.4955 60.2883C83.3188 61.1409 83.1281 62.1602 82.9235 63.346C82.9099 63.3993 82.8828 63.5259 82.842 63.7257C82.8012 63.9255 82.7206 64.0652 82.6003 64.1448C82.4933 64.2377 82.3332 64.2704 82.1199 64.2429C81.2804 64.1329 80.8551 63.7779 80.8441 63.1778C80.8338 62.4044 80.8974 61.4914 81.0349 60.4386C81.1312 59.6789 81.2203 59.0659 81.3022 58.5996C81.3297 58.3864 81.364 58.1265 81.4052 57.82C81.4598 57.5135 81.5078 57.1604 81.5494 56.7606C81.5906 56.454 81.6315 56.2275 81.6721 56.081C81.7127 55.9345 81.8065 55.8149 81.9535 55.7221C82.1006 55.6161 82.3275 55.5636 82.6341 55.5648C83.0208 55.5663 83.3405 55.6543 83.5931 55.8286C83.8458 56.0029 84.0048 56.2502 84.0702 56.5705L84.07 56.6105ZM95.1618 55.3142C95.7751 55.3166 96.2744 55.4986 96.6596 55.8601C97.0583 56.2083 97.3298 56.6761 97.4741 57.2633C97.5529 57.5836 97.5781 57.9437 97.5499 58.3436C97.5356 58.5702 97.521 58.8902 97.5061 59.3035C97.4914 59.6501 97.4427 60.1632 97.36 60.8429C97.2774 61.5092 97.2287 62.0091 97.2141 62.3423C97.1998 62.5823 97.1918 62.9356 97.1899 63.4022L97.2035 65.0223C96.9498 65.128 96.7229 65.1804 96.5229 65.1796C96.3229 65.1788 96.1165 65.1114 95.9037 64.9772C95.7575 64.8699 95.6577 64.8029 95.6045 64.776C95.5646 64.7492 95.505 64.6356 95.4258 64.4353L95.2673 64.0547L95.1691 63.5943C94.4219 63.7513 93.9815 63.8429 93.8481 63.8691C93.6613 63.8817 93.5146 63.8878 93.408 63.8873C92.9147 63.8854 92.4351 63.7635 91.9694 63.5217C91.517 63.2799 91.1517 62.9451 90.8734 62.5173C90.6084 62.0896 90.4702 61.6291 90.4588 61.1357C90.4473 60.669 90.6154 60.2963 90.9632 60.0177C91.6989 59.4339 92.4133 59.1434 93.1067 59.1461C93.4533 59.1475 93.8197 59.2289 94.2057 59.3905C94.4054 59.4712 94.8313 59.6529 95.4836 59.9355L95.5658 59.3758C95.6477 58.8961 95.6892 58.5096 95.6903 58.2163C95.6921 57.7763 95.5937 57.3626 95.3952 56.9751C95.1955 56.9077 95.0489 56.8871 94.9555 56.9134C94.6086 56.9654 94.2617 57.0373 93.9146 57.1293C93.5676 57.2079 93.0942 57.2461 92.4942 57.2437C92.3342 57.2431 92.1744 57.1824 92.0149 57.0618C91.8554 56.9278 91.7826 56.7809 91.7966 56.6209C91.8374 56.4078 91.9584 56.1682 92.1594 55.9024C92.28 55.7562 92.447 55.6702 92.6605 55.6443C92.914 55.6053 93.1207 55.5795 93.2808 55.5668C94.1081 55.3967 94.7351 55.3125 95.1618 55.3142ZM93.4344 62.2474C93.7548 62.1554 94.0219 62.0498 94.2357 61.9306C94.4496 61.7981 94.637 61.6055 94.798 61.3528C94.3195 60.9776 93.9538 60.7161 93.7011 60.5685C93.4483 60.4208 93.2019 60.3465 92.9619 60.3456C92.8686 60.3452 92.7552 60.3647 92.6217 60.4042C92.4882 60.4437 92.388 60.5033 92.321 60.583C92.2004 60.7292 92.1396 60.9357 92.1386 61.2023C92.1376 61.4423 92.1835 61.6492 92.2761 61.8229C92.3822 61.97 92.5151 62.0838 92.6748 62.1644C92.8344 62.2451 93.001 62.2857 93.1743 62.2864C93.2276 62.2866 93.3143 62.2736 93.4344 62.2474ZM104.228 54.2099C104.295 54.1835 104.442 54.1641 104.668 54.1517C104.909 54.1259 105.122 54.1134 105.309 54.1142C105.682 54.1156 106.021 54.3503 106.326 54.8182L106.065 55.0172C105.758 55.2426 105.317 55.4142 104.743 55.532C104.235 55.7833 103.855 55.9951 103.601 56.1675C103.36 56.3398 103.179 56.5325 103.058 56.7453C102.951 56.9582 102.896 57.2314 102.895 57.5647C102.894 57.7247 102.933 58.1382 103.01 58.8052L103.107 59.6455C103.209 60.6726 103.3 61.4263 103.378 61.9066C103.404 62.0801 103.456 62.2869 103.535 62.5273C103.628 62.7543 103.721 62.888 103.814 62.9284C103.907 62.9687 104.094 62.9028 104.375 62.7306C104.911 62.0927 105.259 61.6474 105.42 61.3947C105.46 61.3282 105.527 61.2151 105.621 61.0555C105.715 60.8958 105.809 60.7762 105.903 60.6966C105.996 60.6036 106.11 60.5574 106.243 60.5579C106.27 60.558 106.337 60.5716 106.443 60.5987C106.656 60.6662 106.822 60.7669 106.942 60.9007C107.075 61.0345 107.141 61.2281 107.14 61.4814C107.139 61.6014 107.132 61.6881 107.119 61.7414C107.036 62.2744 106.848 62.7536 106.553 63.1791C106.258 63.6047 105.87 64.0231 105.388 64.4346C105.201 64.6072 104.894 64.6926 104.467 64.6909C104 64.6891 103.541 64.5806 103.088 64.3655C102.636 64.1637 102.33 63.8958 102.171 63.5619C101.762 62.6669 101.379 61.5254 101.025 60.1373C100.933 59.7503 100.862 59.1367 100.812 58.2965L100.755 57.5563C100.73 57.2495 100.73 57.0162 100.758 56.8563C100.785 56.683 100.526 56.5753 99.979 56.5332C99.7791 56.5191 99.6796 56.3853 99.6806 56.132C99.8156 55.7059 100.023 55.4534 100.304 55.3745C100.571 55.2955 100.738 55.1295 100.806 54.8764C100.873 54.61 100.928 54.3369 100.969 54.0571C101.092 53.1909 101.123 52.2243 101.06 51.1574C101.036 50.6506 101.19 50.3579 101.524 50.2792L101.704 50.2999C101.77 50.3135 101.923 50.3408 102.163 50.3817C102.403 50.4094 102.616 50.4702 102.803 50.5643C103.268 50.8194 103.5 51.267 103.497 51.907C103.496 52.1737 103.442 52.5201 103.333 52.9464C103.32 53.013 103.299 53.0729 103.273 53.1261C103.246 53.1794 103.225 53.2393 103.212 53.3059C103.171 53.5057 103.15 53.6723 103.15 53.8057C103.028 54.2052 103.121 54.4056 103.427 54.4068C103.534 54.4072 103.801 54.3416 104.228 54.2099ZM112.774 61.1437C112.64 61.2231 112.446 61.2624 112.193 61.2614C112.1 61.261 111.987 61.2539 111.853 61.24C111.72 61.2262 111.607 61.2257 111.513 61.2387C111.618 61.6791 111.87 62.0401 112.269 62.3217C112.668 62.5899 113.114 62.725 113.607 62.7269C114.034 62.7286 114.414 62.6368 114.748 62.4514C115.243 62.2001 115.671 61.9017 116.032 61.5565C116.286 61.3042 116.527 61.1784 116.754 61.1793C116.9 61.1799 117.027 61.2537 117.133 61.4008C117.239 61.5746 117.291 61.7881 117.29 62.0415C117.289 62.3081 117.235 62.5146 117.128 62.6608C116.779 63.1928 116.324 63.5577 115.763 63.7555C115.216 63.9533 114.576 64.0508 113.842 64.0479C113.082 64.0449 112.35 63.8753 111.644 63.5392C110.939 63.2031 110.334 62.7474 109.83 62.1721C109.339 61.5834 109.014 60.9355 108.857 60.2282C108.752 59.8145 108.7 59.4076 108.702 59.0076C108.704 58.3809 108.88 57.8749 109.228 57.4896C109.59 57.1044 110.164 56.74 110.952 56.3964C111.674 56.0926 112.341 55.9419 112.954 55.9443C113.394 55.9461 113.821 56.0144 114.233 56.1494C115.512 56.5544 116.15 57.1036 116.147 57.7969C116.145 58.2369 115.883 58.7692 115.361 59.3938C115.106 59.6862 114.805 59.945 114.457 60.1703C114.11 60.3956 113.769 60.6009 113.435 60.7863C113.114 60.9583 112.894 61.0775 112.774 61.1437ZM113.628 57.447C113.615 57.3803 113.562 57.3267 113.469 57.2864C113.389 57.2327 113.343 57.1992 113.329 57.1858C112.969 57.1577 112.602 57.2629 112.228 57.5015C111.854 57.7267 111.539 58.0188 111.285 58.3778C111.043 58.7368 110.922 59.083 110.92 59.4163L110.94 59.5764C110.953 59.6298 111.019 59.6967 111.139 59.7772C111.272 59.8577 111.352 59.8847 111.379 59.8581C112.328 59.1552 113.044 58.5914 113.525 58.1666C113.606 58.0869 113.646 57.9404 113.647 57.7271C113.648 57.5937 113.641 57.5004 113.628 57.447ZM126.086 61.9761C126.112 62.2029 126.211 62.4966 126.382 62.8573C126.409 62.9241 126.435 62.9975 126.462 63.0776C126.501 63.1578 126.541 63.2513 126.58 63.3581C126.126 63.6096 125.766 63.7349 125.499 63.7338C125.299 63.733 125.113 63.6723 124.94 63.5516C124.767 63.4176 124.574 63.2102 124.362 62.9293C124.203 62.742 124.07 62.6482 123.963 62.6478C123.857 62.6473 123.743 62.7336 123.622 62.9064C123.354 63.3054 123.019 63.6041 122.619 63.8025C122.231 64.0009 121.818 64.0993 121.378 64.0976C120.884 64.0956 120.405 63.9804 119.939 63.7519C119.486 63.5101 119.134 63.1887 118.883 62.7877C118.618 62.3734 118.487 61.7595 118.49 60.9462C118.492 60.3595 118.575 59.7665 118.737 59.1671C118.899 58.5678 119.128 58.0753 119.423 57.6898C119.744 57.2511 120.126 56.9059 120.567 56.6543C121.008 56.3894 121.495 56.258 122.028 56.2601C122.202 56.2608 122.335 56.268 122.428 56.2817C122.468 56.2952 122.528 56.3021 122.608 56.3024C122.915 56.3036 123.069 56.1575 123.07 55.8642L123.051 55.7041C122.87 54.1701 122.708 53.0427 122.564 52.3222C122.551 52.2554 122.531 52.1487 122.505 52.0019C122.479 51.8552 122.466 51.7351 122.467 51.6418C122.467 51.4551 122.508 51.2953 122.589 51.1623C122.669 51.0159 122.81 50.8965 123.01 50.8039C123.09 50.7642 123.183 50.7446 123.29 50.745C123.57 50.7461 123.863 50.8406 124.169 51.0285C124.475 51.203 124.654 51.4037 124.707 51.6306C124.903 52.4581 125.086 53.5321 125.254 54.8528L125.602 57.8942C125.808 59.7083 125.969 61.069 126.086 61.9761ZM120.756 59.4551C120.527 60.1075 120.411 60.7071 120.409 61.2537C120.406 62.0137 120.67 62.5748 121.202 62.9369C121.416 62.8177 121.583 62.685 121.704 62.5389C121.838 62.3794 121.992 62.1533 122.166 61.8607L122.388 61.4815C122.696 61.0428 122.898 60.5502 122.994 60.0039C123.102 59.4577 123.172 58.7646 123.202 57.9247C123.216 57.8048 123.19 57.6713 123.123 57.5244C123.071 57.3642 123.011 57.2773 122.944 57.2637C122.838 57.2366 122.658 57.2692 122.404 57.3616C122.15 57.4406 121.99 57.5266 121.923 57.6197C121.615 57.9785 121.367 58.2908 121.179 58.5568C121.005 58.8227 120.864 59.1222 120.756 59.4551ZM138.154 54.3436C138.221 54.3172 138.367 54.2978 138.594 54.2854C138.834 54.2596 139.047 54.2471 139.234 54.2479C139.607 54.2494 139.947 54.484 140.251 54.9519L139.991 55.1509C139.683 55.3763 139.242 55.5479 138.669 55.6657C138.161 55.917 137.78 56.1288 137.526 56.3012C137.285 56.4736 137.105 56.6662 136.984 56.879C136.876 57.0919 136.822 57.3651 136.821 57.6984C136.82 57.8584 136.858 58.2719 136.936 58.9389L137.032 59.7792C137.135 60.8063 137.225 61.56 137.303 62.0403C137.329 62.2138 137.382 62.4206 137.461 62.661C137.553 62.888 137.646 63.0217 137.739 63.0621C137.833 63.1024 138.019 63.0365 138.3 62.8643C138.836 62.2264 139.184 61.7811 139.345 61.5284C139.386 61.4619 139.453 61.3488 139.547 61.1892C139.641 61.0295 139.735 60.9099 139.828 60.8303C139.922 60.7373 140.035 60.6911 140.169 60.6916C140.195 60.6917 140.262 60.7053 140.369 60.7324C140.582 60.7999 140.748 60.9006 140.867 61.0344C141 61.1682 141.066 61.3618 141.065 61.6152C141.065 61.7352 141.058 61.8218 141.044 61.8751C140.962 62.4081 140.773 62.8873 140.478 63.3129C140.183 63.7384 139.795 64.1568 139.313 64.5683C139.126 64.7409 138.819 64.8263 138.392 64.8246C137.926 64.8228 137.466 64.7143 137.014 64.4992C136.561 64.2974 136.256 64.0296 136.097 63.6956C135.687 62.8006 135.305 61.6591 134.95 60.271C134.859 59.884 134.788 59.2704 134.738 58.4302L134.681 57.69C134.655 57.3832 134.656 57.1499 134.683 56.99C134.711 56.8167 134.451 56.7091 133.905 56.6669C133.705 56.6528 133.605 56.519 133.606 56.2657C133.741 55.8396 133.949 55.5871 134.229 55.5082C134.496 55.4292 134.663 55.2632 134.731 55.0101C134.799 54.7437 134.853 54.4706 134.894 54.1908C135.018 53.3246 135.048 52.358 134.986 51.2911C134.961 50.7843 135.116 50.4916 135.449 50.4129L135.629 50.4336C135.696 50.4472 135.849 50.4745 136.089 50.5155C136.329 50.5431 136.542 50.6039 136.728 50.698C137.194 50.9531 137.425 51.4007 137.423 52.0407C137.422 52.3074 137.367 52.6538 137.259 53.0801C137.245 53.1467 137.225 53.2066 137.198 53.2598C137.171 53.3131 137.151 53.373 137.137 53.4396C137.097 53.6395 137.076 53.806 137.075 53.9394C136.954 54.3389 137.046 54.5393 137.353 54.5405C137.46 54.5409 137.727 54.4753 138.154 54.3436ZM150.294 57.6315C150.413 57.872 150.518 58.1457 150.61 58.4528C150.716 58.7465 150.788 58.9401 150.828 59.0336L151.006 59.5543C150.843 60.3137 150.681 60.9397 150.519 61.4324C150.357 61.9118 150.122 62.3642 149.813 62.7896C149.505 63.2018 149.084 63.5401 148.549 63.8047C148.055 64.0561 147.528 64.1806 146.968 64.1784C146.354 64.176 145.762 64.0337 145.189 63.7514C144.63 63.4692 144.159 63.0807 143.774 62.5858C143.389 62.0777 143.165 61.5101 143.101 60.8832C143.075 60.5631 143.063 60.3164 143.064 60.143C143.065 59.6764 143.134 59.25 143.269 58.8638C143.417 58.4777 143.672 58.1254 144.033 57.8068C144.14 57.7139 144.261 57.5344 144.395 57.2682C144.516 57.0287 144.63 56.8492 144.737 56.7296C145.299 56.1318 145.967 55.8344 146.741 55.8375C147.127 55.839 147.58 55.9275 148.1 56.1028C148.166 56.1298 148.386 56.2106 148.759 56.3454C149.145 56.4803 149.464 56.6549 149.717 56.8692C149.969 57.0835 150.161 57.3376 150.294 57.6315ZM146.816 56.9578C146.321 57.3558 145.966 57.8344 145.751 58.3936C145.548 58.9395 145.365 59.6788 145.202 60.6115C145.228 60.7182 145.287 60.9451 145.379 61.2922C145.471 61.6392 145.583 61.9596 145.715 62.2535C145.861 62.6141 146.12 62.7951 146.493 62.7966C146.56 62.7968 146.687 62.784 146.873 62.7581C147.287 62.6797 147.648 62.4478 147.956 62.0623C148.278 61.6636 148.526 61.1979 148.702 60.6652C148.877 60.1326 148.966 59.6396 148.967 59.1863C148.971 58.293 148.607 57.5382 147.876 56.922C147.69 56.7746 147.524 56.7006 147.377 56.7C147.217 56.6994 147.03 56.7853 146.816 56.9578ZM166.144 50.2339C166.477 50.3686 166.643 50.5559 166.642 50.7959C166.641 51.0359 166.473 51.3419 166.138 51.7139C165.992 51.7 165.778 51.6925 165.498 51.6914C164.885 51.689 164.298 51.7733 163.737 51.9444C163.177 52.1022 162.596 52.3533 161.994 52.6976C161.714 52.8698 161.473 53.0889 161.272 53.3547C161.125 53.5142 161.051 53.7005 161.05 53.9139C161.048 54.2739 161.247 54.6213 161.646 54.9562C162.031 55.3577 162.661 56.0869 163.537 57.1437L163.995 57.6255C164.646 58.3347 165.157 58.9367 165.528 59.4316C165.913 59.9264 166.237 60.4944 166.501 61.1354C166.607 61.4158 166.659 61.6694 166.658 61.896C166.656 62.4694 166.434 62.9951 165.992 63.4734C165.483 64.0314 164.895 64.4358 164.227 64.6865C163.56 64.9505 162.806 65.1142 161.965 65.1776C161.859 65.1905 161.732 65.2033 161.585 65.2161C161.438 65.2288 161.272 65.2348 161.085 65.2341C160.965 65.2336 160.785 65.2196 160.545 65.192C160.252 65.2041 159.945 65.1496 159.626 65.0283C159.306 64.9204 159.014 64.7593 158.748 64.5449C158.243 64.1162 157.991 63.6419 157.993 63.1219C157.995 62.6819 158.184 62.236 158.559 61.7841C158.745 61.8115 158.852 61.8719 158.878 61.9654C158.918 62.0455 158.924 62.1389 158.897 62.2454C158.883 62.3521 158.876 62.4387 158.876 62.5054C158.876 62.5454 158.889 62.6054 158.915 62.6855C159.434 62.9276 160.054 63.05 160.774 63.0528C161.574 63.056 162.328 62.9256 163.035 62.6618C163.756 62.3846 164.198 62.0463 164.359 61.647C164.454 61.3807 164.229 60.9131 163.685 60.2443C163.141 59.5621 162.53 58.8997 161.853 58.2571C161.215 57.6812 160.637 57.1123 160.119 56.5502C159.827 56.2291 159.595 55.8615 159.424 55.4475C159.265 55.0202 159.187 54.5799 159.189 54.1265C159.191 53.5132 159.347 52.9338 159.656 52.3884C159.978 51.843 160.453 51.3982 161.081 51.054C162.284 50.3787 163.512 50.0435 164.765 50.0485C164.938 50.0492 165.185 50.0635 165.505 50.0914C165.798 50.1192 166.011 50.1667 166.144 50.2339ZM168.66 67.684C168.674 64.0707 168.678 61.364 168.672 59.5639C168.673 59.2173 168.727 58.9508 168.835 58.7646C168.955 58.5651 169.176 58.4059 169.497 58.2872C170.044 58.0893 170.738 57.8054 171.58 57.4354L172.622 56.9795C172.795 56.9135 173.035 56.8945 173.342 56.9223C174.128 56.9788 174.694 57.181 175.04 57.529C175.385 57.8637 175.556 58.3444 175.554 58.9711C175.553 59.3177 175.484 59.7708 175.349 60.3303C175.213 60.8764 174.897 61.5885 174.4 62.4665C173.957 63.2648 173.335 63.6624 172.535 63.6592C172.255 63.6581 171.976 63.6103 171.696 63.5159C171.51 63.4618 171.39 63.4347 171.336 63.4345C171.056 63.4334 170.935 63.6662 170.974 64.133C171.01 65.1199 171.026 66.0866 171.022 67.0333C171.035 67.26 171.04 67.5867 171.038 68.0133C171.037 68.2667 171.03 68.46 171.016 68.5933L170.994 69.1532C170.992 69.4998 170.885 69.7794 170.67 69.9919C170.456 70.2044 170.176 70.31 169.829 70.3086C169.523 70.3074 169.256 70.193 169.031 69.9654C168.805 69.7379 168.692 69.4708 168.694 69.1641L168.7 67.6841L168.66 67.684ZM170.91 59.9928C170.843 60.0458 170.789 60.139 170.749 60.2721C170.722 60.392 170.701 60.5186 170.687 60.6519C170.673 60.7718 170.653 60.8851 170.626 60.9917C170.639 61.005 170.653 61.0118 170.666 61.0118C170.693 61.0119 170.712 61.0187 170.726 61.032C170.725 61.112 170.732 61.2521 170.744 61.4521C170.757 61.6522 170.776 61.8323 170.802 61.9924C170.841 62.1792 170.907 62.3261 171 62.4331C171.093 62.5268 171.2 62.5739 171.32 62.5744C171.48 62.575 171.64 62.5023 171.801 62.3563C172.683 61.6131 173.194 60.5284 173.333 59.1023C173.334 59.0356 173.274 58.9354 173.155 58.8016C173.035 58.6678 172.969 58.6075 172.955 58.6208C172.608 58.8328 172.247 59.058 171.873 59.2966C171.498 59.5217 171.177 59.7538 170.91 59.9928ZM181.191 61.4133C181.057 61.4928 180.864 61.532 180.611 61.531C180.517 61.5306 180.404 61.5235 180.271 61.5097C180.137 61.4958 180.024 61.4954 179.931 61.5083C180.036 61.9487 180.288 62.3097 180.686 62.5913C181.085 62.8596 181.532 62.9947 182.025 62.9966C182.451 62.9983 182.832 62.9064 183.166 62.7211C183.66 62.4697 184.088 62.1714 184.449 61.8261C184.704 61.5738 184.944 61.4481 185.171 61.449C185.318 61.4496 185.444 61.5234 185.55 61.6705C185.656 61.8442 185.709 62.0578 185.708 62.3111C185.707 62.5778 185.652 62.7842 185.545 62.9305C185.196 63.4624 184.742 63.8273 184.181 64.0251C183.633 64.2229 182.993 64.3204 182.26 64.3175C181.5 64.3145 180.767 64.145 180.062 63.8089C179.356 63.4727 178.751 63.017 178.247 62.4417C177.756 61.8531 177.432 61.2051 177.275 60.4979C177.17 60.0841 177.118 59.6772 177.119 59.2772C177.122 58.6506 177.297 58.1446 177.645 57.7593C178.007 57.374 178.582 57.0096 179.37 56.6661C180.091 56.3623 180.758 56.2116 181.372 56.214C181.812 56.2157 182.238 56.284 182.651 56.419C183.929 56.8241 184.567 57.3732 184.564 58.0666C184.563 58.5066 184.3 59.0389 183.778 59.6635C183.523 59.9558 183.222 60.2146 182.875 60.4399C182.527 60.6652 182.187 60.8705 181.852 61.0559C181.532 61.228 181.311 61.3471 181.191 61.4133ZM182.046 57.7166C182.033 57.6499 181.979 57.5964 181.886 57.556C181.806 57.5024 181.76 57.4688 181.747 57.4555C181.387 57.4274 181.02 57.5326 180.645 57.7711C180.271 57.9963 179.957 58.2884 179.702 58.6474C179.461 59.0065 179.339 59.3526 179.338 59.686L179.357 59.8461C179.37 59.8994 179.437 59.9664 179.556 60.0468C179.689 60.1274 179.769 60.1544 179.796 60.1278C180.746 59.4249 181.461 58.861 181.943 58.4362C182.023 58.3566 182.064 58.21 182.065 57.9967C182.065 57.8634 182.059 57.77 182.046 57.7166ZM193.762 62.5429C193.36 62.9946 192.952 63.353 192.538 63.618C192.124 63.8697 191.663 63.9946 191.156 63.9926C191.05 63.9922 190.903 63.9783 190.717 63.9509L190.317 63.9693C188.636 63.976 187.413 63.1712 186.646 61.5548C186.474 61.1808 186.389 60.7338 186.391 60.2138C186.393 59.7605 186.461 59.3274 186.596 58.9146C186.731 58.5018 186.919 58.1625 187.16 57.8968L187.542 57.4383C187.73 57.199 187.877 57.0329 187.984 56.94C188.453 56.4885 189.074 56.2643 189.847 56.2674C190.247 56.2689 190.64 56.3372 191.026 56.472C191.412 56.6069 191.752 56.7882 192.044 57.016C192.097 57.0562 192.15 57.1431 192.203 57.2767C192.256 57.3969 192.282 57.497 192.282 57.577C192.281 57.6836 192.201 57.8033 192.04 57.936C191.88 58.0554 191.733 58.1082 191.6 58.0943C190.693 57.9841 189.966 58.2012 189.417 58.7457C188.868 59.2769 188.592 60.0091 188.588 60.9424C188.586 61.5558 188.711 61.9896 188.963 62.2439C189.229 62.4983 189.662 62.6267 190.262 62.6291C190.635 62.6305 190.989 62.5586 191.323 62.4132C191.657 62.2545 192.044 62.0361 192.485 61.7578L192.866 61.5193C193 61.4532 193.173 61.4139 193.387 61.4014C193.613 61.3756 193.787 61.3563 193.907 61.3434C193.893 61.4634 193.886 61.5833 193.885 61.7033C193.898 61.81 193.905 61.8967 193.904 61.9634C193.903 62.2567 193.856 62.4499 193.762 62.5429ZM197.681 54.8782C196.894 54.9551 196.249 54.6326 195.745 53.9106C196.159 53.6056 196.567 53.4538 196.967 53.4554C197.433 53.4572 197.819 53.6721 198.124 54.1C198.204 54.1936 198.243 54.3071 198.243 54.4404C198.242 54.5604 198.189 54.6602 198.082 54.7398C197.975 54.8194 197.841 54.8655 197.681 54.8782ZM198.484 59.3014C198.469 59.6214 198.434 60.1012 198.378 60.741L198.252 62.1805C198.252 62.3539 198.271 62.5406 198.31 62.7408C198.349 62.9409 198.375 63.0744 198.388 63.1411C198.414 63.3545 198.367 63.541 198.246 63.7005C198.126 63.8467 197.972 63.9195 197.785 63.9187C197.705 63.9184 197.645 63.9115 197.605 63.898C197.153 63.7629 196.78 63.5548 196.488 63.2736C196.196 62.9791 196.057 62.5919 196.072 62.112C196.087 61.8987 196.095 61.5787 196.096 61.152C196.098 60.672 196.093 60.312 196.081 60.072C196.081 59.8853 196.075 59.6586 196.063 59.3919C196.064 59.1252 196.072 58.8119 196.087 58.452C196.101 58.2787 196.142 58.0922 196.209 57.8925C196.277 57.6927 196.35 57.5863 196.43 57.5733C196.644 57.5342 196.884 57.5151 197.151 57.5162C197.497 57.5175 197.75 57.5785 197.91 57.6992C198.03 57.793 198.129 57.92 198.208 58.0803C198.288 58.2407 198.374 58.4543 198.466 58.7214C198.545 58.935 198.611 59.0953 198.664 59.2021L198.484 59.3014ZM206.748 63.614C206.628 63.5602 206.508 63.5331 206.388 63.5326C206.268 63.5321 206.162 63.5651 206.068 63.6314C205.988 63.6844 205.894 63.7707 205.787 63.8903C205.626 64.0496 205.459 64.1823 205.285 64.2883C205.125 64.381 204.831 64.4665 204.404 64.5448C204.218 64.5707 204.064 64.5835 203.944 64.583C203.384 64.5808 202.798 64.4585 202.186 64.2161C201.587 63.9604 201.161 63.6587 200.909 63.311C200.644 62.9366 200.519 62.5361 200.534 62.1095C200.55 61.4696 200.819 60.8306 201.342 60.1927C201.851 59.5814 202.312 59.1499 202.727 58.8982C203.154 58.6465 203.735 58.4888 204.468 58.425C204.628 58.4256 204.855 58.3999 205.149 58.3477C205.456 58.2956 205.609 58.2228 205.61 58.1295C205.61 57.9428 205.524 57.7758 205.352 57.6285C205.192 57.4679 204.859 57.3865 204.353 57.3845C204.166 57.3838 203.886 57.396 203.512 57.4212C203.139 57.4464 202.879 57.4587 202.732 57.4582C202.279 57.4564 201.953 57.3818 201.753 57.2343C201.7 57.2074 201.674 57.0807 201.675 56.854C201.676 56.454 201.817 56.2012 202.098 56.0957C202.672 55.8846 203.266 55.7736 203.879 55.7627C204.652 55.7657 205.365 55.9419 206.017 56.2911C206.682 56.6271 207.167 57.049 207.472 57.5568C207.777 58.0647 207.974 58.7655 208.064 59.6592C208.166 60.6596 208.215 61.9331 208.209 63.4798C208.207 63.9065 208.146 64.1529 208.026 64.2191C207.919 64.2853 207.819 64.3183 207.725 64.3179C207.605 64.3174 207.492 64.2836 207.386 64.2166C207.293 64.1362 207.186 64.0291 207.067 63.8953C206.948 63.7482 206.841 63.6544 206.748 63.614ZM203.589 63.3616C204.216 63.1774 204.831 62.8798 205.433 62.4688C205.566 62.376 205.687 62.2565 205.794 62.1103C205.901 61.964 205.968 61.871 205.995 61.8311C206.022 61.7912 206.042 61.6779 206.056 61.4913C206.084 61.2914 206.091 61.1314 206.078 61.0114C206.065 60.9713 206.039 60.8646 206 60.6911C205.974 60.5176 205.928 60.3641 205.861 60.2305C205.795 60.1236 205.689 60.0232 205.543 59.9293C205.396 59.8353 205.263 59.7948 205.143 59.8077C204.89 59.82 204.616 59.9123 204.322 60.0844C204.028 60.2566 203.754 60.4889 203.499 60.7812C203.245 61.0869 203.043 61.3994 202.895 61.7188C202.761 62.025 202.693 62.3114 202.692 62.578C202.717 62.9381 202.816 63.1785 202.989 63.2992C203.082 63.3663 203.196 63.4 203.329 63.4006C203.436 63.401 203.522 63.388 203.589 63.3616ZM210.614 63.9693C210.654 63.9561 210.728 63.9497 210.834 63.9501C210.854 59.0302 210.862 55.3369 210.858 52.8702C210.859 52.6968 210.813 52.4966 210.72 52.2696C210.628 52.0292 210.562 51.849 210.522 51.7288C210.43 51.4751 210.384 51.2616 210.385 51.0883C210.386 50.7416 210.561 50.469 210.908 50.2703C211.122 50.1378 211.396 50.0722 211.729 50.0736C211.942 50.0744 212.142 50.1085 212.329 50.1759C212.515 50.2433 212.648 50.3505 212.727 50.4975C213.058 51.0855 213.216 51.6194 213.201 52.0994C213.172 52.7659 213.129 53.5191 213.072 54.3589C213.015 55.1853 212.98 55.7585 212.965 56.0785C212.882 56.9582 212.818 57.8446 212.775 58.7378L212.664 61.4373C212.648 62.0373 212.612 62.9371 212.554 64.1369C212.526 64.4835 212.438 64.7298 212.291 64.8759C212.157 65.022 211.936 65.0945 211.63 65.0933C211.496 65.0928 211.39 65.0857 211.31 65.072C210.99 65.0441 210.79 64.9366 210.711 64.7497C210.632 64.5627 210.6 64.3026 210.614 63.9693ZM220.78 58.5493C220.767 58.4559 220.761 58.3026 220.762 58.0892C220.764 57.5692 220.819 57.0628 220.928 56.5699C221.036 56.077 221.192 55.5376 221.394 54.9517C221.596 54.4058 221.978 53.8607 222.54 53.3162C223.103 52.7717 223.731 52.3275 224.426 51.9836C225.12 51.6264 225.748 51.4488 226.308 51.451C226.881 51.4533 227.44 51.6688 227.985 52.0976C228.53 52.5131 228.875 52.9878 229.02 53.5217C229.046 53.6818 229.059 53.7886 229.058 53.8419C229.058 54.0419 228.997 54.195 228.877 54.3012C228.77 54.3941 228.623 54.4402 228.436 54.4394C228.289 54.4389 228.176 54.4318 228.096 54.4181C228.056 54.4179 227.996 54.391 227.917 54.3374C227.531 54.1225 227.158 54.0144 226.798 54.013C226.118 54.0103 225.443 54.361 224.774 55.065C223.636 56.2472 223.063 57.6583 223.057 59.2983C223.055 59.8849 223.112 60.4518 223.23 60.999C223.361 61.6128 223.593 62.0671 223.925 62.3617C224.27 62.6431 224.73 62.7849 225.303 62.7872C225.503 62.7879 225.723 62.7688 225.963 62.7298C226.804 62.6264 227.578 62.3761 228.286 61.9789C228.995 61.5684 229.777 61.0248 230.633 60.3481C230.833 60.1889 231.188 59.857 231.697 59.3523L232.098 58.9339C232.272 58.7613 232.42 58.6418 232.54 58.5756C232.673 58.4962 232.794 58.4566 232.9 58.4571C233.074 58.4578 233.287 58.5453 233.539 58.7196C233.818 58.9207 233.957 59.1746 233.956 59.4812C233.955 59.6946 233.881 59.8943 233.734 60.0804C233.68 60.1735 233.533 60.3929 233.291 60.7386C233.05 61.071 232.815 61.3701 232.588 61.6359C232.36 61.9016 232.132 62.1274 231.905 62.3132C230.674 63.3883 229.391 64.1099 228.057 64.478C227.469 64.6357 226.882 64.7134 226.296 64.7111C225.216 64.7068 224.257 64.4297 223.419 63.8797C222.594 63.3298 221.951 62.6139 221.487 61.7321C221.024 60.8369 220.788 59.9093 220.778 58.9493L220.78 58.5493ZM242.578 57.9952C242.697 58.2357 242.803 58.5094 242.895 58.8165C243 59.1102 243.073 59.3038 243.112 59.3973L243.29 59.918C243.127 60.6774 242.965 61.3034 242.803 61.7961C242.641 62.2755 242.406 62.7279 242.098 63.1534C241.789 63.5655 241.368 63.9038 240.834 64.1684C240.339 64.4198 239.812 64.5444 239.252 64.5421C238.639 64.5397 238.046 64.3974 237.474 64.1151C236.915 63.8329 236.443 63.4444 236.058 62.9495C235.674 62.4414 235.449 61.8738 235.385 61.2469C235.36 60.9268 235.347 60.6801 235.348 60.5067C235.35 60.0401 235.418 59.6137 235.553 59.2275C235.701 58.8414 235.956 58.4891 236.317 58.1705C236.424 58.0776 236.545 57.8981 236.679 57.632C236.8 57.3924 236.914 57.2129 237.021 57.0933C237.584 56.4955 238.252 56.1981 239.025 56.2012C239.412 56.2027 239.865 56.2912 240.384 56.4665C240.451 56.4935 240.67 56.5743 241.043 56.7091C241.429 56.844 241.748 57.0186 242.001 57.2329C242.253 57.4473 242.446 57.7013 242.578 57.9952ZM239.101 57.3215C238.606 57.7195 238.25 58.1982 238.035 58.7573C237.833 59.3032 237.65 60.0425 237.486 60.9752C237.512 61.0819 237.572 61.3088 237.664 61.6559C237.755 62.0029 237.868 62.3233 238 62.6172C238.145 62.9778 238.404 63.1588 238.778 63.1603C238.844 63.1605 238.971 63.1477 239.158 63.1218C239.571 63.0434 239.932 62.8115 240.24 62.426C240.562 62.0273 240.811 61.5616 240.986 61.029C241.161 60.4963 241.25 60.0033 241.252 59.55C241.255 58.6567 240.892 57.9019 240.161 57.2857C239.975 57.1383 239.808 57.0643 239.662 57.0637C239.502 57.0631 239.315 57.149 239.101 57.3215ZM245.555 64.107C245.595 64.0938 245.669 64.0874 245.775 64.0879C245.795 59.1679 245.803 55.4746 245.799 53.0079C245.8 52.8345 245.754 52.6343 245.661 52.4073C245.569 52.1669 245.503 51.9867 245.464 51.8665C245.371 51.6128 245.325 51.3993 245.326 51.226C245.327 50.8793 245.502 50.6067 245.849 50.408C246.063 50.2755 246.337 50.21 246.67 50.2113C246.883 50.2121 247.083 50.2462 247.27 50.3136C247.456 50.381 247.589 50.4882 247.668 50.6352C247.999 51.2232 248.157 51.7571 248.142 52.2371C248.113 52.9036 248.07 53.6568 248.013 54.4966C247.957 55.3231 247.921 55.8962 247.906 56.2162C247.823 57.0959 247.759 57.9823 247.716 58.8755L247.605 61.575C247.59 62.175 247.553 63.0749 247.495 64.2746C247.467 64.6212 247.379 64.8675 247.232 65.0136C247.098 65.1597 246.878 65.2322 246.571 65.231C246.438 65.2305 246.331 65.2234 246.251 65.2097C245.931 65.1818 245.732 65.0744 245.652 64.8874C245.573 64.7004 245.541 64.4403 245.555 64.107ZM252.4 63.894C252.668 63.575 252.863 63.3224 252.983 63.1363C253.131 62.9368 253.285 62.8374 253.445 62.8381C253.605 62.8387 253.724 62.9392 253.803 63.1395C253.988 63.6736 254.08 64.0939 254.078 64.4006C254.078 64.5339 254.071 64.6339 254.057 64.7005C254.003 64.967 253.849 65.153 253.595 65.2587C253.355 65.3644 253.068 65.4033 252.735 65.3753C252.615 65.3748 252.408 65.374 252.115 65.3728C251.835 65.3717 251.588 65.3308 251.375 65.2499C251.175 65.1691 250.996 65.0351 250.837 64.8478C250.492 64.4331 250.32 64.0324 250.321 63.6458C250.334 60.5258 250.33 58.1791 250.309 56.6057L250.303 53.0856C250.305 52.619 250.26 52.1921 250.168 51.8051C250.155 51.7384 250.149 51.6583 250.149 51.565C250.151 51.0717 250.485 50.8263 251.152 50.8289C251.592 50.8307 251.958 50.9788 252.25 51.2733C252.556 51.5545 252.694 51.9284 252.666 52.3949C252.623 53.1014 252.565 54.1612 252.493 55.5743L252.364 57.9738C252.248 60.24 252.168 61.9397 252.124 63.0729C252.11 63.2061 252.116 63.3528 252.142 63.5129C252.168 63.673 252.188 63.7731 252.201 63.8132L252.4 63.894ZM259.14 61.7205C259.006 61.8 258.813 61.8392 258.559 61.8382C258.466 61.8379 258.353 61.8307 258.219 61.8169C258.086 61.803 257.973 61.8026 257.879 61.8155C257.984 62.256 258.236 62.617 258.635 62.8985C259.034 63.1668 259.48 63.3019 259.973 63.3038C260.4 63.3055 260.78 63.2137 261.115 63.0283C261.609 62.7769 262.037 62.4786 262.398 62.1334C262.652 61.881 262.893 61.7553 263.12 61.7562C263.266 61.7568 263.393 61.8306 263.499 61.9777C263.605 62.1514 263.657 62.365 263.656 62.6183C263.655 62.885 263.601 63.0914 263.494 63.2377C263.145 63.7696 262.69 64.1345 262.129 64.3323C261.582 64.5302 260.942 64.6276 260.208 64.6247C259.448 64.6217 258.716 64.4522 258.01 64.1161C257.305 63.78 256.7 63.3242 256.196 62.7489C255.705 62.1603 255.38 61.5124 255.223 60.8051C255.118 60.3913 255.066 59.9844 255.068 59.5844C255.071 58.9578 255.246 58.4518 255.594 58.0665C255.956 57.6813 256.53 57.3169 257.318 56.9733C258.04 56.6695 258.707 56.5188 259.32 56.5212C259.76 56.5229 260.187 56.5913 260.599 56.7262C261.878 57.1313 262.516 57.6804 262.513 58.3738C262.511 58.8138 262.249 59.3461 261.727 59.9707C261.472 60.263 261.171 60.5218 260.824 60.7471C260.476 60.9724 260.135 61.1778 259.801 61.3631C259.48 61.5352 259.26 61.6543 259.14 61.7205ZM259.994 58.0238C259.981 57.9571 259.928 57.9036 259.835 57.8632C259.755 57.8096 259.709 57.7761 259.695 57.7627C259.335 57.7346 258.968 57.8398 258.594 58.0783C258.22 58.3035 257.905 58.5956 257.651 58.9546C257.409 59.3137 257.288 59.6599 257.286 59.9932L257.306 60.1533C257.319 60.2067 257.385 60.2736 257.505 60.3541C257.638 60.4346 257.718 60.4616 257.745 60.435C258.694 59.7321 259.41 59.1682 259.891 58.7434C259.972 58.6638 260.012 58.5173 260.013 58.3039C260.014 58.1706 260.007 58.0772 259.994 58.0238ZM270.475 61.7052C270.85 61.48 271.11 61.3677 271.257 61.3683C271.377 61.3687 271.483 61.4225 271.576 61.5295C271.682 61.6366 271.822 61.8238 271.994 62.0912C271.511 62.7559 270.929 63.2937 270.247 63.7043C269.566 64.1016 268.785 64.4185 267.904 64.6551C267.73 64.6944 267.557 64.7137 267.383 64.713C266.93 64.7112 266.471 64.5828 266.005 64.3276C265.553 64.0591 265.174 63.7176 264.869 63.3031C264.564 62.8752 264.399 62.4279 264.374 61.9611C264.349 61.6144 264.337 61.361 264.337 61.201C264.343 59.7877 264.721 58.5158 265.472 57.3854C265.767 56.9333 266.109 56.6013 266.496 56.3895C266.884 56.1777 267.284 56.0726 267.697 56.0742C268.151 56.076 268.577 56.1977 268.976 56.4392C269.388 56.6675 269.707 56.9755 269.932 57.363C270.038 57.5501 270.091 57.7036 270.091 57.8236C270.09 58.0636 269.882 58.1895 269.469 58.2012C269.362 58.2008 269.236 58.1869 269.089 58.1597C268.956 58.1325 268.856 58.1121 268.789 58.0985C268.603 58.0711 268.463 58.0572 268.37 58.0569C267.783 58.0545 267.382 58.373 267.166 59.0121C266.91 59.7311 266.721 60.3304 266.599 60.8099C266.477 61.2894 266.415 61.7692 266.413 62.2492C266.412 62.5958 266.464 62.8494 266.57 63.0098C266.676 63.1702 266.843 63.2509 267.069 63.2518C267.283 63.2526 267.589 63.1805 267.99 63.0354C268.311 62.9167 268.644 62.758 268.992 62.5593C269.353 62.3608 269.7 62.1621 270.034 61.9634L270.475 61.7052ZM273.087 57.4354C272.994 57.3284 272.928 57.2148 272.889 57.0947C272.862 56.9746 272.836 56.8078 272.811 56.5943C272.932 56.3148 273.152 56.1757 273.472 56.177C273.632 56.2042 273.745 56.218 273.812 56.2183C274.079 56.2193 274.246 56.14 274.313 55.9803C274.38 55.8205 274.414 55.634 274.415 55.4207C274.416 55.2073 274.417 55.0407 274.417 54.9207L274.482 53.7209C274.496 53.4543 274.511 53.1277 274.526 52.7411C274.554 52.3412 274.583 51.8813 274.611 51.3614C274.626 51.0815 274.693 50.8751 274.814 50.7422C274.948 50.6094 275.128 50.5434 275.354 50.5443C275.514 50.545 275.641 50.5588 275.734 50.5858C276.281 50.708 276.646 50.8828 276.832 51.1102C277.018 51.3376 277.143 51.6781 277.208 52.1316C277.221 52.225 277.207 52.4183 277.166 52.7115L276.794 55.83C276.78 55.91 276.76 56.0099 276.732 56.1298C276.705 56.2364 276.692 56.3163 276.692 56.3696C276.691 56.4896 276.757 56.5699 276.891 56.6104C277.024 56.651 277.27 56.6653 277.63 56.6533C278.244 56.5224 278.711 56.4376 279.031 56.3989C279.098 56.3858 279.205 56.3795 279.352 56.3801C279.512 56.3808 279.618 56.4012 279.671 56.4414C279.724 56.4683 279.764 56.5484 279.79 56.6819C279.83 56.802 279.849 56.9421 279.849 57.1021C279.848 57.2488 279.828 57.382 279.787 57.5018C279.76 57.6217 279.72 57.6883 279.666 57.7014C279.306 57.8066 278.879 57.8916 278.385 57.9563C277.798 58.0607 277.365 58.1523 277.084 58.2312C276.937 58.2706 276.79 58.37 276.643 58.5295C276.496 58.6889 276.415 58.8352 276.401 58.9685C276.372 59.6217 276.349 60.2883 276.333 60.9683C276.318 61.4882 276.336 62.0083 276.387 62.5285C276.426 62.9686 276.511 63.289 276.643 63.4895C276.776 63.6767 276.976 63.7708 277.242 63.7719C277.456 63.7727 277.763 63.7006 278.163 63.5555C278.377 63.463 278.564 63.4171 278.724 63.4177C278.977 63.4187 279.157 63.5594 279.262 63.8398C279.302 63.9333 279.321 64.0267 279.321 64.1201C279.32 64.2934 279.253 64.4331 279.119 64.5393C278.999 64.6455 278.832 64.7381 278.618 64.8173C278.218 64.9624 277.811 65.0408 277.397 65.0525C276.837 65.0503 276.311 64.9149 275.819 64.6463C275.327 64.3643 274.935 63.9761 274.643 63.4816C274.365 62.9872 274.248 62.4201 274.29 61.7802C274.305 61.5269 274.313 61.127 274.315 60.5803C274.318 59.7136 274.288 58.8335 274.225 57.9399C274.212 57.8599 274.166 57.8064 274.086 57.7794C274.006 57.7391 273.873 57.6985 273.686 57.6578C273.38 57.6033 273.18 57.5291 273.087 57.4354ZM283.364 55.2159C282.577 55.2928 281.932 54.9703 281.428 54.2483C281.842 53.9433 282.25 53.7915 282.65 53.7931C283.116 53.7949 283.502 54.0098 283.807 54.4377C283.887 54.5313 283.926 54.6448 283.926 54.7781C283.925 54.8981 283.871 54.9979 283.764 55.0775C283.658 55.1571 283.524 55.2032 283.364 55.2159ZM284.167 59.6391C284.152 59.9591 284.117 60.4389 284.061 61.0787L283.935 62.5182C283.934 62.6916 283.954 62.8783 283.993 63.0785C284.032 63.2786 284.058 63.4121 284.071 63.4788C284.097 63.6922 284.05 63.8787 283.929 64.0382C283.809 64.1844 283.655 64.2571 283.468 64.2564C283.388 64.2561 283.328 64.2492 283.288 64.2357C282.836 64.1006 282.463 63.8924 282.171 63.6113C281.879 63.3168 281.74 62.9296 281.755 62.4496C281.77 62.2364 281.778 61.9164 281.779 61.4897C281.781 61.0097 281.776 60.6497 281.763 60.4097C281.764 60.223 281.758 59.9963 281.746 59.7296C281.747 59.4629 281.755 59.1496 281.77 58.7897C281.784 58.6164 281.825 58.4299 281.892 58.2302C281.959 58.0304 282.033 57.924 282.113 57.911C282.327 57.8719 282.567 57.8528 282.834 57.8539C283.18 57.8552 283.433 57.9162 283.593 58.0369C283.712 58.1307 283.812 58.2577 283.891 58.418C283.971 58.5783 284.057 58.792 284.149 59.0591C284.228 59.2727 284.294 59.433 284.347 59.5398L284.167 59.6391ZM290.712 63.625C290.298 63.8767 289.824 64.0015 289.291 63.9994C288.704 63.997 288.138 63.8481 287.593 63.5527C287.06 63.2439 286.635 62.8089 286.318 62.2476C286 61.6864 285.869 61.0458 285.925 60.3261L286.027 59.8465C286.109 59.3668 286.177 59.0137 286.231 58.7873C286.353 58.2944 286.595 57.9487 286.955 57.7501C287.316 57.5515 287.797 57.3934 288.397 57.2758C288.784 57.1973 289.164 57.1588 289.538 57.1603C290.711 57.1649 291.696 57.5621 292.493 58.3519C292.918 58.7803 293.129 59.3011 293.127 59.9144C293.125 60.5144 292.902 61.1602 292.459 61.8518C291.949 62.6365 291.367 63.2275 290.712 63.625ZM289.054 58.1784C288.838 58.6975 288.609 59.3433 288.366 60.1157L288.164 60.7149L288.303 60.7754C288.303 60.8688 288.303 61.0154 288.302 61.2154C288.314 61.4022 288.34 61.5623 288.38 61.6957C288.525 62.1097 288.691 62.3636 288.877 62.4577C288.957 62.498 289.07 62.4785 289.217 62.3991C289.377 62.3197 289.518 62.2269 289.638 62.1207C289.825 61.9614 290.127 61.6293 290.542 61.1243C290.85 60.7788 291.005 60.3661 291.007 59.8861C291.009 59.4728 290.89 59.099 290.651 58.7647C290.426 58.4305 290.107 58.2025 289.694 58.0809C289.654 58.0674 289.581 58.0605 289.474 58.06C289.221 58.059 289.081 58.0985 289.054 58.1784ZM298.453 58.4154C298.453 58.4421 298.466 58.4821 298.492 58.5356C298.532 58.5891 298.565 58.6359 298.592 58.676L299.235 57.7585C299.477 57.4128 299.777 57.2073 300.138 57.1421C300.511 57.0635 300.824 57.1248 301.077 57.3258C301.702 57.8216 302.133 58.3766 302.37 58.9909L302.747 59.9524L303.413 63.515C303.478 63.8886 303.603 64.3024 303.788 64.7565C303.893 65.0502 303.966 65.2705 304.005 65.4174L304.182 66.0981C303.835 66.2034 303.548 66.2556 303.322 66.2547C302.495 66.2514 302.003 65.8761 301.846 65.1288C301.703 64.3816 301.533 63.4943 301.337 62.4668L301.141 61.426C300.825 60.4515 300.48 59.9701 300.107 59.982C299.733 59.9805 299.459 60.1261 299.285 60.4187C299.03 60.831 298.881 61.2771 298.84 61.757C298.811 62.2235 298.795 62.8435 298.792 63.6168C298.724 63.9099 298.624 64.1161 298.49 64.2356C298.356 64.3418 298.149 64.3943 297.869 64.3932C297.229 64.3906 296.89 64.076 296.853 63.4492C296.802 62.7023 296.779 61.8622 296.783 60.9289C296.784 60.6622 296.758 60.4288 296.706 60.2285C296.653 60.0283 296.533 59.9279 296.347 59.9271C296.267 59.9268 296.16 59.9331 296.027 59.9459C295.907 59.9587 295.813 59.9584 295.747 59.9448C295.507 59.8905 295.3 59.843 295.127 59.8023C294.954 59.7616 294.794 59.701 294.648 59.6204C294.515 59.5266 294.462 59.373 294.49 59.1598C294.531 58.9333 294.605 58.7203 294.712 58.5207C294.806 58.3877 294.907 58.2614 295.014 58.1419C295.134 58.009 295.288 57.8629 295.475 57.7037C295.97 57.279 296.505 57.0611 297.078 57.05C297.505 57.0383 297.811 57.1729 297.996 57.4536C298.195 57.7344 298.347 58.055 298.453 58.4154ZM307.693 65.4719C306.573 65.4675 305.862 64.9847 305.559 64.0235C305.665 64.0239 305.805 64.0311 305.979 64.0451C306.165 64.0459 306.319 64.0598 306.439 64.0869C306.625 64.1143 306.758 64.1282 306.838 64.1285C307.438 64.1309 307.939 63.8662 308.342 63.3344C308.623 62.9489 308.765 62.5561 308.766 62.1561C308.767 61.8894 308.702 61.6292 308.569 61.3753C308.278 60.8542 307.92 60.2794 307.496 59.6511C307.218 59.2366 306.966 58.8423 306.741 58.4681C306.476 58.0404 306.344 57.5665 306.346 57.0465C306.348 56.5665 306.483 56.1471 306.751 55.7881C307.033 55.4159 307.44 55.1842 307.974 55.0929L308.614 54.9754C309.308 54.8448 309.829 54.7802 310.175 54.7816C310.749 54.7839 311.255 54.9192 311.694 55.1876C311.787 55.2546 311.88 55.375 311.972 55.5487C312.078 55.7091 312.158 55.8361 312.211 55.9296C312.117 55.9693 311.984 56.0354 311.81 56.128C311.65 56.2074 311.509 56.2535 311.389 56.2664C311.203 56.2923 310.923 56.3046 310.549 56.3031C310.189 56.3017 309.916 56.3072 309.729 56.3198C309.302 56.3582 308.962 56.5035 308.707 56.7558C308.466 56.9949 308.345 57.2877 308.344 57.6344C308.343 57.9011 308.422 58.1747 308.581 58.4553C308.938 59.0568 309.436 59.7454 310.073 60.5212C310.55 61.1231 310.788 61.7441 310.785 62.3841C310.784 62.7307 310.702 63.0971 310.541 63.4831C309.989 64.8143 309.04 65.4772 307.693 65.4719Z" fill="#222C4E"/>
<path d="M431.564 59.2551L432.143 59.5074C432.082 59.6538 432.032 59.7969 431.991 59.9368C431.944 60.0699 431.91 60.2164 431.89 60.3764C431.862 60.5363 431.848 60.7295 431.847 60.9562C431.845 61.4029 431.967 61.8067 432.212 62.1677C432.458 62.522 432.797 62.8066 433.229 63.0217C433.662 63.23 434.161 63.3353 434.728 63.3376C435.115 63.3391 435.478 63.2905 435.818 63.1919C436.159 63.0932 436.463 62.9477 436.73 62.7555C436.991 62.5565 437.195 62.3173 437.343 62.0379C437.491 61.7518 437.565 61.4287 437.567 61.0687C437.568 60.7221 437.539 60.432 437.48 60.1984C437.421 59.9648 437.352 59.7546 437.273 59.5676L437.864 59.2699C437.937 59.4102 438.003 59.5838 438.062 59.7907C438.121 59.9909 438.167 60.2011 438.199 60.4212C438.232 60.6414 438.248 60.8481 438.247 61.0414C438.245 61.5614 438.15 62.0177 437.962 62.4103C437.773 62.8029 437.519 63.1319 437.198 63.3973C436.87 63.656 436.496 63.8512 436.075 63.9829C435.655 64.1079 435.208 64.1695 434.735 64.1676C434.228 64.1656 433.758 64.0904 433.325 63.9421C432.893 63.7937 432.514 63.5822 432.188 63.3076C431.862 63.0263 431.61 62.6886 431.432 62.2946C431.254 61.8939 431.165 61.4469 431.167 60.9535C431.168 60.8135 431.182 60.6402 431.209 60.4337C431.237 60.2205 431.281 60.0106 431.342 59.8042C431.396 59.5911 431.47 59.408 431.564 59.2551ZM438.281 52.4549C438.278 53.0682 438.126 53.6143 437.824 54.0931C437.522 54.5719 437.108 54.9469 436.58 55.2182C436.046 55.4827 435.438 55.6137 434.758 55.611C434.078 55.6083 433.472 55.4693 432.94 55.1938C432.401 54.9117 431.976 54.53 431.664 54.0488C431.353 53.5609 431.192 53.0069 431.181 52.3869C431.183 51.7735 431.339 51.2275 431.647 50.7487C431.949 50.2699 432.364 49.8949 432.892 49.6236C433.42 49.3523 434.024 49.2181 434.704 49.2207C435.384 49.2234 435.993 49.3658 436.532 49.6479C437.071 49.9234 437.496 50.3051 437.807 50.793C438.112 51.2742 438.27 51.8281 438.281 52.4549ZM437.591 52.4721C437.593 52.0055 437.471 51.5917 437.226 51.2307C436.98 50.8697 436.641 50.585 436.209 50.3767C435.77 50.1683 435.27 50.063 434.71 50.0608C434.164 50.0586 433.676 50.1567 433.249 50.355C432.822 50.5533 432.487 50.8287 432.246 51.1811C432.004 51.5268 431.883 51.923 431.881 52.3696C431.879 52.8363 432.001 53.2501 432.246 53.6111C432.491 53.9721 432.83 54.2567 433.263 54.4651C433.695 54.6735 434.192 54.7788 434.752 54.781C435.298 54.7831 435.785 54.685 436.213 54.4867C436.64 54.2884 436.978 54.0164 437.226 53.6707C437.467 53.325 437.589 52.9255 437.591 52.4721ZM437.566 40.9259L438.187 40.8483L438.171 44.8783L431.371 44.8515L431.374 44.0715L437.554 44.0958L437.566 40.9259ZM438.353 34.1503C438.351 34.7636 438.198 35.3097 437.896 35.7885C437.595 36.2673 437.18 36.6424 436.652 36.9136C436.118 37.1782 435.51 37.3091 434.83 37.3065C434.15 37.3038 433.544 37.1647 433.012 36.8893C432.473 36.6072 432.048 36.2255 431.737 35.7442C431.425 35.2563 431.264 34.7024 431.253 34.0823C431.256 33.469 431.411 32.9229 431.72 32.4442C432.022 31.9653 432.436 31.5903 432.964 31.319C433.492 31.0478 434.096 30.9135 434.776 30.9162C435.456 30.9189 436.065 31.0613 436.604 31.3434C437.143 31.6189 437.568 32.0005 437.879 32.4884C438.184 32.9696 438.342 33.5236 438.353 34.1503ZM437.663 34.1676C437.665 33.7009 437.543 33.2871 437.298 32.9261C437.053 32.5652 436.714 32.2805 436.281 32.0721C435.842 31.8637 435.342 31.7584 434.782 31.7562C434.236 31.7541 433.749 31.8521 433.321 32.0505C432.894 32.2488 432.559 32.5241 432.318 32.8765C432.077 33.2222 431.955 33.6184 431.953 34.0651C431.951 34.5318 432.073 34.9456 432.318 35.3065C432.564 35.6675 432.902 35.9522 433.335 36.1605C433.768 36.3689 434.264 36.4742 434.824 36.4764C435.37 36.4786 435.857 36.3805 436.285 36.1822C436.712 35.9839 437.05 35.7119 437.298 35.3662C437.54 35.0204 437.661 34.6209 437.663 34.1676ZM432.12 24.6996L432.116 25.7696L434.816 25.7802L434.82 24.7902C434.821 24.4702 434.779 24.1767 434.693 23.9097C434.608 23.6427 434.469 23.4255 434.276 23.2581C434.077 23.0906 433.807 23.0062 433.467 23.0049C433.114 23.0035 432.84 23.0757 432.646 23.2216C432.452 23.3675 432.318 23.567 432.244 23.8201C432.163 24.0731 432.121 24.3662 432.12 24.6996ZM431.443 26.5469L431.45 24.6969C431.452 24.2236 431.52 23.7972 431.655 23.4177C431.783 23.0382 431.995 22.7391 432.289 22.5202C432.576 22.3014 432.96 22.1929 433.44 22.1948C433.9 22.2032 434.276 22.3214 434.569 22.5492C434.854 22.7703 435.07 23.0545 435.215 23.4018L438.262 21.6838L438.259 22.5538L435.423 24.1026C435.435 24.196 435.445 24.3127 435.451 24.4527C435.457 24.5861 435.46 24.7094 435.46 24.8227L435.456 25.7827L438.246 25.7937L438.243 26.5737L431.443 26.5469Z" fill="black"/>
<path d="M383.561 58.7962L383.557 59.9482L379.921 59.9339L379.906 63.5578L383.542 63.5722L383.538 64.7242L375.378 64.692L375.322 63.5398L378.982 63.5542L378.997 59.9302L375.397 59.916L375.401 58.7641L383.561 58.7962ZM383.594 50.4463L383.59 51.5983L375.43 51.5662L375.434 50.4142L383.594 50.4463ZM379.9 40.8993L380.812 40.7829L380.8 43.8429L379.888 43.9473L379.9 40.8993ZM379.137 30.4896L380.013 30.349L380.002 33.145L383.662 33.1594L383.658 34.3114L375.498 34.2793L375.515 29.8753L376.404 29.7108L376.39 33.1308L379.126 33.1416L379.137 30.4896ZM383.705 22.225L383.701 23.377L375.541 23.3448L375.545 22.1928L383.705 22.225Z" fill="black"/>
<ellipse cx="406.726" cy="42.257" rx="37.2502" ry="18.5026" transform="rotate(-90.4673 406.726 42.257)" fill="#EFF176"/>
<path d="M14.9008 69.1619L340.074 68.3772M15.9666 46.4098L341.048 47.5889" stroke="black" stroke-dasharray="2 2"/>
<path d="M395.951 66.6275L413.467 60.0664L396.213 53.6084L396.222 51.2984L416.592 58.9387L416.583 61.2187L396.332 68.969L395.951 66.6275ZM416.69 33.9677L416.681 36.3377L407.351 36.3009L407.313 45.9008L416.643 45.9376L416.634 48.2776L396.234 48.1972L396.093 45.8566L405.423 45.8934L405.461 36.2935L396.281 36.2573L396.29 33.8873L416.69 33.9677ZM415.718 29.5512L413.86 29.0039C414.021 28.6246 414.203 28.1753 414.405 27.6561C414.607 27.1169 414.78 26.5275 414.922 25.8881C415.045 25.2486 415.107 24.6188 415.109 23.9988C415.114 22.9188 414.977 22.0183 414.7 21.2972C414.423 20.5761 414.035 20.0345 413.537 19.6726C413.018 19.2905 412.449 19.0983 411.829 19.0958C411.089 19.0929 410.458 19.3004 409.936 19.7184C409.415 20.1163 408.932 20.7144 408.489 21.5127C408.026 22.3109 407.552 23.299 407.068 24.4771C406.664 25.3555 406.261 26.134 405.858 26.8124C405.436 27.4707 404.984 28.0289 404.502 28.487C404 28.9251 403.459 29.2629 402.878 29.5006C402.297 29.7184 401.656 29.8258 400.956 29.8231C399.976 29.8192 399.107 29.5558 398.35 29.0328C397.592 28.4898 396.985 27.7374 396.528 26.7756C396.072 25.7938 395.847 24.6329 395.852 23.2929C395.856 22.2929 395.99 21.3334 396.253 20.4145C396.517 19.4955 396.81 18.7166 397.133 18.0779L398.959 18.8951C398.798 19.2345 398.637 19.6139 398.475 20.0332C398.313 20.4326 398.182 20.8921 398.08 21.4117C397.958 21.9112 397.895 22.501 397.893 23.1809C397.888 24.4609 398.153 25.512 398.69 26.3341C399.227 27.1362 399.975 27.5392 400.935 27.543C401.655 27.5458 402.276 27.3483 402.798 26.9503C403.319 26.5324 403.812 25.9143 404.275 25.0961C404.718 24.2779 405.232 23.2799 405.817 22.1022C406.2 21.2237 406.593 20.4552 406.996 19.7968C407.399 19.1384 407.831 18.5801 408.293 18.1219C408.754 17.6637 409.276 17.3158 409.857 17.0781C410.418 16.8403 411.068 16.7228 411.808 16.7257C412.848 16.7298 413.767 17.0235 414.565 17.6066C415.362 18.1698 415.989 18.9922 416.445 20.074C416.901 21.1358 417.126 22.4367 417.12 23.9767C417.118 24.3967 417.076 24.8766 416.994 25.4162C416.912 25.9359 416.81 26.4655 416.688 27.0051C416.566 27.5446 416.424 28.034 416.262 28.4734C416.08 28.9127 415.899 29.272 415.718 29.5512Z" fill="black"/>
<defs>
<filter id="filter0_d_0_1" x="-4.86395" y="-1.35536" width="464.304" height="95.765" filterUnits="userSpaceOnUse" color-interpolation-filters="sRGB">
<feFlood flood-opacity="0" result="BackgroundImageFix"/>
<feColorMatrix in="SourceAlpha" type="matrix" values="0 0 0 0 0 0 0 0 0 0 0 0 0 0 0 0 0 0 127 0" result="hardAlpha"/>
<feOffset dy="4"/>
<feGaussianBlur stdDeviation="2"/>
<feComposite in2="hardAlpha" operator="out"/>
<feColorMatrix type="matrix" values="0 0 0 0 0 0 0 0 0 0 0 0 0 0 0 0 0 0 0.25 0"/>
<feBlend mode="normal" in2="BackgroundImageFix" result="effect1_dropShadow_0_1"/>
<feBlend mode="normal" in="SourceGraphic" in2="effect1_dropShadow_0_1" result="shape"/>
</filter>
</defs>
</svg>
