<svg width="86" height="457" viewBox="0 0 86 457" fill="none" xmlns="http://www.w3.org/2000/svg">
<rect width="86" height="457" fill="#F5F5F5"/>
<g filter="url(#filter0_d_0_1)">
<rect x="87.9148" y="456.331" width="86" height="456" rx="4" transform="rotate(179.726 87.9148 456.331)" fill="#E1DE9A"/>
</g>
<path d="M50.7943 64.7448C51.5068 63.9927 52.2691 63.4193 53.081 63.0248C53.893 62.6466 54.7466 62.4553 55.6417 62.451C57.9855 62.4398 60.0414 63.5042 61.8094 65.6442C63.5775 67.7842 64.4684 70.2946 64.4822 73.1755C64.4892 74.624 64.0834 76.5547 63.2648 78.9675L55.5989 79.0042L55.5904 77.222C57.7219 77.0816 59.4603 76.4222 60.8056 75.2439C62.1508 74.0655 62.8194 72.63 62.8113 70.9373C62.8047 69.5539 62.3679 68.4085 61.5009 67.5012C60.6503 66.6101 59.574 66.1676 58.2719 66.1739C57.0187 66.1798 55.8489 66.633 54.7627 67.5334C53.6765 68.4175 52.0102 70.5496 49.764 73.9295C48.0673 76.493 46.6921 78.2248 45.6384 79.1251C44.5684 80.0091 43.2522 80.4549 41.6897 80.4624C39.1344 80.4746 36.8501 79.3055 34.8369 76.9551C32.84 74.6208 31.8345 71.9645 31.8202 68.986C31.81 66.8539 32.3112 64.4589 33.3239 61.801L42.1129 61.7589L42.1212 63.4923C39.6472 63.5042 37.5836 64.2302 35.9304 65.6704C34.2771 67.1106 33.4551 68.8154 33.4646 70.7848C33.4732 72.5914 34.009 74.013 35.0719 75.0496C36.1349 76.1025 37.4802 76.625 39.1078 76.6172C40.5238 76.6105 41.7668 76.1732 42.8369 75.3054C43.8907 74.4378 45.4275 72.4691 47.4474 69.3995C48.5461 67.7178 49.6617 66.1662 50.7943 64.7448ZM54.0776 82.5271L55.607 90.8939L54.6548 90.8985C54.4562 90.2158 53.8931 89.8767 52.9654 89.8812L37.8532 89.9535C36.8604 89.9582 36.0802 90.1817 35.5127 90.6239C34.9451 91.066 34.6631 91.6533 34.6666 92.3857C34.6755 94.2575 36.0923 96.1143 38.9169 97.9563C41.7415 99.7983 45.0581 100.71 48.8667 100.692C50.3315 100.685 51.421 100.484 52.1353 100.09C52.8496 99.7126 53.2045 99.0354 53.1998 98.0588C53.1983 97.7496 53.131 97.286 52.9978 96.6682L54.1453 96.6627L55.6752 105.152L54.723 105.156C54.6057 104.441 54.0425 104.085 53.0334 104.09L37.3353 104.165C35.8216 104.172 35.0675 104.737 35.0729 105.861C35.0761 106.528 35.3243 107.381 35.8176 108.42L34.6213 108.426L31.9035 101.701L31.8978 100.505L40.0032 100.466C36.5079 97.9271 34.2847 95.9114 33.3335 94.4185C32.3987 92.9419 31.9283 91.5688 31.9222 90.2992C31.9093 87.6137 33.8072 86.2619 37.6157 86.2436L50.9701 86.1797C52.3861 86.1729 53.0905 85.4127 53.0832 83.8991C53.0817 83.5736 53.0307 83.1181 52.9302 82.5326L54.0776 82.5271ZM67.2088 117.45L66.2078 117.455C65.9452 117 65.5128 116.775 64.9106 116.777L48.1872 116.857C51.7174 119.9 53.868 122.047 54.639 123.296C55.4262 124.546 55.8229 125.822 55.8292 127.124C55.8391 129.207 55.017 130.871 53.3628 132.116C51.7249 133.377 49.6283 134.014 47.073 134.026C44.9246 134.036 42.831 133.591 40.7921 132.689C38.7696 131.787 37.1038 130.615 35.7948 129.173C34.5021 127.73 33.6736 126.367 33.3094 125.083C32.9614 123.799 32.7829 122.205 32.7738 120.3L32.763 118.054C32.7549 116.345 32.6355 115.215 32.405 114.662C32.1583 114.127 31.7576 113.722 31.2029 113.447L31.1951 111.812C31.962 112.231 32.9646 112.56 34.2027 112.798C35.441 113.053 36.3693 113.179 36.9878 113.176L61.0354 113.061C62.4676 113.054 63.1812 112.505 63.1759 111.415C63.1735 110.91 62.983 110.219 62.6045 109.342L63.8008 109.336L67.2088 117.45ZM36.5662 116.913C35.355 118.905 34.7548 121.023 34.7656 123.269C34.7733 124.897 35.2029 126.238 36.0543 127.292C36.9221 128.362 38.0896 129.146 39.5569 129.643C41.0241 130.141 42.6936 130.385 44.5653 130.376C46.9904 130.364 48.925 129.883 50.369 128.932C51.813 127.981 52.5311 126.676 52.5231 125.016C52.5129 122.883 51.2829 120.936 48.833 119.174C46.3832 117.428 43.4657 116.563 40.0803 116.579C39.0386 116.584 37.8673 116.695 36.5662 116.913ZM66.0555 141.748C66.0588 142.431 65.8336 142.994 65.38 143.436C64.9264 143.894 64.3823 144.124 63.7475 144.127C63.1128 144.13 62.5664 143.905 62.1085 143.451C61.6506 142.998 61.4202 142.454 61.4171 141.819C61.414 141.168 61.6392 140.613 62.0928 140.155C62.5464 139.714 63.0906 139.491 63.7253 139.488C64.3764 139.485 64.9227 139.711 65.3643 140.164C65.8223 140.634 66.0527 141.162 66.0555 141.748ZM53.3094 136.267L55.8787 142.578L55.884 143.676L34.7172 143.778C31.8364 143.791 28.943 142.878 26.037 141.036C23.131 139.194 21.6721 137.029 21.6602 134.538C21.6563 133.725 21.8393 132.853 22.2092 131.923L28.8253 131.892L28.8337 133.649C27.2225 133.673 26.0033 133.989 25.1761 134.595C24.3488 135.185 23.9373 135.911 23.9414 136.774C23.9455 137.636 24.4945 138.407 25.5882 139.085C26.682 139.763 28.0264 140.099 29.6214 140.091L50.3487 139.992C51.8623 139.985 52.6164 139.403 52.6109 138.248C52.6082 137.694 52.426 137.036 52.0643 136.273L53.3094 136.267ZM39.1346 168.952C34.56 165.344 32.2644 161.815 32.2479 158.365C32.2363 155.94 33.2759 153.794 35.3666 151.929C37.4736 150.063 39.9756 149.124 42.8727 149.11C46.2093 149.094 49.2174 150.178 51.8972 152.363C54.5933 154.563 55.9485 157.161 55.9628 160.156C55.9743 162.565 55.129 164.481 53.4268 165.905C51.7246 167.329 49.6449 168.088 47.1877 168.181L47.1123 152.434C46.4774 152.405 46.0134 152.391 45.7205 152.392C42.8396 152.406 40.4345 153.182 38.505 154.722C36.5917 156.261 35.6405 158.153 35.6513 160.399C35.6647 163.199 37.3629 166.047 40.7459 168.944L39.1346 168.952ZM48.3892 164.171C50.3088 163.967 51.7951 163.35 52.8481 162.319C53.9012 161.289 54.4243 160.074 54.4176 158.674C54.4106 157.209 53.8266 155.902 52.6654 154.751C51.5206 153.601 50.0768 152.9 48.334 152.648L48.3892 164.171ZM39.0912 190.486C34.6145 186.943 32.3682 183.503 32.3523 180.166C32.342 178.018 33.2436 175.955 35.057 173.977C36.8706 172.015 39.4619 171.026 42.831 171.01C46.3303 170.993 49.4203 172.166 52.1009 174.53C54.7816 176.91 56.1299 179.768 56.1459 183.104C56.1556 185.139 55.6291 187.347 54.5662 189.728L48.1942 189.759L48.1857 187.976C50.1223 187.918 51.6818 187.292 52.8643 186.099C54.0631 184.921 54.6582 183.445 54.6498 181.671C54.639 179.425 53.6703 177.664 51.7436 176.387C49.8332 175.127 47.6329 174.502 45.1427 174.514C42.4409 174.527 40.1738 175.238 38.3413 176.646C36.5089 178.055 35.5979 179.866 35.6085 182.08C35.615 183.43 36.02 184.739 36.8236 186.004C37.6273 187.286 38.9528 188.777 40.8001 190.478L39.0912 190.486ZM63.2183 201.894L61.9488 201.9C61.6997 200.876 60.5417 200.369 58.4747 200.379C57.0749 200.385 56.0989 200.504 55.5467 200.734C54.9944 200.981 54.5407 201.398 54.1854 201.986C53.8303 202.59 53.655 203.388 53.6598 204.381L53.6695 206.407L52.5709 206.413L52.5422 200.431L36.8686 200.506C36.364 200.509 35.982 200.608 35.7225 200.805C35.4631 201.018 35.3344 201.327 35.3364 201.734C35.3402 202.532 35.9969 203.717 37.3065 205.289C37.4539 205.468 37.5603 205.606 37.6259 205.703L36.2099 205.71C33.7064 202.955 32.4508 200.755 32.4429 199.111C32.4393 198.347 32.7295 197.767 33.3135 197.374C33.9139 196.997 34.8001 196.805 35.9719 196.8L52.5245 196.72L52.5066 192.985L53.6052 192.98C53.6121 194.412 53.9018 195.428 54.4743 196.027C55.0468 196.627 56.0493 196.923 57.4815 196.916L61.168 196.899L63.2183 201.894ZM40.7255 210.595C38.6103 210.736 36.9693 211.346 35.8026 212.426C34.6359 213.522 34.0562 214.827 34.0635 216.34C34.0695 217.593 34.4569 218.617 35.2256 219.411C35.9944 220.205 36.9647 220.599 38.1366 220.593C39.1783 220.588 40.0557 220.283 40.769 219.677C41.4659 219.055 42.3797 217.839 43.5103 216.026C44.318 214.737 45.0692 213.561 45.764 212.5C46.4751 211.439 47.1958 210.703 47.9263 210.292C48.6567 209.866 49.4044 209.651 50.1693 209.647C51.7481 209.639 53.1594 210.357 54.4033 211.799C55.6473 213.258 56.275 215.192 56.2866 217.601C56.2936 219.082 55.9758 220.679 55.3329 222.391L48.9365 222.421L48.9281 220.664C50.7346 220.639 52.1808 220.127 53.2665 219.129C54.3522 218.131 54.892 216.989 54.8859 215.703C54.8815 214.792 54.5851 214.077 53.9967 213.559C53.4246 213.057 52.748 212.808 51.9667 212.812C51.0878 212.816 50.3324 213.113 49.7004 213.702C49.0521 214.275 48.195 215.426 47.1291 217.157C45.2715 220.128 43.962 221.99 43.2007 222.742C42.423 223.494 41.3913 223.874 40.1055 223.88C38.071 223.89 36.3007 222.995 34.7947 221.195C33.2888 219.412 32.5302 217.349 32.519 215.005C32.5106 213.263 32.9893 211.251 33.9549 208.968L40.7176 208.935L40.7255 210.595Z" fill="black"/>
<path d="M24.8621 386.805L22.9137 387.14L29.5192 403.958L31.4192 403.949L37.6378 386.919L35.7128 386.928L30.4568 401.354L24.8621 386.805ZM52.2283 403.849L52.147 386.85L50.172 386.859L50.2086 394.509L42.2087 394.547L42.1715 386.772L40.2221 386.907L40.3035 403.907L42.2535 403.897L42.2162 396.122L50.2162 396.084L50.2534 403.859L52.2283 403.849ZM55.9015 403.007C56.1355 403.156 56.4363 403.304 56.8036 403.453C57.1709 403.584 57.5798 403.699 58.0303 403.797C58.4808 403.895 58.9228 403.976 59.3565 404.04C59.8068 404.105 60.2069 404.136 60.5569 404.135C61.8403 404.128 62.9227 403.932 63.8042 403.544C64.7023 403.156 65.3831 402.628 65.8466 401.959C66.3267 401.29 66.5647 400.522 66.5606 399.656C66.5576 399.039 66.455 398.498 66.2528 398.032C66.0505 397.55 65.7568 397.118 65.3716 396.736C64.9864 396.355 64.5181 395.999 63.9665 395.668C63.4149 395.337 62.7717 395.016 62.0368 394.702C61.0512 394.224 60.2158 393.803 59.5308 393.439C58.8456 393.059 58.327 392.653 57.9749 392.222C57.6395 391.79 57.4704 391.274 57.4675 390.674C57.4637 389.874 57.794 389.248 58.4585 388.794C59.1397 388.341 60.0136 388.112 61.0802 388.107C61.6469 388.104 62.1388 388.152 62.556 388.25C62.9897 388.331 63.3735 388.438 63.7075 388.569C64.0581 388.701 64.3754 388.833 64.6594 388.965L65.3271 387.437C64.7925 387.172 64.1413 386.934 63.3736 386.721C62.6059 386.508 61.8054 386.403 60.9721 386.407C59.8555 386.413 58.8897 386.609 58.0749 386.996C57.2767 387.383 56.6542 387.895 56.2072 388.53C55.7769 389.166 55.5637 389.892 55.5676 390.708C55.5704 391.292 55.6646 391.825 55.8503 392.307C56.0526 392.789 56.3381 393.238 56.7067 393.653C57.092 394.051 57.5604 394.424 58.1121 394.771C58.6804 395.102 59.332 395.432 60.0669 395.762C61.0521 396.157 61.879 396.545 62.5475 396.925C63.2159 397.288 63.7178 397.686 64.0532 398.118C64.4053 398.549 64.5828 399.074 64.5857 399.69C64.5882 400.207 64.4321 400.683 64.1175 401.118C63.8195 401.536 63.3711 401.863 62.7722 402.099C62.1734 402.335 61.4239 402.455 60.5239 402.46C60.0073 402.462 59.482 402.415 58.9482 402.317C58.4143 402.203 57.922 402.064 57.4712 401.899C57.0371 401.735 56.6614 401.587 56.3441 401.455L55.9015 403.007Z" fill="black"/>
<path d="M24.8621 386.805L25.7954 386.446L25.5011 385.681L24.693 385.82L24.8621 386.805ZM22.9137 387.14L22.7445 386.154L21.5338 386.362L21.9829 387.505L22.9137 387.14ZM29.5192 403.958L28.5884 404.324L28.8389 404.961L29.524 404.958L29.5192 403.958ZM31.4192 403.949L31.424 404.949L32.1199 404.946L32.3585 404.292L31.4192 403.949ZM37.6378 386.919L38.5771 387.262L39.07 385.912L37.633 385.919L37.6378 386.919ZM35.7128 386.928L35.708 385.928L35.0116 385.932L34.7732 386.586L35.7128 386.928ZM30.4568 401.354L29.5234 401.713L30.482 404.205L31.3963 401.696L30.4568 401.354ZM24.693 385.82L22.7445 386.154L23.0828 388.125L25.0312 387.791L24.693 385.82ZM21.9829 387.505L28.5884 404.324L30.45 403.593L23.8444 386.774L21.9829 387.505ZM29.524 404.958L31.424 404.949L31.4144 402.949L29.5144 402.958L29.524 404.958ZM32.3585 404.292L38.5771 387.262L36.6984 386.576L30.4799 403.606L32.3585 404.292ZM37.633 385.919L35.708 385.928L35.7176 387.928L37.6426 387.919L37.633 385.919ZM34.7732 386.586L29.5172 401.011L31.3963 401.696L36.6524 387.271L34.7732 386.586ZM31.3901 400.995L25.7954 386.446L23.9287 387.164L29.5234 401.713L31.3901 400.995ZM52.2283 403.849L52.2331 404.849L53.2331 404.845L53.2283 403.845L52.2283 403.849ZM52.147 386.85L53.147 386.845L53.1422 385.845L52.1422 385.85L52.147 386.85ZM50.172 386.859L50.1672 385.859L49.1672 385.864L49.172 386.864L50.172 386.859ZM50.2086 394.509L50.2134 395.509L51.2134 395.504L51.2086 394.504L50.2086 394.509ZM42.2087 394.547L41.2087 394.552L41.2135 395.552L42.2135 395.547L42.2087 394.547ZM42.1715 386.772L43.1715 386.768L43.1664 385.701L42.1028 385.775L42.1715 386.772ZM40.2221 386.907L40.1534 385.909L39.2176 385.974L39.2221 386.911L40.2221 386.907ZM40.3035 403.907L39.3035 403.911L39.3083 404.911L40.3083 404.907L40.3035 403.907ZM42.2535 403.897L42.2582 404.897L43.2582 404.892L43.2534 403.892L42.2535 403.897ZM42.2162 396.122L42.2115 395.122L41.2115 395.127L41.2163 396.127L42.2162 396.122ZM50.2162 396.084L51.2161 396.079L51.2114 395.079L50.2114 395.084L50.2162 396.084ZM50.2534 403.859L49.2534 403.864L49.2582 404.864L50.2581 404.859L50.2534 403.859ZM53.2283 403.845L53.147 386.845L51.147 386.854L51.2283 403.854L53.2283 403.845ZM52.1422 385.85L50.1672 385.859L50.1768 387.859L52.1518 387.85L52.1422 385.85ZM49.172 386.864L49.2086 394.514L51.2086 394.504L51.172 386.854L49.172 386.864ZM50.2038 393.509L42.2039 393.547L42.2135 395.547L50.2134 395.509L50.2038 393.509ZM43.2087 394.543L43.1715 386.768L41.1715 386.777L41.2087 394.552L43.2087 394.543ZM42.1028 385.775L40.1534 385.909L40.2909 387.904L42.2402 387.77L42.1028 385.775ZM39.2221 386.911L39.3035 403.911L41.3035 403.902L41.2221 386.902L39.2221 386.911ZM40.3083 404.907L42.2582 404.897L42.2487 402.897L40.2987 402.907L40.3083 404.907ZM43.2534 403.892L43.2162 396.117L41.2163 396.127L41.2535 403.902L43.2534 403.892ZM42.221 397.122L50.2209 397.084L50.2114 395.084L42.2115 395.122L42.221 397.122ZM49.2162 396.089L49.2534 403.864L51.2533 403.854L51.2161 396.079L49.2162 396.089ZM50.2581 404.859L52.2331 404.849L52.2236 402.849L50.2486 402.859L50.2581 404.859ZM55.9015 403.007L54.9398 402.733L54.7352 403.45L55.3648 403.851L55.9015 403.007ZM56.8036 403.453L56.4294 404.38L56.4478 404.387L56.4664 404.394L56.8036 403.453ZM58.0303 403.797L58.2426 402.819L58.0303 403.797ZM59.3565 404.04L59.2092 405.029L59.2147 405.03L59.3565 404.04ZM63.8042 403.544L63.4079 402.626L63.4017 402.629L63.8042 403.544ZM65.8466 401.959L65.0342 401.376L65.0294 401.383L65.0246 401.39L65.8466 401.959ZM66.2528 398.032L65.3306 398.419L65.3356 398.431L66.2528 398.032ZM63.9665 395.668L64.4807 394.811L63.9665 395.668ZM62.0368 394.702L61.6 395.602L61.6221 395.613L61.6448 395.622L62.0368 394.702ZM59.5308 393.439L59.0457 394.314L59.0539 394.318L59.0622 394.323L59.5308 393.439ZM57.9749 392.222L57.1852 392.835L57.1925 392.845L57.2 392.854L57.9749 392.222ZM58.4585 388.794L57.9045 387.962L57.8951 387.968L58.4585 388.794ZM62.5559 388.25L62.3272 389.223L62.3494 389.229L62.3718 389.233L62.5559 388.25ZM63.7075 388.569L63.3405 389.5L63.3482 389.503L63.356 389.506L63.7075 388.569ZM64.6594 388.965L64.2379 389.872L65.166 390.303L65.5758 389.365L64.6594 388.965ZM65.3271 387.437L66.2434 387.837L66.6254 386.963L65.77 386.54L65.3271 387.437ZM58.0749 386.996L57.6457 386.093L57.6385 386.097L58.0749 386.996ZM56.2072 388.53L55.3893 387.955L55.3842 387.962L55.3792 387.97L56.2072 388.53ZM55.8503 392.307L54.917 392.666L54.9224 392.68L54.9281 392.694L55.8503 392.307ZM56.7067 393.653L55.9592 394.317L55.9733 394.333L55.9881 394.348L56.7067 393.653ZM58.1121 394.771L57.5793 395.617L57.5941 395.627L57.6092 395.636L58.1121 394.771ZM60.0669 395.762L59.6574 396.674L59.6758 396.682L59.6945 396.69L60.0669 395.762ZM62.5475 396.925L62.0531 397.794L62.0614 397.799L62.0697 397.803L62.5475 396.925ZM64.0532 398.118L63.2635 398.731L63.2708 398.741L63.2783 398.75L64.0532 398.118ZM64.1175 401.118L63.3073 400.531L63.3032 400.537L64.1175 401.118ZM62.7722 402.099L63.1391 403.029L62.7722 402.099ZM58.9482 402.317L58.7392 403.295L58.7539 403.298L58.7686 403.301L58.9482 402.317ZM57.4712 401.899L57.1167 402.834L57.1284 402.839L57.4712 401.899ZM56.3441 401.455L56.7277 400.531L55.6904 400.1L55.3824 401.181L56.3441 401.455ZM55.3648 403.851C55.667 404.043 56.0273 404.218 56.4294 404.38L57.1778 402.525C56.8452 402.391 56.6041 402.269 56.4382 402.163L55.3648 403.851ZM56.4664 404.394C56.8811 404.543 57.3325 404.668 57.818 404.774L58.2426 402.819C57.8271 402.729 57.4608 402.626 57.1409 402.511L56.4664 404.394ZM57.818 404.774C58.2889 404.876 58.7527 404.961 59.2092 405.029L59.5038 403.051C59.093 402.99 58.6726 402.913 58.2426 402.819L57.818 404.774ZM59.2147 405.03C59.7 405.1 60.1507 405.137 60.5617 405.135L60.5522 403.135C60.2632 403.136 59.9136 403.11 59.4983 403.05L59.2147 405.03ZM60.5617 405.135C61.9388 405.128 63.1655 404.917 64.2066 404.459L63.4017 402.629C62.6798 402.946 61.7417 403.129 60.5522 403.135L60.5617 405.135ZM64.2004 404.462C65.2353 404.016 66.0788 403.38 66.6686 402.529L65.0246 401.39C64.6875 401.876 64.1693 402.297 63.4079 402.626L64.2004 404.462ZM66.659 402.542C67.2688 401.693 67.5657 400.717 67.5606 399.651L65.5606 399.661C65.5638 400.328 65.3847 400.888 65.0342 401.376L66.659 402.542ZM67.5606 399.651C67.5571 398.927 67.4365 398.248 67.1701 397.634L65.3356 398.431C65.4736 398.748 65.5582 399.151 65.5606 399.661L67.5606 399.651ZM67.175 397.645C66.92 397.037 66.5504 396.497 66.0753 396.026L64.6679 397.447C64.9631 397.739 65.181 398.062 65.3306 398.419L67.175 397.645ZM66.0753 396.026C65.6237 395.579 65.0887 395.175 64.4807 394.811L63.4523 396.526C63.9474 396.823 64.3492 397.131 64.6679 397.447L66.0753 396.026ZM64.4807 394.811C63.8818 394.451 63.1962 394.109 62.4289 393.782L61.6448 395.622C62.3471 395.922 62.948 396.224 63.4523 396.526L64.4807 394.811ZM62.4736 393.803C61.4947 393.327 60.6706 392.912 59.9993 392.556L59.0622 394.323C59.761 394.693 60.6077 395.12 61.6 395.602L62.4736 393.803ZM60.0158 392.565C59.4 392.223 58.996 391.892 58.7498 391.59L57.2 392.854C57.6579 393.415 58.2912 393.895 59.0457 394.314L60.0158 392.565ZM58.7646 391.608C58.5778 391.368 58.4694 391.072 58.4675 390.669L56.4675 390.679C56.4713 391.477 56.7012 392.212 57.1852 392.835L58.7646 391.608ZM58.4675 390.669C58.4653 390.204 58.6302 389.888 59.0219 389.621L57.8951 387.968C56.9578 388.608 56.4621 389.545 56.4675 390.679L58.4675 390.669ZM59.0125 389.627C59.4882 389.31 60.1553 389.111 61.085 389.107L61.0755 387.107C59.8719 387.113 58.7912 387.372 57.9045 387.962L59.0125 389.627ZM61.085 389.107C61.5967 389.104 62.0066 389.148 62.3272 389.223L62.7847 387.276C62.271 387.156 61.6971 387.104 61.0755 387.107L61.085 389.107ZM62.3718 389.233C62.7567 389.305 63.0773 389.396 63.3405 389.5L64.0744 387.639C63.6697 387.479 63.2227 387.357 62.7401 387.267L62.3718 389.233ZM63.356 389.506C63.6874 389.63 63.9808 389.752 64.2379 389.872L65.0809 388.058C64.77 387.913 64.4289 387.772 64.059 387.633L63.356 389.506ZM65.5758 389.365L66.2434 387.837L64.4107 387.036L63.743 388.564L65.5758 389.365ZM65.77 386.54C65.164 386.241 64.4504 385.982 63.641 385.757L63.1063 387.685C63.8323 387.886 64.421 388.104 64.8842 388.333L65.77 386.54ZM63.641 385.757C62.7807 385.519 61.8884 385.403 60.9673 385.407L60.9769 387.407C61.7225 387.404 62.4312 387.497 63.1063 387.685L63.641 385.757ZM60.9673 385.407C59.7379 385.413 58.6208 385.63 57.6457 386.093L58.5041 387.899C59.1586 387.588 59.973 387.412 60.9769 387.407L60.9673 385.407ZM57.6385 386.097C56.7096 386.547 55.947 387.162 55.3893 387.955L57.0252 389.106C57.3614 388.627 57.8439 388.22 58.5113 387.896L57.6385 386.097ZM55.3792 387.97C54.8285 388.783 54.5628 389.709 54.5676 390.713L56.5676 390.704C56.5646 390.075 56.7253 389.549 57.0352 389.091L55.3792 387.97ZM54.5676 390.713C54.5709 391.402 54.6826 392.057 54.917 392.666L56.7836 391.948C56.6467 391.592 56.5699 391.181 56.5676 390.704L54.5676 390.713ZM54.9281 392.694C55.1755 393.284 55.5219 393.825 55.9592 394.317L57.4543 392.989C57.1542 392.651 56.9297 392.295 56.7725 391.92L54.9281 392.694ZM55.9881 394.348C56.4378 394.813 56.9714 395.235 57.5793 395.617L58.6449 393.925C58.1495 393.613 57.7462 393.289 57.4254 392.958L55.9881 394.348ZM57.6092 395.636C58.2136 395.987 58.8974 396.333 59.6574 396.674L60.4763 394.85C59.7665 394.531 59.1471 394.216 58.615 393.907L57.6092 395.636ZM59.6945 396.69C60.6523 397.074 61.4355 397.443 62.0531 397.794L63.0418 396.056C62.3224 395.647 61.4519 395.24 60.4392 394.834L59.6945 396.69ZM62.0697 397.803C62.6613 398.125 63.039 398.442 63.2635 398.731L64.8429 397.504C64.3966 396.93 63.7704 396.452 63.0252 396.046L62.0697 397.803ZM63.2783 398.75C63.4702 398.985 63.5838 399.281 63.5857 399.695L65.5857 399.685C65.5818 398.866 65.3404 398.114 64.8281 397.486L63.2783 398.75ZM63.5857 399.695C63.5872 399.991 63.5028 400.261 63.3073 400.531L64.9278 401.704C65.3615 401.104 65.5892 400.423 65.5857 399.685L63.5857 399.695ZM63.3032 400.537C63.1428 400.762 62.8699 400.985 62.4053 401.169L63.1391 403.029C63.8723 402.74 64.4963 402.309 64.9319 401.698L63.3032 400.537ZM62.4053 401.169C61.9578 401.345 61.3409 401.456 60.5191 401.46L60.5287 403.46C61.507 403.455 62.3889 403.325 63.1391 403.029L62.4053 401.169ZM60.5191 401.46C60.0673 401.462 59.6038 401.42 59.1278 401.334L58.7686 403.301C59.3602 403.409 59.9472 403.463 60.5287 403.46L60.5191 401.46ZM59.1573 401.339C58.6627 401.234 58.2157 401.107 57.814 400.96L57.1284 402.839C57.6283 403.021 58.1659 403.173 58.7392 403.295L59.1573 401.339ZM57.8257 400.964C57.3982 400.802 57.0327 400.658 56.7277 400.531L55.9604 402.378C56.2901 402.515 56.6759 402.667 57.1167 402.834L57.8257 400.964ZM55.3824 401.181L54.9398 402.733L56.8632 403.281L57.3057 401.729L55.3824 401.181Z" fill="#FFFDD8"/>
<path d="M29.3681 413.312C29.2144 413.22 29.0307 413.147 28.8171 413.095C28.6102 413.036 28.3999 412.994 28.1865 412.968C27.9797 412.942 27.8063 412.93 27.6663 412.93C27.173 412.933 26.7267 413.025 26.3276 413.207C25.9351 413.389 25.5997 413.644 25.3213 413.972C25.0495 414.3 24.8413 414.681 24.6967 415.115C24.5521 415.549 24.481 416.019 24.4835 416.526C24.4857 416.999 24.5512 417.445 24.6799 417.865C24.8152 418.284 25.0137 418.657 25.2752 418.982C25.5434 419.301 25.8746 419.552 26.2689 419.737C26.6631 419.922 27.1202 420.013 27.6402 420.011C27.8335 420.01 28.0401 419.992 28.2599 419.958C28.4798 419.923 28.6895 419.876 28.8893 419.815C29.0956 419.754 29.2686 419.686 29.4083 419.612L29.1055 419.024C28.9192 419.105 28.7095 419.176 28.4765 419.237C28.2434 419.298 27.9536 419.329 27.6069 419.331C27.2469 419.333 26.9233 419.261 26.6359 419.115C26.3552 418.97 26.1142 418.768 25.913 418.509C25.7184 418.243 25.5703 417.941 25.4686 417.601C25.367 417.262 25.3153 416.898 25.3134 416.512C25.3107 415.945 25.4116 415.445 25.6162 415.01C25.8275 414.576 26.1092 414.235 26.4613 413.986C26.8202 413.738 27.2229 413.613 27.6696 413.61C27.8962 413.609 28.0896 413.622 28.2497 413.648C28.4098 413.667 28.5567 413.7 28.6902 413.746C28.8304 413.785 28.974 413.834 29.1209 413.894L29.3681 413.312ZM36.2267 419.97C35.6134 419.973 35.066 419.825 34.5846 419.527C34.1032 419.23 33.7245 418.818 33.4487 418.293C33.1795 417.761 33.0432 417.155 33.04 416.475C33.0367 415.795 33.1705 415.188 33.4413 414.653C33.7187 414.112 34.0966 413.683 34.5751 413.367C35.0603 413.052 35.6128 412.886 36.2327 412.869C36.8461 412.867 37.3935 413.017 37.8749 413.322C38.3564 413.619 38.735 414.031 39.0109 414.556C39.2867 415.082 39.4263 415.684 39.4295 416.364C39.4328 417.044 39.2957 417.655 39.0183 418.196C38.7475 418.738 38.3696 419.166 37.8844 419.482C37.4059 419.791 36.8533 419.953 36.2267 419.97ZM36.2034 419.28C36.6701 419.277 37.0828 419.152 37.4416 418.904C37.8005 418.655 38.0822 418.314 38.2867 417.88C38.4913 417.439 38.5922 416.938 38.5896 416.378C38.587 415.832 38.4846 415.345 38.2826 414.92C38.0805 414.494 37.8023 414.162 37.4478 413.924C37.1 413.685 36.7028 413.567 36.2561 413.569C35.7894 413.572 35.3767 413.697 35.0179 413.945C34.6591 414.194 34.3774 414.535 34.1728 414.969C33.9682 415.404 33.8672 415.901 33.8699 416.461C33.8725 417.008 33.9749 417.494 34.1769 417.919C34.3789 418.345 34.6539 418.68 35.0017 418.925C35.3495 419.164 35.7501 419.282 36.2034 419.28ZM47.749 419.154L44.5791 419.17L44.5495 412.99L43.7695 412.993L43.8021 419.793L47.832 419.774L47.749 419.154ZM54.5312 419.882C53.9179 419.885 53.3705 419.738 52.8891 419.44C52.4076 419.142 52.029 418.731 51.7531 418.205C51.4839 417.673 51.3477 417.067 51.3444 416.387C51.3412 415.707 51.4749 415.1 51.7457 414.565C52.0231 414.024 52.4011 413.595 52.8796 413.28C53.3648 412.964 53.9173 412.798 54.5372 412.782C55.1506 412.779 55.6979 412.93 56.1794 413.234C56.6608 413.532 57.0395 413.943 57.3153 414.469C57.5912 414.994 57.7307 415.597 57.734 416.277C57.7372 416.957 57.6002 417.567 57.3227 418.109C57.052 418.65 56.674 419.078 56.1889 419.394C55.7104 419.703 55.1578 419.866 54.5312 419.882ZM54.5079 419.192C54.9746 419.19 55.3873 419.065 55.7461 418.816C56.1049 418.568 56.3866 418.226 56.5912 417.792C56.7958 417.351 56.8967 416.851 56.894 416.291C56.8914 415.744 56.7891 415.258 56.5871 414.832C56.385 414.406 56.1068 414.074 55.7523 413.836C55.4045 413.598 55.0072 413.48 54.5606 413.482C54.0939 413.484 53.6812 413.609 53.3224 413.858C52.9635 414.106 52.6818 414.447 52.4773 414.882C52.2727 415.316 52.1717 415.813 52.1744 416.373C52.177 416.92 52.2793 417.406 52.4814 417.832C52.6834 418.257 52.9583 418.593 53.3062 418.838C53.654 419.076 54.0546 419.194 54.5079 419.192ZM63.9272 413.567C64.2605 413.565 64.554 413.604 64.8077 413.683C65.0614 413.755 65.2621 413.887 65.4097 414.08C65.5572 414.273 65.6319 414.545 65.6336 414.899C65.6352 415.239 65.5532 415.509 65.3875 415.71C65.2217 415.904 65.0057 416.045 64.7395 416.133C64.4732 416.221 64.1801 416.266 63.8601 416.267L62.8701 416.272L62.8572 413.572L63.9272 413.567ZM62.074 412.906L62.1065 419.706L62.8865 419.702L62.8732 416.912L63.8332 416.907C63.9465 416.907 64.0698 416.903 64.2031 416.896C64.3431 416.888 64.4597 416.878 64.553 416.864L66.1265 419.687L66.9965 419.682L65.252 416.651C65.5979 416.502 65.8802 416.284 66.0988 415.997C66.3241 415.702 66.439 415.325 66.4434 414.865C66.4411 414.385 66.3293 414.002 66.1079 413.717C65.8865 413.424 65.5855 413.216 65.2049 413.091C64.8243 412.959 64.3973 412.895 63.924 412.897L62.074 412.906Z" fill="black"/>
<path d="M29.3682 413.312L29.8283 413.508L29.9984 413.108L29.6261 412.884L29.3682 413.312ZM28.8171 413.095L28.68 413.576L28.689 413.578L28.6982 413.581L28.8171 413.095ZM28.1865 412.968L28.1249 413.464L28.1268 413.464L28.1865 412.968ZM26.3276 413.207L26.1202 412.752L26.1174 412.753L26.3276 413.207ZM25.3213 413.972L24.94 413.648L24.9363 413.653L25.3213 413.972ZM24.6967 415.115L25.1711 415.273L24.6967 415.115ZM24.6799 417.865L24.2018 418.012L24.204 418.018L24.6799 417.865ZM25.2752 418.982L24.8854 419.295L24.8927 419.304L25.2752 418.982ZM26.2689 419.737L26.0566 420.19L26.2689 419.737ZM28.2599 419.958L28.3372 420.452L28.2599 419.958ZM28.8893 419.815L28.7476 419.335L28.7433 419.336L28.8893 419.815ZM29.4083 419.612L29.6424 420.054L30.0789 419.823L29.8529 419.383L29.4083 419.612ZM29.1055 419.024L29.5501 418.795L29.3358 418.379L28.9063 418.565L29.1055 419.024ZM28.4765 419.237L28.6033 419.72L28.4765 419.237ZM26.6359 419.115L26.406 419.56L26.4103 419.562L26.6359 419.115ZM25.913 418.509L25.5096 418.804L25.5138 418.81L25.5181 418.816L25.913 418.509ZM25.4686 417.601L25.9476 417.458L25.4686 417.601ZM25.6162 415.01L25.1666 414.792L25.1639 414.797L25.6162 415.01ZM26.4613 413.986L26.1767 413.575L26.1732 413.578L26.4613 413.986ZM28.2497 413.648L28.1699 414.141L28.18 414.143L28.1901 414.144L28.2497 413.648ZM28.6902 413.746L28.5273 414.218L28.5411 414.223L28.5552 414.227L28.6902 413.746ZM29.1209 413.894L28.9338 414.357L29.3889 414.541L29.581 414.089L29.1209 413.894ZM29.6261 412.884C29.4207 412.76 29.188 412.671 28.936 412.609L28.6982 413.581C28.8734 413.624 29.0081 413.679 29.1102 413.741L29.6261 412.884ZM28.9542 412.614C28.7219 412.548 28.4858 412.5 28.2461 412.472L28.1268 413.464C28.3141 413.487 28.4984 413.524 28.68 413.576L28.9542 412.614ZM28.2481 412.472C28.0293 412.445 27.8329 412.43 27.6639 412.43L27.6687 413.43C27.7797 413.43 27.9301 413.44 28.1249 413.464L28.2481 412.472ZM27.6639 412.43C27.1087 412.433 26.5913 412.537 26.1202 412.752L26.535 413.662C26.8621 413.513 27.2373 413.433 27.6687 413.43L27.6639 412.43ZM26.1174 412.753C25.6595 412.965 25.2657 413.265 24.9401 413.648L25.7024 414.295C25.9337 414.023 26.2107 413.812 26.5378 413.661L26.1174 412.753ZM24.9363 413.653C24.6221 414.032 24.3851 414.468 24.2224 414.957L25.1711 415.273C25.2976 414.893 25.4768 414.568 25.7063 414.291L24.9363 413.653ZM24.2224 414.957C24.0588 415.448 23.9808 415.973 23.9835 416.528L24.9835 416.523C24.9813 416.065 25.0455 415.65 25.1711 415.273L24.2224 414.957ZM23.9835 416.528C23.986 417.047 24.0578 417.542 24.2019 418.011L25.1579 417.718C25.0446 417.349 24.9855 416.952 24.9835 416.523L23.9835 416.528ZM24.204 418.018C24.3571 418.493 24.5837 418.92 24.8855 419.295L25.665 418.669C25.4437 418.393 25.2734 418.076 25.1557 417.711L24.204 418.018ZM24.8927 419.304C25.2096 419.681 25.5999 419.976 26.0566 420.19L26.4811 419.285C26.1494 419.129 25.8772 418.921 25.6578 418.66L24.8927 419.304ZM26.0566 420.19C26.5298 420.412 27.0627 420.513 27.6426 420.511L27.6378 419.511C27.1777 419.513 26.7963 419.432 26.4811 419.285L26.0566 420.19ZM27.6426 420.511C27.8644 420.51 28.0962 420.489 28.3372 420.452L28.1827 419.464C27.984 419.495 27.8026 419.51 27.6378 419.511L27.6426 420.511ZM28.3372 420.452C28.5788 420.414 28.8116 420.361 29.0352 420.293L28.7433 419.336C28.5675 419.39 28.3808 419.433 28.1827 419.464L28.3372 420.452ZM29.031 420.294C29.2587 420.227 29.4649 420.148 29.6424 420.054L29.1742 419.17C29.0724 419.224 28.9326 419.281 28.7476 419.335L29.031 420.294ZM29.8529 419.383L29.5501 418.795L28.6609 419.252L28.9637 419.841L29.8529 419.383ZM28.9063 418.565C28.7473 418.634 28.5624 418.697 28.3497 418.753L28.6033 419.72C28.8567 419.654 29.0911 419.575 29.3046 419.482L28.9063 418.565ZM28.3497 418.753C28.1707 418.8 27.9259 418.829 27.6045 418.831L27.6093 419.831C27.9813 419.829 28.3162 419.796 28.6033 419.72L28.3497 418.753ZM27.6045 418.831C27.3143 418.832 27.0702 418.775 26.8615 418.669L26.4103 419.562C26.7763 419.747 27.1796 419.833 27.6093 419.831L27.6045 418.831ZM26.8658 418.671C26.6518 418.561 26.4664 418.406 26.3078 418.202L25.5181 418.816C25.7621 419.13 26.0586 419.38 26.406 419.56L26.8658 418.671ZM26.3164 418.214C26.1579 417.997 26.0341 417.747 25.9476 417.458L24.9896 417.744C25.1064 418.134 25.2788 418.489 25.5096 418.804L26.3164 418.214ZM25.9476 417.458C25.8609 417.168 25.815 416.853 25.8134 416.509L24.8134 416.514C24.8155 416.944 24.8731 417.355 24.9896 417.744L25.9476 417.458ZM25.8134 416.509C25.811 416.004 25.9009 415.579 26.0686 415.223L25.1639 414.797C24.9224 415.31 24.8104 415.886 24.8134 416.514L25.8134 416.509ZM26.0659 415.229C26.2447 414.861 26.4744 414.589 26.7495 414.395L26.1732 413.578C25.744 413.88 25.4102 414.291 25.1666 414.792L26.0659 415.229ZM26.7459 414.397C27.0197 414.208 27.3236 414.112 27.6719 414.11L27.6672 413.11C27.1222 413.113 26.6206 413.268 26.1768 413.575L26.7459 414.397ZM27.6719 414.11C27.881 414.109 28.0453 414.121 28.1699 414.141L28.3296 413.154C28.134 413.122 27.9114 413.109 27.6672 413.11L27.6719 414.11ZM28.1901 414.144C28.3199 414.16 28.4315 414.185 28.5273 414.218L28.8531 413.273C28.6818 413.214 28.4998 413.174 28.3094 413.151L28.1901 414.144ZM28.5552 414.227C28.6762 414.261 28.8024 414.304 28.9338 414.357L29.308 413.43C29.1455 413.364 28.9846 413.309 28.8253 413.264L28.5552 414.227ZM29.581 414.089L29.8283 413.508L28.908 413.117L28.6608 413.698L29.581 414.089ZM36.2267 419.97L36.2291 420.47L36.2398 420.469L36.2267 419.97ZM34.5846 419.527L34.8476 419.102L34.5846 419.527ZM33.4487 418.293L33.0025 418.519L33.006 418.525L33.4487 418.293ZM33.4413 414.653L32.9963 414.425L32.9952 414.427L33.4413 414.653ZM34.5751 413.367L34.3024 412.948L34.2998 412.95L34.5751 413.367ZM36.2327 412.869L36.2304 412.369L36.2196 412.37L36.2327 412.869ZM37.8749 413.322L37.6077 413.744L37.612 413.747L37.8749 413.322ZM39.0183 418.196L38.5733 417.968L38.5711 417.973L39.0183 418.196ZM37.8844 419.482L38.1556 419.902L38.1571 419.901L37.8844 419.482ZM37.4416 418.904L37.1571 418.493L37.4416 418.904ZM38.2867 417.88L38.7391 418.093L38.7403 418.09L38.2867 417.88ZM38.2826 414.92L37.8309 415.134L37.8309 415.134L38.2826 414.92ZM37.4478 413.924L37.1652 414.336L37.1688 414.339L37.4478 413.924ZM35.0179 413.945L35.3025 414.356L35.0179 413.945ZM34.1728 414.969L34.6251 415.182L34.6251 415.182L34.1728 414.969ZM34.1769 417.919L33.7252 418.134L34.1769 417.919ZM35.0017 418.925L34.7138 419.334L34.7191 419.338L35.0017 418.925ZM36.2243 419.47C35.6966 419.472 35.2426 419.346 34.8476 419.102L34.3216 419.953C34.8894 420.304 35.5302 420.473 36.2291 420.47L36.2243 419.47ZM34.8476 419.102C34.4459 418.854 34.1277 418.511 33.8914 418.06L33.006 418.525C33.3213 419.126 33.7604 419.606 34.3216 419.953L34.8476 419.102ZM33.8948 418.067C33.6653 417.613 33.5429 417.086 33.54 416.472L32.54 416.477C32.5435 417.224 32.6936 417.908 33.0025 418.519L33.8948 418.067ZM33.54 416.472C33.537 415.861 33.6569 415.334 33.8873 414.879L32.9952 414.427C32.684 415.041 32.5364 415.729 32.54 416.477L33.54 416.472ZM33.8862 414.881C34.1268 414.411 34.4483 414.05 34.8504 413.785L34.2998 412.95C33.745 413.316 33.3105 413.812 32.9963 414.425L33.8862 414.881ZM34.8478 413.787C35.25 413.525 35.7114 413.383 36.2459 413.369L36.2196 412.37C35.5142 412.388 34.8705 412.579 34.3024 412.948L34.8478 413.787ZM36.2351 413.369C36.7607 413.367 37.2132 413.495 37.6078 413.744L38.1421 412.899C37.5738 412.54 36.9314 412.366 36.2304 412.369L36.2351 413.369ZM37.612 413.747C38.0136 413.995 38.3318 414.339 38.5682 414.789L39.4535 414.324C39.1382 413.723 38.6991 413.243 38.1379 412.896L37.612 413.747ZM38.5682 414.789C38.8016 415.233 38.9266 415.755 38.9295 416.367L39.9295 416.362C39.9259 415.613 39.7718 414.93 39.4535 414.324L38.5682 414.789ZM38.9295 416.367C38.9324 416.976 38.81 417.506 38.5733 417.968L39.4632 418.424C39.7813 417.804 39.9331 417.112 39.9295 416.362L38.9295 416.367ZM38.5711 417.973C38.3382 418.438 38.0189 418.798 37.6117 419.063L38.1571 419.901C38.7202 419.534 39.1568 419.037 39.4655 418.42L38.5711 417.973ZM37.6132 419.062C37.2194 419.316 36.7581 419.456 36.2137 419.47L36.2398 420.469C36.9486 420.451 37.5924 420.265 38.1556 419.902L37.6132 419.062ZM36.2058 419.78C36.766 419.777 37.2786 419.625 37.7262 419.315L37.1571 418.493C36.887 418.68 36.5742 418.778 36.201 418.78L36.2058 419.78ZM37.7262 419.315C38.1645 419.011 38.5008 418.599 38.7391 418.093L37.8344 417.667C37.6635 418.03 37.4364 418.299 37.1571 418.493L37.7262 419.315ZM38.7403 418.09C38.9802 417.573 39.0925 416.998 39.0896 416.376L38.0896 416.381C38.092 416.878 38.0024 417.304 37.8332 417.669L38.7403 418.09ZM39.0896 416.376C39.0866 415.768 38.9724 415.207 38.7343 414.705L37.8309 415.134C37.9968 415.484 38.0872 415.896 38.0896 416.381L39.0896 416.376ZM38.7343 414.705C38.4978 414.207 38.1633 413.802 37.7268 413.509L37.1688 414.339C37.4412 414.522 37.6633 414.781 37.8309 415.134L38.7343 414.705ZM37.7304 413.511C37.2936 413.212 36.7957 413.067 36.2537 413.069L36.2585 414.069C36.6098 414.068 36.9064 414.159 37.1652 414.336L37.7304 413.511ZM36.2537 413.069C35.6935 413.072 35.1809 413.224 34.7333 413.534L35.3025 414.356C35.5725 414.17 35.8853 414.071 36.2585 414.069L36.2537 413.069ZM34.7333 413.534C34.295 413.838 33.9587 414.251 33.7204 414.756L34.6251 415.182C34.796 414.82 35.0231 414.55 35.3025 414.356L34.7333 413.534ZM33.7204 414.756C33.4792 415.268 33.3669 415.841 33.3699 416.463L34.3699 416.458C34.3675 415.961 34.4571 415.539 34.6251 415.182L33.7204 414.756ZM33.3699 416.463C33.3728 417.072 33.487 417.632 33.7252 418.134L34.6286 417.705C34.4627 417.355 34.3722 416.943 34.3699 416.458L33.3699 416.463ZM33.7252 418.134C33.9601 418.629 34.2882 419.034 34.7138 419.334L35.2896 418.517C35.0196 418.326 34.7978 418.061 34.6286 417.705L33.7252 418.134ZM34.7191 419.338C35.1572 419.638 35.6588 419.782 36.2058 419.78L36.201 418.78C35.8414 418.781 35.5419 418.689 35.2843 418.513L34.7191 419.338ZM47.7491 419.154L48.2446 419.088L48.1863 418.652L47.7467 418.654L47.7491 419.154ZM44.5791 419.17L44.0791 419.172L44.0815 419.672L44.5815 419.67L44.5791 419.17ZM44.5495 412.99L45.0495 412.987L45.0471 412.487L44.5471 412.49L44.5495 412.99ZM43.7695 412.993L43.7671 412.493L43.2671 412.496L43.2695 412.996L43.7695 412.993ZM43.8021 419.793L43.3021 419.796L43.3045 420.296L43.8045 420.293L43.8021 419.793ZM47.832 419.774L47.8344 420.274L48.4031 420.271L48.3276 419.708L47.832 419.774ZM47.7467 418.654L44.5767 418.67L44.5815 419.67L47.7514 419.654L47.7467 418.654ZM45.0791 419.167L45.0495 412.987L44.0495 412.992L44.0791 419.172L45.0791 419.167ZM44.5471 412.49L43.7671 412.493L43.7719 413.493L44.5519 413.49L44.5471 412.49ZM43.2695 412.996L43.3021 419.796L44.3021 419.791L44.2695 412.991L43.2695 412.996ZM43.8045 420.293L47.8344 420.274L47.8296 419.274L43.7997 419.293L43.8045 420.293ZM48.3276 419.708L48.2446 419.088L47.2535 419.221L47.3364 419.84L48.3276 419.708ZM54.5312 419.882L54.5336 420.382L54.5442 420.382L54.5312 419.882ZM52.8891 419.44L53.152 419.015L52.8891 419.44ZM51.7531 418.205L51.307 418.431L51.3105 418.438L51.7531 418.205ZM51.7457 414.565L51.3007 414.337L51.2997 414.339L51.7457 414.565ZM52.8796 413.28L52.6069 412.861L52.6043 412.862L52.8796 413.28ZM54.5372 412.782L54.5348 412.282L54.5241 412.282L54.5372 412.782ZM56.1794 413.234L55.9122 413.657L55.9164 413.659L56.1794 413.234ZM57.3227 418.109L56.8778 417.881L56.8756 417.885L57.3227 418.109ZM56.1889 419.394L56.4601 419.814L56.4616 419.813L56.1889 419.394ZM55.7461 418.816L55.4615 418.405L55.7461 418.816ZM56.5912 417.792L57.0436 418.005L57.0448 418.003L56.5912 417.792ZM56.5871 414.832L56.1354 415.046L56.1354 415.046L56.5871 414.832ZM55.7523 413.836L55.4696 414.249L55.4733 414.251L55.7523 413.836ZM53.3224 413.858L53.6069 414.269L53.3224 413.858ZM52.4772 414.882L52.9296 415.095L52.9296 415.095L52.4772 414.882ZM52.4814 417.832L52.0297 418.046L52.4814 417.832ZM53.3062 418.838L53.0182 419.247L53.0236 419.25L53.3062 418.838ZM54.5288 419.382C54.0011 419.385 53.5471 419.259 53.152 419.015L52.6261 419.865C53.1939 420.216 53.8347 420.385 54.5336 420.382L54.5288 419.382ZM53.152 419.015C52.7504 418.766 52.4322 418.423 52.1958 417.973L51.3105 418.438C51.6258 419.038 52.0649 419.518 52.6261 419.865L53.152 419.015ZM52.1993 417.98C51.9697 417.526 51.8474 416.998 51.8444 416.385L50.8444 416.39C50.848 417.136 50.9981 417.821 51.307 418.431L52.1993 417.98ZM51.8444 416.385C51.8415 415.773 51.9614 415.246 52.1918 414.791L51.2997 414.339C50.9885 414.954 50.8409 415.641 50.8444 416.39L51.8444 416.385ZM52.1907 414.793C52.4313 414.324 52.7528 413.962 53.1549 413.697L52.6043 412.862C52.0494 413.228 51.615 413.724 51.3008 414.337L52.1907 414.793ZM53.1523 413.699C53.5545 413.437 54.0159 413.296 54.5504 413.282L54.5241 412.282C53.8187 412.301 53.175 412.491 52.6069 412.861L53.1523 413.699ZM54.5396 413.282C55.0652 413.279 55.5176 413.407 55.9122 413.657L56.4466 412.811C55.8783 412.452 55.2359 412.279 54.5348 412.282L54.5396 413.282ZM55.9164 413.659C56.3181 413.908 56.6363 414.251 56.8726 414.701L57.758 414.236C57.4427 413.636 57.0036 413.156 56.4424 412.809L55.9164 413.659ZM56.8726 414.701C57.1061 415.146 57.2311 415.667 57.234 416.279L58.234 416.274C58.2304 415.526 58.0763 414.842 57.758 414.236L56.8726 414.701ZM57.234 416.279C57.2369 416.888 57.1145 417.419 56.8778 417.881L57.7677 418.337C58.0858 417.716 58.2376 417.025 58.234 416.274L57.234 416.279ZM56.8756 417.885C56.6427 418.351 56.3234 418.71 55.9162 418.975L56.4616 419.813C57.0247 419.447 57.4613 418.949 57.7699 418.332L56.8756 417.885ZM55.9177 418.974C55.5239 419.228 55.0625 419.368 54.5182 419.382L54.5442 420.382C55.2531 420.363 55.8968 420.178 56.4601 419.814L55.9177 418.974ZM54.5103 419.692C55.0705 419.689 55.5831 419.537 56.0307 419.227L55.4615 418.405C55.1915 418.592 54.8787 418.69 54.5055 418.692L54.5103 419.692ZM56.0307 419.227C56.469 418.924 56.8053 418.511 57.0435 418.005L56.1389 417.579C55.968 417.942 55.7409 418.212 55.4615 418.405L56.0307 419.227ZM57.0448 418.003C57.2846 417.485 57.397 416.911 57.394 416.288L56.3941 416.293C56.3964 416.791 56.3069 417.217 56.1377 417.582L57.0448 418.003ZM57.394 416.288C57.3911 415.68 57.2769 415.12 57.0388 414.618L56.1354 415.046C56.3013 415.396 56.3917 415.808 56.3941 416.293L57.394 416.288ZM57.0388 414.618C56.8023 414.119 56.4678 413.715 56.0312 413.421L55.4733 414.251C55.7457 414.434 55.9677 414.693 56.1354 415.046L57.0388 414.618ZM56.0349 413.424C55.5981 413.124 55.1002 412.979 54.5582 412.982L54.563 413.982C54.9143 413.98 55.2108 414.071 55.4696 414.249L56.0349 413.424ZM54.5582 412.982C53.998 412.984 53.4854 413.137 53.0378 413.447L53.6069 414.269C53.877 414.082 54.1898 413.984 54.563 413.982L54.5582 412.982ZM53.0378 413.447C52.5995 413.75 52.2632 414.163 52.0249 414.669L52.9296 415.095C53.1005 414.732 53.3276 414.462 53.6069 414.269L53.0378 413.447ZM52.0249 414.669C51.7837 415.181 51.6714 415.754 51.6744 416.376L52.6744 416.371C52.672 415.873 52.7616 415.451 52.9296 415.095L52.0249 414.669ZM51.6744 416.376C51.6773 416.984 51.7915 417.544 52.0297 418.046L52.9331 417.617C52.7671 417.268 52.6767 416.856 52.6744 416.371L51.6744 416.376ZM52.0297 418.046C52.2646 418.541 52.5926 418.947 53.0183 419.247L53.5941 418.429C53.3241 418.239 53.1022 417.974 52.9331 417.617L52.0297 418.046ZM53.0236 419.25C53.4617 419.551 53.9633 419.695 54.5103 419.692L54.5055 418.692C54.1458 418.694 53.8463 418.602 53.5888 418.425L53.0236 419.25ZM64.8078 413.683L64.6594 414.16L64.671 414.164L64.8078 413.683ZM65.4097 414.08L65.8066 413.776L65.8066 413.776L65.4097 414.08ZM65.3875 415.71L65.7678 416.035L65.7731 416.028L65.3875 415.71ZM64.7395 416.133L64.8963 416.608L64.7395 416.133ZM62.8701 416.272L62.3701 416.274L62.3725 416.774L62.8725 416.772L62.8701 416.272ZM62.8572 413.572L62.8548 413.072L62.3548 413.074L62.3572 413.574L62.8572 413.572ZM62.074 412.906L62.0716 412.406L61.5716 412.408L61.574 412.908L62.074 412.906ZM62.1065 419.706L61.6065 419.708L61.6089 420.208L62.1089 420.206L62.1065 419.706ZM62.8865 419.702L62.8889 420.202L63.3889 420.2L63.3865 419.7L62.8865 419.702ZM62.8732 416.912L62.8708 416.412L62.3708 416.414L62.3732 416.914L62.8732 416.912ZM64.2031 416.896L64.1769 416.396L64.1758 416.396L64.2031 416.896ZM64.553 416.864L64.9897 416.621L64.8215 416.319L64.4799 416.369L64.553 416.864ZM66.1265 419.687L65.6898 419.93L65.8336 420.188L66.1289 420.187L66.1265 419.687ZM66.9965 419.682L66.9989 420.182L67.8587 420.178L67.4299 419.433L66.9965 419.682ZM65.252 416.651L65.0549 416.191L64.5381 416.413L64.8186 416.9L65.252 416.651ZM66.0988 415.997L65.7017 415.693L65.7007 415.694L66.0988 415.997ZM66.4434 414.865L66.9435 414.87L66.9434 414.863L66.4434 414.865ZM66.1079 413.717L65.7093 414.018L65.7127 414.023L66.1079 413.717ZM65.2049 413.091L65.0416 413.563L65.0491 413.566L65.2049 413.091ZM63.9296 414.067C64.2242 414.066 64.4651 414.1 64.6595 414.16L64.956 413.205C64.6429 413.108 64.2968 413.065 63.9248 413.067L63.9296 414.067ZM64.671 414.164C64.8307 414.209 64.9364 414.284 65.0128 414.384L65.8066 413.776C65.5878 413.49 65.2921 413.301 64.9445 413.202L64.671 414.164ZM65.0128 414.384C65.0698 414.458 65.1322 414.609 65.1336 414.901L66.1336 414.896C66.1316 414.482 66.0447 414.087 65.8066 413.776L65.0128 414.384ZM65.1336 414.901C65.1348 415.161 65.0729 415.306 65.0018 415.392L65.7731 416.028C66.0335 415.713 66.1356 415.317 66.1336 414.896L65.1336 414.901ZM65.0072 415.385C64.9066 415.503 64.7709 415.596 64.5827 415.658L64.8963 416.608C65.2405 416.494 65.5369 416.305 65.7677 416.035L65.0072 415.385ZM64.5827 415.658C64.3727 415.728 64.1325 415.766 63.8577 415.767L63.8625 416.767C64.2277 416.766 64.5737 416.714 64.8963 416.608L64.5827 415.658ZM63.8577 415.767L62.8677 415.772L62.8725 416.772L63.8625 416.767L63.8577 415.767ZM63.3701 416.27L63.3572 413.57L62.3572 413.574L62.3701 416.274L63.3701 416.27ZM62.8596 414.072L63.9296 414.067L63.9248 413.067L62.8548 413.072L62.8596 414.072ZM61.574 412.908L61.6065 419.708L62.6065 419.703L62.574 412.903L61.574 412.908ZM62.1089 420.206L62.8889 420.202L62.8841 419.202L62.1041 419.206L62.1089 420.206ZM63.3865 419.7L63.3732 416.91L62.3732 416.914L62.3865 419.704L63.3865 419.7ZM62.8756 417.412L63.8356 417.407L63.8308 416.407L62.8708 416.412L62.8756 417.412ZM63.8356 417.407C63.9585 417.407 64.0903 417.403 64.2305 417.395L64.1758 416.396C64.0494 416.403 63.9345 416.407 63.8308 416.407L63.8356 417.407ZM64.2293 417.395C64.3782 417.387 64.5117 417.376 64.626 417.359L64.4799 416.369C64.4077 416.38 64.308 416.39 64.1769 416.396L64.2293 417.395ZM64.1162 417.107L65.6898 419.93L66.5632 419.443L64.9897 416.621L64.1162 417.107ZM66.1289 420.187L66.9989 420.182L66.9941 419.182L66.1241 419.187L66.1289 420.187ZM67.4299 419.433L65.6853 416.401L64.8186 416.9L66.5631 419.932L67.4299 419.433ZM65.449 417.11C65.871 416.929 66.2238 416.659 66.4969 416.299L65.7007 415.694C65.5366 415.91 65.3249 416.075 65.0549 416.191L65.449 417.11ZM66.4959 416.3C66.8014 415.901 66.9381 415.411 66.9434 414.87L65.9434 414.86C65.9398 415.238 65.8468 415.503 65.7017 415.693L66.4959 416.3ZM66.9434 414.863C66.9408 414.309 66.8111 413.808 66.5031 413.41L65.7127 414.023C65.8475 414.197 65.9415 414.461 65.9434 414.867L66.9434 414.863ZM66.5065 413.415C66.218 413.034 65.8286 412.769 65.3608 412.616L65.0491 413.566C65.3424 413.662 65.5551 413.815 65.7094 414.018L66.5065 413.415ZM65.3682 412.618C64.9259 412.465 64.4416 412.394 63.9216 412.397L63.9264 413.397C64.353 413.395 64.7227 413.453 65.0416 413.563L65.3682 412.618ZM63.9216 412.397L62.0716 412.406L62.0764 413.406L63.9264 413.397L63.9216 412.397Z" fill="#FFFDD8"/>
<path d="M29.4271 380.958L29.3881 372.798L28.7281 372.802L28.7461 376.57L24.5822 376.589L24.5639 372.761L23.9042 372.825L23.9432 380.985L24.6032 380.981L24.5847 377.117L28.7487 377.098L28.7672 380.961L29.4271 380.958ZM37.4829 380.92L37.4438 372.76L36.7839 372.763L36.8229 380.923L37.4829 380.92ZM46.9698 377.334L44.0299 377.348L44.1284 377.876L47.0684 377.862L46.9698 377.334ZM57.0514 376.446L54.3035 376.459L54.2878 373.183L57.8157 373.166L57.7293 372.663L53.6254 372.682L53.6644 380.842L54.3244 380.839L54.3058 376.951L57.1258 376.938L57.0514 376.446ZM64.9659 380.788L64.9268 372.628L64.2668 372.631L64.3059 380.791L64.9659 380.788Z" fill="black"/>
<path d="M29.4271 380.958L29.4295 381.458L29.9295 381.456L29.9271 380.956L29.4271 380.958ZM29.3881 372.798L29.8881 372.796L29.8857 372.296L29.3857 372.298L29.3881 372.798ZM28.7281 372.802L28.7257 372.302L28.2257 372.304L28.2281 372.804L28.7281 372.802ZM28.7461 376.57L28.7485 377.07L29.2485 377.067L29.2461 376.567L28.7461 376.57ZM24.5822 376.589L24.0822 376.592L24.0846 377.092L24.5846 377.089L24.5822 376.589ZM24.5639 372.761L25.0639 372.759L25.0612 372.212L24.5162 372.264L24.5639 372.761ZM23.9042 372.825L23.8565 372.327L23.402 372.37L23.4042 372.827L23.9042 372.825ZM23.9432 380.985L23.4432 380.987L23.4456 381.487L23.9456 381.485L23.9432 380.985ZM24.6032 380.981L24.6056 381.481L25.1056 381.479L25.1032 380.979L24.6032 380.981ZM24.5847 377.117L24.5823 376.617L24.0823 376.62L24.0847 377.12L24.5847 377.117ZM28.7487 377.098L29.2487 377.095L29.2463 376.595L28.7463 376.598L28.7487 377.098ZM28.7672 380.961L28.2672 380.964L28.2696 381.464L28.7695 381.461L28.7672 380.961ZM29.9271 380.956L29.8881 372.796L28.8881 372.801L28.9272 380.961L29.9271 380.956ZM29.3857 372.298L28.7257 372.302L28.7305 373.302L29.3905 373.298L29.3857 372.298ZM28.2281 372.804L28.2461 376.572L29.2461 376.567L29.2281 372.799L28.2281 372.804ZM28.7437 376.07L24.5798 376.089L24.5846 377.089L28.7485 377.07L28.7437 376.07ZM25.0822 376.587L25.0639 372.759L24.0639 372.764L24.0822 376.592L25.0822 376.587ZM24.5162 372.264L23.8565 372.327L23.9518 373.322L24.6115 373.259L24.5162 372.264ZM23.4042 372.827L23.4432 380.987L24.4432 380.982L24.4042 372.822L23.4042 372.827ZM23.9456 381.485L24.6056 381.481L24.6008 380.481L23.9408 380.485L23.9456 381.485ZM25.1032 380.979L25.0847 377.115L24.0847 377.12L24.1032 380.984L25.1032 380.979ZM24.5871 377.617L28.7511 377.597L28.7463 376.598L24.5823 376.617L24.5871 377.617ZM28.2487 377.1L28.2672 380.964L29.2671 380.959L29.2487 377.095L28.2487 377.1ZM28.7695 381.461L29.4295 381.458L29.4248 380.458L28.7648 380.461L28.7695 381.461ZM37.4829 380.92L37.4853 381.42L37.9853 381.417L37.9829 380.917L37.4829 380.92ZM37.4438 372.76L37.9438 372.757L37.9415 372.257L37.4415 372.26L37.4438 372.76ZM36.7839 372.763L36.7815 372.263L36.2815 372.265L36.2839 372.765L36.7839 372.763ZM36.8229 380.923L36.3229 380.925L36.3253 381.425L36.8253 381.423L36.8229 380.923ZM37.9829 380.917L37.9438 372.757L36.9439 372.762L36.9829 380.922L37.9829 380.917ZM37.4415 372.26L36.7815 372.263L36.7862 373.263L37.4462 373.26L37.4415 372.26ZM36.2839 372.765L36.3229 380.925L37.3229 380.921L37.2839 372.761L36.2839 372.765ZM36.8253 381.423L37.4853 381.42L37.4805 380.42L36.8205 380.423L36.8253 381.423ZM46.9698 377.334L47.4614 377.243L47.3847 376.832L46.9675 376.834L46.9698 377.334ZM44.0299 377.348L44.0275 376.848L43.4284 376.851L43.5384 377.44L44.0299 377.348ZM44.1284 377.876L43.6369 377.968L43.7135 378.378L44.1308 378.376L44.1284 377.876ZM47.0684 377.862L47.0708 378.362L47.6699 378.359L47.5599 377.77L47.0684 377.862ZM46.9675 376.834L44.0275 376.848L44.0323 377.848L46.9722 377.834L46.9675 376.834ZM43.5384 377.44L43.6369 377.968L44.6199 377.784L44.5214 377.257L43.5384 377.44ZM44.1308 378.376L47.0708 378.362L47.066 377.362L44.126 377.376L44.1308 378.376ZM47.5599 377.77L47.4614 377.243L46.4783 377.426L46.5769 377.954L47.5599 377.77ZM57.0514 376.446L57.5458 376.371L57.4812 375.944L57.049 375.946L57.0514 376.446ZM54.3035 376.459L53.8035 376.462L53.8059 376.962L54.3059 376.959L54.3035 376.459ZM54.2878 373.183L54.2854 372.683L53.7854 372.686L53.7878 373.186L54.2878 373.183ZM57.8157 373.166L57.8181 373.666L58.4084 373.664L58.3085 373.082L57.8157 373.166ZM57.7293 372.663L58.2221 372.578L58.1505 372.161L57.7269 372.163L57.7293 372.663ZM53.6254 372.682L53.623 372.182L53.123 372.185L53.1254 372.685L53.6254 372.682ZM53.6644 380.842L53.1644 380.845L53.1668 381.345L53.6668 381.342L53.6644 380.842ZM54.3244 380.839L54.3268 381.339L54.8268 381.337L54.8244 380.837L54.3244 380.839ZM54.3058 376.951L54.3034 376.451L53.8034 376.454L53.8058 376.954L54.3058 376.951ZM57.1258 376.938L57.1282 377.438L57.7067 377.435L57.6202 376.863L57.1258 376.938ZM57.049 375.946L54.3011 375.959L54.3059 376.959L57.0538 376.946L57.049 375.946ZM54.8035 376.457L54.7878 373.181L53.7878 373.186L53.8035 376.462L54.8035 376.457ZM54.2902 373.683L57.8181 373.666L57.8134 372.666L54.2854 372.683L54.2902 373.683ZM58.3085 373.082L58.2221 372.578L57.2365 372.747L57.3229 373.251L58.3085 373.082ZM57.7269 372.163L53.623 372.182L53.6278 373.182L57.7317 373.163L57.7269 372.163ZM53.1254 372.685L53.1644 380.845L54.1644 380.84L54.1254 372.68L53.1254 372.685ZM53.6668 381.342L54.3268 381.339L54.322 380.339L53.662 380.342L53.6668 381.342ZM54.8244 380.837L54.8058 376.949L53.8058 376.954L53.8244 380.842L54.8244 380.837ZM54.3082 377.451L57.1282 377.438L57.1234 376.438L54.3034 376.451L54.3082 377.451ZM57.6202 376.863L57.5458 376.371L56.5571 376.521L56.6314 377.012L57.6202 376.863ZM64.9659 380.788L64.9683 381.288L65.4683 381.286L65.4659 380.786L64.9659 380.788ZM64.9268 372.628L65.4268 372.626L65.4244 372.126L64.9244 372.128L64.9268 372.628ZM64.2668 372.631L64.2644 372.131L63.7644 372.134L63.7668 372.634L64.2668 372.631ZM64.3059 380.791L63.8059 380.794L63.8083 381.294L64.3083 381.291L64.3059 380.791ZM65.4659 380.786L65.4268 372.626L64.4268 372.631L64.4659 380.791L65.4659 380.786ZM64.9244 372.128L64.2644 372.131L64.2692 373.131L64.9292 373.128L64.9244 372.128ZM63.7668 372.634L63.8059 380.794L64.8059 380.789L64.7668 372.629L63.7668 372.634ZM64.3083 381.291L64.9683 381.288L64.9635 380.288L64.3035 380.291L64.3083 381.291Z" fill="#FFFDD8"/>
<line x1="24.0804" y1="408.484" x2="68.0799" y2="408.274" stroke="#FFFDD8"/>
<rect x="0.369019" y="286.225" width="86.8726" height="18.635" transform="rotate(-0.328035 0.369019 286.225)" fill="#FB3DFF"/>
<rect x="0.295654" y="309.858" width="86.8726" height="18.635" transform="rotate(-0.328035 0.295654 309.858)" fill="#6F3DFF"/>
<rect x="0.0948486" y="332.857" width="86.8726" height="18.635" transform="rotate(-0.328035 0.0948486 332.857)" fill="#FF833D"/>
<path d="M85.4822 456.545L7.47842 456.643C16.1101 447.712 51.106 417.356 85.4822 456.545Z" fill="#251E1A"/>
<defs>
<filter id="filter0_d_0_1" x="-4.24731" y="0.355713" width="96.1431" height="464.368" filterUnits="userSpaceOnUse" color-interpolation-filters="sRGB">
<feFlood flood-opacity="0" result="BackgroundImageFix"/>
<feColorMatrix in="SourceAlpha" type="matrix" values="0 0 0 0 0 0 0 0 0 0 0 0 0 0 0 0 0 0 127 0" result="hardAlpha"/>
<feOffset dy="4"/>
<feGaussianBlur stdDeviation="2"/>
<feComposite in2="hardAlpha" operator="out"/>
<feColorMatrix type="matrix" values="0 0 0 0 0 0 0 0 0 0 0 0 0 0 0 0 0 0 0.25 0"/>
<feBlend mode="normal" in2="BackgroundImageFix" result="effect1_dropShadow_0_1"/>
<feBlend mode="normal" in="SourceGraphic" in2="effect1_dropShadow_0_1" result="shape"/>
</filter>
</defs>
</svg>
