<svg width="100%" height="auto" viewBox="0 0 456 83" fill="none" xmlns="http://www.w3.org/2000/svg">
<rect width="456" height="83" fill="#F5F5F5"/>
<g filter="url(#filter0_d_0_1)">
<g filter="url(#filter1_d_0_1)">
<rect x="0.913956" y="82.822" width="86" height="456" rx="4" transform="rotate(-89.75 0.913956 82.822)" fill="#B84040"/>
<rect x="1.16504" y="82.5731" width="85.5" height="455.5" rx="3.75" transform="rotate(-89.75 1.16504 82.5731)" stroke="black" stroke-width="0.5"/>
</g>
<path d="M56.8769 31.3217C55.0103 31.3136 53.6009 30.7824 52.6488 29.7283C51.6968 28.6508 51.2252 27.1204 51.2338 25.137L51.24 23.737L54.8799 23.7529L54.8726 25.4329C54.8657 27.0196 55.5272 27.8158 56.8572 27.8216C57.5105 27.8244 58.0013 27.6399 58.3296 27.268C58.6813 26.8729 58.8591 26.2437 58.8629 25.3803C58.8673 24.3537 58.6379 23.4543 58.1746 22.6823C57.7114 21.8869 56.8522 20.9382 55.597 19.836C54.0165 18.4291 52.9136 17.1643 52.2885 16.0416C51.6635 14.8955 51.3541 13.6108 51.3603 12.1875C51.3688 10.2508 51.8653 8.75963 52.8499 7.71392C53.8346 6.64487 55.2602 6.11442 57.1269 6.12257C58.9702 6.13061 60.3562 6.67333 61.2848 7.75072C62.2369 8.80489 62.7086 10.3236 62.6999 12.3069L62.6955 13.3219L59.0555 13.3061L59.061 12.0461C59.0647 11.2061 58.904 10.5987 58.579 10.2239C58.2541 9.82585 57.7766 9.62544 57.1466 9.62269C55.8633 9.61709 55.2182 10.3959 55.2114 11.9593C55.2075 12.8459 55.4372 13.6753 55.9005 14.4473C56.3872 15.2194 57.2581 16.1566 58.5133 17.2587C60.1172 18.6657 61.2199 19.9422 61.8216 21.0882C62.4233 22.2342 62.7208 23.5771 62.714 25.1171C62.7053 27.1238 62.1969 28.6616 61.1889 29.7305C60.2042 30.7996 58.7669 31.33 56.8769 31.3217ZM67.9974 10.02L63.9725 10.0025L63.9877 6.50251L75.8876 6.55443L75.8723 10.0544L71.8474 10.0368L71.7558 31.0366L67.9058 31.0198L67.9974 10.02ZM79.1202 6.56853L84.3351 6.59129L88.2182 31.1085L84.3682 31.0917L83.6894 26.2237L83.6891 26.2937L79.3142 26.2746L78.5933 31.0665L75.0233 31.0509L79.1202 6.56853ZM83.2487 22.9667L81.5865 10.8493L81.5165 10.849L79.7837 22.9516L83.2487 22.9667ZM90.1929 6.61685L100.378 6.66129L100.363 10.1613L94.0276 10.1336L93.9978 16.9585L98.9678 16.9802L98.9525 20.4802L93.9826 20.4585L93.936 31.1334L90.086 31.1166L90.1929 6.61685ZM102.224 6.66934L112.409 6.71379L112.394 10.2138L106.059 10.1861L106.029 17.011L110.999 17.0327L110.984 20.5327L106.014 20.511L105.967 31.1859L102.117 31.1691L102.224 6.66934ZM123.777 31.6136C122.377 31.6075 121.318 31.1246 120.598 30.1647C119.879 29.2049 119.524 27.815 119.532 25.995L119.543 23.4401C119.548 22.1568 119.775 21.0844 120.222 20.223C120.669 19.3616 121.395 18.7348 122.4 18.3425L122.4 18.2725C121.492 17.8952 120.818 17.2972 120.378 16.4787C119.962 15.6368 119.756 14.5626 119.762 13.2559L119.764 12.8009C119.773 10.8176 120.258 9.31472 121.219 8.29224C122.18 7.26976 123.617 6.76269 125.531 6.77104L129.941 6.79028L129.925 10.2902L125.585 10.2713C124.955 10.2686 124.464 10.4531 124.113 10.8249C123.785 11.1968 123.619 11.8027 123.615 12.6427L123.608 14.1477C123.604 15.081 123.788 15.7469 124.16 16.1451C124.555 16.5435 125.137 16.7444 125.907 16.7478L127.412 16.7543L127.424 14.0244L131.204 14.0409L131.192 16.7708L132.277 16.7756L132.262 20.2755L131.177 20.2708L131.142 28.3207C131.139 29.0207 131.159 29.5925 131.204 30.036C131.249 30.4562 131.364 30.8767 131.549 31.2975L127.699 31.2807C127.514 30.7666 127.4 30.1244 127.357 29.3542L127.287 29.3539C126.864 30.1221 126.371 30.6916 125.81 31.0625C125.271 31.4335 124.594 31.6172 123.777 31.6136ZM125.227 28.1199C126.441 28.1252 127.156 27.3933 127.372 25.9243L127.397 20.2543L125.927 20.2479C125.04 20.244 124.397 20.4862 123.999 20.9745C123.6 21.4394 123.398 22.2319 123.393 23.3519L123.382 25.8368C123.379 26.6535 123.54 27.2375 123.865 27.589C124.19 27.9404 124.644 28.1174 125.227 28.1199ZM145.377 31.7079C143.534 31.6998 142.124 31.1687 141.149 30.1144C140.197 29.0602 139.725 27.5765 139.733 25.6632L139.791 12.5033C139.799 10.59 140.284 9.11044 141.245 8.06462C142.23 7.01891 143.644 6.50007 145.487 6.50811C147.33 6.51616 148.728 7.04726 149.68 8.10142C150.656 9.15569 151.139 10.6395 151.131 12.5528L151.119 15.1428L147.479 15.1269L147.492 12.2919C147.498 10.7753 146.86 10.0141 145.577 10.0085C144.293 10.0029 143.649 10.7585 143.642 12.2751L143.582 25.96C143.576 27.4533 144.214 28.2028 145.497 28.2084C146.781 28.214 147.426 27.4701 147.432 25.9768L147.448 22.2318L151.088 22.2477L151.073 25.7127C151.065 27.626 150.569 29.1055 149.584 30.1512C148.623 31.197 147.22 31.7159 145.377 31.7079ZM158.95 31.7671C157.084 31.759 155.663 31.2277 154.687 30.1735C153.712 29.0959 153.229 27.5654 153.237 25.5821L153.319 6.89229L157.169 6.90909L157.086 25.8789C157.082 26.7189 157.243 27.3263 157.568 27.701C157.917 28.0759 158.406 28.2647 159.036 28.2674C159.666 28.2702 160.145 28.0856 160.473 27.7137C160.825 27.3419 161.002 26.736 161.006 25.896L161.089 6.92619L164.799 6.94238L164.717 25.6322C164.709 27.6155 164.212 29.1417 163.227 30.2107C162.243 31.2565 160.817 31.7752 158.95 31.7671ZM172.437 31.8259C170.571 31.8178 169.161 31.2866 168.209 30.2325C167.257 29.155 166.786 27.6246 166.794 25.6413L166.8 24.2413L170.44 24.2572L170.433 25.9371C170.426 27.5238 171.088 28.32 172.418 28.3258C173.071 28.3287 173.562 28.1442 173.89 27.7722C174.242 27.3771 174.42 26.7479 174.423 25.8846C174.428 24.8579 174.198 23.9586 173.735 23.1865C173.272 22.3912 172.413 21.4424 171.157 20.3403C169.577 18.9333 168.474 17.6685 167.849 16.5458C167.224 15.3997 166.915 14.115 166.921 12.6917C166.929 10.755 167.426 9.26387 168.41 8.21815C169.395 7.1491 170.821 6.61865 172.687 6.6268C174.531 6.63484 175.917 7.17756 176.845 8.25496C177.797 9.30912 178.269 10.8279 178.26 12.8112L178.256 13.8262L174.616 13.8103L174.621 12.5503C174.625 11.7103 174.464 11.1029 174.139 10.7282C173.814 10.3301 173.337 10.1297 172.707 10.1269C171.424 10.1213 170.779 10.9002 170.772 12.4635C170.768 13.3502 170.998 14.1795 171.461 14.9515C171.948 15.7237 172.819 16.6608 174.074 17.763C175.678 19.17 176.78 20.4465 177.382 21.5924C177.984 22.7384 178.281 24.0814 178.274 25.6214C178.266 27.628 177.757 29.1658 176.749 30.2347C175.765 31.3038 174.327 31.8342 172.437 31.8259ZM183.558 10.5243L179.533 10.5067L179.548 7.00674L191.448 7.05866L191.433 10.5586L187.408 10.5411L187.316 31.5409L183.466 31.5241L183.558 10.5243ZM198.632 31.9402C196.742 31.932 195.298 31.389 194.299 30.3113C193.3 29.2336 192.805 27.7148 192.814 25.7548L192.87 12.8749C192.879 10.9149 193.387 9.40048 194.395 8.33153C195.403 7.26259 196.852 6.73224 198.742 6.74048C200.632 6.74873 202.076 7.2917 203.075 8.3694C204.073 9.44711 204.568 10.9659 204.56 12.9259L204.504 25.8058C204.495 27.7658 203.987 29.2803 202.979 30.3492C201.971 31.4181 200.522 31.9485 198.632 31.9402ZM198.647 28.4403C199.977 28.4461 200.646 27.644 200.653 26.034L200.711 12.6641C200.718 11.0541 200.057 10.2463 198.727 10.2404C197.397 10.2346 196.728 11.0367 196.721 12.6467L196.663 26.0166C196.656 27.6266 197.317 28.4345 198.647 28.4403ZM207.189 7.12734L212.684 7.15132L215.057 24.6968L215.127 24.6971L217.654 7.17301L223.149 7.19698L223.042 31.6967L219.402 31.6809L219.483 13.131L219.413 13.1307L216.532 31.6683L213.312 31.6543L210.593 13.0923L210.523 13.0919L210.442 31.6418L207.082 31.6271L207.189 7.12734ZM226.022 7.20952L236.522 7.25533L236.506 10.7553L229.856 10.7263L229.828 17.2012L235.113 17.2243L235.098 20.7242L229.813 20.7012L229.78 28.2261L236.43 28.2551L236.415 31.7551L225.915 31.7093L226.022 7.20952ZM238.736 7.265L244.441 7.28989C246.425 7.29854 247.869 7.77152 248.775 8.70881C249.681 9.62277 250.13 11.0364 250.122 12.9497L250.115 14.4547C250.104 16.998 249.257 18.6043 247.574 19.2737L247.574 19.3437C248.506 19.6277 249.157 20.2023 249.526 21.0672C249.919 21.9323 250.112 23.0881 250.106 24.5348L250.087 28.8397C250.084 29.5397 250.105 30.1115 250.15 30.555C250.195 30.9752 250.31 31.3957 250.494 31.8165L246.574 31.7994C246.436 31.4022 246.344 31.0284 246.299 30.6782C246.254 30.328 246.234 29.6979 246.238 28.7879L246.257 24.308C246.262 23.188 246.079 22.4055 245.707 21.9606C245.359 21.5157 244.742 21.2913 243.855 21.2875L242.525 21.2817L242.479 31.7816L238.63 31.7648L238.736 7.265ZM243.941 17.7878C244.711 17.7912 245.283 17.5953 245.658 17.2003C246.057 16.8054 246.258 16.1412 246.262 15.2079L246.27 13.3179C246.274 12.4313 246.113 11.7889 245.788 11.3908C245.487 10.9928 244.998 10.7924 244.321 10.7894L242.571 10.7818L242.541 17.7817L243.941 17.7878ZM52.6738 35.4534L58.7238 35.4798L58.5558 73.9794L52.5059 73.953L52.6738 35.4534ZM63.2548 35.4996L70.8447 35.5327L76.6291 58.6032L76.7391 58.6036L76.8397 35.5589L82.2296 35.5824L82.0616 74.082L75.8467 74.0549L68.7094 45.9185L68.5994 45.918L68.4768 74.0227L63.0868 73.9992L63.2548 35.4996ZM91.4322 41.1226L85.1073 41.095L85.1313 35.595L103.831 35.6766L103.807 41.1766L97.4822 41.149L97.3382 74.1487L91.2882 74.1223L91.4322 41.1226ZM106.76 35.6894L123.26 35.7614L123.236 41.2614L112.786 41.2158L112.742 51.3907L121.047 51.4269L121.023 56.9268L112.718 56.8906L112.666 68.7155L123.116 68.7611L123.092 74.261L106.592 74.189L106.76 35.6894ZM126.741 35.7766L135.705 35.8157C138.822 35.8293 141.092 36.5726 142.516 38.0454C143.94 39.4817 144.645 41.7031 144.632 44.7097L144.621 47.0747C144.604 51.0714 143.273 53.5956 140.628 54.6474L140.628 54.7574C142.093 55.2038 143.115 56.1066 143.696 57.4658C144.313 58.8252 144.617 60.6415 144.607 62.9148L144.578 69.6797C144.573 70.7797 144.606 71.6782 144.676 72.3752C144.746 73.0355 144.927 73.6963 145.217 74.3576L139.057 74.3307C138.84 73.7064 138.696 73.1191 138.625 72.5688C138.554 72.0185 138.522 71.0283 138.528 69.5983L138.559 62.5584C138.566 60.7984 138.278 59.5688 137.695 58.8696C137.148 58.1706 136.178 57.818 134.784 57.8119L132.694 57.8028L132.622 74.3026L126.573 74.2762L126.741 35.7766ZM134.918 52.3124C136.128 52.3177 137.028 52.01 137.618 51.3892C138.244 50.7686 138.56 49.725 138.566 48.2583L138.579 45.2883C138.585 43.895 138.333 42.8856 137.822 42.26C137.348 41.6346 136.58 41.3196 135.516 41.3149L132.766 41.3029L132.718 52.3028L134.918 52.3124ZM147.113 35.8655L153.218 35.8921L157.048 65.7741L157.158 65.7746L161.248 35.9272L166.803 35.9514L160.805 74.4256L152.775 74.3906L147.113 35.8655ZM169.709 35.9641L175.759 35.9905L175.591 74.4901L169.541 74.4637L169.709 35.9641ZM180.29 36.0102L196.79 36.0822L196.766 41.5822L186.316 41.5366L186.271 51.7115L194.576 51.7477L194.552 57.2477L186.247 57.2114L186.196 69.0363L196.646 69.0819L196.622 74.5819L180.122 74.5099L180.29 36.0102ZM198.84 36.0912L204.67 36.1166L207.236 65.7181L207.346 65.7186L210.335 36.1413L216.935 36.1701L219.666 65.7723L219.776 65.7728L222.6 36.1949L227.825 36.2177L223.752 74.7003L216.217 74.6674L213.58 48.6956L213.47 48.6951L210.607 74.6429L202.577 74.6079L198.84 36.0912ZM238.58 75.315C235.646 75.3022 233.432 74.4675 231.935 72.8109C230.439 71.1177 229.698 68.7128 229.712 65.5962L229.721 63.3962L235.441 63.4212L235.43 66.0611C235.419 68.5544 236.459 69.8057 238.549 69.8148C239.575 69.8193 240.347 69.5293 240.862 68.9449C241.415 68.3239 241.694 67.3351 241.7 65.9785C241.707 64.3652 241.347 62.9519 240.619 61.7387C239.891 60.4889 238.541 58.998 236.568 57.266C234.085 55.0552 232.352 53.0676 231.369 51.3033C230.387 49.5023 229.901 47.4835 229.911 45.2468C229.924 42.2035 230.704 39.8603 232.251 38.217C233.799 36.5371 236.039 35.7035 238.972 35.7163C241.869 35.7289 244.047 36.5818 245.506 38.2748C247.002 39.9314 247.744 42.318 247.73 45.4346L247.723 47.0296L242.003 47.0046L242.012 45.0246C242.018 43.7047 241.765 42.7502 241.254 42.1613C240.744 41.5357 239.993 41.2208 239.003 41.2165C236.987 41.2077 235.973 42.4316 235.962 44.8882C235.956 46.2816 236.317 47.5848 237.045 48.798C237.81 50.0114 239.179 51.484 241.151 53.216C243.671 55.427 245.404 57.4329 246.35 59.2337C247.295 61.0345 247.763 63.1449 247.752 65.5649C247.738 68.7182 246.94 71.1347 245.356 72.8145C243.808 74.4944 241.55 75.3279 238.58 75.315Z" fill="black"/>
<path d="M273.871 17.712L276.646 17.7241L278.387 31.3068L278.437 31.3071L280.296 17.74L282.821 17.7511L280.095 35.2393L276.445 35.2234L273.871 17.712ZM288.039 35.524C286.689 35.5181 285.658 35.1303 284.944 34.3605C284.231 33.5907 283.877 32.5058 283.884 31.1058L283.924 21.9059C283.93 20.5059 284.293 19.4242 285.013 18.6606C285.733 17.8971 286.768 17.5183 288.118 17.5242C289.468 17.5301 290.499 17.9179 291.213 18.6877C291.926 19.4575 292.28 20.5424 292.274 21.9423L292.233 31.1423C292.227 32.5422 291.864 33.624 291.144 34.3875C290.424 35.1511 289.389 35.5299 288.039 35.524ZM288.05 33.024C289 33.0282 289.478 32.4552 289.483 31.3052L289.524 21.7553C289.529 20.6054 289.057 20.0283 288.107 20.0241C287.157 20.02 286.679 20.5929 286.674 21.7429L286.633 31.2928C286.628 32.4428 287.1 33.0199 288.05 33.024ZM294.151 17.8005L296.901 17.8125L296.836 32.8123L301.361 32.8321L301.35 35.3321L294.075 35.3003L294.151 17.8005ZM306.668 35.6053C305.334 35.5995 304.319 35.22 303.623 34.467C302.926 33.6973 302.581 32.6041 302.587 31.1874L302.645 17.8376L305.395 17.8496L305.336 31.3994C305.333 31.9994 305.448 32.4333 305.68 32.7009C305.929 32.9687 306.279 33.1036 306.729 33.1055C307.179 33.1075 307.521 32.9756 307.755 32.71C308.006 32.4444 308.133 32.0116 308.136 31.4116L308.195 17.8618L310.845 17.8733L310.787 31.2232C310.781 32.6399 310.426 33.73 309.722 34.4936C309.019 35.2405 308.001 35.6111 306.668 35.6053ZM312.804 17.8819L316.729 17.899L318.424 30.4315L318.474 30.4317L320.279 17.9145L324.203 17.9316L324.127 35.4315L321.527 35.4201L321.585 22.1702L321.535 22.17L319.477 35.4112L317.177 35.4011L315.235 22.1425L315.185 22.1423L315.127 35.3922L312.727 35.3817L312.804 17.8819ZM326.256 17.9406L333.756 17.9733L333.745 20.4733L328.995 20.4525L328.975 25.0775L332.749 25.094L332.739 27.594L328.964 27.5775L328.94 32.9524L333.69 32.9732L333.679 35.4731L326.179 35.4404L326.256 17.9406ZM338.884 35.7458C337.551 35.74 336.544 35.3606 335.864 34.6077C335.184 33.838 334.847 32.7449 334.853 31.3282L334.858 30.3282L337.457 30.3396L337.452 31.5396C337.447 32.6729 337.92 33.2416 338.87 33.2458C339.336 33.2478 339.687 33.116 339.922 32.8503C340.173 32.5681 340.3 32.1187 340.302 31.502C340.306 30.7687 340.142 30.1263 339.811 29.5748C339.48 29.0067 338.866 28.329 337.97 27.5418C336.841 26.5368 336.053 25.6334 335.607 24.8314C335.16 24.0128 334.939 23.0952 334.944 22.0785C334.95 20.6952 335.304 19.6301 336.007 18.8831C336.711 18.1195 337.729 17.7406 339.062 17.7465C340.379 17.7522 341.369 18.1399 342.032 18.9094C342.712 19.6624 343.049 20.7472 343.043 22.1639L343.04 22.8889L340.44 22.8775L340.444 21.9775C340.447 21.3775 340.332 20.9437 340.1 20.676C339.868 20.3917 339.527 20.2485 339.077 20.2465C338.16 20.2425 337.699 20.7989 337.694 21.9155C337.691 22.5488 337.856 23.1412 338.186 23.6927C338.534 24.2442 339.156 24.9136 340.053 25.7008C341.198 26.7059 341.986 27.6176 342.416 28.4362C342.846 29.2547 343.058 30.214 343.053 31.314C343.047 32.7473 342.684 33.8457 341.964 34.6093C341.261 35.3729 340.234 35.7517 338.884 35.7458ZM294.959 51.9543L292.084 51.9418L292.093 49.9918C292.876 49.9952 293.501 49.9313 293.969 49.8C294.453 49.6688 294.837 49.4538 295.122 49.155C295.406 48.8396 295.658 48.3907 295.877 47.8083L297.727 47.8164L297.651 65.3162L294.901 65.3042L294.959 51.9543ZM300.704 55.3294L306.204 55.3534L306.193 57.8534L300.694 57.8294L300.704 55.3294ZM311.698 65.6275C310.348 65.6216 309.325 65.2421 308.628 64.4891C307.948 63.7361 307.611 62.6596 307.617 61.2597L307.623 59.8347L310.223 59.846L310.216 61.396C310.211 62.546 310.684 63.1231 311.634 63.1272C312.1 63.1292 312.451 62.9891 312.686 62.7068C312.937 62.4079 313.064 61.8918 313.067 61.1584L313.074 59.7335C313.077 58.9335 312.938 58.3662 312.656 58.0316C312.374 57.6804 311.917 57.5034 311.283 57.5006L310.358 57.4966L310.369 54.9966L311.369 55.001C311.919 55.0034 312.328 54.8635 312.596 54.5813C312.881 54.2992 313.024 53.8248 313.027 53.1582L313.033 51.8832C313.035 51.2832 312.912 50.841 312.664 50.5566C312.415 50.2722 312.082 50.129 311.666 50.1272C310.782 50.1234 310.338 50.6631 310.333 51.7464L310.328 52.8964L307.728 52.8851L307.732 51.9601C307.739 50.5601 308.085 49.4866 308.772 48.7396C309.475 47.9926 310.476 47.622 311.776 47.6277C313.093 47.6334 314.091 48.0128 314.771 48.7658C315.452 49.5021 315.789 50.5702 315.783 51.9702L315.78 52.5952C315.776 53.5452 315.614 54.3112 315.295 54.8931C314.976 55.4584 314.482 55.8646 313.814 56.1117L313.814 56.1617C314.53 56.4314 315.044 56.867 315.359 57.4684C315.673 58.0698 315.828 58.8371 315.823 59.7705L315.817 61.3204C315.811 62.7204 315.456 63.7939 314.753 64.5408C314.066 65.2712 313.048 65.6334 311.698 65.6275ZM321.833 65.6717C320.499 65.6659 319.484 65.2865 318.788 64.5334C318.091 63.7637 317.746 62.6705 317.752 61.2539L317.758 59.8789L320.358 59.8902L320.351 61.4652C320.346 62.5985 320.818 63.1673 321.768 63.1714C322.718 63.1756 323.196 62.611 323.201 61.4777L323.218 57.5527C323.223 56.4027 322.751 55.8256 321.801 55.8215C320.851 55.8173 320.373 56.3903 320.368 57.5403L320.367 57.6903L317.767 57.6789L318.31 47.9062L325.56 47.9378L325.549 50.4378L320.749 50.4169L320.506 54.5908L320.556 54.5911C321.076 53.7433 321.87 53.3218 322.936 53.3264C323.936 53.3308 324.693 53.6758 325.207 54.3613C325.721 55.0469 325.975 56.0397 325.969 57.3397L325.952 61.2897C325.946 62.7063 325.591 63.7964 324.887 64.56C324.184 65.307 323.166 65.6775 321.833 65.6717Z" fill="black"/>
<path d="M427.892 59.8026L428.145 61.3637L441.648 56.2025L441.655 54.6826L428.077 49.5833L428.07 51.1232L439.571 55.4335L427.892 59.8026ZM441.727 38.0352L428.127 37.9759L428.12 39.5559L434.24 39.5826L434.212 45.9825L427.993 45.9554L428.086 47.5158L441.686 47.5751L441.692 46.0151L435.472 45.988L435.5 39.5881L441.72 39.6152L441.727 38.0352ZM441.08 35.0906C441.201 34.9045 441.322 34.665 441.443 34.3722C441.551 34.0794 441.646 33.7531 441.727 33.3935C441.809 33.0338 441.877 32.6808 441.932 32.3343C441.987 31.9746 442.015 31.6547 442.016 31.3747C442.021 30.348 441.871 29.4807 441.568 28.7727C441.264 28.0514 440.846 27.5029 440.315 27.1272C439.783 26.7382 439.171 26.5422 438.477 26.5392C437.984 26.5371 437.55 26.6152 437.176 26.7735C436.789 26.9318 436.441 27.1637 436.133 27.469C435.825 27.7743 435.537 28.1464 435.268 28.5852C435 29.0241 434.738 29.5363 434.482 30.1218C434.092 30.9068 433.749 31.572 433.453 32.1173C433.144 32.6627 432.815 33.0746 432.468 33.353C432.12 33.6182 431.706 33.7497 431.226 33.7476C430.586 33.7448 430.087 33.476 429.729 32.9411C429.372 32.3929 429.195 31.6921 429.198 30.8388C429.2 30.3854 429.242 29.9923 429.324 29.6593C429.392 29.3129 429.48 29.0066 429.588 28.7404C429.696 28.4609 429.803 28.208 429.911 27.9818L428.693 27.4365C428.478 27.8623 428.283 28.3814 428.107 28.994C427.931 29.6066 427.841 30.2462 427.838 30.9128C427.834 31.8062 427.984 32.5801 428.288 33.2348C428.592 33.8761 428.996 34.3779 429.501 34.7401C430.007 35.089 430.586 35.2649 431.239 35.2677C431.706 35.2697 432.133 35.1983 432.52 35.0533C432.907 34.895 433.268 34.6699 433.603 34.378C433.924 34.0727 434.226 33.7007 434.508 33.262C434.777 32.8098 435.046 32.291 435.315 31.7055C435.638 30.9202 435.954 30.2616 436.263 29.7296C436.559 29.1975 436.881 28.7989 437.229 28.5338C437.577 28.2553 437.997 28.1171 438.49 28.1193C438.904 28.1211 439.283 28.2494 439.629 28.5043C439.961 28.7457 440.219 29.1068 440.404 29.5876C440.589 30.0685 440.679 30.6689 440.676 31.3888C440.674 31.8022 440.633 32.222 440.551 32.6483C440.456 33.0746 440.34 33.4674 440.206 33.8268C440.071 34.1729 439.949 34.4724 439.842 34.7252L441.08 35.0906Z" fill="black"/>
<path d="M427.892 59.8026L427.542 58.8659L426.774 59.1532L426.905 59.9626L427.892 59.8026ZM428.145 61.3637L427.158 61.5238L427.355 62.7364L428.502 62.2978L428.145 61.3637ZM441.648 56.2025L442.005 57.1366L442.645 56.892L442.648 56.2069L441.648 56.2025ZM441.655 54.6826L442.655 54.6869L442.658 53.9911L442.006 53.7464L441.655 54.6826ZM428.077 49.5833L428.428 48.6471L427.083 48.1419L427.077 49.5789L428.077 49.5833ZM428.07 51.1232L427.07 51.1189L427.067 51.8153L427.719 52.0597L428.07 51.1232ZM439.571 55.4335L439.922 56.3701L442.423 55.4343L439.922 54.4971L439.571 55.4335ZM426.905 59.9626L427.158 61.5238L429.132 61.2036L428.879 59.6425L426.905 59.9626ZM428.502 62.2978L442.005 57.1366L441.291 55.2685L427.788 60.4296L428.502 62.2978ZM442.648 56.2069L442.655 54.6869L440.655 54.6782L440.648 56.1982L442.648 56.2069ZM442.006 53.7464L428.428 48.6471L427.725 50.5194L441.303 55.6187L442.006 53.7464ZM427.077 49.5789L427.07 51.1189L429.07 51.1276L429.077 49.5876L427.077 49.5789ZM427.719 52.0597L439.22 56.3699L439.922 54.4971L428.421 50.1868L427.719 52.0597ZM439.221 54.4969L427.542 58.8659L428.242 60.7392L439.922 56.3701L439.221 54.4969ZM441.727 38.0352L442.727 38.0396L442.732 37.0396L441.732 37.0352L441.727 38.0352ZM428.127 37.9759L428.132 36.9759L427.132 36.9715L427.127 37.9715L428.127 37.9759ZM428.12 39.5559L427.12 39.5515L427.116 40.5515L428.116 40.5558L428.12 39.5559ZM434.24 39.5826L435.24 39.5869L435.245 38.5869L434.245 38.5826L434.24 39.5826ZM434.212 45.9825L434.208 46.9825L435.208 46.9869L435.212 45.9869L434.212 45.9825ZM427.993 45.9554L427.997 44.9554L426.931 44.9507L426.994 46.015L427.993 45.9554ZM428.086 47.5158L427.087 47.5754L427.143 48.5117L428.081 48.5158L428.086 47.5158ZM441.686 47.5751L441.681 48.5751L442.681 48.5795L442.686 47.5795L441.686 47.5751ZM441.692 46.0151L442.692 46.0195L442.697 45.0195L441.697 45.0151L441.692 46.0151ZM435.472 45.988L434.472 45.9836L434.468 46.9836L435.468 46.988L435.472 45.988ZM435.5 39.5881L435.505 38.5881L434.505 38.5837L434.5 39.5837L435.5 39.5881ZM441.72 39.6152L441.716 40.6152L442.716 40.6196L442.72 39.6196L441.72 39.6152ZM441.732 37.0352L428.132 36.9759L428.123 38.9759L441.723 39.0352L441.732 37.0352ZM427.127 37.9715L427.12 39.5515L429.12 39.5602L429.127 37.9802L427.127 37.9715ZM428.116 40.5558L434.236 40.5826L434.245 38.5826L428.125 38.5559L428.116 40.5558ZM433.24 39.5782L433.212 45.9781L435.212 45.9869L435.24 39.5869L433.24 39.5782ZM434.217 44.9825L427.997 44.9554L427.988 46.9554L434.208 46.9825L434.217 44.9825ZM426.994 46.015L427.087 47.5754L429.084 47.4562L428.991 45.8957L426.994 46.015ZM428.081 48.5158L441.681 48.5751L441.69 46.5751L428.09 46.5158L428.081 48.5158ZM442.686 47.5795L442.692 46.0195L440.692 46.0108L440.686 47.5708L442.686 47.5795ZM441.697 45.0151L435.477 44.988L435.468 46.988L441.688 47.0151L441.697 45.0151ZM436.472 45.9924L436.5 39.5924L434.5 39.5837L434.472 45.9836L436.472 45.9924ZM435.496 40.5881L441.716 40.6152L441.725 38.6152L435.505 38.5881L435.496 40.5881ZM442.72 39.6196L442.727 38.0396L440.727 38.0309L440.72 39.6108L442.72 39.6196ZM441.08 35.0906L440.797 36.0498L441.513 36.2609L441.919 35.6351L441.08 35.0906ZM441.443 34.3722L442.367 34.7549L442.375 34.7366L442.381 34.7181L441.443 34.3722ZM441.727 33.3935L440.752 33.1723L440.752 33.1723L441.727 33.3935ZM441.932 32.3343L442.92 32.4907L442.921 32.4852L441.932 32.3343ZM441.568 28.7727L440.646 29.1606L440.649 29.1668L441.568 28.7727ZM440.315 27.1272L439.724 27.9343L439.731 27.9392L439.738 27.944L440.315 27.1272ZM437.176 26.7735L437.555 27.6993L437.566 27.6944L437.176 26.7735ZM434.482 30.1218L435.377 30.5668L435.388 30.5448L435.398 30.5222L434.482 30.1218ZM433.453 32.1173L434.323 32.6104L434.328 32.6022L434.332 32.594L433.453 32.1173ZM432.468 33.353L433.074 34.1483L433.083 34.1411L433.092 34.1337L432.468 33.353ZM429.729 32.9411L428.892 33.4875L428.898 33.4969L429.729 32.9411ZM429.324 29.6593L430.295 29.8969L430.3 29.8748L430.305 29.8524L429.324 29.6593ZM429.588 28.7404L430.515 29.1159L430.518 29.1082L430.521 29.1005L429.588 28.7404ZM429.911 27.9818L430.814 28.4116L431.254 27.4875L430.32 27.0692L429.911 27.9818ZM428.693 27.4365L429.102 26.5239L428.231 26.1339L427.801 26.9854L428.693 27.4365ZM428.288 33.2348L427.381 33.6558L427.384 33.663L428.288 33.2348ZM429.501 34.7401L428.919 35.5528L428.926 35.5579L428.933 35.563L429.501 34.7401ZM432.52 35.0533L432.871 35.9898L432.885 35.9846L432.898 35.979L432.52 35.0533ZM433.603 34.378L434.26 35.1316L434.276 35.1176L434.292 35.103L433.603 34.378ZM434.508 33.262L435.349 33.8025L435.359 33.7878L435.368 33.7727L434.508 33.262ZM435.315 31.7055L436.223 32.1232L436.232 32.1049L436.239 32.0863L435.315 31.7055ZM436.263 29.7296L437.128 30.2318L437.133 30.2236L437.138 30.2153L436.263 29.7296ZM437.229 28.5338L437.835 29.3291L437.844 29.3219L437.854 29.3145L437.229 28.5338ZM439.629 28.5043L439.035 29.3091L439.041 29.3132L439.629 28.5043ZM440.404 29.5876L441.338 29.2293L441.338 29.2293L440.404 29.5876ZM440.551 32.6483L441.527 32.8663L441.53 32.8516L441.533 32.8369L440.551 32.6483ZM440.206 33.8268L441.137 34.1899L441.142 34.1782L440.206 33.8268ZM439.842 34.7252L438.922 34.3332L438.481 35.3665L439.559 35.6844L439.842 34.7252ZM441.919 35.6351C442.084 35.3811 442.231 35.0823 442.367 34.7549L440.519 33.9896C440.412 34.2477 440.318 34.4279 440.241 34.5462L441.919 35.6351ZM442.381 34.7181C442.507 34.378 442.613 34.0092 442.703 33.6146L440.752 33.1723C440.679 33.497 440.595 33.7807 440.505 34.0264L442.381 34.7181ZM442.703 33.6146C442.789 33.2346 442.861 32.86 442.92 32.4907L440.944 32.178C440.893 32.5016 440.829 32.833 440.752 33.1723L442.703 33.6146ZM442.921 32.4852C442.981 32.0905 443.015 31.7201 443.016 31.3791L441.016 31.3703C441.015 31.5893 440.993 31.8587 440.944 32.1835L442.921 32.4852ZM443.016 31.3791C443.021 30.2586 442.859 29.2469 442.487 28.3786L440.649 29.1668C440.883 29.7145 441.02 30.4374 441.016 31.3703L443.016 31.3791ZM442.489 28.3849C442.128 27.5263 441.605 26.8141 440.892 26.3105L439.738 27.944C440.088 28.1916 440.4 28.5765 440.646 29.1606L442.489 28.3849ZM440.905 26.3202C440.194 25.7999 439.374 25.5431 438.482 25.5392L438.473 27.5392C438.967 27.5414 439.372 27.6766 439.724 27.9343L440.905 26.3202ZM438.482 25.5392C437.881 25.5366 437.309 25.6315 436.786 25.8527L437.566 27.6944C437.792 27.5989 438.087 27.5375 438.473 27.5392L438.482 25.5392ZM436.798 25.8479C436.285 26.0577 435.827 26.3644 435.429 26.7588L436.837 28.1792C437.055 27.9629 437.293 27.806 437.555 27.6992L436.798 25.8479ZM435.429 26.7588C435.055 27.13 434.718 27.5682 434.415 28.0632L436.121 29.1073C436.356 28.7246 436.596 28.4187 436.837 28.1792L435.429 26.7588ZM434.415 28.0632C434.118 28.5491 433.835 29.1035 433.565 29.7214L435.398 30.5222C435.64 29.969 435.882 29.4991 436.121 29.1073L434.415 28.0632ZM433.586 29.6768C433.199 30.4551 432.862 31.109 432.574 31.6407L434.332 32.594C434.635 32.0349 434.984 31.3585 435.377 30.5668L433.586 29.6768ZM432.583 31.6243C432.313 32.1007 432.06 32.3986 431.843 32.5724L433.092 34.1337C433.571 33.7506 433.975 33.2247 434.323 32.6104L432.583 31.6243ZM431.861 32.5578C431.706 32.676 431.512 32.7489 431.23 32.7476L431.221 34.7476C431.899 34.7506 432.533 34.5604 433.074 34.1483L431.861 32.5578ZM431.23 32.7476C430.925 32.7463 430.735 32.6457 430.561 32.3852L428.898 33.4969C429.439 34.3063 430.247 34.7434 431.221 34.7476L431.23 32.7476ZM430.567 32.3948C430.344 32.0533 430.195 31.5595 430.198 30.8431L428.199 30.8344C428.194 31.8247 428.399 32.7325 428.892 33.4874L430.567 32.3948ZM430.198 30.8431C430.2 30.4448 430.237 30.1336 430.295 29.8969L428.352 29.4217C428.247 29.851 428.201 30.326 428.199 30.8344L430.198 30.8431ZM430.305 29.8524C430.363 29.5548 430.435 29.3116 430.515 29.1159L428.661 28.365C428.524 28.7017 428.42 29.071 428.342 29.4662L430.305 29.8524ZM430.521 29.1005C430.621 28.8402 430.719 28.611 430.814 28.4116L429.008 27.5521C428.888 27.805 428.77 28.0817 428.655 28.3804L430.521 29.1005ZM430.32 27.0692L429.102 26.5239L428.285 28.3492L429.502 28.8945L430.32 27.0692ZM427.801 26.9854C427.55 27.4822 427.333 28.0636 427.145 28.7178L429.068 29.2701C429.232 28.6992 429.407 28.2423 429.586 27.8876L427.801 26.9854ZM427.145 28.7178C426.943 29.4228 426.841 30.1541 426.838 30.9085L428.838 30.9172C428.841 30.3382 428.918 29.7903 429.068 29.2701L427.145 28.7178ZM426.838 30.9085C426.834 31.9146 427.002 32.8401 427.381 33.6558L429.195 32.8139C428.966 32.3202 428.835 31.6977 428.838 30.9172L426.838 30.9085ZM427.384 33.663C427.75 34.4356 428.257 35.0784 428.919 35.5528L430.084 33.9275C429.736 33.6774 429.433 33.3167 429.192 32.8066L427.384 33.663ZM428.933 35.563C429.615 36.0339 430.394 36.264 431.235 36.2677L431.244 34.2677C430.778 34.2657 430.398 34.1441 430.07 33.9173L428.933 35.563ZM431.235 36.2677C431.807 36.2702 432.356 36.1824 432.871 35.9898L432.17 34.1168C431.909 34.2142 431.604 34.2693 431.244 34.2677L431.235 36.2677ZM432.898 35.979C433.394 35.7766 433.848 35.4914 434.26 35.1316L432.946 33.6244C432.689 33.8484 432.421 34.0134 432.142 34.1276L432.898 35.979ZM434.292 35.103C434.68 34.7339 435.031 34.2971 435.349 33.8025L433.667 32.7214C433.421 33.1043 433.168 33.4116 432.914 33.653L434.292 35.103ZM435.368 33.7727C435.658 33.2846 435.943 32.7338 436.223 32.1232L434.406 31.2877C434.149 31.8481 433.896 32.3349 433.648 32.7512L435.368 33.7727ZM436.239 32.0863C436.552 31.3283 436.849 30.7132 437.128 30.2318L435.399 29.2273C435.06 29.8099 434.725 30.512 434.39 31.3246L436.239 32.0863ZM437.138 30.2153C437.391 29.7597 437.631 29.4847 437.835 29.3291L436.622 27.7385C436.131 28.1132 435.727 28.6353 435.389 29.2438L437.138 30.2153ZM437.854 29.3145C438.004 29.1943 438.195 29.118 438.486 29.1193L438.495 27.1193C437.799 27.1163 437.149 27.3162 436.604 27.7531L437.854 29.3145ZM438.486 29.1193C438.679 29.1201 438.853 29.1749 439.035 29.3091L440.222 27.6994C439.713 27.3239 439.129 27.1221 438.495 27.1193L438.486 29.1193ZM439.041 29.3132C439.181 29.4153 439.338 29.5999 439.47 29.946L441.338 29.2293C441.101 28.6137 440.741 28.0761 440.217 27.6953L439.041 29.3132ZM439.47 29.946C439.597 30.2749 439.679 30.7428 439.676 31.3845L441.676 31.3932C441.68 30.595 441.581 29.862 441.338 29.2293L439.47 29.946ZM439.676 31.3845C439.675 31.733 439.639 32.0911 439.569 32.4597L441.533 32.8369C441.626 32.3529 441.674 31.8714 441.676 31.3932L439.676 31.3845ZM439.575 32.4304C439.488 32.8173 439.386 33.1649 439.269 33.4754L441.142 34.1782C441.295 33.7699 441.423 33.3318 441.527 32.8663L439.575 32.4304ZM439.274 33.4638C439.142 33.8032 439.024 34.0926 438.922 34.3332L440.762 35.1173C440.875 34.8522 441 34.5426 441.137 34.1899L439.274 33.4638ZM439.559 35.6844L440.797 36.0498L441.363 34.1315L440.125 33.7661L439.559 35.6844Z" fill="black"/>
</g>
<defs>
<filter id="filter0_d_0_1" x="-3.06863" y="-3.15977" width="464.336" height="95.954" filterUnits="userSpaceOnUse" color-interpolation-filters="sRGB">
<feFlood flood-opacity="0" result="BackgroundImageFix"/>
<feColorMatrix in="SourceAlpha" type="matrix" values="0 0 0 0 0 0 0 0 0 0 0 0 0 0 0 0 0 0 127 0" result="hardAlpha"/>
<feOffset dy="4"/>
<feGaussianBlur stdDeviation="2"/>
<feComposite in2="hardAlpha" operator="out"/>
<feColorMatrix type="matrix" values="0 0 0 0 0 0 0 0 0 0 0 0 0 0 0 0 0 0 0.25 0"/>
<feBlend mode="normal" in2="BackgroundImageFix" result="effect1_dropShadow_0_1"/>
<feBlend mode="normal" in="SourceGraphic" in2="effect1_dropShadow_0_1" result="shape"/>
</filter>
<filter id="filter1_d_0_1" x="-3.06863" y="-3.15977" width="464.336" height="95.954" filterUnits="userSpaceOnUse" color-interpolation-filters="sRGB">
<feFlood flood-opacity="0" result="BackgroundImageFix"/>
<feColorMatrix in="SourceAlpha" type="matrix" values="0 0 0 0 0 0 0 0 0 0 0 0 0 0 0 0 0 0 127 0" result="hardAlpha"/>
<feOffset dy="4"/>
<feGaussianBlur stdDeviation="2"/>
<feComposite in2="hardAlpha" operator="out"/>
<feColorMatrix type="matrix" values="0 0 0 0 0 0 0 0 0 0 0 0 0 0 0 0 0 0 0.25 0"/>
<feBlend mode="normal" in2="BackgroundImageFix" result="effect1_dropShadow_0_1"/>
<feBlend mode="normal" in="SourceGraphic" in2="effect1_dropShadow_0_1" result="shape"/>
</filter>
</defs>
</svg>
